<svg width="172" height="154" viewBox="0 0 172 154" fill="none" xmlns="http://www.w3.org/2000/svg">
<g clip-path="url(#clip0_424_574)">
<path d="M170 58.7024C169.939 58.7025 169.879 58.6837 169.829 58.6487L86.8609 0.867625C86.6084 0.692605 86.3084 0.599071 86.0012 0.599595C85.694 0.600119 85.3943 0.694675 85.1424 0.870555L2.77235 58.6481C2.7072 58.6938 2.62656 58.7117 2.54818 58.698C2.4698 58.6842 2.40009 58.6399 2.35439 58.5747C2.3087 58.5096 2.29075 58.429 2.30451 58.3506C2.31826 58.2722 2.36259 58.2025 2.42774 58.1568L84.7978 0.379246C85.1505 0.133051 85.5701 0.000709686 86.0002 2.84627e-06C86.4303 -0.000703994 86.8503 0.130257 87.2038 0.375291L170.171 58.1562C170.224 58.1927 170.263 58.245 170.284 58.3055C170.305 58.3659 170.305 58.4314 170.286 58.4923C170.267 58.5533 170.229 58.6065 170.177 58.6443C170.126 58.6821 170.064 58.7025 170 58.7024Z" fill="#245957"/>
<path d="M7.47925 60.7506L86.0828 2.49567L165.283 64.8957L90.1328 109.446L49.3328 100.146L7.47925 60.7506Z" fill="#E6E6E6"/>
<path d="M52.7767 136.962H13.9446C13.7062 136.963 13.47 136.916 13.2496 136.825C13.0292 136.734 12.829 136.6 12.6602 136.432C12.4915 136.263 12.3577 136.063 12.2664 135.843C12.1751 135.623 12.1281 135.387 12.1281 135.148C12.1281 134.91 12.1751 134.674 12.2664 134.453C12.3577 134.233 12.4915 134.033 12.6602 133.864C12.829 133.696 13.0292 133.562 13.2496 133.471C13.47 133.38 13.7062 133.334 13.9446 133.334H52.7767C53.0151 133.334 53.2513 133.38 53.4717 133.471C53.6921 133.562 53.8923 133.696 54.061 133.864C54.2297 134.033 54.3636 134.233 54.4549 134.453C54.5462 134.674 54.5932 134.91 54.5932 135.148C54.5932 135.387 54.5462 135.623 54.4549 135.843C54.3636 136.063 54.2297 136.263 54.061 136.432C53.8923 136.6 53.6921 136.734 53.4717 136.825C53.2513 136.916 53.0151 136.963 52.7767 136.962Z" fill="#53B175"/>
<path d="M27.8767 129.162H13.9446C13.7062 129.163 13.47 129.116 13.2496 129.025C13.0292 128.934 12.829 128.8 12.6602 128.632C12.4915 128.463 12.3577 128.263 12.2664 128.043C12.1751 127.823 12.1281 127.587 12.1281 127.348C12.1281 127.11 12.1751 126.874 12.2664 126.653C12.3577 126.433 12.4915 126.233 12.6602 126.064C12.829 125.896 13.0292 125.762 13.2496 125.671C13.47 125.58 13.7062 125.534 13.9446 125.534H27.8767C28.1151 125.534 28.3513 125.58 28.5717 125.671C28.7921 125.762 28.9923 125.896 29.161 126.064C29.3297 126.233 29.4636 126.433 29.5549 126.653C29.6462 126.874 29.6932 127.11 29.6932 127.348C29.6932 127.587 29.6462 127.823 29.5549 128.043C29.4636 128.263 29.3297 128.463 29.161 128.632C28.9923 128.8 28.7921 128.934 28.5717 129.025C28.3513 129.116 28.1151 129.163 27.8767 129.162Z" fill="#53B175"/>
<path d="M87.188 93.1979C86.8928 93.1982 86.6004 93.1409 86.3272 93.0293L37.85 72.9146V9.95242C37.8506 9.39566 38.0721 8.8619 38.4658 8.46821C38.8594 8.07452 39.3932 7.85307 39.95 7.85242H132.95C133.507 7.85307 134.04 8.07452 134.434 8.46821C134.828 8.8619 135.049 9.39566 135.05 9.95242V72.9586L134.959 72.9975L88.0748 93.0194C87.794 93.1374 87.4925 93.1981 87.188 93.1979Z" fill="white"/>
<path d="M87.188 93.3477C86.8733 93.3481 86.5615 93.2871 86.2701 93.1681L37.7 73.0148V9.95239C37.7007 9.35586 37.938 8.78396 38.3598 8.36215C38.7816 7.94034 39.3535 7.70307 39.95 7.70239H132.95C133.547 7.70307 134.118 7.94034 134.54 8.36215C134.962 8.78396 135.199 9.35586 135.2 9.95239V73.0576L88.1337 93.1573C87.8343 93.2832 87.5128 93.348 87.188 93.3477ZM38.3 72.614L86.4989 92.6134C86.9485 92.7958 87.452 92.7928 87.8993 92.605L134.6 72.6615V9.95239C134.599 9.51494 134.425 9.09556 134.116 8.78624C133.807 8.47692 133.387 8.30291 132.95 8.30239H39.95C39.5126 8.30291 39.0932 8.47692 38.7839 8.78624C38.4745 9.09556 38.3005 9.51494 38.3 9.95239L38.3 72.614Z" fill="#245957"/>
<path d="M169.4 58.1024H169.34L134.9 72.8084L87.7791 92.9294C87.5949 93.0069 87.3974 93.0473 87.1976 93.0483C86.9979 93.0493 86.7999 93.011 86.6149 92.9354L38 72.7664L2.71396 58.1264L2.66006 58.1024H2.6C2.04324 58.103 1.50945 58.3245 1.11576 58.7182C0.722064 59.1119 0.500618 59.6457 0.5 60.2024V151.402C0.500619 151.959 0.722064 152.493 1.11576 152.887C1.50945 153.28 2.04324 153.502 2.6 153.502H169.4C169.957 153.502 170.491 153.28 170.884 152.887C171.278 152.493 171.499 151.959 171.5 151.402V60.2024C171.499 59.6457 171.278 59.1119 170.884 58.7182C170.491 58.3245 169.957 58.103 169.4 58.1024ZM170.9 151.402C170.9 151.8 170.742 152.182 170.46 152.463C170.179 152.744 169.798 152.902 169.4 152.902H2.6C2.20222 152.902 1.82079 152.744 1.53952 152.463C1.25825 152.182 1.10016 151.8 1.1 151.402V60.2024C1.10054 59.8145 1.25101 59.4418 1.51993 59.1623C1.78886 58.8828 2.15543 58.718 2.54302 58.7024L38 73.4144L86.3841 93.4904C86.9078 93.7035 87.4947 93.7003 88.0161 93.4814L134.9 73.4594L169.46 58.7024C169.847 58.7191 170.213 58.8844 170.481 59.1637C170.749 59.4431 170.899 59.8151 170.9 60.2024V151.402Z" fill="#245957"/>
<path d="M86.7104 72.8441V72.844L86.6988 72.8441C85.4521 72.8464 84.2385 72.4435 83.2407 71.696C83.2407 71.696 83.2406 71.6959 83.2405 71.6958C83.2401 71.6955 83.2397 71.6952 83.2393 71.6949L83.1616 71.6366L64.4781 57.3319C63.873 56.8682 63.3651 56.2899 62.9835 55.63C62.6019 54.9701 62.354 54.2415 62.2539 53.4857C62.1539 52.73 62.2037 51.962 62.4005 51.2255C62.5973 50.489 62.9372 49.7984 63.4008 49.1933L61.4164 47.6728L63.4008 49.1933C63.8645 48.5882 64.4428 48.0803 65.1027 47.6987C65.7626 47.3171 66.4912 47.0692 67.247 46.9691C68.0027 46.8691 68.7707 46.9189 69.5072 47.1157C70.2437 47.3125 70.9342 47.6524 71.5394 48.116L83.6467 57.3998L85.6306 58.921L87.1519 56.9371L115.765 19.6211L115.765 19.621C116.229 19.0161 116.808 18.5084 117.468 18.127C118.128 17.7456 118.856 17.498 119.612 17.3982C120.368 17.2984 121.136 17.3485 121.872 17.5456C122.609 17.7426 123.299 18.0828 123.904 18.5467L125.228 16.82L125.232 16.8233L123.906 18.5485C125.127 19.4868 125.926 20.8711 126.128 22.3977C126.329 23.9242 125.917 25.4684 124.981 26.6914L91.3296 70.5782C91.329 70.579 91.3284 70.5797 91.3279 70.5804C90.7839 71.2865 90.0848 71.8579 89.2846 72.2505C88.4835 72.6434 87.6027 72.8465 86.7104 72.8441Z" fill="#53B175" stroke="white" stroke-width="5"/>
</g>
<defs>
<clipPath id="clip0_424_574">
<rect width="171" height="153.502" fill="white" transform="translate(0.5)"/>
</clipPath>
</defs>
</svg>
