<svg width="40" height="40" viewBox="0 0 40 40" fill="none" xmlns="http://www.w3.org/2000/svg">
<path d="M30.2526 34.4927C28.5039 34.5306 26.8115 33.8738 25.5461 32.6662C24.2808 31.4586 23.5457 29.7986 23.502 28.0501C23.5288 26.8149 23.9004 25.6117 24.5747 24.5765L29.013 17.9694C29.1496 17.7662 29.3342 17.5996 29.5503 17.4844C29.7665 17.3693 30.0077 17.3091 30.2526 17.3091C30.4976 17.3091 30.7388 17.3693 30.9549 17.4844C31.1711 17.5996 31.3557 17.7662 31.4923 17.9694L35.8496 24.4464C36.5698 25.5131 36.9701 26.7634 37.0033 28.0501C36.9596 29.7986 36.2245 31.4586 34.9591 32.6662C33.6938 33.8738 32.0013 34.5306 30.2526 34.4927ZM30.2526 20.5249L26.649 25.8849C26.22 26.5275 25.9801 27.2777 25.9567 28.0501C26.0387 29.1333 26.5268 30.1456 27.3235 30.8842C28.1201 31.6228 29.1663 32.0332 30.2526 32.0332C31.339 32.0332 32.3852 31.6228 33.1818 30.8842C33.9784 30.1456 34.4666 29.1333 34.5485 28.0501C34.5197 27.2271 34.251 26.4306 33.7753 25.7585L30.2526 20.5249Z" fill="#53B175"/>
<path d="M6.31919 17.3091C6.99707 17.3091 7.54659 16.7596 7.54659 16.0817C7.54659 15.4038 6.99707 14.8543 6.31919 14.8543C5.64132 14.8543 5.0918 15.4038 5.0918 16.0817C5.0918 16.7596 5.64132 17.3091 6.31919 17.3091Z" fill="#53B175"/>
<path d="M13.6825 24.6735C14.3603 24.6735 14.9099 24.124 14.9099 23.4461C14.9099 22.7682 14.3603 22.2187 13.6825 22.2187C13.0046 22.2187 12.4551 22.7682 12.4551 23.4461C12.4551 24.124 13.0046 24.6735 13.6825 24.6735Z" fill="#53B175"/>
<path d="M18.5926 32.0379C19.2705 32.0379 19.82 31.4883 19.82 30.8105C19.82 30.1326 19.2705 29.5831 18.5926 29.5831C17.9148 29.5831 17.3652 30.1326 17.3652 30.8105C17.3652 31.4883 17.9148 32.0379 18.5926 32.0379Z" fill="#53B175"/>
<path d="M21.0477 19.7639C21.7256 19.7639 22.2751 19.2144 22.2751 18.5365C22.2751 17.8586 21.7256 17.3091 21.0477 17.3091C20.3698 17.3091 19.8203 17.8586 19.8203 18.5365C19.8203 19.2144 20.3698 19.7639 21.0477 19.7639Z" fill="#53B175"/>
<path d="M16.1376 14.8543C16.8154 14.8543 17.365 14.3048 17.365 13.6269C17.365 12.9491 16.8154 12.3995 16.1376 12.3995C15.4597 12.3995 14.9102 12.9491 14.9102 13.6269C14.9102 14.3048 15.4597 14.8543 16.1376 14.8543Z" fill="#53B175"/>
<path d="M33.3211 14.8543C33.999 14.8543 34.5485 14.3048 34.5485 13.6269C34.5485 12.9491 33.999 12.3995 33.3211 12.3995C32.6433 12.3995 32.0938 12.9491 32.0938 13.6269C32.0938 14.3048 32.6433 14.8543 33.3211 14.8543Z" fill="#53B175"/>
<path d="M11.2274 34.4927C11.9053 34.4927 12.4548 33.9431 12.4548 33.2653C12.4548 32.5874 11.9053 32.0379 11.2274 32.0379C10.5495 32.0379 10 32.5874 10 33.2653C10 33.9431 10.5495 34.4927 11.2274 34.4927Z" fill="#53B175"/>
<path d="M3.86412 27.1283C4.54199 27.1283 5.09151 26.5788 5.09151 25.9009C5.09151 25.223 4.54199 24.6735 3.86412 24.6735C3.18624 24.6735 2.63672 25.223 2.63672 25.9009C2.63672 26.5788 3.18624 27.1283 3.86412 27.1283Z" fill="#53B175"/>
<path d="M2.63672 8.71733C2.63672 8.03945 3.18624 7.48993 3.86412 7.48993H35.7764C36.4543 7.48993 37.0038 8.03945 37.0038 8.71733C37.0038 9.3952 36.4543 9.94472 35.7764 9.94472H3.86412C3.18625 9.94472 2.63672 9.3952 2.63672 8.71733Z" fill="#53B175"/>
</svg>
