<svg width="241" height="303" viewBox="0 0 241 303" fill="none" xmlns="http://www.w3.org/2000/svg">
<path d="M-14.6993 8.43615C-11.9529 12.2969 -7.83512 14.9624 -3.18835 15.8874L159.978 48.3669L214.223 57.8647C230.999 60.8021 242.416 76.5238 240.017 93.3853L221.452 223.888L210.367 277.371C207.04 293.424 191.971 304.254 175.694 302.29L60.8185 288.429L2.13231 284.161C-17.7161 282.718 -31.2871 263.483 -25.9921 244.3L-12.0356 193.736C-8.97323 182.641 -12.1955 170.76 -20.4436 162.732L-81.7541 103.062C-93.1422 91.9785 -94.5097 74.1551 -84.9457 61.4642L-44.6727 8.02399C-37.1122 -2.00847 -21.9811 -1.8004 -14.6993 8.43615Z" fill="#53B175"/>
</svg>
