<svg width="305" height="321" viewBox="0 0 305 321" fill="none" xmlns="http://www.w3.org/2000/svg">
<path fill-rule="evenodd" clip-rule="evenodd" d="M120.827 59.2771L178.166 58.3815C187.786 58.2312 195.706 65.9078 195.856 75.5277L198.485 243.8C198.635 253.42 190.959 261.341 181.339 261.491L124 262.386C114.38 262.537 106.46 254.86 106.309 245.24L103.681 76.9675C103.53 67.3477 111.207 59.4274 120.827 59.2771ZM94.3017 77.114C94.0705 62.3143 105.881 50.1293 120.68 49.8981L178.019 49.0024C192.819 48.7712 205.004 60.5814 205.235 75.3811L205.781 110.333C207.291 110.781 208.403 112.167 208.428 113.825L208.746 134.156C208.772 135.813 207.704 137.234 206.209 137.728L207.864 243.654C208.095 258.454 196.285 270.639 181.485 270.87L124.146 271.766C109.346 271.997 97.1614 260.187 96.9303 245.387L94.3017 77.114Z" fill="#245957"/>
<path d="M205.877 187.338C206.688 188.742 204.141 191.602 204.614 193.135C205.082 194.656 206.346 195.338 206.495 196.963C206.641 198.628 205.822 201.407 205.682 203.072C205.548 204.63 205.666 205.028 205.285 206.636C204.869 208.137 204.362 209.611 203.766 211.05C203.224 212.518 204.119 214.19 203.394 215.673C202.705 217.082 202.247 219.111 201.4 220.522C200.59 221.869 203.654 223.408 202.705 224.747C201.793 226.033 207.109 237.295 206.074 238.564C205.076 239.788 207.056 240.184 205.947 241.385C204.874 242.548 205.829 240.018 204.656 241.152C203.517 242.254 205.571 242.545 204.342 243.613C203.144 244.655 204.73 244.571 203.45 245.575C202.199 246.555 200.278 256.631 198.952 257.571C197.654 258.491 197.646 259.83 196.278 260.705C194.937 261.564 193.029 264.606 191.624 265.417C190.219 266.228 180.612 265.641 179.198 266.373C177.756 267.12 170.189 264.948 168.743 265.612C167.266 266.291 163.941 264.917 162.466 265.51C160.957 266.117 157.452 264.468 155.952 264.985C154.411 265.516 148.091 266.36 146.567 266.796C144.998 267.244 142.812 265.338 141.268 265.686C139.673 266.045 137.372 266.398 135.813 266.65C133.935 271.274 134.196 266.912 135.813 266.65C133.257 272.945 127.906 268.947 126.334 268.974C124.689 269.003 124.932 268.781 123.367 268.673C121.721 268.559 120.292 267.7 118.749 267.435C117.12 267.155 114.483 264.414 112.986 263.965C111.402 263.491 110.469 260.302 109.052 259.639C107.56 258.941 105.528 259.508 104.244 258.601C102.912 257.659 102.345 254.602 101.262 253.436C100.136 252.216 99.1461 250.877 98.3103 249.442C97.4997 248.038 98.9958 245.743 98.5235 244.21C98.0549 242.69 95.3838 241.659 95.235 240.034C95.0916 238.469 93.9216 236.611 94.0632 234.969C94.1976 233.411 95.8815 231.859 96.2626 230.25C96.6228 228.73 98.1263 227.495 98.6984 225.945C99.2402 224.476 97.5983 221.939 98.3227 220.457C99.0116 219.048 100.385 217.793 101.233 216.383C102.043 215.035 103.793 214.173 104.742 212.833C105.653 211.548 108.244 211.549 109.279 210.279C110.277 209.055 110.701 207.395 111.81 206.193C112.883 205.031 111.705 201.57 112.878 200.435C114.017 199.333 115.974 198.94 117.204 197.872C118.402 196.831 121.632 198.233 122.913 197.229C124.163 196.248 123.294 192.388 124.62 191.449C125.918 190.529 128.443 191.33 129.811 190.455C131.152 189.596 133.109 189.79 134.514 188.979C135.919 188.167 136.532 185.997 137.946 185.265C139.389 184.518 141.667 185.603 143.113 184.939C144.59 184.26 144.729 180.528 146.204 179.935C147.714 179.328 150.014 180.823 151.515 180.306C153.055 179.775 154.032 177.459 155.556 177.023C157.125 176.575 159.249 178.349 160.793 178C162.387 177.641 164.137 178.747 165.696 178.495C167.313 178.233 168.415 174.454 169.984 174.307C171.619 174.155 173.328 174.537 174.9 174.51C176.546 174.481 178.327 172.989 179.892 173.098C181.538 173.211 183.066 175.185 184.609 175.45C186.238 175.73 188.212 174.958 189.709 175.406C191.292 175.881 192.506 177.668 193.923 178.331C195.415 179.029 196.325 180.664 197.608 181.571C198.941 182.512 201.081 182.57 202.163 183.736C203.254 184.911 205.067 185.934 205.877 187.338Z" fill="#245957"/>
</svg>
