<svg width="305" height="320" viewBox="0 0 305 320" fill="none" xmlns="http://www.w3.org/2000/svg">
<path fill-rule="evenodd" clip-rule="evenodd" d="M120.505 58.8491L177.844 57.9534C187.464 57.8031 195.384 65.4798 195.534 75.0996L198.163 243.372C198.313 252.992 190.637 260.912 181.017 261.063L123.678 261.958C114.058 262.109 106.138 254.432 105.987 244.812L103.359 76.5395C103.208 66.9196 110.885 58.9994 120.505 58.8491ZM93.9796 76.686C93.7485 61.8862 105.559 49.7012 120.358 49.47L177.697 48.5743C192.497 48.3431 204.682 60.1533 204.913 74.9531L205.459 109.905C206.969 110.353 208.081 111.739 208.106 113.397L208.424 133.728C208.45 135.385 207.382 136.805 205.887 137.3L207.542 243.226C207.773 258.026 195.963 270.211 181.163 270.442L123.824 271.338C109.024 271.569 96.8394 259.759 96.6082 244.959L93.9796 76.686Z" fill="#245957"/>
<path d="M205.555 186.91C206.366 188.314 203.819 191.174 204.291 192.707C204.76 194.228 206.024 194.91 206.173 196.535C206.319 198.2 205.5 200.979 205.36 202.644C205.226 204.202 205.344 204.6 204.963 206.208C204.547 207.709 204.04 209.183 203.444 210.622C202.902 212.09 203.797 213.762 203.072 215.245C202.383 216.654 201.925 218.683 201.078 220.094C200.268 221.441 203.332 222.98 202.382 224.319C201.471 225.605 206.787 236.867 205.752 238.136C204.754 239.36 206.734 239.756 205.625 240.957C204.552 242.12 205.507 239.59 204.334 240.724C203.195 241.826 205.249 242.117 204.02 243.185C202.822 244.227 204.408 244.143 203.128 245.147C201.877 246.127 199.956 256.203 198.63 257.143C197.332 258.063 197.324 259.402 195.956 260.277C194.615 261.136 192.707 264.178 191.302 264.989C189.897 265.8 180.29 265.213 178.876 265.945C177.434 266.692 169.867 264.52 168.421 265.184C166.944 265.863 163.619 264.489 162.144 265.082C160.635 265.689 157.13 264.04 155.63 264.557C154.089 265.088 147.769 265.932 146.245 266.368C144.676 266.816 142.49 264.909 140.946 265.258C139.351 265.617 137.05 265.97 135.491 266.222C133.613 270.846 133.874 266.484 135.491 266.222C132.935 272.517 127.584 268.519 126.012 268.546C124.367 268.575 124.61 268.353 123.045 268.245C121.399 268.131 119.97 267.272 118.427 267.007C116.798 266.727 114.161 263.986 112.664 263.537C111.08 263.063 110.147 259.874 108.73 259.211C107.238 258.513 105.206 259.08 103.922 258.173C102.59 257.231 102.023 254.174 100.94 253.008C99.814 251.788 98.8241 250.449 97.9883 249.014C97.1777 247.61 98.6738 245.315 98.2014 243.782C97.7329 242.261 95.0618 241.231 94.913 239.606C94.7696 238.041 93.5995 236.183 93.7411 234.541C93.8756 232.983 95.5595 231.431 95.9405 229.822C96.3008 228.302 97.8043 227.067 98.3763 225.517C98.9182 224.048 97.2762 221.511 98.0007 220.029C98.6896 218.62 100.063 217.365 100.911 215.955C101.721 214.607 103.471 213.745 104.42 212.405C105.331 211.12 107.922 211.121 108.957 209.851C109.955 208.627 110.379 206.966 111.488 205.765C112.561 204.602 111.383 201.141 112.556 200.007C113.695 198.905 115.652 198.512 116.882 197.444C118.08 196.403 121.31 197.805 122.591 196.801C123.841 195.82 122.972 191.96 124.298 191.021C125.596 190.101 128.121 190.902 129.489 190.026C130.83 189.168 132.787 189.362 134.192 188.551C135.597 187.739 136.21 185.569 137.624 184.836C139.067 184.09 141.345 185.175 142.791 184.511C144.268 183.832 144.407 180.1 145.882 179.507C147.392 178.9 149.692 180.395 151.193 179.878C152.733 179.347 153.71 177.031 155.234 176.595C156.803 176.146 158.927 177.92 160.471 177.572C162.065 177.213 163.815 178.319 165.374 178.067C166.991 177.805 168.093 174.026 169.662 173.879C171.297 173.727 173.006 174.109 174.578 174.082C176.224 174.053 178.005 172.561 179.57 172.67C181.216 172.783 182.744 174.757 184.287 175.022C185.916 175.302 187.89 174.53 189.387 174.978C190.97 175.453 192.184 177.24 193.601 177.903C195.093 178.601 196.003 180.236 197.286 181.143C198.619 182.084 200.758 182.142 201.841 183.308C202.932 184.483 204.745 185.506 205.555 186.91Z" fill="#245957"/>
<path d="M74.3981 128.862C72.6993 129.975 71.3442 131.539 70.4846 133.379C69.625 135.219 69.2951 137.262 69.5316 139.279C70.3389 145.39 76.3116 149.667 82.3326 150.987C88.3536 152.307 94.6073 151.438 100.771 151.482C109.05 151.542 117.515 153.373 124.344 158.055C131.172 162.737 136.127 170.559 136.058 178.838C135.994 186.522 131.838 193.498 127.812 200.044" stroke="#263238" stroke-width="1.34003" stroke-miterlimit="10"/>
<path d="M73.5141 89.2751C71.8153 90.3881 70.4601 91.9524 69.6006 93.7924C68.741 95.6325 68.411 97.6756 68.6476 99.6927C69.4548 105.804 75.4276 110.081 81.4486 111.401C87.4696 112.72 93.7233 111.851 99.887 111.896C108.166 111.956 116.631 113.787 123.46 118.469C130.288 123.15 135.243 130.973 135.174 139.251C135.11 146.936 130.954 153.912 126.928 160.457" stroke="#263238" stroke-width="1.34003" stroke-miterlimit="10"/>
<path d="M131.686 64.9114C129.661 64.7515 127.632 65.1588 125.826 66.0876C124.02 67.0164 122.508 68.4299 121.461 70.1697C118.358 75.4959 120.462 82.5343 124.415 87.2637C128.368 91.9932 133.846 95.1342 138.692 98.9428C145.202 104.058 150.775 110.689 153.308 118.571C155.841 126.453 154.97 135.671 149.847 142.175C145.093 148.212 137.536 151.184 130.345 153.895" stroke="#263238" stroke-width="1.34003" stroke-miterlimit="10"/>
<path d="M119.835 154.645C125.295 151.493 128.48 146.787 126.949 144.135C125.418 141.482 119.75 141.888 114.29 145.041C108.829 148.193 105.644 152.899 107.175 155.551C108.706 158.203 114.374 157.798 119.835 154.645Z" fill="#F0F0F0"/>
<path d="M118.123 154.535C123.583 151.382 126.769 146.676 125.237 144.024C123.706 141.372 118.038 141.778 112.578 144.93C107.117 148.083 103.932 152.788 105.463 155.441C106.995 158.093 112.663 157.687 118.123 154.535Z" stroke="#245957" stroke-width="1.34003" stroke-miterlimit="10"/>
<path d="M138.878 138.158C144.338 135.005 147.524 130.299 145.992 127.647C144.461 124.995 138.793 125.401 133.333 128.553C127.872 131.706 124.687 136.412 126.218 139.064C127.75 141.716 133.417 141.31 138.878 138.158Z" fill="#F0F0F0"/>
<path d="M137.166 138.047C142.627 134.895 145.812 130.189 144.281 127.537C142.75 124.885 137.082 125.29 131.621 128.443C126.161 131.595 122.976 136.301 124.507 138.953C126.038 141.606 131.706 141.2 137.166 138.047Z" stroke="#245957" stroke-width="1.34003" stroke-miterlimit="10"/>
<path d="M152.639 154.381C158.099 151.228 161.284 146.523 159.753 143.871C158.222 141.218 152.554 141.624 147.093 144.777C141.633 147.929 138.448 152.635 139.979 155.287C141.51 157.939 147.178 157.534 152.639 154.381Z" fill="#F0F0F0"/>
<path d="M150.927 154.271C156.387 151.118 159.573 146.412 158.041 143.76C156.51 141.108 150.842 141.514 145.382 144.666C139.921 147.819 136.736 152.524 138.267 155.177C139.799 157.829 145.467 157.423 150.927 154.271Z" stroke="#245957" stroke-width="1.34003" stroke-miterlimit="10"/>
<path d="M124.416 110.255C129.876 107.103 133.062 102.397 131.53 99.7446C129.999 97.0924 124.331 97.498 118.871 100.651C113.41 103.803 110.225 108.509 111.756 111.161C113.288 113.813 118.956 113.408 124.416 110.255Z" fill="#F0F0F0"/>
<path d="M122.705 110.145C128.165 106.992 131.35 102.286 129.819 99.6342C128.288 96.982 122.62 97.3877 117.159 100.54C111.699 103.693 108.514 108.398 110.045 111.051C111.576 113.703 117.244 113.297 122.705 110.145Z" stroke="#245957" stroke-width="1.34003" stroke-miterlimit="10"/>
<path d="M98.0339 121.642C103.494 118.489 106.68 113.784 105.148 111.132C103.617 108.479 97.9492 108.885 92.4888 112.038C87.0284 115.19 83.8431 119.896 85.3744 122.548C86.9056 125.2 92.5735 124.795 98.0339 121.642Z" fill="#F0F0F0"/>
<path d="M96.3222 121.532C101.783 118.379 104.968 113.673 103.437 111.021C101.905 108.369 96.2375 108.775 90.7771 111.927C85.3167 115.08 82.1315 119.785 83.6627 122.438C85.194 125.09 90.8618 124.684 96.3222 121.532Z" stroke="#245957" stroke-width="1.34003" stroke-miterlimit="10"/>
<path d="M103.21 104.921C108.671 101.769 111.856 97.0631 110.325 94.4109C108.794 91.7587 103.126 92.1643 97.6653 95.3169C92.2049 98.4694 89.0196 103.175 90.5509 105.827C92.0821 108.48 97.75 108.074 103.21 104.921Z" fill="#F0F0F0"/>
<path d="M101.499 104.811C106.959 101.658 110.145 96.9527 108.613 94.3005C107.082 91.6483 101.414 92.0539 95.9538 95.2065C90.4934 98.3591 87.3082 103.065 88.8395 105.717C90.3707 108.369 96.0386 107.964 101.499 104.811Z" stroke="#245957" stroke-width="1.34003" stroke-miterlimit="10"/>
<path d="M128.705 92.9483C134.166 89.7958 137.351 85.0901 135.82 82.4379C134.288 79.7857 128.621 80.1913 123.16 83.3439C117.7 86.4964 114.515 91.2021 116.046 93.8543C117.577 96.5065 123.245 96.1009 128.705 92.9483Z" fill="#F0F0F0"/>
<path d="M126.994 92.838C132.454 89.6854 135.639 84.9797 134.108 82.3275C132.577 79.6753 126.909 80.0809 121.448 83.2335C115.988 86.3861 112.803 91.0918 114.334 93.744C115.865 96.3962 121.533 95.9905 126.994 92.838Z" stroke="#245957" stroke-width="1.34003" stroke-miterlimit="10"/>
<path d="M154.68 96.0778C160.141 92.9253 163.326 88.2196 161.795 85.5674C160.263 82.9152 154.595 83.3208 149.135 86.4734C143.675 89.6259 140.489 94.3316 142.021 96.9838C143.552 99.636 149.22 99.2304 154.68 96.0778Z" fill="#F0F0F0"/>
<path d="M152.968 95.9675C158.429 92.8149 161.614 88.1092 160.083 85.457C158.552 82.8048 152.884 83.2104 147.423 86.363C141.963 89.5156 138.778 94.2213 140.309 96.8735C141.84 99.5257 147.508 99.12 152.968 95.9675Z" stroke="#245957" stroke-width="1.34003" stroke-miterlimit="10"/>
<path d="M77.0319 109.05C82.4923 105.897 85.6776 101.192 84.1463 98.5395C82.6151 95.8873 76.9472 96.293 71.4868 99.4455C66.0264 102.598 62.8412 107.304 64.3724 109.956C65.9037 112.608 71.5715 112.203 77.0319 109.05Z" fill="#F0F0F0"/>
<path d="M75.3205 108.94C80.7809 105.787 83.9661 101.081 82.4349 98.4291C80.9036 95.7769 75.2358 96.1826 69.7754 99.3351C64.315 102.488 61.1298 107.193 62.661 109.846C64.1922 112.498 69.8601 112.092 75.3205 108.94Z" stroke="#245957" stroke-width="1.34003" stroke-miterlimit="10"/>
<path d="M74.1733 89.8281C79.6337 86.6755 82.8189 81.9698 81.2877 79.3176C79.7564 76.6654 74.0886 77.0711 68.6281 80.2236C63.1677 83.3762 59.9825 88.0819 61.5138 90.7341C63.045 93.3863 68.7129 92.9807 74.1733 89.8281Z" fill="#F0F0F0"/>
<path d="M72.4619 89.7176C77.9223 86.565 81.1075 81.8593 79.5763 79.2071C78.045 76.5549 72.3771 76.9606 66.9167 80.1131C61.4563 83.2657 58.2711 87.9714 59.8024 90.6236C61.3336 93.2758 67.0015 92.8702 72.4619 89.7176Z" stroke="#245957" stroke-width="1.34003" stroke-miterlimit="10"/>
<path d="M138.095 68.3026C143.555 65.15 146.741 60.4444 145.209 57.7922C143.678 55.14 138.01 55.5456 132.55 58.6981C127.089 61.8507 123.904 66.5564 125.435 69.2086C126.967 71.8608 132.635 71.4552 138.095 68.3026Z" fill="#F0F0F0"/>
<path d="M136.383 68.1922C141.844 65.0397 145.029 60.334 143.498 57.6818C141.966 55.0296 136.299 55.4352 130.838 58.5878C125.378 61.7403 122.192 66.446 123.724 69.0982C125.255 71.7504 130.923 71.3448 136.383 68.1922Z" stroke="#245957" stroke-width="1.34003" stroke-miterlimit="10"/>
<path d="M68.9341 158.766C74.3945 155.613 77.5797 150.908 76.0484 148.255C74.5172 145.603 68.8493 146.009 63.3889 149.161C57.9285 152.314 54.7433 157.02 56.2745 159.672C57.8058 162.324 63.4736 161.918 68.9341 158.766Z" fill="#F0F0F0"/>
<path d="M67.2226 158.655C72.683 155.503 75.8682 150.797 74.337 148.145C72.8057 145.493 67.1379 145.898 61.6775 149.051C56.2171 152.204 53.0318 156.909 54.5631 159.561C56.0943 162.214 61.7622 161.808 67.2226 158.655Z" stroke="#245957" stroke-width="1.34003" stroke-miterlimit="10"/>
<path d="M101.699 136.553C107.16 133.401 110.345 128.695 108.814 126.043C107.283 123.391 101.615 123.796 96.1543 126.949C90.6939 130.101 87.5087 134.807 89.0399 137.459C90.5712 140.111 96.239 139.706 101.699 136.553Z" fill="#F0F0F0"/>
<path d="M99.9877 136.443C105.448 133.29 108.633 128.585 107.102 125.932C105.571 123.28 99.903 123.686 94.4426 126.838C88.9822 129.991 85.797 134.697 87.3282 137.349C88.8595 140.001 94.5273 139.595 99.9877 136.443Z" stroke="#245957" stroke-width="1.34003" stroke-miterlimit="10"/>
<path d="M148.743 114.336C154.204 111.183 157.389 106.478 155.858 103.825C154.326 101.173 148.658 101.579 143.198 104.731C137.738 107.884 134.552 112.59 136.084 115.242C137.615 117.894 143.283 117.489 148.743 114.336Z" fill="#F0F0F0"/>
<path d="M147.031 114.226C152.492 111.073 155.677 106.367 154.146 103.715C152.615 101.063 146.947 101.469 141.486 104.621C136.026 107.774 132.841 112.479 134.372 115.132C135.903 117.784 141.571 117.378 147.031 114.226Z" stroke="#245957" stroke-width="1.34003" stroke-miterlimit="10"/>
<path d="M125.801 129.779C131.261 126.626 134.447 121.92 132.915 119.268C131.384 116.616 125.716 117.022 120.256 120.174C114.795 123.327 111.61 128.032 113.141 130.685C114.673 133.337 120.341 132.931 125.801 129.779Z" fill="#53B175"/>
<path d="M124.09 129.668C129.55 126.516 132.735 121.81 131.204 119.158C129.673 116.506 124.005 116.911 118.544 120.064C113.084 123.216 109.899 127.922 111.43 130.574C112.961 133.226 118.629 132.821 124.09 129.668Z" fill="#F0F0F0" stroke="#245957" stroke-width="1.34003" stroke-miterlimit="10"/>
<path d="M103.665 87.6317C109.125 84.4791 112.31 79.7734 110.779 77.1212C109.248 74.469 103.58 74.8746 98.1194 78.0272C92.659 81.1798 89.4737 85.8855 91.005 88.5377C92.5362 91.1899 98.2041 90.7842 103.665 87.6317Z" fill="#F0F0F0"/>
<path d="M101.953 87.5213C107.413 84.3687 110.599 79.663 109.067 77.0108C107.536 74.3586 101.868 74.7643 96.4079 77.9168C90.9475 81.0694 87.7623 85.7751 89.2936 88.4273C90.8248 91.0795 96.4927 90.6739 101.953 87.5213Z" stroke="#245957" stroke-width="1.34003" stroke-miterlimit="10"/>
<path d="M75.9792 137.671C81.4396 134.518 84.6248 129.813 83.0936 127.16C81.5623 124.508 75.8945 124.914 70.4341 128.066C64.9737 131.219 61.7884 135.925 63.3197 138.577C64.8509 141.229 70.5188 140.823 75.9792 137.671Z" fill="#F0F0F0"/>
<path d="M74.2678 137.56C79.7282 134.408 82.9134 129.702 81.3822 127.05C79.8509 124.398 74.183 124.803 68.7226 127.956C63.2622 131.108 60.077 135.814 61.6083 138.466C63.1395 141.119 68.8074 140.713 74.2678 137.56Z" stroke="#245957" stroke-width="1.34003" stroke-miterlimit="10"/>
<path d="M92.4497 152.879C97.9101 149.726 101.095 145.021 99.564 142.369C98.0328 139.716 92.3649 140.122 86.9045 143.275C81.4441 146.427 78.2589 151.133 79.7901 153.785C81.3214 156.437 86.9893 156.032 92.4497 152.879Z" fill="#F0F0F0"/>
<path d="M90.738 152.769C96.1984 149.616 99.3836 144.91 97.8524 142.258C96.3211 139.606 90.6533 140.012 85.1928 143.164C79.7324 146.317 76.5472 151.022 78.0785 153.675C79.6097 156.327 85.2776 155.921 90.738 152.769Z" stroke="#245957" stroke-width="1.34003" stroke-miterlimit="10"/>
<g opacity="0.3">
<path d="M108.838 180.734C108.792 177.431 107.595 174.77 106.165 174.79C104.735 174.809 103.612 177.503 103.658 180.806C103.705 184.109 104.901 186.77 106.332 186.75C107.762 186.73 108.884 184.037 108.838 180.734Z" fill="#57B894"/>
<path d="M108.404 181.488C108.358 178.185 107.161 175.523 105.731 175.543C104.301 175.563 103.178 178.257 103.224 181.56C103.271 184.863 104.467 187.524 105.898 187.504C107.328 187.484 108.45 184.79 108.404 181.488Z" stroke="#3F3D56" stroke-width="1.34003" stroke-miterlimit="10"/>
</g>
<g opacity="0.3">
<path d="M167.285 162.951C167.578 161.551 165.195 159.867 161.962 159.19C158.729 158.513 155.87 159.099 155.577 160.499C155.284 161.899 157.667 163.583 160.9 164.26C164.133 164.937 166.992 164.351 167.285 162.951Z" fill="#57B894"/>
<path d="M166.644 162.363C166.938 160.963 164.554 159.279 161.321 158.602C158.088 157.924 155.23 158.511 154.936 159.911C154.643 161.311 157.026 162.995 160.26 163.672C163.493 164.349 166.351 163.763 166.644 162.363Z" stroke="#3F3D56" stroke-width="1.34003" stroke-miterlimit="10"/>
</g>
<g opacity="0.3">
<path d="M106.162 163.636C106.455 162.236 104.072 160.552 100.839 159.875C97.6058 159.198 94.7472 159.784 94.454 161.184C94.1608 162.584 96.544 164.268 99.7771 164.945C103.01 165.622 105.869 165.036 106.162 163.636Z" fill="#57B894"/>
<path d="M105.521 163.048C105.815 161.648 103.431 159.964 100.198 159.287C96.9652 158.61 94.1066 159.196 93.8134 160.596C93.5202 161.996 95.9034 163.68 99.1365 164.357C102.37 165.034 105.228 164.448 105.521 163.048Z" stroke="#3F3D56" stroke-width="1.34003" stroke-miterlimit="10"/>
</g>
<path d="M123.086 211.105L121.601 209.53L121.916 206.785L123.401 208.36L123.086 211.105ZM122.141 211.375V209.35H125.921V211.375H122.141ZM125.831 211.375C125.381 209.305 125.396 207.64 125.876 206.38C126.356 205.09 127.436 204.445 129.116 204.445C130.226 204.445 131.066 204.745 131.636 205.345C132.236 205.915 132.596 206.725 132.716 207.775C132.836 208.795 132.746 209.995 132.446 211.375L130.421 210.97C130.811 209.26 130.886 208.09 130.646 207.46C130.406 206.8 129.896 206.47 129.116 206.47C128.336 206.47 127.826 206.8 127.586 207.46C127.376 208.09 127.451 209.245 127.811 210.925L125.831 211.375ZM122.411 211.375V209.35H132.446V211.375H122.411ZM126.96 247.54C124.41 247.54 122.31 247.135 120.66 246.325C119.01 245.515 117.78 244.285 116.97 242.635C116.19 240.985 115.8 238.9 115.8 236.38C115.8 233.86 116.19 231.76 116.97 230.08C117.78 228.37 119.01 227.095 120.66 226.255C122.31 225.385 124.41 224.95 126.96 224.95H137.13V244.705H131.1V228.865L132.585 230.17H126.96C125.73 230.17 124.74 230.32 123.99 230.62C123.24 230.89 122.685 231.475 122.325 232.375C121.995 233.245 121.83 234.58 121.83 236.38C121.83 238.09 121.98 239.38 122.28 240.25C122.61 241.09 123.15 241.645 123.9 241.915C124.65 242.185 125.67 242.32 126.96 242.32H141.855V247.54H126.96ZM141.855 247.54V242.32C142.035 242.32 142.17 242.38 142.26 242.5C142.38 242.62 142.47 242.8 142.53 243.04C142.62 243.28 142.68 243.565 142.71 243.895C142.74 244.195 142.755 244.54 142.755 244.93C142.755 245.32 142.74 245.68 142.71 246.01C142.68 246.34 142.62 246.625 142.53 246.865C142.47 247.075 142.38 247.24 142.26 247.36C142.17 247.48 142.035 247.54 141.855 247.54ZM120.255 220.81V215.68H126.06V220.81H120.255ZM128.445 220.81V215.68H134.25V220.81H128.445ZM147.024 211.375V209.35H157.014V211.375H147.024ZM155.001 247.54V242.32H160.626V247.54H155.001ZM160.626 247.54V242.32C160.776 242.32 160.911 242.38 161.031 242.5C161.151 242.62 161.241 242.8 161.301 243.04C161.361 243.28 161.406 243.565 161.436 243.895C161.496 244.195 161.526 244.54 161.526 244.93C161.526 245.32 161.496 245.68 161.436 246.01C161.406 246.34 161.361 246.625 161.301 246.865C161.241 247.075 161.151 247.24 161.031 247.36C160.941 247.48 160.806 247.54 160.626 247.54ZM141.861 247.54C141.681 247.54 141.546 247.48 141.456 247.36C141.336 247.24 141.246 247.075 141.186 246.865C141.096 246.625 141.036 246.34 141.006 246.01C140.976 245.68 140.961 245.32 140.961 244.93C140.961 244.39 140.991 243.94 141.051 243.58C141.111 243.19 141.216 242.89 141.366 242.68C141.486 242.44 141.651 242.32 141.861 242.32V247.54ZM141.861 247.54V242.32H152.526L149.016 245.245V224.95H155.001V247.54H141.861ZM145.056 220.81V215.68H150.861V220.81H145.056ZM153.246 220.81V215.68H159.051V220.81H153.246ZM168.384 220.875C167.574 220.875 166.824 220.68 166.134 220.29C165.444 219.9 164.889 219.375 164.469 218.715C164.079 218.025 163.884 217.29 163.884 216.51C163.884 215.67 164.079 214.92 164.469 214.26C164.889 213.6 165.444 213.06 166.134 212.64C166.824 212.22 167.574 212.01 168.384 212.01C169.194 212.01 169.929 212.22 170.589 212.64C171.279 213.03 171.819 213.57 172.209 214.26C172.599 214.92 172.794 215.67 172.794 216.51C172.794 217.29 172.599 218.025 172.209 218.715C171.819 219.375 171.279 219.9 170.589 220.29C169.929 220.68 169.194 220.875 168.384 220.875ZM168.384 218.85C169.044 218.85 169.599 218.625 170.049 218.175C170.529 217.695 170.769 217.14 170.769 216.51C170.769 215.82 170.529 215.25 170.049 214.8C169.599 214.32 169.044 214.08 168.384 214.08C167.694 214.08 167.109 214.32 166.629 214.8C166.149 215.25 165.909 215.82 165.909 216.51C165.909 217.14 166.149 217.695 166.629 218.175C167.109 218.625 167.694 218.85 168.384 218.85ZM171.381 247.54V242.32H176.106V247.54H171.381ZM160.626 247.54C160.446 247.54 160.311 247.48 160.221 247.36C160.101 247.24 160.011 247.075 159.951 246.865C159.861 246.625 159.801 246.34 159.771 246.01C159.741 245.68 159.726 245.32 159.726 244.93C159.726 244.39 159.756 243.94 159.816 243.58C159.876 243.19 159.981 242.89 160.131 242.68C160.251 242.44 160.416 242.32 160.626 242.32V247.54ZM160.626 247.54V242.32H168.861L165.351 245.245V224.95H171.381V247.54H160.626ZM176.106 247.54V242.32C176.286 242.32 176.436 242.38 176.556 242.5C176.676 242.62 176.766 242.8 176.826 243.04C176.886 243.28 176.931 243.565 176.961 243.895C176.991 244.195 177.006 244.54 177.006 244.93C177.006 245.32 176.991 245.68 176.961 246.01C176.931 246.34 176.886 246.625 176.826 246.865C176.766 247.075 176.676 247.24 176.556 247.36C176.436 247.48 176.286 247.54 176.106 247.54ZM165.351 257.125V251.995H171.381V257.125H165.351ZM178.885 212.375V210.35H188.875V212.375H178.885ZM176.095 247.54V242.32H184.33L180.82 245.245V224.95H186.85V247.54H176.095ZM176.095 247.54C175.915 247.54 175.78 247.48 175.69 247.36C175.57 247.24 175.48 247.075 175.42 246.865C175.33 246.625 175.27 246.34 175.24 246.01C175.21 245.68 175.195 245.32 175.195 244.93C175.195 244.39 175.225 243.94 175.285 243.58C175.345 243.19 175.45 242.89 175.6 242.68C175.72 242.44 175.885 242.32 176.095 242.32V247.54ZM180.82 220.81V215.68H186.85V220.81H180.82Z" fill="#F0F0F0"/>
</svg>
