<svg width="396" height="195" viewBox="0 0 396 195" fill="none" xmlns="http://www.w3.org/2000/svg">
<path d="M67.7621 104.881C64.2742 103.439 57.3999 101.276 56.6385 102.61C55.5949 104.01 54.4276 105.316 53.1506 106.51C53.1506 106.51 51.6278 102.184 50.3153 101.953C49.0028 101.723 43.4483 101.629 42.2518 101.953C41.0554 102.278 45.4134 105.313 49.1189 107.592C49.9121 108.081 50.7411 108.51 51.5988 108.875C51.1863 110.827 51.0617 112.829 51.229 114.817C51.5771 117.83 51.6278 125.942 50.1558 131.054C48.546 136.656 46.1168 155.36 47.1973 161.784L48.4227 161.582C47.3713 155.288 49.7642 136.909 51.3233 131.393C52.8388 126.115 52.7735 117.766 52.4327 114.672C52.2935 112.885 52.4008 111.088 52.7518 109.33C54.5719 109.964 55.9931 110.202 57.1534 110.952C58.1183 111.511 58.9693 112.244 59.6623 113.115C59.6623 113.115 59.8799 111.81 60.3875 111.918C60.8951 112.026 68.4582 113.764 69.7635 113.548C71.0687 113.331 71.279 106.294 67.7621 104.881Z" fill="#263238"/>
<path d="M43.7384 159.636C43.7384 159.491 40.8959 145.482 40.0329 140.766C39.5906 138.351 38.9887 131.833 38.4014 125.531C37.8358 119.395 37.2484 113.05 36.8713 111.298C36.4442 109.275 35.4888 107.4 34.1013 105.861L34.9787 104.989C36.5405 106.693 37.6146 108.782 38.0896 111.038C38.4811 112.87 39.0468 118.97 39.6414 125.416C40.2287 131.696 40.8233 138.185 41.2584 140.557C42.1213 145.265 44.9348 159.304 44.9639 159.405L43.7384 159.636Z" fill="#263238" stroke="#263238" stroke-width="0.725476" stroke-linecap="round" stroke-linejoin="round"/>
<path d="M47.4583 159.102L46.2111 159.059C46.2111 159.023 46.3271 155.454 46.5446 152.317C46.7622 149.181 46.6606 118.768 46.5446 103.15C46.4358 89.112 46.4286 70.5961 46.4286 70.4158H47.6758C47.6758 70.5961 47.6758 89.112 47.7846 103.143C47.8861 116.403 48.0094 149.152 47.7846 152.404C47.5888 155.497 47.4583 159.066 47.4583 159.102Z" fill="#263238" stroke="#263238" stroke-width="0.725476" stroke-linecap="round" stroke-linejoin="round"/>
<path d="M48.2342 158.878L47.0087 158.662C47.9949 153.132 53.1071 133.643 59.9596 123.094C66.8122 112.545 72.6858 104.802 72.7438 104.722L73.7372 105.443C73.6792 105.523 67.8926 113.137 61.0111 123.728C54.2528 134.14 49.2131 153.399 48.2342 158.878Z" fill="#263238" stroke="#263238" stroke-width="0.725476" stroke-linecap="round" stroke-linejoin="round"/>
<path d="M73.7953 100.966C73.6286 99.6078 73.1216 98.3133 72.3209 97.2009C71.5201 96.0885 70.4513 95.1938 69.2124 94.599C64.8616 92.5441 62.4759 91.9312 61.8813 97.5913C61.5344 101.191 61.5854 104.818 62.0336 108.407C62.0336 108.407 65.3112 102.638 67.8346 101.917C70.3581 101.196 72.1492 103.1 70.8077 103.843C69.4662 104.585 65.1516 107.246 63.6651 108.284C62.1786 109.322 62.4686 109.769 63.5128 111.687C64.557 113.605 66.6382 118.501 66.6382 118.501C66.6382 118.501 68.5743 110.065 69.4662 108.58C70.3581 107.094 73.4907 108.58 72.4465 111.096C71.4023 113.612 68.5743 120.275 68.5743 120.275C68.5743 120.275 72.4465 124.421 74.3754 125.61C76.3042 126.8 77.798 131.083 77.798 131.083C77.798 131.083 79.1395 129.756 82.7144 128.422C86.2893 127.088 91.3508 124.868 91.0535 123.375C90.7562 121.883 89.4147 120.116 86.5866 116.417C83.7586 112.718 79.4368 109.157 81.2279 109.012C83.019 108.868 92.54 113.338 93.4319 115.379C94.3238 117.419 93.1419 121.385 93.1419 121.385C93.1419 121.385 95.9699 117.535 95.9699 115.458C95.9334 114.138 95.521 112.856 94.7807 111.759C94.7807 111.759 88.675 107.166 86.1443 105.84C83.6136 104.513 83.4686 103.021 84.2082 103.021C84.9478 103.021 92.8446 105.097 94.3601 107.022C95.21 108.043 95.7729 109.27 95.9916 110.577C96.1439 111.017 94.2078 100.209 91.6408 97.9878C89.0739 95.7671 83.7514 93.9933 80.6188 95.1758C77.4862 96.3583 76.1519 97.2524 75.7096 98.1392C75.1299 99.1192 74.4906 100.063 73.7953 100.966Z" fill="#92E3A9" stroke="#263238" stroke-width="0.725476" stroke-linecap="round" stroke-linejoin="round"/>
<path d="M84.8463 116.662C84.8463 116.662 81.837 112.899 81.2207 114.153C80.6043 115.408 85.2017 121.299 85.6875 120.816C86.1733 120.332 86.2023 118.501 84.8463 116.662Z" stroke="#263238" stroke-width="0.725476" stroke-linecap="round" stroke-linejoin="round"/>
<path d="M75.3253 101.694C75.3253 101.694 85.3322 99.8625 88.4357 100.829" stroke="#263238" stroke-width="0.725476" stroke-linecap="round" stroke-linejoin="round"/>
<path d="M75.6226 104.08C75.6226 104.08 83.7804 106.114 86.9855 108.623" stroke="#263238" stroke-width="0.725476" stroke-linecap="round" stroke-linejoin="round"/>
<path d="M75.4268 104.881C75.4268 104.881 70.8584 105.465 68.625 107.203C66.3916 108.94 66.1958 109.517 66.1958 109.517" stroke="#263238" stroke-width="0.725476" stroke-linecap="round" stroke-linejoin="round"/>
<path d="M66.7832 99.091C67.9112 99.4019 68.99 99.8678 69.9883 100.475C71.3709 101.21 72.8298 101.792 74.3391 102.213C74.3391 102.213 77.9648 107.981 78.6899 113.129C79.4151 118.278 78.7915 127.031 78.6899 127.42" stroke="#263238" stroke-width="0.725476" stroke-linecap="round" stroke-linejoin="round"/>
<path d="M77.5587 109.423C76.1906 111.716 74.991 114.104 73.9693 116.569" stroke="#263238" stroke-width="0.725476" stroke-linecap="round" stroke-linejoin="round"/>
<path d="M47.5526 67.4163C47.167 66.0304 46.9384 64.6059 46.871 63.1695C46.871 61.3309 48.8143 58.8433 45.6092 57.6609C42.4041 56.4784 36.284 53.6087 35.131 52.0657C33.9781 50.5227 33.8693 49.2609 31.15 48.8788C28.4308 48.4966 26.0741 48.5831 22.6007 50.7102C19.1273 52.8372 18.2499 55.3464 18.2499 55.3464C18.2499 55.3464 19.6131 54.3802 27.3793 55.8294C35.1455 57.2787 39.228 62.0086 37.1904 62.2033C35.1528 62.398 24.1742 57.4734 21.455 56.8894C18.7357 56.3053 17.1839 56.0241 15.5306 57.7618C13.8773 59.4995 13.377 63.3642 13.377 63.3642C13.377 63.3642 17.9381 60.271 23.2823 60.7541C28.6266 61.2371 36.9729 65.484 35.8054 65.9671C34.6379 66.4502 27.5533 63.1695 22.5064 63.941C17.4595 64.7125 14.3486 65.1956 13.9571 67.1279C13.5655 69.0603 15.3203 70.3149 15.3203 70.3149C15.3203 70.3149 14.2471 68.4762 18.1338 66.4502C22.0206 64.4241 28.3292 64.9072 28.3292 65.3903C28.3292 65.8733 24.7398 65.484 22.2091 66.7386C19.6784 67.9932 16.408 69.8318 17.4522 70.5095C18.4964 71.1873 20.9474 72.7303 21.4332 74.1147C21.919 75.499 21.8248 78.4408 22.2091 77.4963C22.5934 76.5517 23.0865 73.6316 23.9639 73.0548C24.8413 72.4779 34.4494 72.8601 34.4494 72.8601C34.4494 72.8601 38.4304 70.834 38.9162 69.8678C39.4021 68.9016 39.5979 67.2577 41.8168 67.7047C44.0357 68.1518 43.9487 69.1468 42.6869 71.3099C41.4252 73.4729 38.1258 75.8451 38.1258 75.8451C38.1258 75.8451 43.4701 72.961 45.892 72.6582C48.314 72.3554 49.6845 71.4036 49.1986 70.3437C48.7128 69.2838 47.8354 68.3176 49.2929 68.1229C50.7504 67.9283 52.9186 67.9283 53.0781 69.0891C53.2376 70.25 51.3305 71.5046 51.3305 71.5046C51.3305 71.5046 59.1983 69.3415 61.0474 67.8345C62.8964 66.3276 64.441 65.2244 63.8609 64.4529C63.2808 63.6814 60.2352 64.352 60.2352 64.352C60.2352 64.352 57.4217 62.0375 54.1223 63.393C52.1602 64.1929 50.4195 65.4489 49.0464 67.0558C48.6014 67.3351 48.0768 67.4617 47.5526 67.4163Z" fill="#92E3A9" stroke="#263238" stroke-width="0.725476" stroke-linecap="round" stroke-linejoin="round"/>
<path d="M33.862 54.6686C34.1521 54.5749 38.1331 58.627 40.1707 61.9149C42.2083 65.2028 47.5526 67.4163 47.5526 67.4163C47.5526 67.4163 40.1707 66.8395 37.553 66.9332C34.9352 67.027 28.2277 68.3753 25.7985 70.1202" stroke="#263238" stroke-width="0.725476" stroke-linecap="round" stroke-linejoin="round"/>
<path d="M49.1044 67.027C49.1044 67.027 56.9358 65.3398 57.7553 66.5223" stroke="#263238" stroke-width="0.725476" stroke-linecap="round" stroke-linejoin="round"/>
<path d="M43.7457 67.1928C41.1606 66.2844 38.6242 65.2447 36.1462 64.078C33.7605 62.8162 26.0813 58.9659 20.1207 59.0308" stroke="#263238" stroke-width="0.725476" stroke-linecap="round" stroke-linejoin="round"/>
<path d="M35.305 102.494C35.305 102.494 38.793 97.8364 37.8068 97.1875C36.8206 96.5386 27.0168 99.0333 24.5078 99.7904C21.9988 100.547 17.4232 100.656 12.3038 101.521C7.1843 102.386 6.50268 103.907 5.10316 104.016C3.70365 104.124 2.71021 104.016 1.8328 104.448L0.962646 104.881C2.01204 105.149 3.03406 105.513 4.01546 105.97C4.99439 106.51 8.15599 106.618 8.48956 107.051C8.82312 107.484 13.5002 109.546 19.062 110.952C24.6238 112.358 32.361 106.727 34.5364 105.422C36.7118 104.117 38.5754 103.042 38.7929 101.953C39.0105 100.865 35.305 102.494 35.305 102.494Z" fill="#92E3A9" stroke="#263238" stroke-width="0.725476" stroke-linecap="round" stroke-linejoin="round"/>
<path d="M35.305 102.494C35.305 102.494 33.1296 104.773 32.0347 104.989C30.9397 105.205 24.2902 106.965 19.178 106.965C14.0658 106.965 5.55273 105.523 5.55273 105.523" stroke="#263238" stroke-width="0.725476" stroke-linecap="round" stroke-linejoin="round"/>
<path d="M29.9608 100.331C30.5584 101.461 31.2886 102.516 32.1362 103.475L33.0064 104.196" stroke="#263238" stroke-width="0.725476" stroke-linecap="round" stroke-linejoin="round"/>
<path d="M30.0551 105.523C30.0551 105.523 25.5883 102.927 23.2968 102.379C22.012 102.062 20.697 101.881 19.3738 101.838" stroke="#263238" stroke-width="0.725476" stroke-linecap="round" stroke-linejoin="round"/>
<path d="M23.3113 106.965C21.1742 105.926 18.8982 105.197 16.553 104.802C12.4125 104.08 11.4263 103.828 11.4263 103.828" stroke="#263238" stroke-width="0.725476" stroke-linecap="round" stroke-linejoin="round"/>
<path d="M29.1994 105.746C27.7151 107.173 25.9253 108.248 23.9639 108.89" stroke="#263238" stroke-width="0.725476" stroke-linecap="round" stroke-linejoin="round"/>
<path d="M63.2445 88.8885C63.2445 88.8885 67.7404 85.6583 66.1451 84.7859C64.5498 83.9134 54.2819 86.2784 44.1662 87.8935C34.0506 89.5086 31.1791 91.7438 29.4315 93.4814C28.3371 94.6865 27.6411 96.1966 27.4374 97.8076C27.4374 97.8076 30.8092 98.1825 31.4329 98.5286C32.0565 98.8747 32.8034 96.0411 38.4232 93.1858C44.043 90.3305 47.7919 88.4703 45.2902 91.4481C42.7885 94.426 39.6704 97.6562 37.4225 98.2762L35.1746 98.8963C35.1746 98.8963 41.0482 101.009 42.2954 100.389C43.5426 99.7688 51.5046 89.2562 52.5343 89.3788C53.564 89.5014 53.6583 90.2512 51.9107 92.3638C50.2555 94.1594 48.4587 95.8207 46.5374 97.3317C46.5374 97.3317 54.4052 97.5769 54.7822 96.9568C55.1593 96.3367 59.9017 88.391 60.2787 90.0061C60.6558 91.6212 60.2787 92.1115 59.5536 93.1065C58.8285 94.1015 57.1824 95.9906 57.1824 95.9906C57.1824 95.9906 71.7939 98.2258 72.0404 96.863C72.287 95.5003 71.1703 92.6378 68.5453 91.3977L63.2445 88.8885Z" fill="#92E3A9" stroke="#263238" stroke-width="0.725476" stroke-linecap="round" stroke-linejoin="round"/>
<path d="M63.2446 88.8885C63.2446 88.8885 55.1303 87.396 50.6345 88.016" stroke="#263238" stroke-width="0.725476" stroke-linecap="round" stroke-linejoin="round"/>
<path d="M41.8023 158.518C41.8023 158.482 40.5696 154.833 38.1766 146.571C36.6619 141.099 35.5973 135.515 34.9933 129.872L36.2333 129.756C36.831 135.321 37.8811 140.828 39.3731 146.224C41.7443 154.459 42.9553 158.093 42.9625 158.129L41.8023 158.518Z" fill="#263238"/>
<path d="M47.509 127.254C47.509 127.254 45.6382 122.164 41.8892 122.286C38.1403 122.409 37.1469 128.372 39.3948 133.585C41.6427 138.798 47.0087 141.906 49.757 143.521C52.5052 145.136 58.6254 148.979 59.6261 149.851C60.6267 150.724 61.1198 146.744 62.5266 143.521C63.9334 140.298 64.7745 130.232 61.8015 125.387C58.8284 120.542 52.6865 116.821 50.1993 118.811C47.7121 120.801 47.509 127.254 47.509 127.254Z" fill="#92E3A9" stroke="#263238" stroke-width="0.725476" stroke-linecap="round" stroke-linejoin="round"/>
<path d="M48.2632 128.74C48.2632 128.74 47.7629 130.11 50.6344 133.585C53.506 137.06 58.1251 140.665 58.6109 144.508" stroke="#263238" stroke-width="0.725476" stroke-linecap="round" stroke-linejoin="round"/>
<path d="M49.3799 128.372C49.3799 128.372 58.3716 127.002 60.8733 128.249" stroke="#263238" stroke-width="0.725476" stroke-linecap="round" stroke-linejoin="round"/>
<path d="M48.0094 130.232C48.0094 130.232 44.6376 133.21 44.1372 136.195" stroke="#263238" stroke-width="0.725476" stroke-linecap="round" stroke-linejoin="round"/>
<path d="M51.3818 134.825C51.3818 134.825 50.2573 137.81 50.5039 139.915" stroke="#263238" stroke-width="0.725476" stroke-linecap="round" stroke-linejoin="round"/>
<path d="M54.5066 137.313C54.5066 137.313 59.249 137.68 60.1192 139.793" stroke="#263238" stroke-width="0.725476" stroke-linecap="round" stroke-linejoin="round"/>
<path d="M34.6452 127.752C34.6452 127.752 37.8938 126.137 36.1462 124.024C34.3987 121.911 31.2733 122.784 28.2785 123.779C25.2837 124.774 25.5302 125.762 17.2927 125.884C9.05517 126.007 6.17639 127.499 6.17639 127.499C6.17639 127.499 10.4257 127.499 13.0434 129.489C15.6612 131.479 29.1559 133.707 32.5278 134.205C35.8997 134.702 40.5043 132.842 41.0191 130.11C41.534 127.377 34.6452 127.752 34.6452 127.752Z" fill="#92E3A9" stroke="#263238" stroke-width="0.725476" stroke-linecap="round" stroke-linejoin="round"/>
<path d="M12.0427 127.622C12.0427 127.622 13.1667 128.119 20.1642 128.74C24.4971 129.107 28.859 128.943 33.1514 128.249C31.2351 127.426 29.2566 126.753 27.2343 126.238" stroke="#263238" stroke-width="0.725476" stroke-linecap="round" stroke-linejoin="round"/>
<path d="M22.006 127.319C23.9412 127.733 25.8361 128.314 27.6693 129.057C25.4673 129.829 23.1335 130.159 20.8023 130.03" stroke="#263238" stroke-width="0.725476" stroke-linecap="round" stroke-linejoin="round"/>
<path d="M33.1514 128.249C33.1514 128.249 31.5996 131.133 30.1783 131.653" stroke="#263238" stroke-width="0.725476" stroke-linecap="round" stroke-linejoin="round"/>
<path d="M23.7682 156.34H60.2425C60.2425 156.34 64.7093 168.771 62.9255 177.063C61.1417 185.355 55.1811 193.798 55.1811 193.798H29.7216C29.7216 193.798 21.0852 184.468 20.9329 173.955C20.7807 163.443 23.7682 156.34 23.7682 156.34Z" fill="#263238" stroke="#263238" stroke-width="0.725476" stroke-linecap="round" stroke-linejoin="round"/>
<path fill-rule="evenodd" clip-rule="evenodd" d="M185.069 35.3805L219.472 34.8431C225.244 34.7529 229.996 39.3589 230.087 45.1308L231.664 146.094C231.754 151.866 227.148 156.619 221.376 156.709L186.973 157.246C181.201 157.336 176.448 152.73 176.358 146.958L174.781 45.9948C174.691 40.2228 179.297 35.4707 185.069 35.3805ZM169.154 46.0827C169.015 37.2028 176.101 29.8918 184.981 29.7531L219.384 29.2157C228.264 29.0769 235.575 36.1631 235.714 45.0429L236.042 66.0141C236.947 66.2827 237.614 67.1144 237.63 68.109L237.82 80.3077C237.836 81.3023 237.195 82.1544 236.298 82.4512L237.291 146.007C237.43 154.886 230.344 162.197 221.464 162.336L187.06 162.874C178.181 163.012 170.87 155.926 170.731 147.046L169.154 46.0827Z" fill="#245957"/>
<path d="M236.099 112.217C236.585 113.059 235.057 114.776 235.341 115.695C235.622 116.608 236.381 117.017 236.47 117.992C236.557 118.991 236.066 120.658 235.982 121.658C235.901 122.592 235.972 122.831 235.744 123.796C235.494 124.696 235.19 125.581 234.832 126.444C234.507 127.325 235.044 128.329 234.609 129.218C234.196 130.063 233.921 131.281 233.412 132.127C232.926 132.936 234.765 133.859 234.195 134.663C233.649 135.434 236.838 142.191 236.217 142.953C235.618 143.687 236.807 143.924 236.141 144.645C235.497 145.343 236.07 143.825 235.366 144.506C234.683 145.166 235.916 145.341 235.178 145.982C234.459 146.607 235.411 146.557 234.642 147.159C233.892 147.747 232.739 153.793 231.944 154.357C231.165 154.909 231.16 155.712 230.34 156.237C229.535 156.753 228.39 158.578 227.547 159.065C226.704 159.551 220.94 159.199 220.091 159.638C219.226 160.086 214.686 158.783 213.819 159.182C212.933 159.589 210.937 158.765 210.053 159.12C209.147 159.485 207.044 158.495 206.144 158.805C205.219 159.124 201.427 159.63 200.513 159.892C199.571 160.161 198.26 159.017 197.333 159.226C196.377 159.441 194.996 159.653 194.061 159.804C192.934 162.579 193.09 159.961 194.061 159.804C192.527 163.581 189.317 161.182 188.373 161.199C187.386 161.216 187.532 161.083 186.593 161.018C185.605 160.95 184.748 160.434 183.822 160.275C182.845 160.107 181.263 158.463 180.364 158.194C179.414 157.909 178.854 155.995 178.004 155.598C177.109 155.179 175.89 155.519 175.119 154.975C174.32 154.41 173.98 152.575 173.33 151.876C172.654 151.144 172.06 150.34 171.559 149.479C171.073 148.637 171.97 147.26 171.687 146.34C171.406 145.428 169.803 144.81 169.714 143.835C169.628 142.896 168.926 141.781 169.011 140.796C169.091 139.861 170.102 138.929 170.33 137.964C170.546 137.052 171.448 136.311 171.792 135.381C172.117 134.5 171.132 132.978 171.566 132.088C171.98 131.243 172.804 130.49 173.312 129.644C173.798 128.835 174.848 128.318 175.418 127.514C175.965 126.743 177.519 126.743 178.14 125.982C178.739 125.247 178.993 124.251 179.659 123.53C180.303 122.833 179.596 120.756 180.299 120.075C180.983 119.414 182.157 119.179 182.895 118.537C183.614 117.913 185.552 118.754 186.32 118.152C187.071 117.563 186.549 115.247 187.345 114.683C188.124 114.132 189.639 114.612 190.459 114.087C191.264 113.572 192.438 113.688 193.281 113.201C194.124 112.715 194.492 111.412 195.341 110.973C196.206 110.525 197.573 111.176 198.44 110.778C199.327 110.37 199.41 108.131 200.295 107.775C201.201 107.411 202.581 108.308 203.482 107.998C204.406 107.679 204.992 106.29 205.906 106.028C206.848 105.759 208.122 106.823 209.048 106.614C210.005 106.399 211.055 107.063 211.99 106.911C212.961 106.754 213.622 104.486 214.563 104.399C215.544 104.307 216.57 104.537 217.513 104.52C218.5 104.503 219.569 103.608 220.508 103.673C221.495 103.741 222.412 104.925 223.338 105.084C224.315 105.252 225.5 104.789 226.398 105.058C227.348 105.343 228.076 106.415 228.926 106.813C229.821 107.231 230.367 108.213 231.138 108.757C231.937 109.321 233.221 109.356 233.87 110.056C234.525 110.761 235.613 111.375 236.099 112.217Z" fill="#245957"/>
<path d="M157.405 77.388C156.386 78.0558 155.573 78.9944 155.057 80.0984C154.541 81.2025 154.343 82.4283 154.485 83.6386C154.969 87.3051 158.553 89.8715 162.166 90.6633C165.778 91.4551 169.53 90.9336 173.229 90.9604C178.196 90.9963 183.275 92.0949 187.372 94.9041C191.469 97.7132 194.442 102.407 194.401 107.374C194.362 111.984 191.869 116.17 189.453 120.097" stroke="#263238" stroke-width="0.804019" stroke-miterlimit="10"/>
<path d="M156.874 53.6361C155.855 54.304 155.042 55.2425 154.526 56.3465C154.011 57.4506 153.813 58.6765 153.954 59.8867C154.439 63.5532 158.022 66.1196 161.635 66.9114C165.248 67.7032 169 67.1817 172.698 67.2085C177.666 67.2444 182.745 68.343 186.842 71.1522C190.939 73.9613 193.912 78.6546 193.87 83.622C193.832 88.2325 191.338 92.4183 188.923 96.3455" stroke="#263238" stroke-width="0.804019" stroke-miterlimit="10"/>
<path d="M191.778 39.0179C190.563 38.922 189.345 39.1664 188.262 39.7236C187.178 40.2809 186.271 41.129 185.642 42.1729C183.781 45.3686 185.044 49.5916 187.415 52.4293C189.787 55.267 193.073 57.1516 195.981 59.4368C199.887 62.5061 203.231 66.4842 204.751 71.2135C206.27 75.9428 205.748 81.4738 202.674 85.3762C199.822 88.9984 195.288 90.7816 190.973 92.4083" stroke="#263238" stroke-width="0.804019" stroke-miterlimit="10"/>
<path d="M184.667 92.8581C187.943 90.9666 189.854 88.1432 188.935 86.5518C188.017 84.9605 184.616 85.2039 181.34 87.0954C178.063 88.987 176.152 91.8104 177.071 93.4017C177.99 94.993 181.39 94.7497 184.667 92.8581Z" fill="#F0F0F0"/>
<path d="M183.64 92.7919C186.916 90.9004 188.827 88.0769 187.908 86.4856C186.99 84.8943 183.589 85.1377 180.313 87.0292C177.037 88.9208 175.125 91.7442 176.044 93.3355C176.963 94.9268 180.364 94.6834 183.64 92.7919Z" stroke="#245957" stroke-width="0.804019" stroke-miterlimit="10"/>
<path d="M196.093 82.9657C199.369 81.0742 201.28 78.2507 200.361 76.6594C199.443 75.0681 196.042 75.3115 192.766 77.203C189.489 79.0946 187.578 81.918 188.497 83.5093C189.416 85.1006 192.816 84.8572 196.093 82.9657Z" fill="#F0F0F0"/>
<path d="M195.066 82.8994C198.342 81.0079 200.253 78.1845 199.334 76.5932C198.416 75.0018 195.015 75.2452 191.739 77.1368C188.462 79.0283 186.551 81.8517 187.47 83.443C188.389 85.0344 191.79 84.791 195.066 82.8994Z" stroke="#245957" stroke-width="0.804019" stroke-miterlimit="10"/>
<path d="M204.349 92.6997C207.625 90.8082 209.537 87.9848 208.618 86.3934C207.699 84.8021 204.298 85.0455 201.022 86.937C197.746 88.8286 195.835 91.652 196.753 93.2433C197.672 94.8346 201.073 94.5913 204.349 92.6997Z" fill="#F0F0F0"/>
<path d="M203.322 92.6335C206.598 90.7419 208.51 87.9185 207.591 86.3272C206.672 84.7359 203.271 84.9793 199.995 86.8708C196.719 88.7624 194.808 91.5858 195.727 93.1771C196.645 94.7684 200.046 94.525 203.322 92.6335Z" stroke="#245957" stroke-width="0.804019" stroke-miterlimit="10"/>
<path d="M187.416 66.2241C190.692 64.3326 192.603 61.5092 191.684 59.9178C190.766 58.3265 187.365 58.5699 184.089 60.4614C180.812 62.353 178.901 65.1764 179.82 66.7677C180.739 68.359 184.139 68.1157 187.416 66.2241Z" fill="#F0F0F0"/>
<path d="M186.389 66.1579C189.665 64.2664 191.576 61.4429 190.657 59.8516C189.739 58.2603 186.338 58.5037 183.062 60.3952C179.785 62.2868 177.874 65.1102 178.793 66.7015C179.712 68.2928 183.112 68.0494 186.389 66.1579Z" stroke="#245957" stroke-width="0.804019" stroke-miterlimit="10"/>
<path d="M171.586 73.0562C174.863 71.1647 176.774 68.3413 175.855 66.75C174.936 65.1586 171.535 65.402 168.259 67.2936C164.983 69.1851 163.072 72.0085 163.991 73.5998C164.909 75.1912 168.31 74.9478 171.586 73.0562Z" fill="#F0F0F0"/>
<path d="M170.559 72.9901C173.836 71.0985 175.747 68.2751 174.828 66.6838C173.909 65.0925 170.508 65.3358 167.232 67.2274C163.956 69.1189 162.045 71.9423 162.964 73.5337C163.882 75.125 167.283 74.8816 170.559 72.9901Z" stroke="#245957" stroke-width="0.804019" stroke-miterlimit="10"/>
<path d="M174.692 63.0239C177.969 61.1323 179.88 58.3089 178.961 56.7176C178.042 55.1263 174.641 55.3696 171.365 57.2612C168.089 59.1527 166.178 61.9761 167.097 63.5675C168.015 65.1588 171.416 64.9154 174.692 63.0239Z" fill="#F0F0F0"/>
<path d="M173.665 62.9576C176.942 61.0661 178.853 58.2427 177.934 56.6514C177.015 55.0601 173.615 55.3034 170.338 57.195C167.062 59.0865 165.151 61.9099 166.07 63.5012C166.988 65.0926 170.389 64.8492 173.665 62.9576Z" stroke="#245957" stroke-width="0.804019" stroke-miterlimit="10"/>
<path d="M189.989 55.8401C193.265 53.9485 195.176 51.1251 194.258 49.5338C193.339 47.9425 189.938 48.1859 186.662 50.0774C183.386 51.969 181.475 54.7924 182.393 56.3837C183.312 57.975 186.713 57.7316 189.989 55.8401Z" fill="#F0F0F0"/>
<path d="M188.962 55.7738C192.238 53.8823 194.15 51.0589 193.231 49.4676C192.312 47.8762 188.911 48.1196 185.635 50.0112C182.359 51.9027 180.448 54.7261 181.366 56.3174C182.285 57.9088 185.686 57.6654 188.962 55.7738Z" stroke="#245957" stroke-width="0.804019" stroke-miterlimit="10"/>
<path d="M205.574 57.7178C208.85 55.8262 210.761 53.0028 209.843 51.4115C208.924 49.8202 205.523 50.0635 202.247 51.9551C198.971 53.8466 197.06 56.6701 197.978 58.2614C198.897 59.8527 202.298 59.6093 205.574 57.7178Z" fill="#F0F0F0"/>
<path d="M204.547 57.6516C207.823 55.76 209.734 52.9366 208.816 51.3453C207.897 49.754 204.496 49.9973 201.22 51.8889C197.944 53.7804 196.033 56.6038 196.951 58.1952C197.87 59.7865 201.271 59.5431 204.547 57.6516Z" stroke="#245957" stroke-width="0.804019" stroke-miterlimit="10"/>
<path d="M158.985 65.5011C162.261 63.6095 164.173 60.7861 163.254 59.1948C162.335 57.6035 158.934 57.8469 155.658 59.7384C152.382 61.6299 150.471 64.4533 151.389 66.0447C152.308 67.636 155.709 67.3926 158.985 65.5011Z" fill="#F0F0F0"/>
<path d="M157.958 65.4348C161.235 63.5433 163.146 60.7199 162.227 59.1286C161.308 57.5372 157.907 57.7806 154.631 59.6722C151.355 61.5637 149.444 64.3871 150.363 65.9784C151.281 67.5698 154.682 67.3264 157.958 65.4348Z" stroke="#245957" stroke-width="0.804019" stroke-miterlimit="10"/>
<path d="M157.27 53.9679C160.546 52.0764 162.457 49.253 161.539 47.6617C160.62 46.0703 157.219 46.3137 153.943 48.2053C150.667 50.0968 148.755 52.9202 149.674 54.5115C150.593 56.1028 153.994 55.8595 157.27 53.9679Z" fill="#F0F0F0"/>
<path d="M156.243 53.9016C159.519 52.0101 161.43 49.1867 160.512 47.5953C159.593 46.004 156.192 46.2474 152.916 48.1389C149.64 50.0305 147.729 52.8539 148.647 54.4452C149.566 56.0365 152.967 55.7932 156.243 53.9016Z" stroke="#245957" stroke-width="0.804019" stroke-miterlimit="10"/>
<path d="M195.623 41.0526C198.899 39.1611 200.81 36.3377 199.892 34.7464C198.973 33.155 195.572 33.3984 192.296 35.29C189.02 37.1815 187.108 40.0049 188.027 41.5962C188.946 43.1876 192.347 42.9442 195.623 41.0526Z" fill="#F0F0F0"/>
<path d="M194.596 40.9864C197.872 39.0949 199.783 36.2715 198.865 34.6801C197.946 33.0888 194.545 33.3322 191.269 35.2237C187.993 37.1153 186.081 39.9387 187 41.53C187.919 43.1213 191.32 42.878 194.596 40.9864Z" stroke="#245957" stroke-width="0.804019" stroke-miterlimit="10"/>
<path d="M154.126 95.3306C157.403 93.4391 159.314 90.6157 158.395 89.0243C157.476 87.433 154.076 87.6764 150.799 89.5679C147.523 91.4595 145.612 94.2829 146.531 95.8742C147.449 97.4655 150.85 97.2222 154.126 95.3306Z" fill="#F0F0F0"/>
<path d="M153.099 95.2644C156.376 93.3728 158.287 90.5494 157.368 88.9581C156.449 87.3668 153.049 87.6102 149.772 89.5017C146.496 91.3932 144.585 94.2167 145.504 95.808C146.423 97.3993 149.823 97.1559 153.099 95.2644Z" stroke="#245957" stroke-width="0.804019" stroke-miterlimit="10"/>
<path d="M173.786 82.003C177.062 80.1114 178.973 77.288 178.054 75.6967C177.136 74.1054 173.735 74.3488 170.459 76.2403C167.182 78.1319 165.271 80.9553 166.19 82.5466C167.109 84.1379 170.509 83.8945 173.786 82.003Z" fill="#F0F0F0"/>
<path d="M172.759 81.9368C176.035 80.0452 177.946 77.2218 177.027 75.6305C176.109 74.0392 172.708 74.2826 169.432 76.1741C166.155 78.0656 164.244 80.889 165.163 82.4804C166.082 84.0717 169.482 83.8283 172.759 81.9368Z" stroke="#245957" stroke-width="0.804019" stroke-miterlimit="10"/>
<path d="M202.012 68.6726C205.288 66.7811 207.199 63.9577 206.28 62.3664C205.362 60.775 201.961 61.0184 198.685 62.91C195.409 64.8015 193.497 67.6249 194.416 69.2162C195.335 70.8076 198.736 70.5642 202.012 68.6726Z" fill="#F0F0F0"/>
<path d="M200.985 68.6064C204.261 66.7149 206.172 63.8915 205.254 62.3001C204.335 60.7088 200.934 60.9522 197.658 62.8437C194.382 64.7353 192.47 67.5587 193.389 69.15C194.308 70.7413 197.709 70.498 200.985 68.6064Z" stroke="#245957" stroke-width="0.804019" stroke-miterlimit="10"/>
<path d="M188.247 77.9382C191.523 76.0467 193.434 73.2233 192.515 71.632C191.596 70.0406 188.196 70.284 184.92 72.1756C181.643 74.0671 179.732 76.8905 180.651 78.4818C181.57 80.0732 184.97 79.8298 188.247 77.9382Z" fill="#53B175"/>
<path d="M187.22 77.872C190.496 75.9805 192.407 73.1571 191.488 71.5658C190.57 69.9744 187.169 70.2178 183.893 72.1094C180.616 74.0009 178.705 76.8243 179.624 78.4156C180.543 80.007 183.943 79.7636 187.22 77.872Z" fill="#F0F0F0" stroke="#245957" stroke-width="0.804019" stroke-miterlimit="10"/>
<path d="M174.965 52.6501C178.241 50.7585 180.152 47.9351 179.233 46.3438C178.315 44.7525 174.914 44.9959 171.638 46.8874C168.361 48.7789 166.45 51.6024 167.369 53.1937C168.288 54.785 171.688 54.5416 174.965 52.6501Z" fill="#F0F0F0"/>
<path d="M173.938 52.5838C177.214 50.6923 179.125 47.8689 178.206 46.2776C177.288 44.6862 173.887 44.9296 170.611 46.8212C167.334 48.7127 165.423 51.5361 166.342 53.1274C167.261 54.7188 170.662 54.4754 173.938 52.5838Z" stroke="#245957" stroke-width="0.804019" stroke-miterlimit="10"/>
<path d="M158.354 82.6736C161.63 80.782 163.541 77.9586 162.622 76.3673C161.703 74.776 158.303 75.0193 155.026 76.9109C151.75 78.8024 149.839 81.6258 150.758 83.2172C151.677 84.8085 155.077 84.5651 158.354 82.6736Z" fill="#F0F0F0"/>
<path d="M157.327 82.6073C160.603 80.7157 162.514 77.8923 161.595 76.301C160.677 74.7097 157.276 74.9531 154 76.8446C150.723 78.7361 148.812 81.5596 149.731 83.1509C150.65 84.7422 154.05 84.4988 157.327 82.6073Z" stroke="#245957" stroke-width="0.804019" stroke-miterlimit="10"/>
<path d="M168.236 91.7985C171.512 89.9069 173.423 87.0835 172.504 85.4922C171.586 83.9009 168.185 84.1442 164.909 86.0358C161.632 87.9273 159.721 90.7507 160.64 92.3421C161.559 93.9334 164.96 93.69 168.236 91.7985Z" fill="#F0F0F0"/>
<path d="M167.209 91.7322C170.485 89.8407 172.396 87.0173 171.477 85.426C170.559 83.8346 167.158 84.078 163.882 85.9696C160.606 87.8611 158.694 90.6845 159.613 92.2758C160.532 93.8672 163.933 93.6238 167.209 91.7322Z" stroke="#245957" stroke-width="0.804019" stroke-miterlimit="10"/>
<g opacity="0.3">
<path d="M178.069 108.511C178.041 106.53 177.323 104.933 176.465 104.945C175.607 104.957 174.933 106.573 174.961 108.555C174.989 110.536 175.707 112.133 176.565 112.121C177.423 112.109 178.097 110.493 178.069 108.511Z" fill="#57B894"/>
<path d="M177.809 108.964C177.781 106.982 177.063 105.385 176.205 105.397C175.346 105.409 174.673 107.025 174.701 109.007C174.728 110.989 175.446 112.585 176.305 112.574C177.163 112.562 177.836 110.945 177.809 108.964Z" stroke="#3F3D56" stroke-width="0.804019" stroke-miterlimit="10"/>
</g>
<g opacity="0.3">
<path d="M213.137 97.8416C213.313 97.0015 211.883 95.9912 209.943 95.5849C208.003 95.1787 206.288 95.5304 206.112 96.3705C205.936 97.2105 207.366 98.2209 209.306 98.6271C211.246 99.0333 212.961 98.6816 213.137 97.8416Z" fill="#57B894"/>
<path d="M212.753 97.4887C212.928 96.6486 211.499 95.6382 209.559 95.232C207.619 94.8258 205.904 95.1775 205.728 96.0175C205.552 96.8576 206.982 97.868 208.922 98.2742C210.861 98.6804 212.577 98.3287 212.753 97.4887Z" stroke="#3F3D56" stroke-width="0.804019" stroke-miterlimit="10"/>
</g>
<g opacity="0.3">
<path d="M176.463 98.2527C176.639 97.4126 175.209 96.4022 173.269 95.996C171.329 95.5898 169.614 95.9415 169.438 96.7815C169.262 97.6216 170.692 98.632 172.632 99.0382C174.572 99.4444 176.287 99.0927 176.463 98.2527Z" fill="#57B894"/>
<path d="M176.079 97.8998C176.255 97.0597 174.825 96.0493 172.885 95.6431C170.945 95.2369 169.23 95.5886 169.054 96.4286C168.878 97.2687 170.308 98.2791 172.248 98.6853C174.188 99.0915 175.903 98.7398 176.079 97.8998Z" stroke="#3F3D56" stroke-width="0.804019" stroke-miterlimit="10"/>
</g>
<path d="M186.618 126.934L185.727 125.989L185.916 124.342L186.807 125.287L186.618 126.934ZM186.051 127.096V125.881H188.319V127.096H186.051ZM188.265 127.096C187.995 125.854 188.004 124.855 188.292 124.099C188.58 123.325 189.228 122.938 190.236 122.938C190.902 122.938 191.406 123.118 191.748 123.478C192.108 123.82 192.324 124.306 192.396 124.936C192.468 125.548 192.414 126.268 192.234 127.096L191.019 126.853C191.253 125.827 191.298 125.125 191.154 124.747C191.01 124.351 190.704 124.153 190.236 124.153C189.768 124.153 189.462 124.351 189.318 124.747C189.192 125.125 189.237 125.818 189.453 126.826L188.265 127.096ZM186.213 127.096V125.881H192.234V127.096H186.213ZM188.942 148.595C187.412 148.595 186.152 148.352 185.162 147.866C184.172 147.38 183.434 146.642 182.948 145.652C182.48 144.662 182.246 143.411 182.246 141.899C182.246 140.387 182.48 139.127 182.948 138.119C183.434 137.093 184.172 136.328 185.162 135.824C186.152 135.302 187.412 135.041 188.942 135.041H195.044V146.894H191.426V137.39L192.317 138.173H188.942C188.204 138.173 187.61 138.263 187.16 138.443C186.71 138.605 186.377 138.956 186.161 139.496C185.963 140.018 185.864 140.819 185.864 141.899C185.864 142.925 185.954 143.699 186.134 144.221C186.332 144.725 186.656 145.058 187.106 145.22C187.556 145.382 188.168 145.463 188.942 145.463H197.879V148.595H188.942ZM197.879 148.595V145.463C197.987 145.463 198.068 145.499 198.122 145.571C198.194 145.643 198.248 145.751 198.284 145.895C198.338 146.039 198.374 146.21 198.392 146.408C198.41 146.588 198.419 146.795 198.419 147.029C198.419 147.263 198.41 147.479 198.392 147.677C198.374 147.875 198.338 148.046 198.284 148.19C198.248 148.316 198.194 148.415 198.122 148.487C198.068 148.559 197.987 148.595 197.879 148.595ZM184.919 132.557V129.479H188.402V132.557H184.919ZM189.833 132.557V129.479H193.316V132.557H189.833ZM200.98 127.096V125.881H206.974V127.096H200.98ZM205.767 148.595V145.463H209.142V148.595H205.767ZM209.142 148.595V145.463C209.232 145.463 209.313 145.499 209.385 145.571C209.457 145.643 209.511 145.751 209.547 145.895C209.583 146.039 209.61 146.21 209.628 146.408C209.664 146.588 209.682 146.795 209.682 147.029C209.682 147.263 209.664 147.479 209.628 147.677C209.61 147.875 209.583 148.046 209.547 148.19C209.511 148.316 209.457 148.415 209.385 148.487C209.331 148.559 209.25 148.595 209.142 148.595ZM197.883 148.595C197.775 148.595 197.694 148.559 197.64 148.487C197.568 148.415 197.514 148.316 197.478 148.19C197.424 148.046 197.388 147.875 197.37 147.677C197.352 147.479 197.343 147.263 197.343 147.029C197.343 146.705 197.361 146.435 197.397 146.219C197.433 145.985 197.496 145.805 197.586 145.679C197.658 145.535 197.757 145.463 197.883 145.463V148.595ZM197.883 148.595V145.463H204.282L202.176 147.218V135.041H205.767V148.595H197.883ZM199.8 132.557V129.479H203.283V132.557H199.8ZM204.714 132.557V129.479H208.197V132.557H204.714ZM213.797 132.796C213.311 132.796 212.861 132.679 212.447 132.445C212.033 132.211 211.7 131.896 211.448 131.5C211.214 131.086 211.097 130.645 211.097 130.177C211.097 129.673 211.214 129.223 211.448 128.827C211.7 128.431 212.033 128.107 212.447 127.855C212.861 127.603 213.311 127.477 213.797 127.477C214.283 127.477 214.724 127.603 215.12 127.855C215.534 128.089 215.858 128.413 216.092 128.827C216.326 129.223 216.443 129.673 216.443 130.177C216.443 130.645 216.326 131.086 216.092 131.5C215.858 131.896 215.534 132.211 215.12 132.445C214.724 132.679 214.283 132.796 213.797 132.796ZM213.797 131.581C214.193 131.581 214.526 131.446 214.796 131.176C215.084 130.888 215.228 130.555 215.228 130.177C215.228 129.763 215.084 129.421 214.796 129.151C214.526 128.863 214.193 128.719 213.797 128.719C213.383 128.719 213.032 128.863 212.744 129.151C212.456 129.421 212.312 129.763 212.312 130.177C212.312 130.555 212.456 130.888 212.744 131.176C213.032 131.446 213.383 131.581 213.797 131.581ZM215.595 148.595V145.463H218.43V148.595H215.595ZM209.142 148.595C209.034 148.595 208.953 148.559 208.899 148.487C208.827 148.415 208.773 148.316 208.737 148.19C208.683 148.046 208.647 147.875 208.629 147.677C208.611 147.479 208.602 147.263 208.602 147.029C208.602 146.705 208.62 146.435 208.656 146.219C208.692 145.985 208.755 145.805 208.845 145.679C208.917 145.535 209.016 145.463 209.142 145.463V148.595ZM209.142 148.595V145.463H214.083L211.977 147.218V135.041H215.595V148.595H209.142ZM218.43 148.595V145.463C218.538 145.463 218.628 145.499 218.7 145.571C218.772 145.643 218.826 145.751 218.862 145.895C218.898 146.039 218.925 146.21 218.943 146.408C218.961 146.588 218.97 146.795 218.97 147.029C218.97 147.263 218.961 147.479 218.943 147.677C218.925 147.875 218.898 148.046 218.862 148.19C218.826 148.316 218.772 148.415 218.7 148.487C218.628 148.559 218.538 148.595 218.43 148.595ZM211.977 154.346V151.268H215.595V154.346H211.977ZM220.097 128.096V126.881H226.091V128.096H220.097ZM218.423 148.595V145.463H223.364L221.258 147.218V135.041H224.876V148.595H218.423ZM218.423 148.595C218.315 148.595 218.234 148.559 218.18 148.487C218.108 148.415 218.054 148.316 218.018 148.19C217.964 148.046 217.928 147.875 217.91 147.677C217.892 147.479 217.883 147.263 217.883 147.029C217.883 146.705 217.901 146.435 217.937 146.219C217.973 145.985 218.036 145.805 218.126 145.679C218.198 145.535 218.297 145.463 218.423 145.463V148.595ZM221.258 132.557V129.479H224.876V132.557H221.258Z" fill="#F0F0F0"/>
<path d="M392.874 47.5594L392.874 47.5598C388.63 53.9987 379.165 58.2371 368.662 58.6734C360.324 59.0195 349.782 59.0849 342.777 57.7952C338.517 57.0111 334.119 55.8815 330.453 54.2424C326.774 52.5976 323.912 50.4753 322.607 47.7529C321.522 45.4872 321.845 42.973 323.285 40.742C324.729 38.5054 327.293 36.5701 330.631 35.547C333.971 34.5233 337.84 34.49 341.338 35.2639C344.845 36.0395 347.913 37.6103 349.702 39.7268L350.56 39.25C349.328 35.4448 348.157 31.6994 349.009 28.0383C350.148 23.1524 355.892 18.1647 364.719 19.7174L364.719 19.7175L364.727 19.7189C368.12 20.2535 371.249 21.8701 373.649 24.3275C377.009 27.958 377.579 32.1693 377.478 36.4918C376.672 37.7347 376.471 39.2025 377.355 40.5512L378.166 41.7879L378.272 40.3127C378.354 39.1636 378.436 37.9919 378.471 36.8116C378.574 36.6738 378.688 36.5374 378.812 36.4028C379.895 35.2302 381.724 34.2971 383.799 34.0885C388.009 33.6654 392.167 35.7154 393.794 38.3105C395.404 40.8799 394.975 43.9163 393.433 46.6461L393.868 46.892L393.433 46.6461C393.259 46.9545 393.072 47.259 392.874 47.5594Z" stroke="#F0F0F0"/>
<path d="M389.412 49.3629L389.412 49.3633C385.168 55.8022 375.702 60.0406 365.199 60.4769C356.862 60.823 346.32 60.8884 339.315 59.5987C335.055 58.8146 330.657 57.685 326.991 56.0459C323.312 54.4011 320.45 52.2788 319.145 49.5564C318.06 47.2907 318.383 44.7765 319.823 42.5455C321.267 40.3089 323.831 38.3736 327.169 37.3505C330.509 36.3268 334.377 36.2935 337.876 37.0674C341.383 37.843 344.45 39.4138 346.24 41.5303L347.098 41.0535C345.866 37.2483 344.695 33.5029 345.547 29.8418C346.686 24.9559 352.43 19.9682 361.256 21.5209L361.256 21.521L361.265 21.5224C364.658 22.057 367.787 23.6736 370.187 26.131C373.547 29.7615 374.117 33.9728 374.016 38.2953C373.21 39.5382 373.009 41.006 373.893 42.3547L374.704 43.5914L374.81 42.1162C374.892 40.9671 374.973 39.7954 375.009 38.6151C375.112 38.4773 375.225 38.3409 375.35 38.2063C376.433 37.0337 378.262 36.1006 380.337 35.892C384.547 35.4689 388.705 37.5188 390.331 40.114C391.942 42.6834 391.513 45.7198 389.971 48.4495L390.406 48.6955L389.971 48.4496C389.797 48.758 389.61 49.0625 389.412 49.3629Z" fill="#F0F0F0" stroke="#F0F0F0"/>
</svg>
