<svg width="440" height="956" viewBox="0 0 440 956" fill="none" xmlns="http://www.w3.org/2000/svg">
<rect width="440" height="956" rx="50" fill="#D1D1D1"/>
<g clip-path="url(#clip0_288_27)">
<path d="M0 306C0 278.386 22.3858 256 50 256H390C417.614 256 440 278.386 440 306V956H0V306Z" fill="#F0F0F0"/>
<g opacity="0.05">
<path d="M231.426 814.083C213.227 806.558 177.359 795.272 173.386 802.232C167.94 809.541 161.85 816.352 155.187 822.585C155.187 822.585 147.241 800.012 140.393 798.809C133.545 797.605 104.563 797.116 98.32 798.809C92.0772 800.501 114.816 816.34 134.15 828.228C138.289 830.779 142.615 833.017 147.09 834.925C144.938 845.11 144.288 855.553 145.161 865.925C146.977 881.65 147.241 923.974 139.561 950.648C131.161 979.879 118.486 1077.47 124.124 1110.99L130.518 1109.94C125.032 1077.09 137.518 981.196 145.652 952.416C153.56 924.877 153.219 881.312 151.441 865.172C150.715 855.848 151.275 846.468 153.106 837.295C162.603 840.606 170.018 841.847 176.072 845.76C181.107 848.675 185.547 852.504 189.163 857.046C189.163 857.046 190.298 850.237 192.947 850.801C195.595 851.365 235.058 860.432 241.868 859.303C248.679 858.175 249.776 821.456 231.426 814.083Z" fill="#263238"/>
<path d="M106.076 1099.78C106.076 1099.03 91.2448 1025.93 86.7423 1001.32C84.4344 988.72 81.294 954.711 78.2293 921.83C75.2782 889.814 72.2134 856.707 70.246 847.566C68.0171 837.012 63.0321 827.228 55.7927 819.199L60.3709 814.647C68.5195 823.538 74.1241 834.437 76.6023 846.211C78.6454 855.767 81.5967 887.594 84.6992 921.228C87.7639 953.996 90.8664 987.855 93.1366 1000.23C97.639 1024.8 112.319 1098.05 112.471 1098.57L106.076 1099.78Z" fill="#263238" stroke="#263238" stroke-linecap="round" stroke-linejoin="round"/>
<path d="M125.486 1096.99L118.978 1096.77C118.978 1096.58 119.583 1077.96 120.719 1061.59C121.854 1045.23 121.324 886.541 120.719 805.054C120.151 731.805 120.113 635.194 120.113 634.253H126.621C126.621 635.194 126.621 731.805 127.189 805.016C127.718 874.201 128.361 1045.08 127.189 1062.04C126.167 1078.18 125.486 1096.81 125.486 1096.99Z" fill="#263238" stroke="#263238" stroke-linecap="round" stroke-linejoin="round"/>
<path d="M129.534 1095.83L123.14 1094.7C128.286 1065.84 154.96 964.153 190.714 909.114C226.469 854.074 257.116 813.669 257.419 813.255L262.602 817.017C262.299 817.431 232.107 857.159 196.201 912.424C160.938 966.749 134.642 1067.24 129.534 1095.83Z" fill="#263238" stroke="#263238" stroke-linecap="round" stroke-linejoin="round"/>
<path d="M262.905 793.654C262.035 786.569 259.39 779.815 255.212 774.011C251.034 768.207 245.457 763.539 238.993 760.435C216.291 749.713 203.844 746.515 200.741 776.048C198.931 794.831 199.197 813.754 201.536 832.48C201.536 832.48 218.637 802.383 231.804 798.62C244.971 794.858 254.316 804.79 247.317 808.665C240.317 812.54 217.805 826.423 210.049 831.84C202.292 837.257 203.806 839.59 209.254 849.597C214.702 859.604 225.561 885.149 225.561 885.149C225.561 885.149 235.663 841.132 240.317 833.382C244.971 825.632 261.316 833.382 255.867 846.512C250.419 859.642 235.663 894.404 235.663 894.404C235.663 894.404 255.867 916.036 265.932 922.244C275.996 928.451 283.79 950.798 283.79 950.798C283.79 950.798 290.79 943.876 309.443 936.916C328.096 929.956 354.505 918.369 352.954 910.581C351.402 902.794 344.403 893.576 329.647 874.277C314.891 854.977 292.341 836.392 301.686 835.64C311.032 834.887 360.71 858.212 365.364 868.859C370.017 879.506 363.85 900.198 363.85 900.198C363.85 900.198 378.606 880.108 378.606 869.273C378.416 862.386 376.264 855.693 372.401 849.973C372.401 849.973 340.544 826.009 327.339 819.086C314.134 812.164 313.378 804.376 317.237 804.376C321.096 804.376 362.299 815.211 370.207 825.256C374.641 830.583 377.578 836.982 378.72 843.804C379.514 846.098 369.412 789.704 356.018 778.117C342.624 766.53 314.853 757.275 298.508 763.445C282.163 769.615 275.201 774.28 272.893 778.907C269.869 784.02 266.533 788.945 262.905 793.654Z" fill="#263238" stroke="#263238" stroke-linecap="round" stroke-linejoin="round"/>
<path d="M320.566 875.556C320.566 875.556 304.865 855.917 301.649 862.463C298.433 869.009 322.42 899.746 324.955 897.225C327.49 894.705 327.642 885.149 320.566 875.556Z" stroke="#263238" stroke-linecap="round" stroke-linejoin="round"/>
<path d="M270.888 797.454C270.888 797.454 323.101 787.898 339.295 792.94" stroke="#263238" stroke-linecap="round" stroke-linejoin="round"/>
<path d="M272.439 809.907C272.439 809.907 315.004 820.516 331.728 833.608" stroke="#263238" stroke-linecap="round" stroke-linejoin="round"/>
<path d="M271.418 814.083C271.418 814.083 247.581 817.13 235.928 826.197C224.275 835.263 223.253 838.273 223.253 838.273" stroke="#263238" stroke-linecap="round" stroke-linejoin="round"/>
<path d="M226.318 783.873C232.203 785.495 237.832 787.926 243.041 791.096C250.255 794.928 257.867 797.968 265.743 800.163C265.743 800.163 284.66 830.26 288.444 857.121C292.227 883.983 288.974 929.655 288.444 931.686" stroke="#263238" stroke-linecap="round" stroke-linejoin="round"/>
<path d="M282.542 837.784C275.403 849.747 269.144 862.207 263.813 875.067" stroke="#263238" stroke-linecap="round" stroke-linejoin="round"/>
<path d="M125.978 618.603C123.966 611.372 122.773 603.939 122.421 596.444C122.421 586.851 132.561 573.871 115.838 567.702C99.1145 561.532 67.1812 546.558 61.1653 538.508C55.1495 530.457 54.582 523.873 40.3936 521.879C26.2053 519.885 13.9087 520.337 -4.2146 531.435C-22.3379 542.533 -26.916 555.625 -26.916 555.625C-26.916 555.625 -19.8029 550.584 20.7191 558.146C61.241 565.708 82.5424 590.387 71.9106 591.403C61.2788 592.419 3.99578 566.723 -10.1926 563.676C-24.3809 560.629 -32.4778 559.162 -41.1043 568.228C-49.7308 577.295 -52.3415 597.46 -52.3415 597.46C-52.3415 597.46 -28.5429 581.32 -0.658039 583.841C27.2268 586.362 70.7756 608.521 64.684 611.041C58.5925 613.562 21.6271 596.444 -4.70647 600.47C-31.0401 604.495 -47.2716 607.016 -49.3147 617.098C-51.3578 627.181 -42.2016 633.727 -42.2016 633.727C-42.2016 633.727 -47.8012 624.133 -27.5213 613.562C-7.24146 602.99 25.6755 605.511 25.6755 608.031C25.6755 610.552 6.94688 608.521 -6.25775 615.067C-19.4624 621.613 -36.5262 631.206 -31.0779 634.743C-25.6296 638.279 -12.8412 646.33 -10.3062 653.553C-7.7712 660.776 -8.26303 676.126 -6.25775 671.197C-4.25246 666.269 -1.67959 651.032 2.89852 648.023C7.47663 645.013 57.6088 647.007 57.6088 647.007C57.6088 647.007 78.3805 636.435 80.9155 631.394C83.4505 626.353 84.4721 617.775 96.0498 620.108C107.627 622.44 107.173 627.632 100.59 638.918C94.0067 650.205 76.7915 662.582 76.7915 662.582C76.7915 662.582 104.676 647.534 117.313 645.954C129.95 644.374 137.101 639.408 134.566 633.877C132.031 628.347 127.453 623.306 135.058 622.29C142.663 621.274 153.976 621.274 154.808 627.331C155.641 633.388 145.69 639.934 145.69 639.934C145.69 639.934 186.742 628.648 196.39 620.785C206.038 612.922 214.097 607.166 211.07 603.141C208.043 599.115 192.152 602.614 192.152 602.614C192.152 602.614 177.472 590.538 160.257 597.61C150.019 601.784 140.937 608.338 133.772 616.722C131.45 618.179 128.713 618.84 125.978 618.603Z" fill="#263238" stroke="#263238" stroke-linecap="round" stroke-linejoin="round"/>
<path d="M54.5442 552.089C56.0576 551.6 76.8294 572.743 87.4612 589.898C98.093 607.053 125.978 618.603 125.978 618.603C125.978 618.603 87.4611 615.593 73.8025 616.083C60.1438 616.572 25.1459 623.607 12.471 632.711" stroke="#263238" stroke-linecap="round" stroke-linejoin="round"/>
<path d="M134.075 616.571C134.075 616.571 174.937 607.768 179.213 613.938" stroke="#263238" stroke-linecap="round" stroke-linejoin="round"/>
<path d="M106.114 617.437C92.6262 612.697 79.3915 607.272 66.4623 601.185C54.0144 594.601 13.9465 574.511 -17.1544 574.85" stroke="#263238" stroke-linecap="round" stroke-linejoin="round"/>
<path d="M62.0734 801.63C62.0734 801.63 80.2724 777.327 75.1267 773.941C69.9811 770.555 18.8274 783.572 5.73625 787.522C-7.35487 791.472 -31.2292 792.037 -57.9411 796.551C-84.6531 801.066 -88.2096 809.004 -95.5119 809.568C-102.814 810.132 -107.998 809.568 -112.576 811.825L-117.116 814.083C-111.64 815.48 -106.308 817.382 -101.187 819.763C-96.0794 822.585 -79.583 823.149 -77.8426 825.407C-76.1021 827.664 -51.6982 838.423 -22.6783 845.76C6.34159 853.096 46.7122 823.714 58.0629 816.904C69.4135 810.095 79.1373 804.489 80.2723 798.808C81.4074 793.128 62.0734 801.63 62.0734 801.63Z" fill="#263238" stroke="#263238" stroke-linecap="round" stroke-linejoin="round"/>
<path d="M62.0735 801.63C62.0735 801.63 50.7229 813.518 45.0097 814.647C39.2965 815.776 4.60122 824.955 -22.0729 824.955C-48.747 824.955 -93.166 817.431 -93.166 817.431" stroke="#263238" stroke-linecap="round" stroke-linejoin="round"/>
<path d="M34.1885 790.344C37.3066 796.238 41.1168 801.744 45.5392 806.747L50.0795 810.509" stroke="#263238" stroke-linecap="round" stroke-linejoin="round"/>
<path d="M34.6804 817.431C34.6804 817.431 11.3737 803.887 -0.582376 801.028C-7.28648 799.374 -14.1476 798.428 -21.0515 798.207" stroke="#263238" stroke-linecap="round" stroke-linejoin="round"/>
<path d="M-0.506614 824.955C-11.6576 819.536 -23.5329 815.735 -35.7694 813.669C-57.3736 809.907 -62.5192 808.59 -62.5192 808.59" stroke="#263238" stroke-linecap="round" stroke-linejoin="round"/>
<path d="M30.2159 818.597C22.4714 826.044 13.1324 831.652 2.89862 835" stroke="#263238" stroke-linecap="round" stroke-linejoin="round"/>
<path d="M207.854 730.639C207.854 730.639 231.312 713.785 222.988 709.233C214.664 704.68 161.089 717.02 108.309 725.447C55.5278 733.874 40.545 745.537 31.4266 754.604C25.7164 760.892 22.0846 768.771 21.0219 777.176C21.0219 777.176 38.6153 779.133 41.8692 780.938C45.1231 782.744 49.0202 767.959 78.3428 753.061C107.665 738.163 127.226 728.457 114.173 743.994C101.12 759.532 84.8505 776.386 73.1214 779.622L61.3924 782.857C61.3924 782.857 92.0392 793.88 98.547 790.645C105.055 787.409 146.598 732.558 151.971 733.197C157.343 733.837 157.835 737.749 148.717 748.772C140.081 758.141 130.706 766.809 120.681 774.693C120.681 774.693 161.732 775.972 163.7 772.737C165.667 769.502 190.412 728.043 192.379 736.47C194.347 744.897 192.379 747.456 188.596 752.647C184.812 757.839 176.223 767.696 176.223 767.696C176.223 767.696 252.462 779.358 253.749 772.248C255.035 765.138 249.208 750.202 235.512 743.731L207.854 730.639Z" fill="#263238" stroke="#263238" stroke-linecap="round" stroke-linejoin="round"/>
<path d="M207.854 730.639C207.854 730.639 165.516 722.851 142.058 726.087" stroke="#263238" stroke-linecap="round" stroke-linejoin="round"/>
<path d="M95.9742 1093.95C95.9742 1093.76 89.5422 1074.72 77.0564 1031.61C69.1531 1003.06 63.5981 973.921 60.4465 944.478L66.9164 943.876C70.0352 972.911 75.5141 1001.65 83.2993 1029.8C95.6715 1072.77 101.99 1091.73 102.028 1091.92L95.9742 1093.95Z" fill="#263238"/>
<path d="M125.751 930.821C125.751 930.821 115.989 904.261 96.4281 904.9C76.8671 905.54 71.6836 936.653 83.4127 963.853C95.1417 991.053 123.14 1007.27 137.48 1015.69C151.819 1024.12 183.753 1044.17 188.974 1048.73C194.195 1053.28 196.768 1032.51 204.108 1015.69C211.448 998.878 215.837 946.359 200.325 921.077C184.812 895.796 152.765 876.383 139.788 886.767C126.81 897.15 125.751 930.821 125.751 930.821Z" fill="#263238" stroke="#263238" stroke-linecap="round" stroke-linejoin="round"/>
<path d="M129.686 938.571C129.686 938.571 127.075 945.719 142.058 963.853C157.041 981.986 181.142 1000.8 183.677 1020.85" stroke="#263238" stroke-linecap="round" stroke-linejoin="round"/>
<path d="M135.512 936.653C135.512 936.653 182.429 929.505 195.482 936.013" stroke="#263238" stroke-linecap="round" stroke-linejoin="round"/>
<path d="M128.361 946.359C128.361 946.359 110.768 961.896 108.157 977.472" stroke="#263238" stroke-linecap="round" stroke-linejoin="round"/>
<path d="M58.6303 933.417C58.6303 933.417 75.5807 924.99 66.4623 913.967C57.344 902.944 41.0368 907.496 25.4107 912.688C9.78458 917.88 11.071 923.034 -31.9102 923.673C-74.8915 924.313 -89.9122 932.1 -89.9122 932.1C-89.9122 932.1 -67.7405 932.1 -54.0818 942.484C-40.4232 952.867 29.9889 964.492 47.5824 967.088C65.176 969.684 89.2016 959.978 91.8879 945.719C94.5742 931.461 58.6303 933.417 58.6303 933.417Z" fill="#263238" stroke="#263238" stroke-linecap="round" stroke-linejoin="round"/>
<path d="M-59.3032 932.74C-59.3032 932.74 -53.4387 935.336 -16.9274 938.571C5.68044 940.489 28.4398 939.63 50.8362 936.013C40.8374 931.715 30.5143 928.206 19.9624 925.517" stroke="#263238" stroke-linecap="round" stroke-linejoin="round"/>
<path d="M-7.31705 931.16C2.77989 933.319 12.6674 936.353 22.2325 940.226C10.7431 944.253 -1.43431 945.98 -13.5978 945.305" stroke="#263238" stroke-linecap="round" stroke-linejoin="round"/>
<path d="M50.8362 936.013C50.8362 936.013 42.7395 951.061 35.3237 953.77" stroke="#263238" stroke-linecap="round" stroke-linejoin="round"/>
</g>
<path d="M200 280H240" stroke="#555555" stroke-width="5" stroke-linecap="round"/>
<rect x="160" y="311.096" width="120" height="30" rx="15" fill="#D1D1D1"/>
<rect x="304" y="395" width="120" height="30" rx="15" fill="#D1D1D1"/>
<rect x="16" y="449" width="408" height="30" rx="15" fill="#D1D1D1"/>
<rect x="16" y="503" width="408" height="30" rx="15" fill="#D1D1D1"/>
<rect x="18" y="557" width="128" height="30" rx="15" fill="#D1D1D1"/>
<rect x="156" y="557" width="128" height="30" rx="15" fill="#D1D1D1"/>
<rect x="294" y="557" width="128" height="30" rx="15" fill="#D1D1D1"/>
<rect x="304" y="650.711" width="120" height="30" rx="15" fill="#D1D1D1"/>
<rect x="16" y="704.711" width="408" height="30" rx="15" fill="#D1D1D1"/>
<rect x="16" y="758.711" width="408" height="30" rx="15" fill="#D1D1D1"/>
<rect x="18" y="812.711" width="128" height="30" rx="15" fill="#D1D1D1"/>
<rect x="156" y="812.711" width="128" height="30" rx="15" fill="#D1D1D1"/>
<rect x="294" y="812.711" width="128" height="30" rx="15" fill="#D1D1D1"/>
</g>
<rect x="175" y="97" width="90" height="115" rx="14" fill="#B9B9B9"/>
<defs>
<clipPath id="clip0_288_27">
<path d="M0 306C0 278.386 22.3858 256 50 256H390C417.614 256 440 278.386 440 306V956H0V306Z" fill="white"/>
</clipPath>
</defs>
</svg>
