<svg width="33" height="33" viewBox="0 0 33 33" fill="none" xmlns="http://www.w3.org/2000/svg">
<g clip-path="url(#clip0_145_1069)">
<path d="M32.5 16.431C32.5 7.59453 25.3365 0.43103 16.5 0.43103C7.6635 0.43103 0.5 7.59453 0.5 16.431C0.5 24.417 6.351 31.0364 14 32.2367V21.056H9.9375V16.431H14V12.906C14 8.89603 16.3888 6.68103 20.0435 6.68103C21.794 6.68103 23.625 6.99353 23.625 6.99353V10.931H21.6075C19.6199 10.931 19 12.1644 19 13.4298V16.431H23.4375L22.7281 21.056H19V32.2367C26.649 31.0364 32.5 24.4172 32.5 16.431Z" fill="#1877F2"/>
<path d="M22.7281 21.056L23.4375 16.431H19V13.4298C19 12.1643 19.6199 10.931 21.6075 10.931H23.625V6.99353C23.625 6.99353 21.794 6.68103 20.0434 6.68103C16.3888 6.68103 14 8.89603 14 12.906V16.431H9.9375V21.056H14V32.2367C14.827 32.3662 15.6629 32.4312 16.5 32.431C17.3371 32.4312 18.173 32.3662 19 32.2367V21.056H22.7281Z" fill="white"/>
</g>
<defs>
<clipPath id="clip0_145_1069">
<rect width="32" height="32" fill="white" transform="translate(0.5 0.43103)"/>
</clipPath>
</defs>
</svg>
