<svg width="33" height="33" viewBox="0 0 33 33" fill="none" xmlns="http://www.w3.org/2000/svg">
<g clip-path="url(#clip0_145_1073)">
<path d="M11.6475 1.48353C8.45019 2.5927 5.69285 4.69794 3.78046 7.49003C1.86808 10.2821 0.901465 13.6139 1.02259 16.9959C1.14372 20.378 2.34621 23.6321 4.45343 26.2802C6.56065 28.9283 9.46153 30.8309 12.73 31.7085C15.3798 32.3923 18.156 32.4223 20.82 31.796C23.2333 31.2539 25.4644 30.0944 27.295 28.431C29.2002 26.6469 30.5831 24.3772 31.295 21.866C32.0688 19.1352 32.2065 16.2634 31.6975 13.471H16.8175V19.6435H25.435C25.2628 20.628 24.8937 21.5676 24.3499 22.4061C23.806 23.2446 23.0986 23.9648 22.27 24.5235C21.2177 25.2196 20.0315 25.688 18.7875 25.8985C17.5398 26.1305 16.2601 26.1305 15.0125 25.8985C13.748 25.6371 12.5517 25.1152 11.5 24.366C9.81036 23.17 8.54168 21.4708 7.87499 19.511C7.19702 17.5145 7.19702 15.35 7.87499 13.3535C8.34955 11.9541 9.13407 10.6799 10.17 9.62603C11.3555 8.39789 12.8563 7.52002 14.5079 7.08872C16.1594 6.65741 17.8979 6.68935 19.5325 7.18103C20.8094 7.573 21.9771 8.25787 22.9425 9.18103C23.9142 8.21436 24.8842 7.24519 25.8525 6.27353C26.3525 5.75103 26.8975 5.25353 27.39 4.71853C25.9164 3.34722 24.1867 2.28017 22.3 1.57853C18.8642 0.331 15.1049 0.297474 11.6475 1.48353Z" fill="white"/>
<path d="M11.6475 1.48352C15.1047 0.296662 18.864 0.329306 22.3 1.57602C24.187 2.28243 25.916 3.35462 27.3875 4.73102C26.8875 5.26602 26.36 5.76602 25.85 6.28602C24.88 7.25435 23.9108 8.21935 22.9425 9.18102C21.9771 8.25786 20.8094 7.573 19.5325 7.18102C17.8984 6.68762 16.16 6.65384 14.5081 7.08338C12.8561 7.51291 11.3543 8.38917 10.1675 9.61602C9.13159 10.6699 8.34707 11.9441 7.8725 13.3435L2.69 9.33102C4.54502 5.65242 7.75688 2.83858 11.6475 1.48352Z" fill="#E33629"/>
<path d="M1.315 13.3061C1.59355 11.9255 2.05601 10.5886 2.69 9.33105L7.8725 13.3536C7.19453 15.3501 7.19453 17.5145 7.8725 19.5111C6.14583 20.8444 4.41833 22.1844 2.69 23.5311C1.10287 20.3718 0.618829 16.7723 1.315 13.3061Z" fill="#F8BD00"/>
<path d="M16.8175 13.4685H31.6975C32.2065 16.2608 32.0688 19.1327 31.295 21.8635C30.5831 24.3747 29.2002 26.6444 27.295 28.4285C25.6225 27.1235 23.9425 25.8285 22.27 24.5235C23.0992 23.9642 23.8069 23.2432 24.3508 22.4038C24.8946 21.5644 25.2634 20.6239 25.435 19.6385H16.8175C16.815 17.5835 16.8175 15.526 16.8175 13.4685Z" fill="#587DBD"/>
<path d="M2.6875 23.531C4.41583 22.1977 6.14333 20.8577 7.87 19.511C8.53802 21.4715 9.80851 23.1708 11.5 24.366C12.555 25.1117 13.7538 25.6294 15.02 25.886C16.2676 26.118 17.5474 26.118 18.795 25.886C20.039 25.6755 21.2252 25.2071 22.2775 24.511C23.95 25.816 25.63 27.111 27.3025 28.416C25.4722 30.0804 23.241 31.2407 20.8275 31.7835C18.1635 32.4098 15.3873 32.3798 12.7375 31.696C10.6418 31.1365 8.68419 30.15 6.9875 28.7985C5.19165 27.3728 3.72489 25.576 2.6875 23.531Z" fill="#319F43"/>
</g>
<defs>
<clipPath id="clip0_145_1073">
<rect width="32" height="32" fill="white" transform="translate(0.5 0.43103)"/>
</clipPath>
</defs>
</svg>
