<svg width="380" height="436" viewBox="0 0 380 436" fill="none" xmlns="http://www.w3.org/2000/svg">
<g opacity="0.05">
<path d="M231.426 294.083C213.227 286.559 177.359 275.272 173.386 282.232C167.94 289.541 161.85 296.353 155.187 302.585C155.187 302.585 147.241 280.013 140.393 278.809C133.545 277.605 104.563 277.116 98.32 278.809C92.0772 280.502 114.816 296.34 134.15 308.228C138.289 310.779 142.615 313.017 147.09 314.925C144.938 325.11 144.288 335.553 145.161 345.925C146.977 361.65 147.241 403.974 139.561 430.648C131.161 459.879 118.486 557.469 124.124 590.989L130.518 589.936C125.032 557.093 137.518 461.196 145.652 432.416C153.56 404.877 153.219 361.312 151.441 345.172C150.715 335.848 151.275 326.469 153.106 317.295C162.603 320.606 170.018 321.847 176.072 325.76C181.107 328.675 185.547 332.504 189.163 337.046C189.163 337.046 190.298 330.237 192.947 330.801C195.595 331.365 235.058 340.432 241.868 339.304C248.679 338.175 249.776 301.457 231.426 294.083Z" fill="#263238"/>
<path d="M106.076 579.778C106.076 579.026 91.2448 505.928 86.7423 481.323C84.4344 468.72 81.294 434.711 78.2293 401.83C75.2782 369.814 72.2134 336.708 70.246 327.566C68.0171 317.012 63.0321 307.229 55.7927 299.199L60.3709 294.647C68.5195 303.538 74.1241 314.437 76.6023 326.211C78.6454 335.767 81.5967 367.595 84.6992 401.228C87.7639 433.996 90.8664 467.855 93.1366 480.232C97.639 504.799 112.319 578.047 112.471 578.574L106.076 579.778Z" fill="#263238" stroke="#263238" stroke-linecap="round" stroke-linejoin="round"/>
<path d="M125.486 576.994L118.978 576.768C118.978 576.58 119.583 557.958 120.719 541.592C121.854 525.227 121.324 366.541 120.719 285.054C120.151 211.805 120.113 115.194 120.113 114.254H126.621C126.621 115.194 126.621 211.805 127.189 285.016C127.718 354.201 128.361 525.077 127.189 542.044C126.167 558.183 125.486 576.806 125.486 576.994Z" fill="#263238" stroke="#263238" stroke-linecap="round" stroke-linejoin="round"/>
<path d="M129.534 575.828L123.14 574.699C128.286 545.844 154.96 444.154 190.714 389.114C226.469 334.074 257.116 293.669 257.419 293.255L262.602 297.017C262.299 297.431 232.107 337.159 196.201 392.424C160.938 446.749 134.642 547.236 129.534 575.828Z" fill="#263238" stroke="#263238" stroke-linecap="round" stroke-linejoin="round"/>
<path d="M262.905 273.654C262.035 266.569 259.39 259.815 255.212 254.011C251.034 248.207 245.457 243.539 238.993 240.435C216.291 229.713 203.844 226.515 200.741 256.048C198.931 274.831 199.197 293.754 201.536 312.48C201.536 312.48 218.637 282.383 231.804 278.62C244.971 274.858 254.316 284.79 247.317 288.665C240.317 292.54 217.805 306.423 210.049 311.84C202.292 317.257 203.806 319.59 209.254 329.597C214.702 339.604 225.561 365.149 225.561 365.149C225.561 365.149 235.663 321.132 240.317 313.382C244.971 305.632 261.316 313.382 255.867 326.512C250.419 339.642 235.663 374.404 235.663 374.404C235.663 374.404 255.867 396.036 265.932 402.244C275.996 408.451 283.79 430.798 283.79 430.798C283.79 430.798 290.79 423.876 309.443 416.916C328.096 409.956 354.505 398.369 352.954 390.581C351.402 382.794 344.403 373.576 329.647 354.277C314.891 334.977 292.341 316.392 301.686 315.64C311.032 314.887 360.71 338.212 365.364 348.859C370.017 359.506 363.85 380.198 363.85 380.198C363.85 380.198 378.606 360.108 378.606 349.273C378.416 342.386 376.264 335.693 372.401 329.973C372.401 329.973 340.544 306.009 327.339 299.086C314.134 292.164 313.378 284.376 317.237 284.376C321.096 284.376 362.299 295.211 370.207 305.256C374.641 310.583 377.578 316.982 378.72 323.804C379.514 326.098 369.412 269.704 356.018 258.117C342.624 246.53 314.853 237.275 298.508 243.445C282.163 249.615 275.201 254.28 272.893 258.907C269.869 264.02 266.533 268.945 262.905 273.654Z" fill="#263238" stroke="#263238" stroke-linecap="round" stroke-linejoin="round"/>
<path d="M320.566 355.556C320.566 355.556 304.865 335.917 301.649 342.464C298.433 349.01 322.42 379.746 324.955 377.225C327.49 374.705 327.642 365.149 320.566 355.556Z" stroke="#263238" stroke-linecap="round" stroke-linejoin="round"/>
<path d="M270.888 277.454C270.888 277.454 323.101 267.898 339.295 272.94" stroke="#263238" stroke-linecap="round" stroke-linejoin="round"/>
<path d="M272.439 289.907C272.439 289.907 315.004 300.516 331.728 313.608" stroke="#263238" stroke-linecap="round" stroke-linejoin="round"/>
<path d="M271.418 294.083C271.418 294.083 247.581 297.13 235.928 306.197C224.275 315.263 223.253 318.273 223.253 318.273" stroke="#263238" stroke-linecap="round" stroke-linejoin="round"/>
<path d="M226.318 263.873C232.203 265.495 237.832 267.926 243.041 271.096C250.255 274.928 257.867 277.968 265.743 280.163C265.743 280.163 284.66 310.26 288.444 337.121C292.227 363.983 288.974 409.655 288.444 411.687" stroke="#263238" stroke-linecap="round" stroke-linejoin="round"/>
<path d="M282.542 317.784C275.403 329.746 269.144 342.207 263.813 355.067" stroke="#263238" stroke-linecap="round" stroke-linejoin="round"/>
<path d="M125.978 98.6031C123.966 91.3716 122.773 83.9392 122.421 76.4442C122.421 66.8508 132.561 53.8715 115.838 47.7016C99.1145 41.5318 67.1812 26.5585 61.1653 18.5076C55.1495 10.4567 54.582 3.87297 40.3936 1.87905C26.2053 -0.114873 13.9087 0.336577 -4.2146 11.4348C-22.3379 22.5331 -26.916 35.6252 -26.916 35.6252C-26.916 35.6252 -19.8029 30.584 20.7191 38.1459C61.241 45.7077 82.5424 70.3872 71.9106 71.403C61.2788 72.4188 3.99578 46.7235 -10.1926 43.6762C-24.3809 40.6289 -32.4778 39.1616 -41.1043 48.2283C-49.7308 57.295 -52.3415 77.46 -52.3415 77.46C-52.3415 77.46 -28.5429 61.3205 -0.658039 63.8411C27.2268 66.3617 70.7756 88.5206 64.684 91.0412C58.5925 93.5619 21.6271 76.4442 -4.70647 80.4697C-31.0401 84.4952 -47.2716 87.0158 -49.3147 97.0983C-51.3578 107.181 -42.2016 113.727 -42.2016 113.727C-42.2016 113.727 -47.8012 104.133 -27.5213 93.5619C-7.24146 82.9903 25.6755 85.5109 25.6755 88.0315C25.6755 90.5522 6.94688 88.5206 -6.25775 95.0667C-19.4624 101.613 -36.5262 111.206 -31.0779 114.743C-25.6296 118.279 -12.8412 126.33 -10.3062 133.553C-7.7712 140.776 -8.26303 156.126 -6.25775 151.198C-4.25246 146.269 -1.67959 131.033 2.89852 128.023C7.47663 125.013 57.6088 127.007 57.6088 127.007C57.6088 127.007 78.3805 116.436 80.9155 111.394C83.4505 106.353 84.4721 97.7754 96.0498 100.108C107.627 102.44 107.173 107.632 100.59 118.919C94.0067 130.205 76.7915 142.582 76.7915 142.582C76.7915 142.582 104.676 127.534 117.313 125.954C129.95 124.374 137.101 119.408 134.566 113.877C132.031 108.347 127.453 103.306 135.058 102.29C142.663 101.274 153.976 101.274 154.808 107.331C155.641 113.388 145.69 119.934 145.69 119.934C145.69 119.934 186.742 108.648 196.39 100.785C206.038 92.9223 214.097 87.1663 211.07 83.1408C208.043 79.1153 192.152 82.6141 192.152 82.6141C192.152 82.6141 177.472 70.5377 160.257 77.6105C150.019 81.784 140.937 88.3377 133.772 96.722C131.45 98.1791 128.713 98.8398 125.978 98.6031Z" fill="#263238" stroke="#263238" stroke-linecap="round" stroke-linejoin="round"/>
<path d="M54.5442 32.0889C56.0576 31.5998 76.8294 52.7429 87.4612 69.8982C98.093 87.0534 125.978 98.6031 125.978 98.6031C125.978 98.6031 87.4611 95.5934 73.8025 96.0825C60.1438 96.5716 25.1459 103.607 12.471 112.711" stroke="#263238" stroke-linecap="round" stroke-linejoin="round"/>
<path d="M134.075 96.5716C134.075 96.5716 174.937 87.7682 179.213 93.9381" stroke="#263238" stroke-linecap="round" stroke-linejoin="round"/>
<path d="M106.114 97.4369C92.6262 92.6967 79.3915 87.2721 66.4623 81.1845C54.0144 74.6008 13.9465 54.5111 -17.1544 54.8497" stroke="#263238" stroke-linecap="round" stroke-linejoin="round"/>
<path d="M62.0734 281.63C62.0734 281.63 80.2724 257.327 75.1267 253.941C69.9811 250.555 18.8274 263.572 5.73625 267.522C-7.35487 271.472 -31.2292 272.037 -57.9411 276.551C-84.6531 281.066 -88.2096 289.004 -95.5119 289.568C-102.814 290.132 -107.998 289.568 -112.576 291.825L-117.116 294.083C-111.64 295.48 -106.308 297.382 -101.187 299.763C-96.0794 302.585 -79.583 303.149 -77.8426 305.407C-76.1021 307.664 -51.6982 318.424 -22.6783 325.76C6.34159 333.096 46.7122 303.714 58.0629 296.904C69.4135 290.095 79.1373 284.489 80.2723 278.808C81.4074 273.128 62.0734 281.63 62.0734 281.63Z" fill="#263238" stroke="#263238" stroke-linecap="round" stroke-linejoin="round"/>
<path d="M62.0735 281.63C62.0735 281.63 50.7229 293.519 45.0097 294.647C39.2965 295.776 4.60122 304.955 -22.0729 304.955C-48.747 304.955 -93.166 297.431 -93.166 297.431" stroke="#263238" stroke-linecap="round" stroke-linejoin="round"/>
<path d="M34.1885 270.344C37.3066 276.238 41.1168 281.744 45.5392 286.747L50.0795 290.509" stroke="#263238" stroke-linecap="round" stroke-linejoin="round"/>
<path d="M34.6804 297.431C34.6804 297.431 11.3737 283.887 -0.582376 281.028C-7.28648 279.374 -14.1476 278.428 -21.0515 278.207" stroke="#263238" stroke-linecap="round" stroke-linejoin="round"/>
<path d="M-0.506614 304.955C-11.6576 299.536 -23.5329 295.735 -35.7694 293.669C-57.3736 289.907 -62.5192 288.59 -62.5192 288.59" stroke="#263238" stroke-linecap="round" stroke-linejoin="round"/>
<path d="M30.2159 298.597C22.4714 306.044 13.1324 311.652 2.89862 315" stroke="#263238" stroke-linecap="round" stroke-linejoin="round"/>
<path d="M207.854 210.639C207.854 210.639 231.312 193.785 222.988 189.233C214.664 184.68 161.089 197.02 108.309 205.447C55.5278 213.874 40.545 225.537 31.4266 234.604C25.7164 240.892 22.0846 248.771 21.0219 257.176C21.0219 257.176 38.6153 259.133 41.8692 260.939C45.1231 262.744 49.0202 247.959 78.3428 233.061C107.665 218.163 127.226 208.457 114.173 223.995C101.12 239.532 84.8505 256.386 73.1214 259.622L61.3924 262.857C61.3924 262.857 92.0392 273.88 98.547 270.645C105.055 267.409 146.598 212.558 151.971 213.197C157.343 213.837 157.835 217.749 148.717 228.772C140.081 238.141 130.706 246.809 120.681 254.693C120.681 254.693 161.732 255.973 163.7 252.737C165.667 249.502 190.412 208.043 192.379 216.47C194.347 224.897 192.379 227.456 188.596 232.647C184.812 237.839 176.223 247.696 176.223 247.696C176.223 247.696 252.462 259.358 253.749 252.248C255.035 245.138 249.208 230.202 235.512 223.731L207.854 210.639Z" fill="#263238" stroke="#263238" stroke-linecap="round" stroke-linejoin="round"/>
<path d="M207.854 210.639C207.854 210.639 165.516 202.851 142.058 206.087" stroke="#263238" stroke-linecap="round" stroke-linejoin="round"/>
<path d="M95.9742 573.947C95.9742 573.759 89.5422 554.722 77.0564 511.608C69.1531 483.061 63.5981 453.921 60.4465 424.478L66.9164 423.876C70.0352 452.911 75.5141 481.647 83.2993 509.803C95.6715 552.766 101.99 571.727 102.028 571.915L95.9742 573.947Z" fill="#263238"/>
<path d="M125.751 410.821C125.751 410.821 115.989 384.261 96.4281 384.9C76.8671 385.54 71.6836 416.653 83.4127 443.853C95.1417 471.053 123.14 487.267 137.48 495.695C151.819 504.122 183.753 524.174 188.974 528.726C194.195 533.278 196.768 512.511 204.108 495.695C211.448 478.878 215.837 426.359 200.325 401.077C184.812 375.796 152.765 356.383 139.788 366.767C126.81 377.15 125.751 410.821 125.751 410.821Z" fill="#263238" stroke="#263238" stroke-linecap="round" stroke-linejoin="round"/>
<path d="M129.686 418.571C129.686 418.571 127.075 425.719 142.058 443.853C157.041 461.986 181.142 480.797 183.677 500.849" stroke="#263238" stroke-linecap="round" stroke-linejoin="round"/>
<path d="M135.512 416.653C135.512 416.653 182.429 409.505 195.482 416.013" stroke="#263238" stroke-linecap="round" stroke-linejoin="round"/>
<path d="M128.361 426.359C128.361 426.359 110.768 441.896 108.157 457.472" stroke="#263238" stroke-linecap="round" stroke-linejoin="round"/>
<path d="M58.6303 413.417C58.6303 413.417 75.5807 404.99 66.4623 393.967C57.344 382.944 41.0368 387.496 25.4107 392.688C9.78458 397.88 11.071 403.034 -31.9102 403.673C-74.8915 404.313 -89.9122 412.1 -89.9122 412.1C-89.9122 412.1 -67.7405 412.1 -54.0818 422.484C-40.4232 432.867 29.9889 444.492 47.5824 447.088C65.176 449.684 89.2016 439.978 91.8879 425.719C94.5742 411.461 58.6303 413.417 58.6303 413.417Z" fill="#263238" stroke="#263238" stroke-linecap="round" stroke-linejoin="round"/>
<path d="M-59.3032 412.74C-59.3032 412.74 -53.4387 415.336 -16.9274 418.571C5.68044 420.489 28.4398 419.63 50.8362 416.013C40.8374 411.715 30.5143 408.206 19.9624 405.517" stroke="#263238" stroke-linecap="round" stroke-linejoin="round"/>
<path d="M-7.31705 411.16C2.77989 413.319 12.6674 416.353 22.2325 420.227C10.7431 424.254 -1.43431 425.98 -13.5978 425.305" stroke="#263238" stroke-linecap="round" stroke-linejoin="round"/>
<path d="M50.8362 416.013C50.8362 416.013 42.7395 431.061 35.3237 433.77" stroke="#263238" stroke-linecap="round" stroke-linejoin="round"/>
</g>
</svg>
