<svg width="392" height="371" viewBox="0 0 392 371" fill="none" xmlns="http://www.w3.org/2000/svg">
<path d="M204.617 127.514C204.617 127.514 209.624 126.399 186.52 123.339C163.416 120.278 152.508 119.713 157.578 121.659C162.647 123.605 181.513 128.345 185.406 130.841C189.298 133.337 192.092 134.749 201.839 137.245C211.586 139.74 244.986 141.953 240.528 140.87C236.071 139.787 211.303 128.063 204.617 127.514Z" fill="#245957" stroke="#245957" stroke-linecap="round" stroke-linejoin="round"/>
<path d="M189.125 288.722L186.708 287.513C186.708 287.513 187.477 285.394 188.278 273.827C189.172 260.281 191.856 207.105 190.224 190.264C188.56 172.999 193.096 135.33 193.363 133.76L196.047 134.09C196.047 134.482 191.338 173.109 192.986 190.029C194.634 206.948 191.951 260.423 191.04 274.031C190.177 285.818 189.345 288.266 189.125 288.722Z" fill="#245957"/>
<path d="M172.331 195.145C172.331 195.145 152.006 188.192 148.396 195.977C144.786 203.762 165.928 213.525 170.103 216.02C174.362 218.92 178.45 222.064 182.345 225.437L180.964 214.592C180.964 214.592 189.581 204.845 189.031 195.098C188.482 185.351 181.184 186.199 177.056 189.259C172.928 192.32 172.331 195.145 172.331 195.145Z" fill="#245957" stroke="#245957" stroke-linecap="round" stroke-linejoin="round"/>
<path d="M192.563 280.403L189.957 279.697C190.381 278.127 200.379 241.525 207.097 230.633C211.582 223.723 216.455 217.073 221.693 210.715C225.586 205.787 229.541 200.686 233.308 195.475C242.192 182.919 245.598 179.779 245.739 179.685L247.56 181.663C247.56 181.663 244.154 184.802 235.505 197.044C231.754 202.302 227.658 207.419 223.812 212.379C218.64 218.659 213.825 225.225 209.388 232.045C202.875 242.608 192.657 280.026 192.563 280.403Z" fill="#53B175" stroke="#245957" stroke-linecap="round" stroke-linejoin="round"/>
<path d="M204.303 246.925L202.184 245.245C202.89 244.335 219.998 223.036 237.467 223.036C251.436 223.036 256.475 226.175 260.163 228.482C260.923 228.988 261.715 229.444 262.533 229.848C267.822 232.328 275.183 234.478 279.955 233.113L280.708 235.702C273.802 237.68 264.181 233.583 261.387 232.296C260.47 231.831 259.584 231.306 258.735 230.727C255.329 228.592 250.667 225.689 237.467 225.689C221.332 225.72 204.444 246.705 204.303 246.925Z" fill="#53B175" stroke="#245957" stroke-linecap="round" stroke-linejoin="round"/>
<path d="M240.528 96.6093C240.528 96.6093 212.684 198.771 209.906 210.182C207.128 221.592 203.503 240.301 203.503 240.301L202.388 242.812L192.657 214.969L174.56 145.595C174.56 145.595 162.584 111.912 162.584 106.623C162.584 101.334 163.15 92.7168 163.15 92.7168L160.638 88.8087C160.638 88.8087 158.409 106.623 160.356 112.477C162.302 118.332 190.428 222.989 192.657 231.606C194.886 240.223 193.756 255.275 192.657 262.51C191.928 267.678 191.462 272.88 191.26 278.096L202.388 277.813C202.388 277.813 210.471 251.131 210.471 237.178C210.471 223.224 228.835 150.335 231.346 141.153C233.857 131.971 243.306 98.0062 243.306 98.0062L240.528 96.6093Z" fill="#53B175" stroke="#245957" stroke-linecap="round" stroke-linejoin="round"/>
<path d="M249.16 72.3599C246.555 66.0184 241.697 60.8642 235.521 57.8887C224.942 52.5993 208.839 61.2318 202.388 69.5818C195.937 77.9317 201.556 89.8917 212.684 94.0667C223.812 98.2416 241.925 100.47 244.42 102.982C246.916 105.493 253.602 119.964 253.602 119.964C253.602 119.964 257.51 106.074 260.806 105.32C264.103 104.567 284.758 99.4659 292.197 92.5128C299.637 85.5597 310.294 68.2947 305.837 64.9516C301.264 61.7555 295.956 59.7722 290.408 59.1875C284.86 58.6028 279.254 59.4358 274.116 61.6085C267.546 64.2394 261.16 67.3069 254.999 70.7903C253.174 71.69 251.191 72.2232 249.16 72.3599Z" fill="#53B175" stroke="#245957" stroke-linecap="round" stroke-linejoin="round"/>
<path d="M249.161 72.3598C249.161 72.3598 252.488 84.9162 250.824 96.0286" stroke="#245957" stroke-linecap="round" stroke-linejoin="round"/>
<path d="M230.985 78.3555C227.793 79.3138 224.862 80.9887 222.415 83.2525" stroke="#245957" stroke-linecap="round" stroke-linejoin="round"/>
<path d="M249.71 75.7343C244.427 75.6732 239.156 76.2583 234.014 77.4765" stroke="#245957" stroke-linecap="round" stroke-linejoin="round"/>
<path d="M221.317 72.3598C221.317 72.3598 236.071 68.1848 245.252 71.8105" stroke="#245957" stroke-linecap="round" stroke-linejoin="round"/>
<path d="M273.441 87.5844C274.519 88.2854 275.542 89.0672 276.502 89.923" stroke="#245957" stroke-linecap="round" stroke-linejoin="round"/>
<path d="M252.221 84.0843C258.075 82.8413 264.167 83.3882 269.706 85.6539" stroke="#245957" stroke-linecap="round" stroke-linejoin="round"/>
<path d="M280.928 69.3934C285.114 68.4334 289.394 67.9438 293.688 67.9337" stroke="#245957" stroke-linecap="round" stroke-linejoin="round"/>
<path d="M253.885 75.4989C253.885 75.4989 266.975 73.5527 270.867 72.1558C272.437 71.6221 275.058 70.8217 278.197 70.0683" stroke="#245957" stroke-linecap="round" stroke-linejoin="round"/>
<path d="M250.275 82.4206C250.275 82.4206 241.36 86.5956 237.467 90.7706" stroke="#245957" stroke-linecap="round" stroke-linejoin="round"/>
<path d="M163.149 92.7639C163.149 92.7639 137.817 71.0414 126.673 68.2633C115.529 65.4852 85.4884 59.8035 77.1698 56.5231C72.4153 54.7365 68.1959 51.7651 64.9117 47.8906C77.9024 46.9914 90.945 48.5898 103.334 52.5993C123.927 59.2855 142.023 67.0705 142.023 67.0705C142.023 67.0705 156.777 67.9023 167.905 75.9855C179.033 84.0686 194.352 102.15 191.009 101.098C187.666 100.047 174.591 94.6944 170.966 94.1294C167.34 93.5644 163.149 92.7639 163.149 92.7639Z" fill="#53B175" stroke="#245957" stroke-linecap="round" stroke-linejoin="round"/>
<path d="M148.945 71.8419C149.777 72.1087 154.517 78.2456 156.181 83.2525" stroke="#245957" stroke-linecap="round" stroke-linejoin="round"/>
<path d="M160.356 84.6337C160.016 80.6557 158.677 76.8279 156.463 73.5056" stroke="#245957" stroke-linecap="round" stroke-linejoin="round"/>
<path d="M163.149 89.6248C163.149 89.6248 170.102 86.831 176.224 88.7772" stroke="#245957" stroke-linecap="round" stroke-linejoin="round"/>
<path d="M149.228 78.2456C149.228 78.2456 139.198 69.0481 132.528 65.9875C125.857 62.9269 104.966 58.1398 92.1589 53.4311" stroke="#245957" stroke-linecap="round" stroke-linejoin="round"/>
<path d="M247.764 170.927C247.764 170.927 254.167 190.421 260.006 197.923C265.845 205.426 283.11 215.738 285.339 218.531C287.567 221.325 287.85 226.379 287.85 226.379C287.85 226.379 296.482 216.083 295.697 207.451C295.088 201.486 293.261 195.711 290.329 190.481C287.397 185.252 283.423 180.68 278.652 177.048C266.975 168.432 253.54 157.853 250.824 157.853C248.109 157.853 245.817 164.523 247.764 170.927Z" fill="#53B175" stroke="#245957" stroke-linecap="round" stroke-linejoin="round"/>
<path d="M254.528 171.759C254.528 171.759 271.228 182.071 280.693 191.535C290.157 201 289.309 217.7 289.309 217.7" stroke="#245957" stroke-linecap="round" stroke-linejoin="round"/>
<path d="M267.524 180.957C267.524 180.957 275.874 194.313 276.941 200.435" stroke="#245957" stroke-linecap="round" stroke-linejoin="round"/>
<path d="M262.235 177.048C262.235 177.048 272.264 175.934 281.446 184.896" stroke="#245957" stroke-linecap="round" stroke-linejoin="round"/>
<path d="M194.603 158.12C194.603 158.12 182.91 150.272 177.056 154.227C171.201 158.183 173.446 171.21 191.543 176.201C209.639 181.192 212.417 178.979 229.667 178.712C246.916 178.445 254.528 188.506 254.528 188.506C254.528 188.506 253.414 175.149 253.681 169.311C253.948 163.472 250.62 145.924 238.66 142.314C226.7 138.704 209.702 143.978 203.863 147.321C198.025 150.664 194.603 158.12 194.603 158.12Z" fill="#53B175" stroke="#245957" stroke-linecap="round" stroke-linejoin="round"/>
<path d="M238.488 171.79C243.683 173.925 248.329 176.625 249.992 179.842" stroke="#245957" stroke-linecap="round" stroke-linejoin="round"/>
<path d="M197.381 159.234L219.355 166.203C219.355 166.203 224.299 167.145 230.342 168.918" stroke="#245957" stroke-linecap="round" stroke-linejoin="round"/>
<path d="M203.502 161.18C209.518 157.108 216.364 154.427 223.546 153.333" stroke="#245957" stroke-linecap="round" stroke-linejoin="round"/>
<path d="M213.249 163.393C213.249 163.393 225.806 158.685 233.559 161.447" stroke="#245957" stroke-linecap="round" stroke-linejoin="round"/>
<path d="M200.159 160.631C198.464 162.99 197.498 165.795 197.381 168.698" stroke="#245957" stroke-linecap="round" stroke-linejoin="round"/>
<path d="M209.357 163.393C209.33 166.308 209.705 169.213 210.471 172.026" stroke="#245957" stroke-linecap="round" stroke-linejoin="round"/>
<path d="M183.334 282.773C183.177 282.412 179.598 273.356 174.89 244.633C170.181 215.91 164.923 177.143 164.876 176.672L167.544 176.311C167.544 176.703 172.881 215.549 177.558 244.194C182.235 272.838 185.782 281.674 185.829 281.768L183.334 282.773Z" fill="#53B175" stroke="#245957" stroke-linecap="round" stroke-linejoin="round"/>
<path d="M177.056 169.813L165.645 172.952C165.645 172.952 170.652 177.127 170.103 180.47C169.553 183.813 165.096 178.524 149.228 178.241C133.359 177.959 121.666 177.127 113.881 173.234C106.097 169.342 101.623 167.396 100.791 167.113C99.9596 166.831 125.904 159.595 138.366 159.265C150.829 158.936 162.867 164.555 162.867 164.555C162.867 164.555 180.116 168.432 177.056 169.813Z" fill="#53B175" stroke="#245957" stroke-linecap="round" stroke-linejoin="round"/>
<path d="M165.645 172.811C165.645 172.811 163.981 171.696 150.059 170.033C136.138 168.369 130.016 171.147 117.491 166.893" stroke="#245957" stroke-linecap="round" stroke-linejoin="round"/>
<path d="M156.181 171.241C154.8 171.241 150.342 172.905 142.541 173.47" stroke="#245957" stroke-linecap="round" stroke-linejoin="round"/>
<path d="M146.45 169.813C146.45 169.813 138.602 167.317 133.893 165.355" stroke="#245957" stroke-linecap="round" stroke-linejoin="round"/>
<path d="M280.332 234.4C280.332 234.4 284.507 219.081 296.2 226.05C307.893 233.018 322.019 251.931 323.196 254.427C324.103 256.137 325.446 257.578 327.088 258.602C323.443 260.619 319.494 262.029 315.395 262.777C307.548 264.441 293.971 259.983 289.513 253.862C286.078 248.799 283.009 243.496 280.332 237.994V234.4Z" fill="#53B175" stroke="#245957" stroke-linecap="round" stroke-linejoin="round"/>
<path d="M280.332 238.01C280.332 238.01 290.628 236.895 296.2 239.124C301.772 241.353 315.741 252.763 315.741 252.763" stroke="#245957" stroke-linecap="round" stroke-linejoin="round"/>
<path d="M161.203 135.016C161.203 135.016 156.746 124.72 146.45 125.834C136.153 126.949 116.408 131.124 106.646 136.978C96.8833 142.832 83.5422 154.243 83.5422 155.059V160.082C83.5422 160.082 89.9302 152.83 94.6703 150.335C99.4103 147.839 106.991 146.442 111.7 142.817C115.099 140.396 118.853 138.516 122.828 137.245L140.925 142.817C140.925 142.817 148.992 144.763 151.221 143.649C153.45 142.534 152.618 141.153 152.618 141.153C152.618 141.153 160.136 142.817 161.8 140.305C163.463 137.794 161.203 135.016 161.203 135.016Z" fill="#53B175" stroke="#245957" stroke-linecap="round" stroke-linejoin="round"/>
<path d="M152.508 141.153C152.508 141.153 145.539 138.924 141.364 137.81C137.189 136.695 134.411 132.238 125.229 132.803" stroke="#245957" stroke-linecap="round" stroke-linejoin="round"/>
<path d="M147.564 130.841C145.858 131.032 144.284 131.852 143.149 133.14C142.015 134.428 141.401 136.093 141.427 137.81C141.427 137.81 131.413 135.864 128.07 136.413" stroke="#245957" stroke-linecap="round" stroke-linejoin="round"/>
<path d="M186.332 279.241C186.19 278.692 173.147 223.931 162.788 198.441C152.429 172.952 137.676 142.032 137.503 141.734L139.92 140.572C140.077 140.87 154.815 171.79 165.284 197.421C175.753 223.052 188.827 278.064 189.016 278.614L186.332 279.241Z" fill="#53B175" stroke="#245957" stroke-linecap="round" stroke-linejoin="round"/>
<path d="M230.624 307.603H151.598V369.679H230.624V307.603Z" fill="white" stroke="#245957" stroke-linecap="round" stroke-linejoin="round"/>
<path d="M238.864 274.203H143.389V336.279H238.864V274.203Z" fill="white" stroke="#245957" stroke-linecap="round" stroke-linejoin="round"/>
<path d="M152.508 222.141C152.508 222.141 149.447 209.899 141.364 212.128C133.281 214.357 121.054 233.835 126.344 248.039C131.633 262.243 140.815 275.318 152.508 277.264C164.201 279.21 168.094 285.614 168.094 285.614C168.094 285.614 167.811 277.264 168.925 275.867C170.04 274.47 180.336 266.968 180.901 247.756C181.466 228.545 176.192 219.081 166.979 216.585C157.766 214.09 155.349 217.135 152.508 222.141Z" fill="#53B175" stroke="#245957" stroke-linecap="round" stroke-linejoin="round"/>
<path d="M152.508 222.141C152.508 222.141 155.851 246.925 159.178 255.824" stroke="#245957" stroke-linecap="round" stroke-linejoin="round"/>
<path d="M154.234 235.231C154.234 235.231 149.777 251.1 147.799 257.566" stroke="#245957" stroke-linecap="round" stroke-linejoin="round"/>
<path d="M157.013 245.81C157.013 245.81 163.416 253.328 165.928 259.167" stroke="#245957" stroke-linecap="round" stroke-linejoin="round"/>
<path d="M143.656 241.635C146.537 236.936 149.898 232.549 153.685 228.545C153.685 228.545 165.928 235.514 167.591 240.238" stroke="#245957" stroke-linecap="round" stroke-linejoin="round"/>
<path d="M175.841 321.729L183.241 294.169H190.881L198.281 321.729H194.401L192.601 315.129H181.481L179.681 321.729H175.841ZM182.241 311.849H191.881L188.041 297.369H186.081L182.241 311.849ZM202.184 321.729V294.169H206.024V321.729H202.184Z" fill="#245957"/>
<path d="M163.258 359.455C162.853 359.455 162.41 359.428 161.93 359.375C161.45 359.332 160.981 359.279 160.522 359.215C160.074 359.14 159.69 359.076 159.37 359.023L159.514 357.279C159.845 357.321 160.229 357.369 160.666 357.423C161.104 357.465 161.536 357.503 161.962 357.535C162.4 357.567 162.778 357.583 163.098 357.583C163.504 357.583 163.834 357.529 164.09 357.423C164.346 357.316 164.533 357.156 164.65 356.943C164.778 356.719 164.842 356.436 164.842 356.095C164.842 355.817 164.784 355.599 164.666 355.439C164.56 355.268 164.362 355.135 164.074 355.039C163.786 354.932 163.386 354.831 162.874 354.735C162.234 354.617 161.685 354.479 161.226 354.319C160.778 354.159 160.41 353.961 160.122 353.727C159.834 353.481 159.621 353.172 159.482 352.799C159.354 352.425 159.29 351.972 159.29 351.439C159.29 350.607 159.445 349.956 159.754 349.487C160.064 349.007 160.506 348.665 161.082 348.463C161.658 348.26 162.336 348.159 163.114 348.159C163.466 348.159 163.866 348.18 164.314 348.223C164.773 348.255 165.221 348.297 165.658 348.351C166.106 348.404 166.485 348.463 166.794 348.527L166.698 350.287C166.378 350.244 166.005 350.207 165.578 350.175C165.162 350.132 164.746 350.095 164.33 350.063C163.925 350.031 163.578 350.015 163.29 350.015C162.896 350.015 162.565 350.057 162.298 350.143C162.032 350.228 161.834 350.361 161.706 350.543C161.578 350.724 161.514 350.953 161.514 351.231C161.514 351.551 161.578 351.796 161.706 351.967C161.834 352.137 162.048 352.276 162.346 352.383C162.656 352.489 163.077 352.601 163.61 352.719C164.24 352.857 164.773 353.007 165.21 353.167C165.658 353.327 166.016 353.519 166.282 353.743C166.56 353.967 166.762 354.255 166.89 354.607C167.018 354.959 167.082 355.401 167.082 355.935C167.082 356.788 166.928 357.476 166.618 357.999C166.32 358.511 165.882 358.884 165.306 359.119C164.741 359.343 164.058 359.455 163.258 359.455ZM171.765 359.455C170.847 359.455 170.127 359.316 169.605 359.039C169.093 358.751 168.73 358.292 168.517 357.663C168.314 357.033 168.213 356.207 168.213 355.183C168.213 354.169 168.33 353.364 168.565 352.767C168.799 352.159 169.178 351.727 169.701 351.471C170.234 351.204 170.927 351.071 171.781 351.071C172.005 351.071 172.266 351.087 172.565 351.119C172.863 351.151 173.162 351.193 173.461 351.247C173.77 351.289 174.031 351.332 174.245 351.375L174.165 353.087C173.962 353.065 173.733 353.049 173.477 353.039C173.221 353.017 172.97 353.001 172.725 352.991C172.49 352.969 172.298 352.959 172.149 352.959C171.69 352.959 171.327 353.033 171.061 353.183C170.805 353.321 170.623 353.556 170.517 353.887C170.421 354.207 170.373 354.639 170.373 355.183C170.373 355.769 170.421 356.239 170.517 356.591C170.613 356.943 170.783 357.193 171.029 357.343C171.285 357.492 171.658 357.567 172.149 357.567C172.298 357.567 172.495 357.561 172.741 357.551C172.986 357.529 173.237 357.508 173.493 357.487C173.759 357.465 173.994 357.449 174.197 357.439L174.261 359.151C174.047 359.193 173.791 359.236 173.493 359.279C173.194 359.332 172.89 359.375 172.581 359.407C172.282 359.439 172.01 359.455 171.765 359.455ZM177.737 359.455C176.905 359.455 176.276 359.247 175.849 358.831C175.433 358.404 175.225 357.764 175.225 356.911C175.225 356.313 175.332 355.849 175.545 355.519C175.758 355.177 176.073 354.932 176.489 354.783C176.916 354.623 177.433 354.527 178.041 354.495L179.993 354.319V353.839C179.993 353.455 179.897 353.188 179.705 353.039C179.513 352.879 179.23 352.799 178.857 352.799C178.558 352.799 178.212 352.809 177.817 352.831C177.433 352.852 177.049 352.879 176.665 352.911C176.292 352.943 175.966 352.975 175.689 353.007L175.625 351.503C175.902 351.439 176.233 351.375 176.617 351.311C177.012 351.236 177.422 351.177 177.849 351.135C178.276 351.092 178.67 351.071 179.033 351.071C179.716 351.071 180.286 351.156 180.745 351.327C181.204 351.497 181.55 351.78 181.785 352.175C182.02 352.559 182.137 353.081 182.137 353.743V357.407C182.158 357.556 182.238 357.673 182.377 357.759C182.516 357.833 182.676 357.887 182.857 357.919L182.809 359.391C182.638 359.391 182.468 359.391 182.297 359.391C182.137 359.401 181.982 359.401 181.833 359.391C181.684 359.391 181.55 359.38 181.433 359.359C181.188 359.327 180.974 359.263 180.793 359.167C180.622 359.071 180.484 358.969 180.377 358.863C180.206 358.937 179.977 359.023 179.689 359.119C179.401 359.215 179.086 359.295 178.745 359.359C178.414 359.423 178.078 359.455 177.737 359.455ZM178.249 357.871C178.452 357.871 178.665 357.849 178.889 357.807C179.113 357.764 179.321 357.716 179.513 357.663C179.716 357.599 179.876 357.54 179.993 357.487V355.647L178.361 355.791C178.009 355.823 177.753 355.929 177.593 356.111C177.444 356.281 177.369 356.527 177.369 356.847C177.369 357.167 177.438 357.417 177.577 357.599C177.726 357.78 177.95 357.871 178.249 357.871ZM184.016 359.279V351.247H186.144V351.759C186.315 351.652 186.523 351.551 186.768 351.455C187.013 351.348 187.269 351.257 187.536 351.183C187.813 351.108 188.08 351.071 188.336 351.071C188.891 351.071 189.349 351.145 189.712 351.295C190.085 351.433 190.379 351.663 190.592 351.983C190.805 352.303 190.96 352.724 191.056 353.247C191.152 353.759 191.2 354.383 191.2 355.119V359.279H189.056V355.231C189.056 354.676 189.024 354.233 188.96 353.903C188.896 353.561 188.773 353.316 188.592 353.167C188.411 353.017 188.144 352.943 187.792 352.943C187.6 352.943 187.397 352.964 187.184 353.007C186.981 353.039 186.784 353.087 186.592 353.151C186.411 353.215 186.261 353.279 186.144 353.343V359.279H184.016ZM192.86 359.279V351.247H194.988V351.759C195.158 351.652 195.366 351.551 195.612 351.455C195.857 351.348 196.113 351.257 196.38 351.183C196.657 351.108 196.924 351.071 197.18 351.071C197.734 351.071 198.193 351.145 198.556 351.295C198.929 351.433 199.222 351.663 199.436 351.983C199.649 352.303 199.804 352.724 199.9 353.247C199.996 353.759 200.044 354.383 200.044 355.119V359.279H197.9V355.231C197.9 354.676 197.868 354.233 197.804 353.903C197.74 353.561 197.617 353.316 197.436 353.167C197.254 353.017 196.988 352.943 196.636 352.943C196.444 352.943 196.241 352.964 196.028 353.007C195.825 353.039 195.628 353.087 195.436 353.151C195.254 353.215 195.105 353.279 194.988 353.343V359.279H192.86ZM201.704 359.279V351.247H203.832V359.279H201.704ZM201.704 349.967V348.143H203.848V349.967H201.704ZM205.61 359.279V351.247H207.738V351.759C207.908 351.652 208.116 351.551 208.362 351.455C208.607 351.348 208.863 351.257 209.13 351.183C209.407 351.108 209.674 351.071 209.93 351.071C210.484 351.071 210.943 351.145 211.306 351.295C211.679 351.433 211.972 351.663 212.186 351.983C212.399 352.303 212.554 352.724 212.65 353.247C212.746 353.759 212.794 354.383 212.794 355.119V359.279H210.65V355.231C210.65 354.676 210.618 354.233 210.554 353.903C210.49 353.561 210.367 353.316 210.186 353.167C210.004 353.017 209.738 352.943 209.386 352.943C209.194 352.943 208.991 352.964 208.778 353.007C208.575 353.039 208.378 353.087 208.186 353.151C208.004 353.215 207.855 353.279 207.738 353.343V359.279H205.61ZM217.99 362.943C217.136 362.943 216.422 362.879 215.846 362.751C215.28 362.623 214.854 362.388 214.566 362.047C214.278 361.716 214.134 361.236 214.134 360.607C214.134 360.329 214.171 360.079 214.246 359.855C214.331 359.641 214.459 359.439 214.63 359.247C214.811 359.055 215.035 358.857 215.302 358.655C215.152 358.548 215.03 358.393 214.934 358.191C214.848 357.977 214.806 357.748 214.806 357.503C214.806 357.417 214.843 357.305 214.918 357.167C214.992 357.017 215.083 356.863 215.19 356.703C215.296 356.543 215.398 356.399 215.494 356.271C215.28 356.175 215.078 356.036 214.886 355.855C214.694 355.663 214.534 355.407 214.406 355.087C214.288 354.767 214.23 354.356 214.23 353.855C214.23 353.172 214.358 352.628 214.614 352.223C214.88 351.817 215.264 351.524 215.766 351.343C216.267 351.161 216.875 351.071 217.59 351.071C217.867 351.071 218.166 351.092 218.486 351.135C218.806 351.177 219.062 351.22 219.254 351.263L221.862 351.215V352.655L220.646 352.639C220.742 352.767 220.827 352.932 220.902 353.135C220.987 353.327 221.03 353.567 221.03 353.855C221.03 354.591 220.902 355.161 220.646 355.567C220.4 355.972 220.027 356.255 219.526 356.415C219.024 356.564 218.39 356.639 217.622 356.639C217.536 356.639 217.419 356.633 217.27 356.623C217.12 356.601 216.998 356.585 216.902 356.575C216.859 356.681 216.816 356.804 216.774 356.943C216.731 357.071 216.71 357.161 216.71 357.215C216.71 357.332 216.731 357.423 216.774 357.487C216.827 357.551 216.918 357.604 217.046 357.647C217.184 357.679 217.382 357.7 217.638 357.711C217.904 357.721 218.256 357.727 218.694 357.727C219.451 357.727 220.054 357.796 220.502 357.935C220.96 358.073 221.286 358.319 221.478 358.671C221.67 359.023 221.766 359.519 221.766 360.159C221.766 361.108 221.43 361.807 220.758 362.255C220.096 362.713 219.174 362.943 217.99 362.943ZM217.878 361.359C218.539 361.359 219.014 361.279 219.302 361.119C219.6 360.969 219.75 360.719 219.75 360.367C219.75 360.089 219.696 359.887 219.59 359.759C219.494 359.631 219.328 359.545 219.094 359.503C218.859 359.471 218.539 359.455 218.134 359.455C218.027 359.455 217.899 359.449 217.75 359.439C217.6 359.439 217.446 359.433 217.286 359.423C217.136 359.423 216.998 359.417 216.87 359.407C216.752 359.396 216.667 359.391 216.614 359.391C216.464 359.497 216.342 359.599 216.246 359.695C216.16 359.791 216.096 359.887 216.054 359.983C216.022 360.089 216.006 360.217 216.006 360.367C216.006 360.612 216.064 360.804 216.182 360.943C216.299 361.092 216.491 361.199 216.758 361.263C217.035 361.327 217.408 361.359 217.878 361.359ZM217.606 355.135C218.096 355.135 218.443 355.039 218.646 354.847C218.859 354.644 218.966 354.313 218.966 353.855C218.966 353.396 218.859 353.065 218.646 352.863C218.443 352.66 218.096 352.559 217.606 352.559C217.136 352.559 216.795 352.66 216.582 352.863C216.379 353.065 216.278 353.396 216.278 353.855C216.278 354.313 216.379 354.644 216.582 354.847C216.795 355.039 217.136 355.135 217.606 355.135Z" fill="#245957"/>
<g opacity="0.8">
<path d="M108.56 358.024C103.68 355.364 101.47 357.584 99.7 355.364C97.93 353.144 104.57 347.364 91.28 341.634C91.28 341.634 90.39 329.224 72.22 328.784C54.05 328.344 58.93 341.184 54.06 344.284C49.19 347.384 47.85 342.514 42.98 345.614C38.11 348.714 40.32 354.924 36.33 355.804C32.34 356.684 27.03 351.804 22.15 354.924C17.27 358.044 17.28 360.684 15.07 360.684C12.86 360.684 8.42001 358.914 5.76001 360.684C3.10001 362.454 0 364.684 0 364.684H112.13C112.13 364.684 113.43 360.684 108.56 358.024Z" fill="#245957"/>
<path opacity="0.5" d="M115.56 358.024C110.68 355.364 108.47 357.584 106.7 355.364C104.93 353.144 111.57 347.364 98.28 341.634C98.28 341.634 97.39 329.224 79.22 328.784C61.05 328.344 65.93 341.184 61.06 344.284C56.19 347.384 54.85 342.514 49.98 345.614C45.11 348.714 47.32 354.924 43.33 355.804C39.34 356.684 34.03 351.804 29.15 354.924C24.27 358.044 24.28 360.684 22.07 360.684C19.86 360.684 15.42 358.914 12.76 360.684C10.1 362.454 7 364.684 7 364.684H119.13C119.13 364.684 120.43 360.684 115.56 358.024Z" fill="#245957"/>
</g>
<g opacity="0.8">
<path d="M380.56 29.4957C375.68 26.8357 373.47 29.0557 371.7 26.8357C369.93 24.6157 376.57 18.8357 363.28 13.1057C363.28 13.1057 362.39 0.695731 344.22 0.255731C326.05 -0.184269 330.93 12.6557 326.06 15.7557C321.19 18.8557 319.85 13.9857 314.98 17.0857C310.11 20.1857 312.32 26.3957 308.33 27.2757C304.34 28.1557 299.03 23.2757 294.15 26.3957C289.27 29.5157 289.28 32.1557 287.07 32.1557C284.86 32.1557 280.42 30.3857 277.76 32.1557C275.1 33.9257 272 36.1557 272 36.1557H384.13C384.13 36.1557 385.43 32.1557 380.56 29.4957Z" fill="#245957"/>
<path opacity="0.5" d="M387.56 29.4957C382.68 26.8357 380.47 29.0557 378.7 26.8357C376.93 24.6157 383.57 18.8357 370.28 13.1057C370.28 13.1057 369.39 0.695731 351.22 0.255731C333.05 -0.184269 337.93 12.6557 333.06 15.7557C328.19 18.8557 326.85 13.9857 321.98 17.0857C317.11 20.1857 319.32 26.3957 315.33 27.2757C311.34 28.1557 306.03 23.2757 301.15 26.3957C296.27 29.5157 296.28 32.1557 294.07 32.1557C291.86 32.1557 287.42 30.3857 284.76 32.1557C282.1 33.9257 279 36.1557 279 36.1557H391.13C391.13 36.1557 392.43 32.1557 387.56 29.4957Z" fill="#245957"/>
</g>
</svg>
