<svg width="46" height="48" viewBox="0 0 46 48" fill="none" xmlns="http://www.w3.org/2000/svg">
<g filter="url(#filter0_d_535_833)">
<path d="M7.50977 13.5139C8.63477 15.3264 9.88477 15.5764 10.7598 14.5139C12.1348 12.8889 10.6348 10.8264 9.00977 10.2639C6.32227 9.20144 4.00977 12.2014 4.00977 12.2014C4.00977 12.2014 6.57227 11.9514 7.50977 13.5139Z" fill="#F29A2E"/>
<path d="M29.5098 7.13892C24.6973 9.95142 28.6973 16.7014 20.0098 18.5139L29.2598 23.0764C31.1348 26.3264 36.3223 26.5764 36.3223 26.5764C36.3223 26.5764 37.6348 22.7014 36.5723 19.8264C39.4473 19.8264 41.4473 18.0764 41.4473 18.0764C41.4473 18.0764 39.8223 12.3264 34.8848 12.3264C39.7598 10.3264 40.6348 6.20142 40.6348 6.20142C40.6348 6.20142 36.3223 3.20142 29.5098 7.13892Z" fill="#E1EAF2"/>
<path d="M25.0723 39.5139H16.1348C16.1348 38.7639 21.3848 38.6389 21.6348 33.6389C22.4473 39.2014 25.0723 38.7639 25.0723 39.5139Z" fill="#F4BC58"/>
<path d="M33.6348 19.8889C33.6348 27.0764 27.7598 34.4514 20.5098 34.4514C13.2598 34.4514 7.38477 27.0764 7.38477 19.8889C7.38477 15.0764 17.7598 18.4514 20.5098 18.4514C27.7598 18.3889 33.6348 12.6389 33.6348 19.8889Z" fill="#D1DCE6"/>
<path d="M25.5098 31.5139C25.5098 32.9514 23.4473 36.0764 21.6348 36.0764C19.8223 36.0764 17.7598 33.9514 17.7598 32.5139C17.7598 31.0764 25.5098 30.8264 25.5098 31.5139Z" fill="#D1DCE6"/>
<path d="M6.82227 17.2014C6.82227 19.0764 7.19727 24.5139 7.19727 24.5139L8.88477 22.3889L10.8848 24.7639L11.3223 21.4514L14.3848 23.6389L13.8223 20.3889L17.5098 20.7639L15.8223 18.7639L18.3848 17.0764C18.3848 17.0764 15.2598 17.7639 15.3223 15.8264C15.3848 13.8889 16.9473 8.38892 15.0098 7.57642C11.4473 6.26392 6.82227 9.26392 6.82227 17.2014Z" fill="#E1EAF2"/>
<path d="M6.82227 11.0139C7.06389 11.0139 7.25977 10.93 7.25977 10.8264C7.25977 10.7229 7.06389 10.6389 6.82227 10.6389C6.58064 10.6389 6.38477 10.7229 6.38477 10.8264C6.38477 10.93 6.58064 11.0139 6.82227 11.0139Z" fill="#3E4347"/>
<path d="M9.94727 12.1389C10.465 12.1389 10.8848 11.7192 10.8848 11.2014C10.8848 10.6836 10.465 10.2639 9.94727 10.2639C9.4295 10.2639 9.00977 10.6836 9.00977 11.2014C9.00977 11.7192 9.4295 12.1389 9.94727 12.1389Z" fill="#3E4347"/>
<path d="M7.63561 15.5139C7.63561 17.5139 6.32311 16.0764 6.32311 16.0764C5.88561 16.0764 4.07311 17.4514 4.69811 15.1389C5.51061 12.1389 8.63561 10.1389 8.63561 10.1389C8.63561 10.1389 7.63561 11.8889 7.63561 15.5139Z" fill="#E24B4B"/>
<path d="M15.7611 7.38889V6.63889C15.6361 5.07639 17.8861 4.45139 17.6361 3.63889C17.2611 2.57639 14.3236 3.26389 12.8861 5.57639C12.6986 5.82639 12.5736 6.13889 12.5111 6.51389C12.4486 6.26389 12.3861 6.01389 12.2611 5.76389C11.5736 4.32639 13.6361 3.01389 13.0111 2.32639C12.1986 1.38889 9.76112 3.01389 9.19862 5.70139C9.07362 6.26389 9.07362 6.82639 9.26112 7.38889C9.19862 7.32639 9.13612 7.26389 9.07362 7.26389C8.01112 6.45139 9.07362 4.76389 8.32362 4.38889C7.19862 3.88889 6.19862 6.13889 6.76112 8.32639C7.13612 9.57639 8.51112 10.8889 9.63612 9.82639C10.0111 9.51389 10.8861 9.01389 11.3861 8.82639C11.7611 8.70139 12.7611 8.76389 13.3861 9.20139C13.9486 9.57639 14.3861 10.3264 15.1986 10.3264C18.7611 10.4514 20.6986 7.01389 19.3861 6.26389C18.6986 5.76389 17.6361 7.01389 15.7611 7.38889Z" fill="#E24B4B"/>
<path d="M29.3224 28.2014C28.7599 26.8264 27.1349 26.0764 27.1349 26.0764C28.8224 25.2014 29.8224 23.3264 29.8224 23.3264C28.9474 22.9514 25.5724 22.7014 25.5724 22.7014C26.3224 21.9514 26.9474 20.8889 26.9474 20.8889C26.9474 20.8889 23.0724 19.9514 19.8224 21.7014C15.5724 24.0764 16.8224 29.7014 21.6349 30.3264C26.9474 31.0139 29.3224 28.2014 29.3224 28.2014Z" fill="#E1EAF2"/>
</g>
<defs>
<filter id="filter0_d_535_833" x="-1.24023" y="0.763916" width="48" height="48" filterUnits="userSpaceOnUse" color-interpolation-filters="sRGB">
<feFlood flood-opacity="0" result="BackgroundImageFix"/>
<feColorMatrix in="SourceAlpha" type="matrix" values="0 0 0 0 0 0 0 0 0 0 0 0 0 0 0 0 0 0 127 0" result="hardAlpha"/>
<feOffset dy="4"/>
<feGaussianBlur stdDeviation="2"/>
<feComposite in2="hardAlpha" operator="out"/>
<feColorMatrix type="matrix" values="0 0 0 0 0 0 0 0 0 0 0 0 0 0 0 0 0 0 0.25 0"/>
<feBlend mode="normal" in2="BackgroundImageFix" result="effect1_dropShadow_535_833"/>
<feBlend mode="normal" in="SourceGraphic" in2="effect1_dropShadow_535_833" result="shape"/>
</filter>
</defs>
</svg>
