<svg width="41" height="41" viewBox="0 0 41 41" fill="none" xmlns="http://www.w3.org/2000/svg">
<g clip-path="url(#clip0_535_790)">
<path d="M32.592 30.4702C32.0407 28.6039 30.6214 27.1633 28.3645 26.1921C28.2439 26.1389 28.1164 26.0914 27.9895 26.0396C27.3507 26.5327 27.057 27.1914 27.8307 28.1164C28.1595 28.5102 30.402 28.5814 30.6614 30.7433C30.8607 32.3852 30.0789 34.4314 29.6195 35.2202C29.7126 35.5152 30.1232 36.2208 30.6657 36.4533C30.8189 36.5183 31.2832 36.7196 31.9851 36.0233C32.2326 35.6183 33.3495 33.0414 32.592 30.4702Z" fill="#BCBDBF"/>
<path d="M31.9732 35.2108C31.6451 34.7389 31.1351 34.5451 30.7032 34.4226C29.552 34.1126 29.4551 35.1889 29.4576 35.1995C29.3501 35.9364 29.1895 36.8245 31.7257 36.4558C32.1282 36.3958 32.287 35.6645 31.9732 35.2133" fill="#A87C51"/>
<path d="M30.4116 7.2264C32.9085 6.7989 35.2866 8.0839 36.4735 9.50515C37.7041 10.9764 38.1654 12.6614 37.8485 14.5177C37.6023 15.9452 36.9179 17.2283 35.9098 18.2445C36.2734 18.3872 36.6545 18.4805 37.0429 18.522C37.3454 18.1808 37.6241 17.8139 37.8716 17.4258C38.9273 15.7789 39.2685 13.3414 38.7016 11.4952C38.1579 9.7264 37.071 8.37703 35.381 7.36703C34.566 6.8764 33.7591 6.51265 32.4716 6.3264C31.8232 6.23338 31.1657 6.22099 30.5141 6.28953C30.0266 6.6514 30.0254 6.85515 30.0254 6.8564C30.0254 6.8964 30.1091 7.03765 30.4116 7.22328" fill="#CFD0D0"/>
<path d="M33.1488 28.5827C32.8976 28.2208 32.5726 27.9752 32.2782 27.8895C32.1782 26.6333 30.6794 26.5314 29.0051 26.392C27.2082 26.2414 25.8913 26.102 25.7626 27.6545C25.7312 28.056 25.7972 28.4591 25.9551 28.8295C25.8369 28.9508 25.7313 29.0838 25.6401 29.2264C25.1613 29.9752 25.1282 30.8033 25.5638 31.0833C25.9957 31.3583 26.7338 30.9802 27.2101 30.2358C27.2896 30.2829 27.3715 30.3275 27.4557 30.3695C27.4407 30.4552 27.4257 30.5395 27.4163 30.6295C27.3326 31.6302 27.7657 32.4827 28.3857 32.5345C29.0019 32.5858 29.5694 31.8183 29.6538 30.817C29.6594 30.7783 29.6538 30.7477 29.6563 30.7089C29.757 30.6938 29.8569 30.6738 29.9557 30.6489C29.9751 30.7658 30.0019 30.8827 30.0432 31.002C30.3176 31.8439 30.9382 32.3983 31.4294 32.2395C31.9188 32.0789 32.0919 31.2658 31.8182 30.4239C31.7473 30.2026 31.6459 29.9922 31.5169 29.7989C31.6428 29.6741 31.7561 29.5372 31.8551 29.3902C31.8707 29.4133 31.8813 29.4345 31.8957 29.457C32.3101 30.0545 32.9288 30.3414 33.2757 30.0989C33.6182 29.8589 33.5619 29.1795 33.1488 28.5839" fill="#D08565"/>
<path d="M16.6005 29.7202C16.0505 27.8527 14.6287 26.4133 12.3737 25.442C12.2493 25.3902 12.1224 25.342 11.9974 25.2902C11.3587 25.7827 11.3199 26.562 12.0937 27.4895C12.4199 27.8814 12.8968 28.2289 14.6705 29.9958C15.8424 31.1633 14.0887 33.6839 13.6324 34.472C13.7262 34.7683 14.1343 35.4727 14.6768 35.7064C14.8299 35.7714 15.293 35.9733 15.9962 35.2777C16.2412 34.8702 17.358 32.2927 16.6005 29.722" fill="#BCBDBF"/>
<path d="M13.3019 16.6327C13.3019 16.6327 35.3957 13.5846 37.1519 14.7952C38.9063 16.0077 39.9032 24.4102 37.0282 26.1639C34.1519 27.9139 16.6007 30.1283 13.0469 28.3858C9.49565 26.6464 11.4513 17.6102 11.4513 17.6102" fill="#CFD0D0"/>
<path d="M20.9554 17.4208C23.3147 19.9951 24.4647 23.0895 28.5454 19.5495C29.5004 18.7208 31.0991 18.1908 32.3141 18.7445C33.8816 19.457 36.3222 22.3064 38.7404 23.4376C39.4447 20.2208 38.5685 15.532 37.2804 14.6439C36.186 13.8889 27.3322 14.762 20.6291 15.5489C20.2866 16.0801 20.2785 16.687 20.9541 17.4239M30.0929 24.7826C29.7264 24.5706 29.3739 24.3356 29.0372 24.0789C27.8385 23.1733 28.0816 24.3139 27.3385 24.7776C26.6416 25.2114 26.0254 25.4145 25.2135 25.5733C23.4947 25.9095 24.0729 27.2939 25.1754 28.3276C25.3566 28.3697 25.5151 28.4399 25.651 28.5383C27.4697 28.3376 29.256 28.0851 30.8735 27.802C30.337 26.888 30.0667 25.8422 30.0929 24.7826Z" fill="#25333A"/>
<path d="M34.5779 23.6077C34.336 23.5771 31.4404 23.4308 31.1879 23.4102C30.2017 23.3289 29.3454 25.3146 29.0879 25.7452C28.8379 26.1664 29.0073 26.8689 29.566 27.7289C30.3885 28.9914 31.9685 29.1933 32.3798 29.0914C32.6348 29.0264 32.8998 28.9571 33.1904 28.9133C34.5773 28.7052 35.671 29.1321 36.3279 30.1058C37.5154 31.8871 36.9117 34.9046 36.6235 36.0483C36.8454 36.3821 37.6067 37.1139 38.3623 37.2108C38.5785 37.2402 39.226 37.3233 39.8554 36.2089C40.0154 35.6171 40.4885 32.0108 38.6323 29.0783C37.2817 26.9477 37.7317 24.0139 34.5792 23.6077M21.361 30.7614C20.9435 28.9021 21.1673 25.5383 19.7792 24.1583C18.5754 22.9571 15.8317 23.4002 14.4198 23.4689C13.6148 24.3683 13.0792 25.3158 14.1879 26.4664C14.8035 27.1102 15.5717 27.5558 16.2298 28.1552C16.376 28.2906 16.5108 28.4292 16.6342 28.5708C17.6523 28.6027 18.4654 29.0214 18.991 29.8039C20.1817 31.5852 19.5792 34.6064 19.2873 35.7458C19.1598 36.8052 21.2248 36.9321 21.3798 36.9052C21.8104 35.0339 21.5723 31.7158 21.361 30.7614Z" fill="#CFD0D0"/>
<path d="M15.8946 34.7639C15.5696 34.2914 15.0571 34.0977 14.6259 33.9764C13.4765 33.6664 13.3796 34.7408 13.3821 34.7514C13.2728 35.4883 13.1146 36.3771 15.6478 36.0077C16.0528 35.9521 16.2109 35.2202 15.8946 34.7671M39.819 35.6264C39.4102 35.0408 38.7715 34.7946 38.234 34.6446C36.7959 34.2546 36.6796 35.6008 36.6809 35.6133C36.5452 36.5314 36.3471 37.6439 39.5121 37.1777C40.0103 37.1021 40.2109 36.1902 39.819 35.6264ZM21.5815 35.8358C21.2728 35.3439 20.7884 35.1383 20.3778 35.0152C19.2828 34.6914 19.1884 35.8208 19.1884 35.8333C19.084 36.6083 18.9309 37.5433 21.344 37.1439C21.7271 37.0827 21.8803 36.3121 21.5815 35.8358Z" fill="#A87C51"/>
<path d="M17.7293 18.4014C17.6887 16.7789 13.4449 10.097 10.133 10.1295C8.8024 10.142 6.2424 10.8358 6.47365 11.9626C7.34678 16.1908 12.4605 22.6376 13.4855 22.327C14.9162 21.8883 17.7618 20.027 17.7293 18.4014Z" fill="#CFD0D0"/>
<path d="M29.4405 5.1752C30.5198 5.28395 31.3155 6.07707 31.2267 6.94832C31.1392 7.81895 30.198 8.4352 29.1192 8.32457C28.0467 8.21707 25.4617 7.24207 25.5511 6.3702C25.6417 5.50082 28.3642 5.0652 29.4405 5.1752Z" fill="#25333A"/>
<path d="M17.7868 3.46514C17.3537 2.28827 15.9718 4.36139 15.0762 5.50702C14.1793 6.65514 13.3637 7.65952 14.3518 8.43202C15.3424 9.20577 15.6462 12.5989 16.5412 11.4526C17.4393 10.307 18.2718 4.78327 17.7868 3.46514ZM2.21554 3.46514C2.64866 2.28827 4.03054 4.36077 4.92554 5.50702C5.82429 6.65514 6.63804 7.65952 5.64991 8.43202C4.65991 9.20577 4.35679 12.5989 3.46054 11.4526C2.56241 10.307 1.72991 4.78327 2.21554 3.46514Z" fill="#F59221"/>
<path d="M18.4745 6.53889C19.3502 7.22389 19.2989 9.01077 18.6914 9.79014C18.082 10.5689 16.2364 12.1095 15.3595 11.4245C14.4845 10.7395 13.6239 10.3214 14.2327 9.54327C14.8427 8.76452 17.5977 5.85577 18.4745 6.54014M1.53079 6.53889C0.653288 7.22452 0.705163 9.01077 1.31391 9.79014C1.92266 10.5695 3.76766 12.1095 4.64391 11.4245C5.51891 10.7395 6.37891 10.3214 5.77016 9.54327C5.16266 8.76452 2.40579 5.85577 1.53079 6.54014" fill="#AEAEAE"/>
<path d="M2.58398 14.4458C2.58398 17.4402 5.92711 19.8639 10.0527 19.8639C14.1784 19.8639 17.5209 17.4396 17.5209 14.4458C17.5209 11.4546 14.1784 4.94269 10.0527 4.94269C5.92711 4.94269 2.58398 11.4552 2.58398 14.4458Z" fill="#CFD0D0"/>
<path d="M2.70117 9.1233C2.70117 10.5814 5.99117 11.7595 10.053 11.7595C14.1149 11.7595 17.4049 10.5802 17.4049 9.1233C17.4049 7.66767 14.1143 4.9433 10.053 4.9433C5.99055 4.9433 2.70117 7.66767 2.70117 9.1233Z" fill="#CFD0D0"/>
<path d="M9.14711 8.19641C9.14711 10.0427 8.14836 11.5427 6.91273 11.5427C5.67961 11.5427 4.67773 10.0427 4.67773 8.19641C4.67773 6.34828 5.67961 4.85016 6.91273 4.85016C8.14711 4.85078 9.14711 6.34891 9.14711 8.19641ZM13.1927 4.85078C14.4259 4.85078 15.4277 6.34828 15.4277 8.19703C15.4277 10.0433 14.4259 11.5433 13.1927 11.5433C11.9571 11.5433 10.9584 10.0433 10.9584 8.19703C10.9584 6.34891 11.9584 4.85078 13.1927 4.85078Z" fill="#CFD0D0"/>
<path d="M7.42844 11.0314C8.09222 11.0314 8.63031 10.3794 8.63031 9.57515C8.63031 8.77088 8.09222 8.1189 7.42844 8.1189C6.76466 8.1189 6.22656 8.77088 6.22656 9.57515C6.22656 10.3794 6.76466 11.0314 7.42844 11.0314Z" fill="#25333A"/>
<path d="M12.6765 11.0314C13.3403 11.0314 13.8784 10.3794 13.8784 9.57515C13.8784 8.77088 13.3403 8.1189 12.6765 8.1189C12.0127 8.1189 11.4746 8.77088 11.4746 9.57515C11.4746 10.3794 12.0127 11.0314 12.6765 11.0314Z" fill="#25333A"/>
<path d="M6.88867 19.6258C6.88867 18.5045 8.1693 18.5258 9.91555 18.5258C11.663 18.5258 13.2143 18.5052 13.2143 19.6258C13.2143 20.7483 11.7974 21.6577 10.0505 21.6577C8.30617 21.6577 6.88867 20.7483 6.88867 19.6258Z" fill="#C4775C"/>
<path d="M7.25336 15.7496C7.25336 16.5402 6.72523 17.1783 6.07523 17.1783C5.42398 17.1783 4.89648 16.5402 4.89648 15.7496C4.89648 14.9614 5.42398 14.3227 6.07523 14.3227C6.72523 14.3221 7.25336 14.9608 7.25336 15.7496ZM15.0234 15.7402C15.0234 16.5302 14.4965 17.1689 13.8465 17.1689C13.1946 17.1689 12.6665 16.5308 12.6665 15.7402C12.6665 14.9521 13.1952 14.3127 13.8465 14.3127C14.4965 14.3133 15.0234 14.9521 15.0234 15.7402Z" fill="#784E3E"/>
<path d="M2.75 15.4139C2.75 12.9483 5.70625 12.9939 9.73812 12.9939C13.7719 12.9939 17.3537 12.9483 17.3537 15.4139C17.3537 17.8826 14.0844 19.8833 10.0519 19.8833C6.02125 19.8839 2.75 17.8833 2.75 15.4139Z" fill="#CD8265"/>
<path d="M6.74125 16.0327C6.74125 16.9727 6.11 17.7314 5.34063 17.7314C4.56563 17.7314 3.9375 16.9727 3.9375 16.0327C3.9375 15.0952 4.5625 14.3358 5.34063 14.3358C6.11313 14.3352 6.74125 15.0952 6.74125 16.0327ZM15.9813 16.0202C15.9813 16.9602 15.3562 17.7196 14.5812 17.7196C13.8062 17.7196 13.1787 16.9602 13.1787 16.0202C13.1787 15.0833 13.8037 14.3233 14.5812 14.3233C15.3537 14.3233 15.9813 15.0839 15.9813 16.0202Z" fill="#784E3E"/>
</g>
<defs>
<clipPath id="clip0_535_790">
<rect width="40" height="40" fill="white" transform="translate(0.28125 0.263916)"/>
</clipPath>
</defs>
</svg>
