<svg width="45" height="45" viewBox="0 0 45 45" fill="none" xmlns="http://www.w3.org/2000/svg">
<path d="M35.5001 16.2567V19.9552L35.3889 25.8988C35.868 27.2451 37.6103 32.4255 41.2751 31.4074L40.004 30.209L39.3929 28.9868C39.3929 28.9868 38.9602 24.2751 38.9645 24.0325C38.9688 23.7899 38.5899 19.9552 38.5899 19.9552L37.2833 17.1789L35.5001 16.2567ZM28.0384 24.4456L29.4898 28.672L28.4461 32.2293L26.6641 35.3411L27.0063 36.4545L28.4357 36.5071L30.2097 35.5018L32.6811 29.3113L32.4934 28.4924C32.4934 28.4924 31.0909 24.602 30.3637 23.455L28.0384 24.4456Z" fill="#9B9B9A"/>
<path d="M6.39158 6.98615L7.19214 9.5192C6.12147 11.8811 4.90719 14.1734 3.75586 16.4981C4.1653 17.3219 4.69697 18.1169 5.71386 17.8456C6.9263 18.2165 7.08703 16.8782 7.73969 16.1718C8.84275 16.239 9.85047 15.0889 10.2935 16.6331C10.7366 18.1774 12.2466 18.7647 12.4483 20.3194C12.7569 21.8814 12.7398 23.7135 13.7701 24.9864C14.4087 26.26 16.2696 26.4574 16.4896 27.9045C17.0665 30.1155 17.7381 32.3033 18.2624 34.5289C17.6959 35.7035 18.1341 38.0691 19.7792 36.7943C20.6885 35.5617 20.4551 34.2093 20.0346 32.8557C19.8452 31.455 19.6472 30.0593 19.8097 28.647L19.9265 26.3003L24.6687 28.6011C26.667 27.866 28.8487 27.7731 30.7407 26.8045C35.1896 32.3497 34.1629 31.331 33.7975 32.6693L33.3776 35.3001C31.9 35.7059 33.0446 37.744 34.2638 36.7515C35.1688 35.5635 35.3088 33.8121 36.0433 32.4554C36.644 31.2045 36.8561 29.6773 36.0843 28.4588L34.8681 25.724C37.9011 24.3283 37.8418 19.8079 36.0451 16.4229C34.5357 16.0324 33.0525 15.2496 31.452 15.6236C29.2606 15.6303 27.1742 16.4938 24.9926 16.4498C22.8684 16.2665 20.6598 16.5018 18.6309 15.7373C17.3152 14.4723 16.4095 12.7526 14.9862 11.6098C13.3191 10.5196 11.5212 9.68481 9.66958 8.97898C8.69242 8.44487 7.84969 7.70603 7.00575 6.98859" fill="#D0CFCE"/>
<path d="M13.6465 25.3195L14.0437 29.1169L14.9653 30.9722L14.2729 34.9273L13.6465 35.4792L14.3065 36.4392L15.6858 36.0622C15.6858 36.0622 16.8322 35.0587 16.8322 34.8296C16.8322 34.6004 18.0544 32.2708 18.0544 32.2708L16.8701 28.0523L15.8502 26.4268L13.6465 25.3195Z" fill="#9B9B9A"/>
<path d="M10.2483 14.0872C10.087 16.2909 7.61319 16.7608 7.61319 16.7608L7.00208 17.372C6.20519 19.099 3.75586 17.7539 3.75586 16.4932C4.67741 14.4062 5.62708 12.9793 5.62708 12.9793C5.55069 11.2731 7.65108 10.1529 7.65108 10.1529L6.87008 9.07001C6.60364 8.7229 5.34353 6.4129 5.77925 6.37135C6.54497 6.29862 9.47158 8.09162 10.057 9.38901C10.057 9.38901 15.4745 9.95918 18.5881 15.7629C18.7336 16.0342 24.6241 17.1733 28.4087 16.033C31.0267 15.2447 38.8281 14.7729 38.9687 22.4497C39.0402 26.3645 38.6252 28.1135 41.2225 30.8158" stroke="black" stroke-width="0.5" stroke-miterlimit="10" stroke-linecap="round" stroke-linejoin="round"/>
<path d="M36.4526 22.8872C36.1825 23.884 35.7064 24.9809 34.8704 25.724C34.8704 25.724 35.5402 28.6488 36.8089 29.882L35.1528 35.4841L34.5038 36.6617C34.4119 36.828 34.2772 36.9667 34.1137 37.0633C33.9501 37.1599 33.7636 37.2109 33.5737 37.2111C32.8085 37.2111 32.2928 36.4313 32.5995 35.7304C33.1911 34.3786 33.9195 33.9239 34.0595 30.6575C34.0595 30.6575 30.0188 28.2497 30.6177 24.646M11.1465 17.0634L12.7769 20.5057C12.7769 20.5057 12.0723 24.382 14.7857 26.1084L16.2658 27.0599L17.8015 32.7029L18.3619 35.0453L18.0661 35.7866C18.0033 35.9439 17.98 36.1142 17.9982 36.2826C18.0164 36.451 18.0757 36.6123 18.1707 36.7525C18.2657 36.8927 18.3937 37.0075 18.5433 37.0868C18.693 37.1661 18.8598 37.2075 19.0292 37.2074C19.4643 37.2074 19.8536 36.9355 20.0033 36.526L20.4592 35.2763C20.6059 34.8742 20.6419 34.4403 20.5631 34.0199L19.7497 31.521L19.6519 26.2141C19.6519 26.2141 24.3172 29.9908 28.8308 27.525M14.6482 29.1145L15.0173 31.8156L13.9539 34.4354L13.729 34.9976C13.6611 35.168 13.6358 35.3523 13.6556 35.5346C13.6753 35.717 13.7394 35.8917 13.8423 36.0435C13.9451 36.1953 14.0836 36.3196 14.2456 36.4055C14.4076 36.4915 14.5882 36.5364 14.7716 36.5364C15.2202 36.5364 15.6253 36.27 15.8025 35.8581L16.2853 34.7397M29.657 35.2317L28.7654 36.2382C28.6394 36.3803 28.4775 36.486 28.2968 36.5443C28.116 36.6027 27.9229 36.6116 27.7375 36.57C26.9914 36.402 26.6595 35.5281 27.1124 34.9115C27.9863 33.7222 28.7966 33.4387 29.6503 30.2829" stroke="black" stroke-width="0.5" stroke-miterlimit="10" stroke-linecap="round" stroke-linejoin="round"/>
</svg>
