<svg width="45" height="45" viewBox="0 0 45 45" fill="none" xmlns="http://www.w3.org/2000/svg">
<path d="M41.4904 25.9867C41.4904 25.9867 40.7307 24.4639 40.5726 23.3742C40.3801 22.0439 40.1291 21.2911 40.0157 20.3973C39.8644 19.2148 39.4829 18.6786 39.2904 18.3658L39.146 20.1567C39.146 20.1567 38.3622 21.8445 39.1701 23.6905C40.2494 26.1552 40.2838 26.0142 40.2838 26.0142L41.4904 25.9867Z" fill="#858585"/>
<path d="M39.8473 30.1977C39.0464 29.1183 38.8608 28.2864 39.0739 27.1246C39.2904 25.9352 39.7236 25.0002 40.8889 25.0689C41.7104 25.1171 42.2673 25.7942 42.0748 27.1246C41.9511 27.9667 41.3804 28.3689 41.5901 29.2283C41.8789 30.4142 42.6729 30.5414 42.8276 30.8267C42.9823 31.1086 41.0023 31.7549 39.8473 30.1977Z" fill="#5D6265"/>
<path d="M18.2143 29.4242L14.5121 30.8749C14.5121 30.8749 15.6258 32.3014 15.674 32.7861C15.7221 33.2708 15.7221 35.6186 15.6499 35.9074C15.5777 36.1961 14.464 37.7945 14.8283 38.207C15.1927 38.6195 16.303 38.7639 17.2484 38.6677C18.1937 38.5714 18.8949 37.822 18.943 37.4817C18.9912 37.1414 19.0393 35.0858 19.0874 34.577C19.1355 34.0683 19.7405 30.4624 19.7405 30.4624L18.2143 29.4242ZM33.0471 29.5686L30.579 30.947C30.579 30.947 30.7955 32.1089 30.6512 32.762C30.5068 33.4152 29.8296 34.0924 30.1424 34.4808C30.4587 34.8692 31.7168 34.8452 32.3458 34.797C32.9749 34.7489 33.604 34.4086 33.7002 34.0717C33.7965 33.7314 33.8205 29.7164 33.8205 29.7164L33.0471 29.5686ZM20.0534 20.5452L9.69616 25.117L5.72929 23.1817C5.72929 23.1817 5.60554 23.9792 5.6571 24.4639C5.75335 25.3577 6.23804 27.9495 9.96429 28.5064C13.6905 29.0633 16.4474 27.2242 16.4474 27.2242L23.4874 23.5461L20.0534 20.5452Z" fill="#858585"/>
<path d="M16.6653 8.98484C16.6653 8.98484 12.5713 8.46922 10.0344 10.8239C7.49753 13.1786 7.62816 16.6952 7.62816 17.6645C7.62816 18.6339 7.75878 19.2767 7.40128 19.892C7.04378 20.5039 5.72722 21.6589 5.70316 23.2058C5.68253 24.4364 15.6891 24.2783 15.6891 24.2783C15.6891 24.2783 17.4457 24.1167 18.3875 23.247C19.3294 22.3773 19.7935 21.2945 19.7935 21.2945C19.7935 21.2945 20.2575 23.0442 18.8688 24.2714C17.9269 25.1033 16.6688 25.1514 16.6688 25.1514C16.6688 25.1514 16.5072 26.4748 14.9466 27.6023C13.6266 28.558 12.0557 28.5717 12.0557 28.5717C12.0557 28.5717 12.8291 30.7614 16.4385 31.7617C20.0444 32.762 21.2166 32.6967 21.2166 32.6967C21.2166 32.6967 21.7357 35.9864 21.77 36.6017C21.801 37.2136 21.5432 40.2489 21.7047 40.5377C21.8663 40.8264 22.9078 41.6652 23.915 41.5689C24.9222 41.4727 25.345 40.3761 25.345 39.9223C25.345 39.472 25.1835 37.1792 25.1491 36.7289C25.1182 36.2786 25.4413 33.343 25.4413 33.343C25.4413 33.343 27.0982 33.5045 29.1469 32.9236C31.1957 32.3427 32.33 30.6961 33.7944 30.6342C35.2588 30.5723 36.3278 31.827 36.2969 33.1814C36.266 34.5358 35.6472 35.8592 35.9085 36.2477C36.1697 36.6361 36.785 36.8939 37.696 36.8595C38.6069 36.8286 39.3872 36.3748 39.4835 36.0208C39.5797 35.6667 39.6794 31.6655 39.7103 31.0192C39.7413 30.373 40.6213 26.5986 40.7519 24.1477C40.8825 21.6967 40.3944 18.792 39.1913 17.3414C37.9882 15.8908 36.4619 15.2755 35.8775 15.1139C35.2932 14.9523 33.4369 14.8045 32.856 14.533C30.0922 13.2439 28.8582 9.59672 23.6916 8.24234C20.7732 7.47922 17.4732 8.72359 16.6653 8.98484Z" fill="#ADADB7"/>
<path d="M9.90636 20.9886C6.52043 20.7961 5.7298 22.4083 5.6473 23.6355C5.55105 25.0861 6.92949 27.2827 9.45605 27.7639C12.5223 28.3448 15.3445 27.537 15.6814 24.6977C16.0045 21.9889 11.9689 21.1055 9.90636 20.9886Z" fill="#DFDFDF"/>
<path d="M17.0048 18.5995C17.0048 19.3661 16.5201 20.0192 16.0216 19.9883C15.5335 19.9573 15.1348 19.3661 15.1348 18.5995C15.1348 17.833 15.537 17.2864 16.0216 17.2108C16.6507 17.1145 17.0048 17.833 17.0048 18.5995Z" fill="#333333"/>
<path d="M9.04047 18.8574C9.50939 18.8574 9.88953 18.2725 9.88953 17.5511C9.88953 16.8297 9.50939 16.2449 9.04047 16.2449C8.57154 16.2449 8.19141 16.8297 8.19141 17.5511C8.19141 18.2725 8.57154 18.8574 9.04047 18.8574Z" fill="#333333"/>
<path d="M12.6634 25.7094C13.2064 25.4412 13.4926 24.9119 13.3026 24.5272C13.1126 24.1425 12.5184 24.0481 11.9754 24.3163C11.4324 24.5845 11.1462 25.1137 11.3362 25.4984C11.5262 25.8831 12.1204 25.9776 12.6634 25.7094Z" fill="#333333"/>
<path d="M8.67035 25.1136C8.9797 24.833 8.90062 24.2418 8.49373 23.7933C8.08683 23.3447 7.5062 23.2086 7.19685 23.4892C6.8875 23.7698 6.96658 24.3609 7.37347 24.8095C7.78037 25.2581 8.361 25.3942 8.67035 25.1136Z" fill="#333333"/>
<path d="M14.0033 9.0742C14.0033 9.0742 13.0408 7.90546 10.6793 8.37296C9.01552 8.70296 8.2077 10.2051 7.3552 11.2123C6.64708 12.0511 5.41301 12.2608 4.77364 11.6008C4.29926 11.1092 4.37489 10.6108 4.46083 10.2395C4.65333 9.42483 5.53333 8.97452 5.57801 8.66514C5.64333 8.21483 3.55333 8.08421 2.55301 9.63452C1.5527 11.1848 1.89989 13.8936 3.44676 14.8595C4.99364 15.8289 6.54395 16.3445 8.60989 14.5364C10.6758 12.7283 12.2811 10.432 12.7143 9.99546C13.5358 9.17046 14.0033 9.0742 14.0033 9.0742ZM16.6811 9.37327C16.6811 9.37327 17.6711 8.76827 19.084 9.00202C20.6824 9.26671 22.2293 11.4392 22.7449 12.0201C23.2605 12.6011 24.7765 14.3817 27.0693 13.6736C28.0971 13.3539 28.5027 12.6423 28.6574 11.8311C28.8465 10.8342 28.6436 10.0436 28.5233 9.66202C28.4236 9.34577 28.0627 8.75795 28.4993 8.44514C28.7983 8.22858 29.3208 8.49327 29.613 8.97796C29.9018 9.46264 30.5583 11.5355 30.2352 12.9551C29.9121 14.3748 28.0421 17.2451 25.2336 17.2142C22.4252 17.1833 18.7161 16.0214 17.2002 14.2133C15.6843 12.4051 15.7771 10.0505 16.6811 9.37327Z" fill="#B79277"/>
<path d="M7.64853 16.5026C7.64853 16.5026 7.0401 16.8223 6.13947 16.8773C5.21135 16.9323 4.09416 16.7776 2.92197 15.6055C2.34103 15.0245 1.88041 13.8076 1.77728 13.0823C1.54353 11.4633 2.34103 10.0161 2.34103 10.0161C2.34103 10.0161 2.09353 14.6017 5.87478 14.7942C8.42197 14.9248 10.2954 11.9858 11.0035 11.343C11.7117 10.7001 12.0348 10.8926 12.0348 10.8926C12.0348 10.8926 11.2304 12.7145 10.2267 13.732C9.20916 14.7633 7.95103 15.3201 7.80666 15.492C7.66572 15.657 7.64853 16.5026 7.64853 16.5026ZM16.8748 9.27702C17.0982 9.04671 15.0667 9.6964 15.2935 11.7933C15.5204 13.8901 18.3735 16.1967 20.326 17.0526C22.6807 18.0839 26.1973 18.5033 28.4248 17.118C30.6523 15.7292 31.1335 12.828 30.7485 11.1505C30.3601 9.47296 29.3288 8.28015 28.7788 8.44171C28.4557 8.53796 29.0538 9.14639 29.4388 10.1673C29.707 10.872 29.7482 11.9239 29.6795 12.5048C29.5351 13.7698 29.0676 14.6636 28.4454 15.3201C27.6445 16.1623 26.3726 16.7398 24.3788 16.6023C22.7048 16.4855 21.1407 15.8701 19.941 15.138C18.487 14.2545 17.4695 13.1614 17.0982 12.6664C16.4245 11.7589 15.7782 10.4045 16.8748 9.27702Z" fill="#895A4E"/>
</svg>
