<svg width="30" height="10" viewBox="0 0 30 10" fill="none" xmlns="http://www.w3.org/2000/svg">
<path d="M6.64853 8.50265C6.64853 8.50265 6.0401 8.82233 5.13947 8.87733C4.21135 8.93233 3.09416 8.77765 1.92197 7.60546C1.34103 7.02452 0.880407 5.80765 0.777282 5.08233C0.543532 3.46327 1.34103 2.01608 1.34103 2.01608C1.34103 2.01608 1.09353 6.60171 4.87478 6.79421C7.42197 6.92483 9.29541 3.98577 10.0035 3.34296C10.7117 2.70015 11.0348 2.89265 11.0348 2.89265C11.0348 2.89265 10.2304 4.71452 9.22666 5.73202C8.20916 6.76327 6.95103 7.32015 6.80666 7.49202C6.66572 7.65702 6.64853 8.50265 6.64853 8.50265ZM15.8748 1.27702C16.0982 1.04671 14.0667 1.6964 14.2935 3.79327C14.5204 5.89015 17.3735 8.19671 19.326 9.05265C21.6807 10.0839 25.1973 10.5033 27.4248 9.11796C29.6523 7.72921 30.1335 4.82796 29.7485 3.15046C29.3601 1.47296 28.3288 0.280145 27.7788 0.441708C27.4557 0.537958 28.0538 1.14639 28.4388 2.16733C28.707 2.87202 28.7482 3.9239 28.6795 4.50483C28.5351 5.76983 28.0676 6.66358 27.4454 7.32015C26.6445 8.16233 25.3726 8.73983 23.3788 8.60233C21.7048 8.48546 20.1407 7.87015 18.941 7.13796C17.487 6.25452 16.4695 5.1614 16.0982 4.6664C15.4245 3.7589 14.7782 2.40452 15.8748 1.27702Z" fill="#895A4E"/>
</svg>
