<svg width="41" height="41" viewBox="0 0 41 41" fill="none" xmlns="http://www.w3.org/2000/svg">
<path d="M12.3442 8.76393C12.6567 4.57643 17.6567 4.38893 17.6567 4.38893C11.2817 2.13893 9.84419 8.51393 10.2192 9.01393C10.7192 9.57643 12.2817 9.76393 12.3442 8.76393Z" fill="#947151"/>
<path d="M35.656 16.8889C34.9685 15.3889 36.906 10.1389 36.906 10.1389C36.906 10.1389 41.656 15.5139 37.031 18.0764C36.781 18.2014 35.781 17.1389 35.656 16.8889ZM7.03098 24.0764C7.03098 24.0764 5.28098 21.2014 7.78098 17.6389L4.21848 19.2639C2.53098 22.5764 7.03098 24.0764 7.03098 24.0764Z" fill="#C2ACA1"/>
<path d="M37.5304 30.5764C36.5929 28.0139 36.8429 26.9514 36.8429 26.9514C39.2179 22.6389 37.5929 16.5139 35.2179 16.1389C26.7179 14.6389 15.7179 17.1389 15.7179 14.2639C15.7179 8.32644 10.7179 4.63894 6.78043 8.26394C3.96793 10.8889 6.21793 11.7639 1.90543 17.1389C0.905433 18.3264 2.03043 19.2639 3.96793 19.6389C4.59293 19.7639 4.78043 19.7014 6.34293 18.8889C7.84293 18.0764 9.96793 19.0764 10.5304 16.2639C10.5304 16.2639 10.2179 23.2639 14.4679 28.0764C14.4679 28.0764 15.3429 30.5764 13.6554 37.3889H15.7179L17.5929 32.2014C17.5929 32.2014 17.2179 28.5139 18.4054 28.8889C22.0929 30.2014 31.2179 27.9514 31.2179 27.9514C32.0929 29.7014 34.9054 31.3889 34.9054 31.3889C34.9054 31.3889 34.0304 33.4514 34.1554 37.3889H36.3429C36.4679 35.8889 37.5304 30.5764 37.5304 30.5764Z" fill="#F1E7DC"/>
<path d="M13.2188 39.0139H15.2187L15.5937 37.4514H13.5312C13.4062 38.3889 13.2188 39.0139 13.2188 39.0139ZM34.0937 37.4514C33.9687 38.3889 34.0312 39.0139 34.0312 39.0139H36.1562C36.1562 39.0139 36.1562 38.3889 36.2812 37.4514H34.0937Z" fill="#947151"/>
<path d="M7.90625 13.0139C8.42402 13.0139 8.84375 12.5942 8.84375 12.0764C8.84375 11.5586 8.42402 11.1389 7.90625 11.1389C7.38848 11.1389 6.96875 11.5586 6.96875 12.0764C6.96875 12.5942 7.38848 13.0139 7.90625 13.0139Z" fill="#3E4347"/>
<path d="M3.09353 17.5764C3.03103 17.7014 2.71853 17.8889 2.59353 17.7639C2.46853 17.7014 2.53103 17.3889 2.65603 17.2014C2.71853 17.0764 2.90603 17.0139 3.03103 17.1389C3.15603 17.2639 3.15603 17.4514 3.09353 17.5764ZM6.28103 16.0764C6.46853 16.8264 6.28103 17.6389 5.84353 18.3264C5.65603 18.6389 5.34353 18.9514 5.03103 19.2014C4.71853 19.4514 4.34353 19.5764 3.96853 19.7014C4.59353 19.2639 5.15603 18.8264 5.53103 18.2014C5.71853 17.8889 5.84353 17.5764 5.96853 17.2014C6.09353 16.8264 6.21853 16.4514 6.28103 16.0764Z" fill="#C2ACA1"/>
<path d="M12.5941 10.5139C16.4691 10.3889 16.0316 5.1389 15.4066 5.4514C14.4066 5.9514 11.2816 7.3889 11.2816 9.1389C11.2816 9.4514 10.9066 10.5764 12.5941 10.5139Z" fill="#F1E7DC"/>
<path d="M12.1559 8.76391C12.4684 7.76391 14.7184 6.63891 15.0934 6.51391C15.4684 6.32641 15.4684 9.01391 12.9684 10.0764C12.7184 10.2014 12.4684 10.2014 12.3434 10.0139C12.2184 9.82641 12.7809 9.45141 13.1559 9.26391C13.5934 9.07641 13.0934 9.13891 12.7809 9.20141C12.4684 9.32641 12.6559 9.07641 12.9059 8.95141C13.1559 8.76391 12.5309 8.95141 12.2809 9.20141C12.0309 9.45141 11.9684 9.45141 12.1559 8.76391Z" fill="#C2ACA1"/>
<path d="M10.9696 8.20144C9.84459 3.51394 15.2821 1.51394 15.2821 1.51394C7.40709 1.26394 8.09459 8.82644 8.71959 9.20144C9.46959 9.63894 11.2196 9.32644 10.9696 8.20144Z" fill="#947151"/>
</svg>
