<svg width="41" height="41" viewBox="0 0 41 41" fill="none" xmlns="http://www.w3.org/2000/svg">
<g clip-path="url(#clip0_535_851)">
<path d="M16.1315 20.8333C13.8839 24.6526 13.4829 24.1917 10.1753 25.0485C6.86763 25.9053 5.51786 24.3933 5.69091 26.4748C5.87044 28.352 6.05177 28.8712 7.1981 30.1312C8.83435 31.9298 5.79763 33.9301 4.81942 31.1106C3.84122 28.2912 4.18583 26.0533 4.18583 26.0533L4.18708 26.0537C3.9931 24.1004 5.42778 23.4865 7.37357 22.9825C9.54763 22.4193 10.3167 21.1668 9.87349 19.4557C9.87357 19.4557 18.3792 17.014 16.1315 20.8333ZM27.3686 19.7514C28.9668 20.9419 30.1861 21.2363 26.8598 22.0647C24.8708 22.5601 24.064 24.795 24.7021 26.6565L24.6495 26.6299C24.6764 26.6632 24.7012 26.6946 24.727 26.7269C24.9137 27.2394 25.2113 27.7211 25.6255 28.1274C25.7768 28.7479 24.9842 28.8012 23.081 28.8012C21.3496 28.8012 20.3176 29.7586 19.7678 30.5271C19.3825 30.9414 18.951 31.4826 18.5336 32.1694C17.6901 33.5572 21.1824 34.9884 21.1779 32.94C21.1745 31.3562 22.0273 30.4062 23.1703 30.228L23.1518 30.2209C23.4622 30.1597 23.8234 30.123 24.2478 30.123C27.0892 30.123 28.1015 29.2828 28.1521 28.467C28.2079 28.3359 28.0694 28.118 27.6021 27.7698C25.7135 26.3631 28.239 26.4984 31.3286 24.197C34.4183 21.8956 35.159 22.0804 35.159 17.8591C35.159 13.6378 27.3686 19.7514 27.3686 19.7514Z" fill="#D19B61"/>
<path d="M19.9662 13.9915C19.7162 14.0216 19.4739 14.0387 19.236 14.0387C17.04 14.0387 13.1488 12.1453 12.7661 10.3562C12.7586 10.2642 12.7483 10.1724 12.7353 10.081L12.7352 10.0757L12.7348 10.0763C12.4053 7.79382 10.4419 6.03991 8.06823 6.03991C7.54612 6.03967 7.02763 6.12651 6.53409 6.29687C6.48597 6.31343 6.43854 6.33148 6.39112 6.34952C6.36847 6.35819 6.3455 6.36616 6.323 6.37515C5.27769 6.79194 4.41675 7.57163 3.8955 8.55859C3.84106 8.55587 3.78673 8.55126 3.73261 8.54476C3.46042 8.51288 3.1962 8.43702 2.97386 8.32085C2.74862 8.21101 2.56901 8.06249 2.42784 7.91694C2.35831 7.84257 2.30073 7.7653 2.24839 7.6921C2.22159 7.65593 2.20144 7.61648 2.17995 7.58046C2.15922 7.54543 2.13993 7.50957 2.12214 7.47296C2.08644 7.40249 2.05839 7.33655 2.03815 7.27023C2.0169 7.20538 1.99792 7.14788 1.98511 7.09273C1.96625 7.0059 1.95359 6.91783 1.94722 6.82921C1.94276 6.76702 1.94339 6.73249 1.94339 6.73249L2.04167 6.73108C2.10386 6.73093 2.19144 6.73233 2.29292 6.73624C2.3994 6.73179 2.51472 6.73983 2.64112 6.73069C2.70511 6.72421 2.76503 6.72819 2.83019 6.71843C2.89487 6.70796 2.95683 6.70374 3.01847 6.69257C3.14222 6.66733 3.25659 6.6403 3.35933 6.59718C3.46159 6.5603 3.5523 6.51093 3.64355 6.46468C3.73362 6.42054 3.82933 6.36655 3.93831 6.31562C3.96597 6.30015 3.99222 6.29327 4.02222 6.27624C4.05128 6.26062 4.0812 6.24773 4.11128 6.23522C4.17378 6.2028 4.23667 6.17804 4.30589 6.14507C4.37292 6.11655 4.44644 6.08233 4.51956 6.05366C4.5948 6.01866 4.67097 5.99132 4.75167 5.95765C4.91797 5.89142 5.08686 5.83187 5.25792 5.77913C5.43292 5.72554 5.61847 5.67726 5.80003 5.64249C5.98034 5.60804 6.15737 5.58515 6.33089 5.57632C6.37568 5.7836 6.43414 5.9877 6.50589 6.18726C6.5187 6.17515 6.53042 6.16366 6.5437 6.1514L6.71495 5.99952C6.77581 5.94999 6.83956 5.89718 6.90769 5.8471C7.05321 5.73688 7.20586 5.6364 7.36464 5.54632C7.70425 5.35202 8.12058 5.17773 8.64933 5.08007C8.91362 5.03241 9.20612 5.00702 9.5273 5.01483C9.84714 5.0264 10.1973 5.06749 10.5602 5.16655C10.7428 5.21288 10.926 5.27694 11.1115 5.3496C11.2959 5.42515 11.4797 5.51366 11.6607 5.61312C12.0241 5.81874 12.3667 6.05925 12.6836 6.33124C12.9982 6.60421 13.2785 6.90374 13.5253 7.21093C13.771 7.51929 13.9793 7.83827 14.1633 8.15483C14.3445 8.47241 14.4961 8.79132 14.6304 9.10499C14.6655 9.18374 14.6937 9.2621 14.7253 9.34069L14.7828 9.50257L14.7974 9.55108L14.8193 9.61304L14.8647 9.73882C14.9888 10.0751 15.1346 10.403 15.3011 10.7204C15.4639 11.0348 15.646 11.3251 15.8336 11.5914C15.9263 11.7201 16.0234 11.8455 16.1246 11.9676C16.2197 12.0847 16.3222 12.1956 16.4315 12.2996C16.6394 12.5123 16.8639 12.6828 17.0975 12.8357C17.1561 12.8726 17.2154 12.907 17.2753 12.939C17.335 12.9732 17.3953 13.0061 17.4558 13.0356C17.5771 13.0957 17.699 13.1425 17.8198 13.1907C18.0408 13.2715 18.2675 13.3359 18.498 13.3835C18.59 13.4042 18.6826 13.4217 18.7758 13.4362C18.8593 13.4524 18.9312 13.4611 18.9907 13.4702L19.1764 13.4972L19.4688 13.5397C19.5873 13.5567 19.698 13.6089 19.7867 13.6894C19.8753 13.7699 19.9378 13.8751 19.9662 13.9915ZM40.0343 11.6594C39.9723 11.3014 39.8594 10.952 39.7032 10.6356C39.5494 10.3173 39.3574 10.0291 39.1478 9.77132C39.044 9.64497 38.9346 9.52333 38.8199 9.40679C38.7311 9.31598 38.6412 9.22626 38.5502 9.13765L38.062 8.65077C37.7378 8.32648 37.4338 8.00913 37.1603 7.69788C37.0264 7.54179 36.8966 7.38663 36.786 7.23062C36.7256 7.15304 36.6779 7.07476 36.6248 6.99624C36.5789 6.91757 36.5294 6.83858 36.491 6.75913C36.3226 6.44257 36.231 6.1139 36.2112 5.78624C36.2019 5.62296 36.2037 5.46007 36.2273 5.3046C36.235 5.22624 36.2515 5.15015 36.2649 5.07515C36.2815 5.00085 36.2999 4.92835 36.3185 4.85773C36.3982 4.57632 36.4969 4.33054 36.5811 4.12671C36.6673 3.92358 36.7388 3.76148 36.7878 3.65054C36.8387 3.54069 36.8636 3.47976 36.8636 3.47976L36.8644 3.47788C36.8717 3.46001 36.8728 3.44022 36.8676 3.42165C36.8623 3.40308 36.851 3.38679 36.8355 3.37535C36.82 3.36391 36.8011 3.35797 36.7818 3.35849C36.7625 3.35901 36.7439 3.36594 36.729 3.37819C36.729 3.37819 36.6779 3.4203 36.5862 3.50366C36.4526 3.6244 36.3251 3.75167 36.2041 3.88499C36.0469 4.05851 35.8674 4.2821 35.6848 4.56741C35.5052 4.85351 35.3177 5.20405 35.1842 5.63788C35.1151 5.85413 35.0732 6.09163 35.0457 6.34218C35.0177 6.59343 35.02 6.85741 35.0454 7.12507C35.0965 7.66233 35.2513 8.20663 35.4774 8.71538C35.7039 9.22429 35.9991 9.70202 36.333 10.1415C36.4183 10.2494 36.5028 10.3569 36.5931 10.4641L36.7328 10.6241L36.8033 10.7039L36.8389 10.7435L36.8716 10.7785C36.9589 10.873 37.046 10.9619 37.1372 11.058C37.2035 11.1259 37.2656 11.1948 37.3224 11.2644C37.5514 11.5431 37.699 11.8218 37.7649 12.0937C37.8331 12.3654 37.8284 12.6491 37.7462 12.9477C37.6671 13.2454 37.5074 13.5438 37.3129 13.8087C37.2146 13.9405 37.1058 14.0625 36.9939 14.175C36.8811 14.2867 36.7627 14.3854 36.6457 14.4749C36.4091 14.6504 36.1722 14.7729 35.9617 14.8466C35.8239 14.8939 35.6985 14.92 35.5853 14.932C35.8879 15.3304 36.1355 15.7677 36.3214 16.2321C36.6736 16.2121 37.0481 16.1311 37.421 15.9835C37.6454 15.8969 37.8681 15.784 38.088 15.6491C38.3092 15.5157 38.5241 15.3551 38.7299 15.1686C38.834 15.0766 38.9339 14.976 39.0328 14.8708C39.132 14.7618 39.2257 14.6479 39.3137 14.5297C39.4925 14.288 39.6545 14.0173 39.7828 13.7157C39.9131 13.4159 40.0072 13.0836 40.0546 12.7344C40.0996 12.3851 40.0965 12.0177 40.0343 11.6594Z" fill="#2B3B47"/>
<path d="M36.6917 18.1196C36.6917 18.0221 36.6888 17.9294 36.6838 17.8403L36.6831 17.8305C36.679 17.7592 36.6729 17.6881 36.6649 17.6172C36.3795 14.7948 33.7216 12.4532 30.4833 12.4532C24.2728 12.4532 21.5478 14.0386 19.2366 14.0386C17.0407 14.0386 13.1495 12.1452 12.7668 10.3562C12.7592 10.2641 12.749 10.1723 12.736 10.0809L12.7359 10.0756L12.7355 10.0762C12.4376 8.01296 10.8045 6.38194 8.74031 6.08757C8.40398 5.10538 7.59508 4.31733 7.39703 4.13671C7.38742 4.12913 7.37891 4.12124 7.36953 4.11264C7.36359 4.10827 7.34859 4.09444 7.34859 4.09444L7.34609 4.09428C7.08719 3.876 6.79625 3.74421 6.60734 3.67421C6.49414 3.63225 6.36953 3.69491 6.33344 3.81014C6.28875 3.95249 6.23625 4.15632 6.21734 4.37389L6.21625 4.37421C6.21641 4.37764 6.21727 4.37999 6.21617 4.38194C6.19935 4.60366 6.20963 4.82661 6.2468 5.04585C6.29828 5.53288 6.41258 5.94882 6.54531 6.2928C4.68875 6.92655 3.35297 8.6846 3.35297 10.7558C3.24227 11.3487 2.10188 12.4388 1.16234 13.4171L1.16273 13.4172C0.782891 13.7355 0.541016 14.213 0.541016 14.7473C0.541016 15.6545 1.2375 16.398 2.12469 16.4748C2.17099 16.4799 2.22148 16.4824 2.27617 16.4825C2.33398 16.4825 2.39297 16.4792 2.45266 16.4736L2.45648 16.4731C3.35602 16.3873 4.45836 15.6912 5.43266 15.0419C5.68937 14.8708 5.99563 14.7944 6.30344 14.8166C6.47938 14.8293 6.66031 14.8241 6.84461 14.7986C6.96626 14.7814 7.08648 14.7553 7.2043 14.7205C7.33456 14.677 7.46288 14.628 7.58891 14.5735C7.71239 14.5144 7.83097 14.4456 7.94352 14.3676C7.94516 14.3781 7.94742 14.3883 7.94914 14.3987C8.48461 14.1126 8.66117 13.9125 9.04914 14.2405C9.64273 14.7423 9.56125 15.1263 9.40141 16.6205C9.40602 16.6229 9.41039 16.6258 9.415 16.6282C9.39766 16.7822 9.37695 16.9451 9.3557 17.1197C9.35258 17.1312 9.34992 17.1429 9.34688 17.1544C9.30197 17.6154 9.26535 18.0771 9.23703 18.5394C9.22869 18.6797 9.21436 18.8194 9.19406 18.9584C9.31984 20.376 10.0119 21.6299 11.0416 22.495C11.9748 23.772 12.1806 25.2112 10.6523 26.7395C8.94398 28.4479 7.84547 29.953 9.36586 31.8788C11.0974 34.3187 10.0707 34.0655 12.3266 36.0194C14.4777 37.8825 17.09 34.3566 14.6062 33.8605C13.1974 33.5791 12.3216 33.0366 11.3112 32.1034C9.60039 30.3815 11.8848 29.9873 14.7109 27.1611C15.4084 26.4637 15.975 25.9519 16.4334 25.4988C16.438 25.4988 16.4427 25.4995 16.4475 25.4995C23.5974 25.4995 25.062 22.0487 28.0629 23.2301C26.8708 24.2823 26.4477 26.4901 26.9314 28.3848L26.8832 28.3521C26.9078 28.3931 26.9306 28.4317 26.9543 28.4715C27.1255 29.1021 27.3982 29.6948 27.7779 30.1949C27.9166 30.9584 27.19 31.0241 25.4455 31.0241C24.0661 31.0241 23.1716 31.9142 22.6299 32.768C22.272 33.2769 22.0677 34.0242 22.0364 35.5271C21.9884 37.8396 25.6095 37.6428 25.0055 35.6854C24.5395 34.1751 24.3523 33.3157 25.3859 32.8101C25.6923 32.7111 26.0629 32.6505 26.5151 32.6505C29.1197 32.6505 32.2286 32.5161 29.5898 29.7547C27.8984 27.9847 30.3625 26.6351 33.0056 25.358C33.037 25.3428 33.0672 25.327 33.0981 25.3117C33.2552 25.2448 33.4061 25.164 33.549 25.0705C35.6362 23.8676 36.6917 21.9512 36.6917 18.1196Z" fill="#AF773F"/>
<path d="M20.7402 34.1274C19.9049 35.4249 17.7673 32.8712 18.4116 32.1074C18.6245 31.855 19.353 30.9622 19.5236 30.7611C19.8875 31.649 21.2441 32.4651 21.2441 32.722C21.2441 33.3858 20.8012 34.0326 20.7402 34.1274ZM1.92125 12.6348C1.66922 12.896 1.40891 13.1604 1.16234 13.4172L1.16273 13.4172C0.782891 13.7355 0.541016 14.213 0.541016 14.7474C0.541016 15.6546 1.2375 16.398 2.12469 16.4749C2.17099 16.48 2.22148 16.4825 2.27617 16.4826C2.33398 16.4826 2.39297 16.4792 2.45266 16.4737L2.45648 16.4732C3.24148 16.3983 4.18086 15.8584 5.05492 15.2906C4.70797 14.0341 3.16766 12.6505 1.92125 12.6348ZM14.0328 33.736C13.5443 34.6205 13.0306 35.4365 12.2172 35.9455C12.4443 36.0797 13.2614 36.7784 13.5462 36.9456C14.408 37.4513 16.8491 34.708 15.1665 33.9069C15.0647 33.8584 14.1371 33.7524 14.0328 33.736ZM7.13805 30.0774C6.42734 30.7092 5.84531 31.2408 4.94328 31.4194C5.035 31.7372 5.53539 32.5665 5.75039 32.817C6.40102 33.5748 9.35734 32.072 8.03266 30.7612C7.9525 30.6818 7.22984 30.1285 7.13805 30.0774ZM24.9105 35.3723C23.9019 35.3119 22.8061 35.1576 21.9966 34.6423C21.9733 34.905 21.8934 36.0544 21.8651 36.3835C21.7795 37.379 25.3105 38.0108 25.2442 36.4691C25.2393 36.3565 24.9406 35.4736 24.9105 35.3723Z" fill="#D9DBD5"/>
<path d="M6.14889 8.9204C6.23026 8.91448 6.312 8.92463 6.38943 8.9503C6.46687 8.97597 6.5385 9.01664 6.60022 9.06999C6.66193 9.12334 6.71254 9.18833 6.74913 9.26125C6.78573 9.33416 6.8076 9.41357 6.8135 9.49494L6.89139 10.5663C6.90129 10.7294 6.84647 10.8899 6.73882 11.013C6.63117 11.136 6.47937 11.2116 6.31632 11.2235C6.15328 11.2353 5.99214 11.1824 5.86783 11.0763C5.74352 10.9701 5.66606 10.8192 5.65225 10.6563L5.57436 9.58501C5.56843 9.50365 5.57859 9.42191 5.60426 9.34447C5.62992 9.26703 5.67059 9.19541 5.72395 9.13369C5.7773 9.07197 5.84229 9.02137 5.9152 8.98477C5.98812 8.94818 6.06752 8.92631 6.14889 8.9204ZM2.51686 14.0439C2.43074 14.0502 2.35065 14.0904 2.29418 14.1558C2.23771 14.2211 2.20947 14.3062 2.21569 14.3923L2.25655 14.9539C2.25946 14.9967 2.27079 15.0385 2.2899 15.0769C2.30901 15.1153 2.33551 15.1495 2.36789 15.1777C2.40027 15.2058 2.43789 15.2272 2.47858 15.2408C2.51927 15.2543 2.56224 15.2597 2.60502 15.2566C2.64779 15.2535 2.68953 15.242 2.72784 15.2227C2.76615 15.2034 2.80027 15.1767 2.82824 15.1442C2.85622 15.1117 2.8775 15.074 2.89085 15.0332C2.90421 14.9925 2.90939 14.9495 2.90608 14.9067L2.86522 14.3451C2.85892 14.259 2.81869 14.1789 2.75337 14.1224C2.68805 14.0659 2.60298 14.0377 2.51686 14.0439Z" fill="#2B3B47"/>
<path d="M5.7542 6.64773L5.87295 6.69312C5.9206 6.71111 5.97197 6.71694 6.02244 6.71008C6.07291 6.70323 6.12087 6.6839 6.16198 6.65385C6.2031 6.6238 6.23608 6.58397 6.25794 6.53797C6.2798 6.49197 6.28984 6.44125 6.28717 6.39039C6.10427 6.46486 5.92626 6.55081 5.7542 6.64773ZM4.20264 5.50929C4.23498 5.61468 4.28483 5.7057 4.33381 5.78859C4.38764 5.86968 4.44178 5.94218 4.50162 6.00257C4.51467 6.01742 4.52811 6.03093 4.54186 6.04406C4.61006 6.01359 4.67912 5.98781 4.75201 5.95742C4.91832 5.89119 5.0872 5.83164 5.25826 5.7789C5.43248 5.72554 5.61717 5.6775 5.79795 5.64273C5.78873 5.63421 5.77982 5.62554 5.77053 5.61703C5.716 5.56851 5.65983 5.51875 5.60318 5.47625C5.54647 5.43257 5.49186 5.38937 5.43811 5.35078C5.3872 5.31397 5.33688 5.27637 5.28717 5.23796C5.24304 5.20594 5.20017 5.17222 5.15865 5.13687C5.12201 5.10429 5.08483 5.0739 5.05764 5.04195C5.03006 5.00976 5.00201 4.97578 4.98365 4.93687C4.96272 4.89812 4.95209 4.855 4.94443 4.81093C4.93975 4.76734 4.93647 4.72211 4.93842 4.68039C4.93857 4.63836 4.94647 4.60117 4.94982 4.5689L4.97006 4.4664C4.97374 4.44781 4.97304 4.42861 4.96801 4.41033C4.96298 4.39205 4.95376 4.3752 4.94108 4.3611C4.92841 4.34701 4.91262 4.33606 4.89498 4.32913C4.87733 4.3222 4.85832 4.31947 4.83943 4.32117L4.79608 4.325C4.79608 4.325 4.7817 4.32625 4.75701 4.33156C4.73326 4.33765 4.69459 4.34437 4.65115 4.36039C4.60858 4.37828 4.55592 4.40007 4.50201 4.43773C4.47451 4.4564 4.44693 4.47734 4.41818 4.50257C4.39045 4.52875 4.36279 4.55757 4.33467 4.59062C4.28193 4.65851 4.2299 4.74257 4.196 4.84406C4.16037 4.94453 4.14232 5.06023 4.14475 5.17578C4.14357 5.23461 4.15209 5.29086 4.16139 5.34765C4.17076 5.40257 4.18381 5.45937 4.20264 5.50929Z" fill="#AF773F"/>
</g>
<defs>
<clipPath id="clip0_535_851">
<rect width="40" height="40" fill="white" transform="translate(0.28125 0.763916)"/>
</clipPath>
</defs>
</svg>
