<svg width="41" height="41" viewBox="0 0 41 41" fill="none" xmlns="http://www.w3.org/2000/svg">
<path d="M29.6055 25.6295C29.6055 25.6295 31.2336 24.0014 32.9492 24.4858C34.6648 24.9701 35.7648 25.8483 35.8961 27.6545C36.0273 29.4608 35.5961 30.8108 34.2242 31.7014C32.4648 32.8451 30.3523 32.0983 30.3523 32.0983L29.6055 25.6295Z" fill="#ECF0F2"/>
<path d="M19.0898 13.5764C19.0898 13.5764 20.3648 10.8046 20.2773 7.06393C20.1898 3.3233 19.3523 1.34518 17.4773 1.41705C15.4242 1.4983 14.7867 4.80768 14.8242 7.5483C14.868 10.8921 16.0867 13.4139 16.0867 13.4139L19.0898 13.5764ZM14.868 24.5577L11.7305 24.8202C11.7305 24.8202 11.8336 25.1421 11.8023 25.4358C11.7742 25.7296 11.6992 26.4608 11.6992 26.4608L15.6586 29.5702L23.1961 25.3764L21.1711 23.9983L14.868 24.5577Z" fill="#A8A8A8"/>
<path d="M6.36236 20.5608C6.28333 20.5607 6.20727 20.5307 6.1495 20.4768C6.09172 20.4229 6.05651 20.349 6.05096 20.2702C6.04542 20.1914 6.06994 20.1134 6.11961 20.0519C6.16927 19.9904 6.24037 19.9501 6.31861 19.9389C6.35299 19.9327 7.16549 19.8202 8.05299 19.7889C9.03424 19.7577 9.29674 19.7483 10.1467 19.9108C10.3155 19.942 10.428 20.1077 10.3936 20.2764C10.3592 20.4452 10.1967 20.5545 10.028 20.5233C9.24986 20.3733 9.02486 20.3795 8.07486 20.4108C7.22174 20.4389 6.41549 20.5545 6.40611 20.5545C6.39049 20.5577 6.37799 20.5608 6.36236 20.5608ZM6.04049 22.7295C5.89986 22.7295 5.77174 22.6327 5.73736 22.492C5.69674 22.3233 5.79986 22.1545 5.96861 22.1139C6.01236 22.1014 7.06861 21.8452 7.71861 21.7295C8.36549 21.6108 9.53424 21.4702 9.58424 21.4639C9.62498 21.4582 9.66644 21.4608 9.70616 21.4715C9.74587 21.4822 9.78303 21.5008 9.8154 21.5262C9.84777 21.5516 9.8747 21.5832 9.89458 21.6192C9.91446 21.6552 9.92689 21.6949 9.93111 21.7358C9.93647 21.7765 9.93366 21.8178 9.92284 21.8574C9.91201 21.897 9.8934 21.9341 9.86808 21.9664C9.84276 21.9987 9.81124 22.0256 9.77538 22.0456C9.73952 22.0655 9.70003 22.0781 9.65924 22.0827C9.64674 22.0827 8.45924 22.2295 7.83111 22.3452C7.20299 22.4608 6.12799 22.7202 6.11861 22.7233C6.08736 22.7264 6.06549 22.7295 6.04049 22.7295Z" fill="#8E9395"/>
<path d="M25.5721 27.3733L14.5159 34.3264C14.5159 34.3264 12.2284 36.9077 12.7409 37.4514C13.0127 37.7389 14.0815 37.9952 15.0127 37.7889C16.3471 37.4952 17.5065 34.6639 17.5065 34.6639C17.5065 34.6639 16.919 38.6827 17.8284 38.8577C18.7377 39.0327 20.0565 38.8139 20.644 37.7296C21.2315 36.6452 21.4346 35.3233 21.9627 34.7671C22.4909 34.2108 22.9596 33.7983 22.9596 33.7983C22.9596 33.7983 23.2534 34.1514 23.4284 34.3858C23.6034 34.6202 23.9284 34.9421 23.9284 34.9421C23.9284 34.9421 22.5565 35.7921 22.0815 36.4671C21.5971 37.1577 21.6971 37.9733 22.4034 38.2577C23.4284 38.6671 27.8596 36.8796 27.8596 36.8796L26.9784 27.0546L25.5721 27.3733Z" fill="#A8A8A8"/>
<path d="M23.8714 20.7452C23.8714 20.7452 24.0183 19.6889 23.8121 18.7202C23.6058 17.7514 23.0214 16.6389 23.0214 16.6389C23.0214 16.6389 25.1933 15.817 26.7464 14.4108C28.4714 12.8483 31.0277 9.9233 31.2621 7.51705C31.4964 5.1108 30.0589 2.94205 26.2746 5.22955C22.4902 7.51705 19.7371 13.1796 19.7371 13.1796C19.7371 13.1796 16.7464 11.917 14.3121 13.2389C11.8777 14.5608 10.5871 17.9608 10.4683 18.1952C10.3496 18.4296 8.84332 19.1139 8.64957 21.1858C8.45895 23.2389 9.60582 24.3983 11.3183 24.8514C12.5121 25.167 13.6058 24.9108 13.6058 24.9108C13.6058 24.9108 14.5152 25.9358 16.8621 25.9077C19.2089 25.8795 21.1433 24.6452 21.1433 24.6452C21.1433 24.6452 20.7027 26.317 18.5902 27.2264C17.0058 27.9077 15.0714 27.8139 13.6621 27.1983C12.2527 26.5827 11.7558 25.8796 11.7558 25.8796C11.7558 25.8796 11.2558 28.167 11.7558 29.5452C12.2558 30.9233 13.2214 32.8295 13.1621 34.267C13.1027 35.7045 12.1808 36.7608 12.6339 37.3452C12.8871 37.6733 13.9308 37.9483 14.7464 37.0827C16.1246 35.6171 16.0714 33.9577 16.5652 33.8858C17.5902 33.7389 17.0933 36.7295 17.0652 37.3452C17.0371 37.9608 16.9496 38.7389 17.6214 38.842C19.0589 39.0608 19.2933 38.5202 19.9089 37.0827C20.5246 35.6452 20.4527 34.8983 21.0808 34.0327C21.5933 33.3295 22.4589 32.8608 22.4589 32.8608C22.4589 32.8608 22.2964 30.9108 22.9433 29.8827C23.5871 28.8577 24.8652 28.0483 25.8027 28.4014C26.7402 28.7546 24.6746 29.0014 23.9996 30.4702C23.5058 31.5452 23.6027 32.6545 24.3089 33.417C25.0121 34.1795 25.8621 34.8233 25.8621 34.8233C25.8621 34.8233 22.4996 36.0358 22.1964 37.2733C21.9777 38.167 22.3433 38.5795 24.3964 38.3733C26.4496 38.167 29.0589 37.4639 30.0871 36.1733C31.1121 34.8827 32.4246 30.6514 31.3339 27.5639C30.4527 25.0702 29.8246 23.9702 27.5652 22.3577C25.3089 20.7452 23.8714 20.7452 23.8714 20.7452Z" fill="#DFDFDF"/>
<path d="M22.1131 14.0014C21.5631 13.4327 22.5225 11.4202 24.6943 9.10456C26.8662 6.78894 28.36 6.05456 29.0943 6.58269C29.8287 7.11081 28.7725 9.37019 26.6881 11.5702C24.9631 13.3889 23.0225 14.9389 22.1131 14.0014Z" fill="#FFB0B1"/>
<path d="M15.1753 13.8827C15.9878 14.0577 15.2847 15.2452 14.6034 16.3889C13.9222 17.5327 13.4159 18.1264 13.5691 18.6764C13.7222 19.2264 14.9097 20.2827 14.8441 21.5358C14.7784 22.7889 13.7222 24.2202 11.7441 24.0639C9.76593 23.9077 8.97218 22.392 9.30343 20.742C9.56593 19.4358 10.9097 18.8295 11.2597 18.1889C11.6128 17.5514 12.1941 16.4795 12.8003 15.592C13.6597 14.3452 14.3597 13.7077 15.1753 13.8827Z" fill="white"/>
<path d="M19.1065 18.7505C19.1866 17.9346 18.767 17.2256 18.1692 17.167C17.5715 17.1083 17.022 17.7221 16.9419 18.538C16.8618 19.3539 17.2814 20.0628 17.8792 20.1215C18.4769 20.1802 19.0264 19.5664 19.1065 18.7505Z" fill="#2F3030"/>
<path d="M11.1004 20.0264C11.1004 20.0264 12.0817 19.2202 12.4629 19.617C12.8442 20.0139 11.3035 20.967 11.3035 20.967C11.3035 20.967 11.1567 21.6858 11.5973 21.7577C12.0379 21.8295 12.0973 20.892 12.5785 21.142C13.0629 21.392 12.6223 22.6389 11.7723 22.6514C11.266 22.6608 10.966 22.2858 10.966 22.2858C10.966 22.2858 10.8317 22.5639 10.3785 22.5202C9.63165 22.4483 9.27853 20.9327 9.83478 20.9514C10.2754 20.967 10.0098 21.6702 10.4223 21.6702C10.891 21.6702 10.7004 20.8358 10.7004 20.8358C10.7004 20.8358 9.6754 19.7639 10.1285 19.3827C10.5879 19.0014 11.1004 20.0264 11.1004 20.0264Z" fill="#2F3030"/>
<path d="M17.9467 21.9077C17.9092 21.9077 17.8748 21.9014 17.8373 21.8889C17.8248 21.8858 16.7061 21.4702 15.9873 21.3139L14.2873 20.9483C14.1186 20.9108 14.0123 20.7452 14.0467 20.5764C14.0811 20.4077 14.2498 20.3014 14.4186 20.3358L16.1186 20.7014C16.8811 20.867 18.0061 21.2827 18.0529 21.3014C18.2154 21.3608 18.2967 21.542 18.2373 21.7045C18.2159 21.7644 18.1764 21.8161 18.1244 21.8524C18.0723 21.8888 18.0102 21.9081 17.9467 21.9077ZM17.5936 23.992C17.5373 23.992 17.4811 23.9764 17.4279 23.9452C17.4186 23.9389 16.4561 23.342 15.5654 22.8545C15.0098 22.5509 14.4382 22.2775 13.8529 22.0358C13.815 22.0204 13.7804 21.9977 13.7512 21.9689C13.722 21.9402 13.6988 21.906 13.6829 21.8683C13.6669 21.8305 13.6585 21.79 13.6582 21.7491C13.6579 21.7081 13.6657 21.6675 13.6811 21.6295C13.6964 21.5916 13.7192 21.557 13.7479 21.5278C13.7766 21.4987 13.8109 21.4754 13.8486 21.4595C13.8863 21.4435 13.9268 21.4351 13.9678 21.4348C14.0087 21.4345 14.0493 21.4423 14.0873 21.4577C14.1217 21.4702 14.9498 21.8077 15.8654 22.3108C16.7717 22.8077 17.7467 23.4139 17.7561 23.4202C17.9029 23.5108 17.9467 23.7045 17.8561 23.8514C17.8029 23.9389 17.6998 23.992 17.5936 23.992Z" fill="#8E9395"/>
</svg>
