<svg width="43" height="43" viewBox="0 0 43 43" fill="none" xmlns="http://www.w3.org/2000/svg">
<path d="M8.84648 5.81111L8.99398 5.69668L9.13425 5.58437C9.18987 5.54049 9.25278 5.49119 9.31784 5.44254C9.4344 5.36191 9.56614 5.26724 9.72192 5.17348C10.0916 4.94458 10.4827 4.75229 10.8897 4.59934C11.4111 4.40225 11.9558 4.27308 12.5102 4.21503C12.6605 4.19624 12.8149 4.1905 12.9712 4.18156C13.1276 4.17951 13.2867 4.17491 13.4472 4.18377L13.568 4.18902L13.6287 4.19198C13.6066 4.1914 13.851 4.19796 13.7497 4.1955L13.7547 4.19624L13.7645 4.19772L13.7843 4.20075L13.9438 4.2252L14.1058 4.25005L14.198 4.26449L14.3453 4.29009C14.5408 4.32585 14.7431 4.36637 14.9347 4.41403C15.101 4.46588 15.2683 4.52068 15.4355 4.5781C15.5198 4.60443 15.6009 4.642 15.6829 4.67727L15.9285 4.78637C16.0941 4.85569 16.2499 4.94929 16.4081 5.03837C17.0366 5.40284 17.6123 5.88543 18.0844 6.45825C18.5572 7.03009 18.9261 7.69209 19.16 8.39198C19.3973 9.09096 19.4887 9.82875 19.4528 10.5297L19.4484 10.661L19.4479 10.6774L19.4454 10.7662L19.4445 10.7721L19.4409 10.7957L19.4337 10.843L19.4048 11.0312L19.3905 11.125L19.3832 11.1719L19.3794 11.1963L19.3727 11.2325C19.3374 11.4231 19.2973 11.6128 19.2526 11.8014C19.2296 11.8914 19.201 11.9649 19.175 12.0466C19.1195 12.205 19.0734 12.3639 19.001 12.5122L18.8999 12.7349C18.8654 12.8081 18.8344 12.8822 18.7925 12.9508C18.7148 13.0881 18.6354 13.2244 18.5541 13.3597C18.4662 13.4854 18.377 13.6101 18.2864 13.7339C18.2439 13.7961 18.1925 13.8513 18.1443 13.9078L17.9986 14.0742C17.9053 14.1864 17.7989 14.284 17.6961 14.3807C17.5933 14.4774 17.4938 14.5731 17.3837 14.6539C17.2759 14.737 17.1724 14.8204 17.066 14.8953L16.7426 15.1002C16.6395 15.1694 16.5267 15.2191 16.4217 15.2741L16.2645 15.3525L16.1874 15.3904L16.1083 15.4221C15.8976 15.5031 15.7028 15.5866 15.5081 15.6335L15.2304 15.7093C15.1407 15.7311 15.0517 15.7432 14.9679 15.7589L14.7265 15.7994C14.6499 15.8126 14.5749 15.8133 14.5051 15.8199C14.3647 15.8291 14.2404 15.8403 14.1323 15.842L13.8579 15.834L13.631 15.8253C13.1205 15.8058 12.7225 15.376 12.742 14.8655C12.7588 14.4264 13.079 14.0706 13.493 13.992L13.631 13.9659L13.7752 13.9385L13.9462 13.9081C14.0126 13.8923 14.0872 13.8665 14.1706 13.8436C14.2118 13.8302 14.2566 13.8228 14.3007 13.8034L14.4389 13.7463C14.4863 13.7258 14.537 13.7098 14.5866 13.685L14.7381 13.6038C14.8448 13.5558 14.9447 13.4767 15.0537 13.4081L15.0945 13.3814L15.1328 13.3493L15.2106 13.285C15.2619 13.2405 15.3195 13.2037 15.3667 13.1498C15.4162 13.0995 15.4668 13.0493 15.5183 12.9993C15.5666 12.9453 15.6111 12.8857 15.6592 12.8298C15.7096 12.7761 15.7491 12.7105 15.7913 12.6475C15.8336 12.5846 15.8794 12.5241 15.9123 12.4528L15.9675 12.3506C15.9856 12.3164 16.0071 12.2843 16.0197 12.2464C16.049 12.1733 16.0794 12.101 16.111 12.0295C16.1333 11.953 16.1556 11.8769 16.18 11.802C16.1945 11.7655 16.1985 11.7247 16.2065 11.6857L16.2297 11.5686C16.2513 11.4928 16.2491 11.4098 16.2592 11.3313C16.2617 11.2933 16.2706 11.2487 16.2692 11.2169C16.2659 11.1874 16.2636 11.1585 16.2623 11.1303C16.261 11.1024 16.2609 11.0744 16.2619 11.0465L16.2623 11.0362L16.2612 11.0136L16.2587 10.9663L16.2539 10.8715L16.2441 10.6813L16.2417 10.6336L16.2405 10.6098L16.2401 10.6038C16.2359 10.7637 16.2385 10.646 16.2373 10.6807L16.2355 10.6733L16.2215 10.6144C16.1629 10.2994 16.0496 10.0049 15.8835 9.75099C15.7249 9.50381 15.5212 9.28864 15.2831 9.11664C15.0672 8.96048 14.8245 8.84518 14.567 8.77646C14.5061 8.76284 14.4504 8.74012 14.3886 8.73733C14.3592 8.73357 14.3299 8.72925 14.3007 8.72437C14.2718 8.72002 14.2444 8.71198 14.2144 8.71411C14.1579 8.71362 14.1015 8.71088 14.0453 8.70591C14.0124 8.7151 13.9916 8.72469 13.9679 8.72601L13.7153 8.73848L13.5541 8.74676L13.5342 8.74783L13.5242 8.74832L13.5191 8.74857C13.4146 8.74611 13.6557 8.75218 13.6303 8.75185L13.6118 8.75677L13.5754 8.76604C13.5269 8.77539 13.4815 8.79368 13.4368 8.80509C13.3933 8.82338 13.3502 8.83421 13.3105 8.85398C13.168 8.91297 13.0345 8.99155 12.9138 9.08744C12.8245 9.1575 12.7425 9.23653 12.6692 9.32328C12.638 9.35691 12.6153 9.39268 12.5928 9.41917C12.591 9.42737 12.5928 9.43172 12.592 9.43648L12.5915 9.44239C12.5908 9.44468 12.5945 9.44189 12.5803 9.45805L12.459 9.59989C11.5145 10.7043 9.85358 10.8338 8.74919 9.88937C7.64481 8.94495 7.51528 7.28398 8.45971 6.17959C8.57488 6.04514 8.71228 5.9166 8.84648 5.81111Z" fill="#E89E34"/>
<path d="M11.3443 14.1128C9.45638 16.0008 10.1683 20.0296 8.76109 21.8891C7.35384 23.7487 3.83585 23.1331 3.83585 23.1331C3.83585 23.1331 1.10938 22.437 1.10938 19.1351C1.10938 15.8332 2.92481 11.83 7.16222 8.68653C11.3996 5.5431 11.3443 14.1128 11.3443 14.1128Z" fill="#E9EAE5"/>
<path d="M6.32947 12.4951C5.64058 12.4583 5.05225 12.987 5.01542 13.6759L4.90024 15.833C4.86349 16.5219 5.3921 17.1103 6.08108 17.1471C6.77006 17.1839 7.35831 16.6552 7.39514 15.9662L7.51031 13.8092C7.54706 13.1202 7.01837 12.5318 6.32947 12.4951Z" fill="#2B3B47"/>
<path d="M32.1501 10.5586C26.5211 10.5586 27.4592 11.5884 22.5338 11.5884C18.4736 11.5884 17.6005 10.1892 14.3621 9.69748C13.6952 8.1302 12.4063 6.35791 9.98561 6.35791C7.52286 6.35791 6.58467 7.64793 5.25741 10.3097L5.25847 10.3098C5.82949 9.75007 6.46261 9.20636 7.16332 8.68653C9.66445 6.83107 10.6697 9.05649 11.0738 11.1918C11.0809 11.229 11.0878 11.2661 11.0944 11.3032L11.0985 11.3258C11.3539 12.7595 11.3454 14.1128 11.3454 14.1128C9.45749 16.0008 10.1694 20.0296 8.76219 21.8891C7.85009 23.0945 6.0513 23.2598 4.89844 23.227L8.78286 23.7836C9.07974 23.8261 9.35297 23.9694 9.55678 24.1895C9.76058 24.4095 9.88258 24.6929 9.90234 24.9921C10.1022 28.0217 11.1486 29.8492 12.0624 30.8865C12.8906 31.8266 13.4527 32.9708 13.7225 34.1943C14.3559 37.0661 15.4975 38.3494 17.4911 38.3494C18.8984 38.3494 19.8366 34.9725 19.8366 33.6825C19.8366 32.3925 23.472 32.0713 26.1693 32.0713C28.8666 32.0713 29.8634 32.6566 29.8634 34.0344C29.8634 35.4121 29.5702 38.3494 32.3848 38.3494C34.3723 38.3494 35.7164 35.219 36.3349 33.3792C36.5846 32.6365 37.0409 31.9778 37.6563 31.4926C38.9453 30.4762 41.1734 27.868 41.7047 21.7719C42.4333 13.4111 37.7792 10.5586 32.1501 10.5586Z" fill="#CECECA"/>
<path d="M9.3165 7.29454L9.46621 7.18249L9.61756 7.0624C9.67793 7.01515 9.74635 6.96199 9.81689 6.9099C9.9415 6.82459 10.0827 6.72484 10.2491 6.62591C10.6442 6.38471 11.0619 6.18267 11.4963 6.02265C12.0521 5.81674 12.6321 5.68321 13.2219 5.62537C13.3818 5.60667 13.5458 5.60134 13.7117 5.59322C13.8777 5.59199 14.0465 5.58854 14.2166 5.59896L14.5846 5.61914L14.7439 5.64645L15.1582 5.71799C15.3685 5.75687 15.5865 5.80174 15.7916 5.85432C15.9677 5.91019 16.1445 5.96941 16.3209 6.03184C16.4099 6.06063 16.4956 6.10074 16.5822 6.13864L16.8413 6.25603C17.0159 6.33109 17.1802 6.43076 17.3469 6.52632C18.0087 6.91663 18.6126 7.43113 19.1056 8.03898C19.5994 8.64593 19.9821 9.34615 20.2221 10.0843C20.4655 10.8216 20.555 11.5975 20.511 12.3316L20.505 12.4692L20.5042 12.4863L20.5012 12.5894L20.5002 12.5953L20.4962 12.6189L20.4882 12.6661L20.456 12.8542L20.4205 13.0576C20.3823 13.2599 20.3385 13.461 20.2894 13.6608L20.2803 13.6977L20.2698 13.7293L20.2487 13.7922L20.2061 13.9173C20.1466 14.0825 20.0964 14.248 20.0197 14.4025L19.9119 14.6343C19.8751 14.7105 19.8419 14.7874 19.7976 14.8588C19.7152 15.0015 19.6309 15.143 19.5447 15.2833C19.4519 15.4137 19.3576 15.5429 19.2617 15.6711C19.2167 15.7354 19.1627 15.7926 19.1119 15.8511L18.9585 16.0229C18.8599 16.1387 18.7483 16.2393 18.6403 16.339C18.5324 16.4386 18.4276 16.5369 18.3125 16.62C18.1996 16.7054 18.0909 16.7909 17.9796 16.8676C17.8647 16.9403 17.752 17.0101 17.6414 17.0771C17.5334 17.1476 17.4159 17.1984 17.3063 17.2544L17.1423 17.334L17.0618 17.3724L16.9794 17.4045C16.7599 17.4867 16.557 17.5704 16.3547 17.6173L16.0662 17.6927C15.973 17.7142 15.8808 17.7259 15.7939 17.7411L15.5436 17.7803C15.4643 17.793 15.3867 17.7931 15.3143 17.7991C15.169 17.8071 15.0405 17.817 14.9288 17.8176L14.6453 17.8064L14.4114 17.7945C13.814 17.7644 13.3542 17.2558 13.3843 16.6584C13.4094 16.1611 13.766 15.7592 14.2294 15.6558L14.4114 15.6155L14.5485 15.585L14.7106 15.5513C14.7735 15.5343 14.8438 15.5073 14.9223 15.4831C14.9611 15.469 15.0032 15.4611 15.0446 15.4413L15.1739 15.3828C15.2182 15.3619 15.2656 15.3455 15.3118 15.3204L15.4524 15.2387C15.5515 15.1907 15.6432 15.1119 15.7436 15.0444L15.7811 15.0183L15.816 14.9866L15.887 14.9234C15.9336 14.8799 15.9865 14.8442 16.0289 14.7916C16.0738 14.7424 16.1194 14.6938 16.1658 14.6459C16.2091 14.5936 16.2485 14.5361 16.2915 14.4824C16.3368 14.431 16.371 14.3681 16.4081 14.3081C16.4452 14.248 16.4859 14.1907 16.5134 14.123L16.5608 14.0264C16.5763 13.994 16.5952 13.9639 16.6053 13.9282C16.6294 13.8593 16.6548 13.7915 16.6815 13.7248C16.6989 13.6532 16.7163 13.5823 16.736 13.5129C16.7481 13.4791 16.7498 13.4412 16.7555 13.4052L16.7721 13.2973C16.7893 13.2275 16.783 13.1512 16.7891 13.0796L16.7925 13.0255L16.7945 12.9987L16.7955 12.9854L16.7933 12.9764C16.788 12.9533 16.7837 12.9299 16.7804 12.9065C16.7774 12.8845 16.7756 12.8624 16.7751 12.8402L16.7637 12.6675L16.7507 12.4771L16.7474 12.4294L16.7457 12.4055L16.7453 12.3995C16.7404 12.5874 16.7434 12.4497 16.7421 12.4907L16.74 12.4841L16.7244 12.4313C16.6577 12.1496 16.5425 11.8931 16.3825 11.6776C16.2248 11.4614 16.0305 11.2841 15.8228 11.1549C15.6152 11.0252 15.3958 10.9447 15.1893 10.9074C15.1367 10.9003 15.0896 10.8837 15.0367 10.8866C15.0119 10.8857 14.9871 10.8841 14.9623 10.8819C14.938 10.8802 14.9152 10.8748 14.8899 10.8793C14.8406 10.8836 14.794 10.8854 14.7494 10.8846C14.7302 10.8987 14.7249 10.9125 14.716 10.917C14.7143 10.9182 14.7124 10.9191 14.7105 10.9198L14.64 10.9248L14.4762 10.9361L14.3148 10.9471L14.2948 10.9485L14.2848 10.9492L14.2798 10.9495C14.1576 10.9466 14.4404 10.9539 14.4109 10.9534L14.396 10.959L14.3668 10.9695C14.3279 10.9804 14.2923 10.9998 14.2572 11.0121C14.2234 11.0312 14.1897 11.0425 14.1596 11.0624C14.052 11.121 13.9538 11.1953 13.8682 11.2829C13.8058 11.3457 13.7504 11.415 13.703 11.4896C13.6825 11.5181 13.6692 11.5488 13.6546 11.5706C13.6583 11.5753 13.6656 11.5758 13.6697 11.5771L13.676 11.5781C13.676 11.5781 13.6838 11.5738 13.6689 11.5909L13.5498 11.7351C12.4635 13.0508 10.5163 13.2367 9.20059 12.1505C7.88489 11.0642 7.69901 9.11695 8.78527 7.80125C8.9417 7.6116 9.12906 7.43662 9.3165 7.29454Z" fill="#FFB941"/>
</svg>
