<svg width="392" height="52" viewBox="0 0 392 52" fill="none" xmlns="http://www.w3.org/2000/svg">
<path d="M42.1265 18V16.922H43.6385V18H42.1265ZM39.2565 18C39.2005 18 39.1538 17.9907 39.1165 17.972C39.0792 17.944 39.0512 17.9067 39.0325 17.86C39.0138 17.8133 38.9998 17.7573 38.9905 17.692C38.9812 17.6173 38.9765 17.538 38.9765 17.454C38.9765 17.342 38.9812 17.2487 38.9905 17.174C39.0092 17.0993 39.0372 17.0387 39.0745 16.992C39.1212 16.9453 39.1818 16.922 39.2565 16.922V18ZM40.9225 18V7.976H42.1265V18H40.9225ZM39.2565 18V16.922H40.9225V18H39.2565ZM41.2025 18V16.922C41.2585 16.922 41.3052 16.936 41.3425 16.964C41.3798 16.9827 41.4078 17.0153 41.4265 17.062C41.4452 17.1087 41.4592 17.1647 41.4685 17.23C41.4778 17.2953 41.4825 17.37 41.4825 17.454C41.4825 17.538 41.4778 17.6173 41.4685 17.692C41.4592 17.7573 41.4452 17.8133 41.4265 17.86C41.4078 17.9067 41.3798 17.944 41.3425 17.972C41.3052 17.9907 41.2585 18 41.2025 18ZM33.1945 21.472C32.6438 21.472 32.1305 21.3927 31.6545 21.234C31.1878 21.0753 30.7772 20.856 30.4225 20.576C30.0678 20.3053 29.7878 19.974 29.5825 19.582C29.3865 19.1993 29.2885 18.7747 29.2885 18.308C29.2885 18.1213 29.3025 17.8787 29.3305 17.58C29.3678 17.272 29.4098 16.9267 29.4565 16.544C29.5125 16.1613 29.5732 15.7693 29.6385 15.368L30.8145 15.536C30.7212 16.152 30.6418 16.712 30.5765 17.216C30.5205 17.72 30.4925 18.0793 30.4925 18.294C30.4925 18.7047 30.6045 19.0687 30.8285 19.386C31.0618 19.7033 31.3792 19.9507 31.7805 20.128C32.1912 20.3053 32.6625 20.394 33.1945 20.394H37.1565C37.8565 20.394 38.3838 20.2027 38.7385 19.82C39.1025 19.4373 39.2845 18.882 39.2845 18.154V17.678H40.4605V18.168C40.4605 18.812 40.3298 19.3813 40.0685 19.876C39.8165 20.38 39.4432 20.772 38.9485 21.052C38.4632 21.332 37.8658 21.472 37.1565 21.472H33.1945ZM38.4865 18C38.1598 18 37.8285 17.9673 37.4925 17.902C37.1658 17.8273 36.8392 17.6873 36.5125 17.482L37.1985 16.586C37.3292 16.67 37.4552 16.74 37.5765 16.796C37.6978 16.8427 37.8285 16.8753 37.9685 16.894C38.1178 16.9127 38.2905 16.922 38.4865 16.922H41.2025V18H38.4865ZM43.6385 18V16.922C43.6945 16.922 43.7412 16.936 43.7785 16.964C43.8158 16.9827 43.8438 17.0153 43.8625 17.062C43.8812 17.1087 43.8952 17.1647 43.9045 17.23C43.9138 17.2953 43.9185 17.37 43.9185 17.454C43.9185 17.538 43.9138 17.6173 43.9045 17.692C43.8952 17.7573 43.8812 17.8133 43.8625 17.86C43.8438 17.9067 43.8158 17.944 43.7785 17.972C43.7412 17.9907 43.6945 18 43.6385 18ZM46.6265 17.93C46.1225 17.5007 45.7399 17.0107 45.4785 16.46C45.2172 15.9093 45.0865 15.326 45.0865 14.71C45.0865 14.178 45.1799 13.688 45.3665 13.24C45.5625 12.7827 45.8239 12.386 46.1505 12.05C46.4865 11.714 46.8785 11.4573 47.3265 11.28C47.7745 11.0933 48.2552 11 48.7685 11C49.0485 11 49.3425 11.028 49.6505 11.084C49.9585 11.14 50.2572 11.2193 50.5465 11.322L50.1545 12.33C49.9212 12.2553 49.6879 12.1947 49.4545 12.148C49.2212 12.1013 49.0019 12.078 48.7965 12.078C48.3112 12.078 47.8772 12.19 47.4945 12.414C47.1119 12.638 46.8132 12.9507 46.5985 13.352C46.3932 13.744 46.2905 14.1967 46.2905 14.71C46.2905 15.1767 46.3839 15.6153 46.5705 16.026C46.7665 16.4367 47.0512 16.8053 47.4245 17.132L46.6265 17.93ZM43.6445 18V16.922H50.7145V18H43.6445ZM43.6445 18C43.5885 18 43.5419 17.9907 43.5045 17.972C43.4672 17.944 43.4392 17.9067 43.4205 17.86C43.4019 17.8133 43.3879 17.7573 43.3785 17.692C43.3692 17.6173 43.3645 17.538 43.3645 17.454C43.3645 17.342 43.3739 17.2487 43.3925 17.174C43.4019 17.0993 43.4299 17.0387 43.4765 16.992C43.5139 16.9453 43.5699 16.922 43.6445 16.922V18ZM64.7085 18V16.922H66.2345V18H64.7085ZM55.2585 18V16.922H64.6105L63.5185 17.888V14.654C63.5185 14.0753 63.4392 13.5993 63.2805 13.226C63.1218 12.8433 62.8838 12.5587 62.5665 12.372C62.2585 12.176 61.8665 12.078 61.3905 12.078C60.9798 12.078 60.5972 12.148 60.2425 12.288C59.8972 12.428 59.5752 12.61 59.2765 12.834C58.9778 13.058 58.6978 13.3053 58.4365 13.576C58.1845 13.8373 57.9512 14.1033 57.7365 14.374C57.5218 14.6447 57.3258 14.892 57.1485 15.116L56.7845 14.066C57.0832 13.6833 57.3818 13.31 57.6805 12.946C57.9885 12.582 58.3198 12.2553 58.6745 11.966C59.0292 11.6767 59.4305 11.4433 59.8785 11.266C60.3265 11.0887 60.8398 11 61.4185 11C62.0812 11 62.6225 11.112 63.0425 11.336C63.4718 11.5507 63.8078 11.8447 64.0505 12.218C64.2932 12.582 64.4612 12.9787 64.5545 13.408C64.6572 13.828 64.7085 14.2433 64.7085 14.654V18H55.2585ZM56.1825 16.922V7.976H57.3865V16.922H56.1825ZM66.2345 18V16.922C66.2812 16.922 66.3232 16.936 66.3605 16.964C66.3978 16.9827 66.4258 17.0153 66.4445 17.062C66.4632 17.1087 66.4772 17.1647 66.4865 17.23C66.5052 17.2953 66.5145 17.37 66.5145 17.454C66.5145 17.538 66.5052 17.6173 66.4865 17.692C66.4772 17.7573 66.4632 17.8133 66.4445 17.86C66.4258 17.9067 66.3978 17.944 66.3605 17.972C66.3232 17.9907 66.2812 18 66.2345 18ZM66.2305 18V16.922H68.2605C68.7925 16.922 69.3058 16.8333 69.8005 16.656C70.2951 16.4787 70.7478 16.2407 71.1585 15.942C71.5785 15.6433 71.9425 15.3167 72.2505 14.962C72.5585 14.598 72.7965 14.2293 72.9645 13.856C73.1325 13.4733 73.2165 13.1187 73.2165 12.792V11.938L73.8465 12.904C73.3145 12.6333 72.7871 12.428 72.2645 12.288C71.7511 12.148 71.2471 12.078 70.7525 12.078C70.2671 12.078 69.7631 12.148 69.2405 12.288C68.7178 12.428 68.1951 12.6333 67.6725 12.904L68.3025 11.938V12.792C68.3025 13.1187 68.3865 13.4733 68.5545 13.856C68.7318 14.2293 68.9698 14.598 69.2685 14.962C69.5765 15.3167 69.9358 15.6433 70.3465 15.942C70.7571 16.2407 71.2098 16.4787 71.7045 16.656C72.1991 16.8333 72.7171 16.922 73.2585 16.922H75.1905V18H73.3285C72.6005 18 71.9191 17.8833 71.2845 17.65C70.6498 17.4167 70.0758 17.1087 69.5625 16.726C69.0491 16.334 68.6058 15.9093 68.2325 15.452C67.8685 14.9853 67.5885 14.5233 67.3925 14.066C67.1965 13.5993 67.0985 13.1747 67.0985 12.792V11.952C67.4998 11.7373 67.9105 11.56 68.3305 11.42C68.7505 11.28 69.1658 11.1773 69.5765 11.112C69.9871 11.0373 70.3791 11 70.7525 11C71.1351 11 71.5318 11.0373 71.9425 11.112C72.3531 11.1773 72.7638 11.28 73.1745 11.42C73.5945 11.56 74.0051 11.7373 74.4065 11.952V12.792C74.4065 13.1747 74.3085 13.5993 74.1125 14.066C73.9165 14.5233 73.6318 14.9853 73.2585 15.452C72.8945 15.9093 72.4558 16.334 71.9425 16.726C71.4291 17.1087 70.8551 17.4167 70.2205 17.65C69.5858 17.8833 68.9045 18 68.1765 18H66.2305ZM66.2305 18C66.1745 18 66.1278 17.9907 66.0905 17.972C66.0531 17.944 66.0251 17.9067 66.0065 17.86C65.9878 17.8133 65.9738 17.7573 65.9645 17.692C65.9551 17.6173 65.9505 17.538 65.9505 17.454C65.9505 17.342 65.9598 17.2487 65.9785 17.174C65.9878 17.0993 66.0158 17.0387 66.0625 16.992C66.0998 16.9453 66.1558 16.922 66.2305 16.922V18ZM75.1905 18V16.922C75.2465 16.922 75.2931 16.936 75.3305 16.964C75.3678 16.9827 75.3958 17.0153 75.4145 17.062C75.4331 17.1087 75.4471 17.1647 75.4565 17.23C75.4658 17.2953 75.4705 17.37 75.4705 17.454C75.4705 17.538 75.4658 17.6173 75.4565 17.692C75.4471 17.7573 75.4331 17.8133 75.4145 17.86C75.3958 17.9067 75.3678 17.944 75.3305 17.972C75.2931 17.9907 75.2465 18 75.1905 18ZM70.1365 9.74V8.438H71.3405V9.74H70.1365ZM75.1855 18V16.922H85.5595L84.4815 17.888V14.654C84.4815 14.0753 84.3975 13.5993 84.2295 13.226C84.0709 12.8433 83.8329 12.5587 83.5155 12.372C83.2075 12.176 82.8202 12.078 82.3535 12.078C81.9429 12.078 81.5602 12.148 81.2055 12.288C80.8602 12.428 80.5335 12.61 80.2255 12.834C79.9269 13.058 79.6469 13.3053 79.3855 13.576C79.1335 13.8373 78.9002 14.1033 78.6855 14.374C78.4709 14.6447 78.2795 14.892 78.1115 15.116L77.7475 14.066C77.9995 13.758 78.2469 13.4547 78.4895 13.156C78.7415 12.8573 78.9982 12.5773 79.2595 12.316C79.5209 12.0547 79.8055 11.826 80.1135 11.63C80.4215 11.434 80.7622 11.28 81.1355 11.168C81.5089 11.056 81.9289 11 82.3955 11C83.0489 11 83.5855 11.112 84.0055 11.336C84.4349 11.5507 84.7709 11.8447 85.0135 12.218C85.2562 12.582 85.4242 12.9787 85.5175 13.408C85.6202 13.828 85.6715 14.2433 85.6715 14.654V18H75.1855ZM77.1455 16.922V11H78.3495V16.922H77.1455ZM75.1855 18C75.1295 18 75.0829 17.9907 75.0455 17.972C75.0082 17.944 74.9802 17.9067 74.9615 17.86C74.9429 17.8133 74.9289 17.7573 74.9195 17.692C74.9102 17.6173 74.9055 17.538 74.9055 17.454C74.9055 17.342 74.9149 17.2487 74.9335 17.174C74.9429 17.0993 74.9709 17.0387 75.0175 16.992C75.0549 16.9453 75.1109 16.922 75.1855 16.922V18ZM80.9535 9.754V8.452H82.1575V9.754H80.9535ZM88.0546 18V7.976H89.2446V18H88.0546ZM96.2603 14.71L95.6443 18H94.3143L95.2803 14.71H96.2603ZM103.615 18C102.812 18 102.177 17.8787 101.711 17.636C101.253 17.384 100.927 17.0013 100.731 16.488C100.544 15.9653 100.451 15.3027 100.451 14.5C100.451 13.7067 100.544 13.0487 100.731 12.526C100.927 12.0033 101.253 11.6207 101.711 11.378C102.177 11.126 102.812 11 103.615 11H106.555V17.398H105.351V11.616L105.897 12.078H103.615C103.101 12.078 102.7 12.1433 102.411 12.274C102.131 12.3953 101.935 12.6287 101.823 12.974C101.711 13.3193 101.655 13.828 101.655 14.5C101.655 15.172 101.706 15.6807 101.809 16.026C101.921 16.3713 102.121 16.6093 102.411 16.74C102.7 16.8613 103.101 16.922 103.615 16.922H108.067V18H103.615ZM108.067 18V16.922C108.123 16.922 108.169 16.936 108.207 16.964C108.244 16.9827 108.272 17.0153 108.291 17.062C108.309 17.1087 108.323 17.1647 108.333 17.23C108.342 17.2953 108.347 17.37 108.347 17.454C108.347 17.538 108.342 17.6173 108.333 17.692C108.323 17.7573 108.309 17.8133 108.291 17.86C108.272 17.9067 108.244 17.944 108.207 17.972C108.169 17.9907 108.123 18 108.067 18ZM102.173 9.74V8.438H103.363V9.74H102.173ZM104.175 9.74V8.438H105.365V9.74H104.175ZM117.152 18V16.922H118.65V18H117.152ZM108.066 18V16.922H117.418L116.326 17.888V14.654C116.326 14.0753 116.247 13.5993 116.088 13.226C115.93 12.8433 115.692 12.5587 115.374 12.372C115.066 12.176 114.674 12.078 114.198 12.078C113.788 12.078 113.405 12.148 113.05 12.288C112.705 12.428 112.383 12.61 112.084 12.834C111.786 13.058 111.506 13.3053 111.244 13.576C110.992 13.8373 110.759 14.1033 110.544 14.374C110.33 14.6447 110.134 14.892 109.956 15.116L109.592 14.066C109.891 13.6833 110.19 13.31 110.488 12.946C110.796 12.582 111.128 12.2553 111.482 11.966C111.837 11.6767 112.238 11.4433 112.686 11.266C113.134 11.0887 113.648 11 114.226 11C114.889 11 115.43 11.112 115.85 11.336C116.28 11.5507 116.616 11.8447 116.858 12.218C117.101 12.582 117.269 12.9787 117.362 13.408C117.465 13.828 117.516 14.2433 117.516 14.654V18H108.066ZM108.99 16.922V7.976H110.194V16.922H108.99ZM108.066 18C108.01 18 107.964 17.9907 107.926 17.972C107.889 17.944 107.861 17.9067 107.842 17.86C107.824 17.8133 107.81 17.7573 107.8 17.692C107.791 17.6173 107.786 17.538 107.786 17.454C107.786 17.342 107.796 17.2487 107.814 17.174C107.824 17.0993 107.852 17.0387 107.898 16.992C107.936 16.9453 107.992 16.922 108.066 16.922V18ZM118.65 18V16.922C118.706 16.922 118.753 16.936 118.79 16.964C118.828 16.9827 118.856 17.0153 118.874 17.062C118.893 17.1087 118.907 17.1647 118.916 17.23C118.926 17.2953 118.93 17.37 118.93 17.454C118.93 17.538 118.926 17.6173 118.916 17.692C118.907 17.7573 118.893 17.8133 118.874 17.86C118.856 17.9067 118.828 17.944 118.79 17.972C118.753 17.9907 118.706 18 118.65 18ZM118.648 18V16.922H120.846L120.258 17.398V11H121.462V18H118.648ZM118.648 18C118.592 18 118.546 17.9907 118.508 17.972C118.471 17.944 118.443 17.9067 118.424 17.86C118.406 17.8133 118.392 17.7573 118.382 17.692C118.373 17.6173 118.368 17.538 118.368 17.454C118.368 17.342 118.378 17.2487 118.396 17.174C118.406 17.0993 118.434 17.0387 118.48 16.992C118.518 16.9453 118.574 16.922 118.648 16.922V18ZM119.208 20.59V19.288H120.398V20.59H119.208ZM121.21 20.59V19.288H122.4V20.59H121.21ZM126.2 18V16.922H127.992V18H126.2ZM123.862 21.15C123.74 21.15 123.614 21.1407 123.484 21.122C123.344 21.1127 123.208 21.1033 123.078 21.094L123.19 20.016C123.32 20.0253 123.446 20.0347 123.568 20.044C123.68 20.0627 123.778 20.072 123.862 20.072C124.291 20.072 124.636 19.9087 124.898 19.582C125.159 19.2553 125.29 18.8027 125.29 18.224V11H126.494V18.224C126.494 18.8027 126.382 19.3113 126.158 19.75C125.934 20.198 125.621 20.5433 125.22 20.786C124.828 21.0287 124.375 21.15 123.862 21.15ZM127.992 18V16.922C128.048 16.922 128.094 16.936 128.132 16.964C128.169 16.9827 128.197 17.0153 128.216 17.062C128.234 17.1087 128.248 17.1647 128.258 17.23C128.267 17.2953 128.272 17.37 128.272 17.454C128.272 17.538 128.267 17.6173 128.258 17.692C128.248 17.7573 128.234 17.8133 128.216 17.86C128.197 17.9067 128.169 17.944 128.132 17.972C128.094 17.9907 128.048 18 127.992 18ZM134.958 18V16.922H136.47V18H134.958ZM127.986 18C127.93 18 127.884 17.9907 127.846 17.972C127.809 17.944 127.781 17.9067 127.762 17.86C127.744 17.8133 127.73 17.7573 127.72 17.692C127.711 17.6173 127.706 17.538 127.706 17.454C127.706 17.342 127.716 17.2487 127.734 17.174C127.744 17.0993 127.772 17.0387 127.818 16.992C127.856 16.9453 127.912 16.922 127.986 16.922V18ZM127.986 18V16.922H134.132L133.768 17.244V13.898C133.768 13.2913 133.577 12.8387 133.194 12.54C132.821 12.2413 132.252 12.092 131.486 12.092C131.244 12.092 130.898 12.1153 130.45 12.162C130.012 12.1993 129.545 12.2507 129.05 12.316L128.91 11.35C129.293 11.2567 129.708 11.1773 130.156 11.112C130.614 11.0373 131.057 11 131.486 11C132.196 11 132.812 11.112 133.334 11.336C133.857 11.56 134.258 11.8867 134.538 12.316C134.818 12.7453 134.958 13.2727 134.958 13.898V18H127.986ZM136.47 18V16.922C136.526 16.922 136.573 16.936 136.61 16.964C136.648 16.9827 136.676 17.0153 136.694 17.062C136.713 17.1087 136.727 17.1647 136.736 17.23C136.746 17.2953 136.75 17.37 136.75 17.454C136.75 17.538 136.746 17.6173 136.736 17.692C136.727 17.7573 136.713 17.8133 136.694 17.86C136.676 17.9067 136.648 17.944 136.61 17.972C136.573 17.9907 136.526 18 136.47 18ZM130.884 10.02V8.718H132.088V10.02H130.884ZM138.157 18V7.976H139.361V18H138.157ZM136.477 18V16.922H138.157V18H136.477ZM136.477 18C136.421 18 136.374 17.9907 136.337 17.972C136.299 17.944 136.271 17.9067 136.253 17.86C136.234 17.8133 136.22 17.7573 136.211 17.692C136.201 17.6173 136.197 17.538 136.197 17.454C136.197 17.342 136.206 17.2487 136.225 17.174C136.234 17.0993 136.262 17.0387 136.309 16.992C136.346 16.9453 136.402 16.922 136.477 16.922V18ZM141.744 18V7.976H142.934V18H141.744ZM160.744 18V16.922H162.256V18H160.744ZM157.874 18C157.818 18 157.771 17.9907 157.734 17.972C157.696 17.944 157.668 17.9067 157.65 17.86C157.631 17.8133 157.617 17.7573 157.608 17.692C157.598 17.6173 157.594 17.538 157.594 17.454C157.594 17.342 157.598 17.2487 157.608 17.174C157.626 17.0993 157.654 17.0387 157.692 16.992C157.738 16.9453 157.799 16.922 157.874 16.922V18ZM159.54 18V7.976H160.744V18H159.54ZM157.874 18V16.922H159.54V18H157.874ZM159.82 18V16.922C159.876 16.922 159.922 16.936 159.96 16.964C159.997 16.9827 160.025 17.0153 160.044 17.062C160.062 17.1087 160.076 17.1647 160.086 17.23C160.095 17.2953 160.1 17.37 160.1 17.454C160.1 17.538 160.095 17.6173 160.086 17.692C160.076 17.7573 160.062 17.8133 160.044 17.86C160.025 17.9067 159.997 17.944 159.96 17.972C159.922 17.9907 159.876 18 159.82 18ZM151.812 21.472C151.261 21.472 150.748 21.3927 150.272 21.234C149.805 21.0753 149.394 20.856 149.04 20.576C148.685 20.3053 148.405 19.974 148.2 19.582C148.004 19.1993 147.906 18.7747 147.906 18.308C147.906 18.1213 147.92 17.8787 147.948 17.58C147.985 17.272 148.027 16.9267 148.074 16.544C148.13 16.1613 148.19 15.7693 148.256 15.368L149.432 15.536C149.338 16.152 149.259 16.712 149.194 17.216C149.138 17.72 149.11 18.0793 149.11 18.294C149.11 18.7047 149.222 19.0687 149.446 19.386C149.679 19.7033 149.996 19.9507 150.398 20.128C150.808 20.3053 151.28 20.394 151.812 20.394H155.774C156.474 20.394 157.001 20.2027 157.356 19.82C157.72 19.4373 157.902 18.882 157.902 18.154V17.678H159.078V18.168C159.078 18.812 158.947 19.3813 158.686 19.876C158.434 20.38 158.06 20.772 157.566 21.052C157.08 21.332 156.483 21.472 155.774 21.472H151.812ZM157.104 18C156.777 18 156.446 17.9673 156.11 17.902C155.783 17.8273 155.456 17.6873 155.13 17.482L155.816 16.586C155.946 16.67 156.072 16.74 156.194 16.796C156.315 16.8427 156.446 16.8753 156.586 16.894C156.735 16.9127 156.908 16.922 157.104 16.922H159.82V18H157.104ZM162.256 18V16.922C162.312 16.922 162.358 16.936 162.396 16.964C162.433 16.9827 162.461 17.0153 162.48 17.062C162.498 17.1087 162.512 17.1647 162.522 17.23C162.531 17.2953 162.536 17.37 162.536 17.454C162.536 17.538 162.531 17.6173 162.522 17.692C162.512 17.7573 162.498 17.8133 162.48 17.86C162.461 17.9067 162.433 17.944 162.396 17.972C162.358 17.9907 162.312 18 162.256 18ZM165.244 17.93C164.74 17.5007 164.357 17.0107 164.096 16.46C163.834 15.9093 163.704 15.326 163.704 14.71C163.704 14.178 163.797 13.688 163.984 13.24C164.18 12.7827 164.441 12.386 164.768 12.05C165.104 11.714 165.496 11.4573 165.944 11.28C166.392 11.0933 166.872 11 167.386 11C167.666 11 167.96 11.028 168.268 11.084C168.576 11.14 168.874 11.2193 169.164 11.322L168.772 12.33C168.538 12.2553 168.305 12.1947 168.072 12.148C167.838 12.1013 167.619 12.078 167.414 12.078C166.928 12.078 166.494 12.19 166.112 12.414C165.729 12.638 165.43 12.9507 165.216 13.352C165.01 13.744 164.908 14.1967 164.908 14.71C164.908 15.1767 165.001 15.6153 165.188 16.026C165.384 16.4367 165.668 16.8053 166.042 17.132L165.244 17.93ZM162.262 18V16.922H169.332V18H162.262ZM162.262 18C162.206 18 162.159 17.9907 162.122 17.972C162.084 17.944 162.056 17.9067 162.038 17.86C162.019 17.8133 162.005 17.7573 161.996 17.692C161.986 17.6173 161.982 17.538 161.982 17.454C161.982 17.342 161.991 17.2487 162.01 17.174C162.019 17.0993 162.047 17.0387 162.094 16.992C162.131 16.9453 162.187 16.922 162.262 16.922V18ZM183.648 18V16.922H185.16V18H183.648ZM178.37 18C177.436 18 176.657 17.8927 176.032 17.678C175.406 17.454 174.935 17.118 174.618 16.67C174.31 16.2127 174.156 15.6387 174.156 14.948C174.156 14.724 174.17 14.486 174.198 14.234C174.235 13.9727 174.277 13.7207 174.324 13.478C174.37 13.226 174.412 13.0113 174.45 12.834C174.487 12.6473 174.51 12.5213 174.52 12.456L175.682 12.68C175.654 12.82 175.612 13.0207 175.556 13.282C175.509 13.5433 175.462 13.8187 175.416 14.108C175.378 14.3973 175.36 14.6773 175.36 14.948C175.36 15.2933 175.411 15.592 175.514 15.844C175.626 16.096 175.798 16.3013 176.032 16.46C176.274 16.6187 176.587 16.7353 176.97 16.81C177.362 16.8847 177.833 16.922 178.384 16.922H183.032L182.458 17.398V7.976H183.648V18H178.37ZM185.16 18V16.922C185.216 16.922 185.262 16.936 185.3 16.964C185.337 16.9827 185.365 17.0153 185.384 17.062C185.402 17.1087 185.416 17.1647 185.426 17.23C185.435 17.2953 185.44 17.37 185.44 17.454C185.44 17.538 185.435 17.6173 185.426 17.692C185.416 17.7573 185.402 17.8133 185.384 17.86C185.365 17.9067 185.337 17.944 185.3 17.972C185.262 17.9907 185.216 18 185.16 18ZM178.23 13.1C178.08 12.9133 177.964 12.7313 177.88 12.554C177.796 12.3673 177.754 12.176 177.754 11.98C177.754 11.7 177.824 11.4527 177.964 11.238C178.104 11.014 178.29 10.8413 178.524 10.72C178.757 10.5893 179.009 10.524 179.28 10.524C179.429 10.524 179.578 10.5473 179.728 10.594C179.886 10.6313 180.022 10.6873 180.134 10.762L179.756 11.434C179.681 11.3873 179.606 11.3593 179.532 11.35C179.466 11.3313 179.396 11.322 179.322 11.322C179.107 11.322 178.934 11.3827 178.804 11.504C178.682 11.6253 178.622 11.784 178.622 11.98C178.622 12.092 178.645 12.204 178.692 12.316C178.748 12.428 178.827 12.5493 178.93 12.68L178.23 13.1ZM177.488 13.114V12.33H180.33V13.114H177.488ZM185.162 18V16.922H187.192C187.724 16.922 188.237 16.8333 188.732 16.656C189.227 16.4787 189.679 16.2407 190.09 15.942C190.51 15.6433 190.874 15.3167 191.182 14.962C191.49 14.598 191.728 14.2293 191.896 13.856C192.064 13.4733 192.148 13.1187 192.148 12.792V11.938L192.778 12.904C192.246 12.6333 191.719 12.428 191.196 12.288C190.683 12.148 190.179 12.078 189.684 12.078C189.199 12.078 188.695 12.148 188.172 12.288C187.649 12.428 187.127 12.6333 186.604 12.904L187.234 11.938V12.792C187.234 13.1187 187.318 13.4733 187.486 13.856C187.663 14.2293 187.901 14.598 188.2 14.962C188.508 15.3167 188.867 15.6433 189.278 15.942C189.689 16.2407 190.141 16.4787 190.636 16.656C191.131 16.8333 191.649 16.922 192.19 16.922H194.122V18H192.26C191.532 18 190.851 17.8833 190.216 17.65C189.581 17.4167 189.007 17.1087 188.494 16.726C187.981 16.334 187.537 15.9093 187.164 15.452C186.8 14.9853 186.52 14.5233 186.324 14.066C186.128 13.5993 186.03 13.1747 186.03 12.792V11.952C186.431 11.7373 186.842 11.56 187.262 11.42C187.682 11.28 188.097 11.1773 188.508 11.112C188.919 11.0373 189.311 11 189.684 11C190.067 11 190.463 11.0373 190.874 11.112C191.285 11.1773 191.695 11.28 192.106 11.42C192.526 11.56 192.937 11.7373 193.338 11.952V12.792C193.338 13.1747 193.24 13.5993 193.044 14.066C192.848 14.5233 192.563 14.9853 192.19 15.452C191.826 15.9093 191.387 16.334 190.874 16.726C190.361 17.1087 189.787 17.4167 189.152 17.65C188.517 17.8833 187.836 18 187.108 18H185.162ZM185.162 18C185.106 18 185.059 17.9907 185.022 17.972C184.985 17.944 184.957 17.9067 184.938 17.86C184.919 17.8133 184.905 17.7573 184.896 17.692C184.887 17.6173 184.882 17.538 184.882 17.454C184.882 17.342 184.891 17.2487 184.91 17.174C184.919 17.0993 184.947 17.0387 184.994 16.992C185.031 16.9453 185.087 16.922 185.162 16.922V18ZM194.122 18V16.922C194.178 16.922 194.225 16.936 194.262 16.964C194.299 16.9827 194.327 17.0153 194.346 17.062C194.365 17.1087 194.379 17.1647 194.388 17.23C194.397 17.2953 194.402 17.37 194.402 17.454C194.402 17.538 194.397 17.6173 194.388 17.692C194.379 17.7573 194.365 17.8133 194.346 17.86C194.327 17.9067 194.299 17.944 194.262 17.972C194.225 17.9907 194.178 18 194.122 18ZM194.117 18V16.922H201.117L200.403 17.524V11.616L200.963 12.078H198.667C198.145 12.078 197.739 12.1433 197.449 12.274C197.169 12.3953 196.973 12.6333 196.861 12.988C196.759 13.3333 196.707 13.8373 196.707 14.5C196.707 15.172 196.759 15.6807 196.861 16.026C196.973 16.3713 197.169 16.6093 197.449 16.74C197.739 16.8613 198.145 16.922 198.667 16.922V17.734C197.865 17.734 197.23 17.6313 196.763 17.426C196.306 17.2207 195.979 16.8847 195.783 16.418C195.597 15.942 195.503 15.3027 195.503 14.5C195.503 13.6973 195.597 13.0393 195.783 12.526C195.979 12.0033 196.306 11.6207 196.763 11.378C197.23 11.126 197.865 11 198.667 11H201.607V18H194.117ZM194.117 18C194.061 18 194.015 17.9907 193.977 17.972C193.94 17.944 193.912 17.9067 193.893 17.86C193.875 17.8133 193.861 17.7573 193.851 17.692C193.842 17.6173 193.837 17.538 193.837 17.454C193.837 17.342 193.847 17.2487 193.865 17.174C193.875 17.0993 193.903 17.0387 193.949 16.992C193.987 16.9453 194.043 16.922 194.117 16.922V18ZM197.295 9.74V8.438H198.485V9.74H197.295ZM199.297 9.74V8.438H200.487V9.74H199.297ZM209.326 18V16.922H210.838V18H209.326ZM205.952 21.15C205.616 21.15 205.261 21.122 204.888 21.066C204.524 21.0193 204.123 20.9493 203.684 20.856L203.866 19.89C204.361 19.9553 204.771 20.002 205.098 20.03C205.434 20.058 205.719 20.072 205.952 20.072C206.708 20.072 207.259 19.9273 207.604 19.638C207.949 19.3487 208.122 18.9287 208.122 18.378V11.714L208.668 12.078H206.386C205.873 12.078 205.471 12.1433 205.182 12.274C204.902 12.3953 204.706 12.6287 204.594 12.974C204.482 13.3193 204.426 13.828 204.426 14.5C204.426 15.172 204.477 15.6807 204.58 16.026C204.692 16.3713 204.893 16.6093 205.182 16.74C205.471 16.8613 205.873 16.922 206.386 16.922H208.122V18H206.386C205.583 18 204.949 17.8787 204.482 17.636C204.025 17.384 203.698 17.0013 203.502 16.488C203.315 15.9653 203.222 15.3027 203.222 14.5C203.222 13.7067 203.315 13.0487 203.502 12.526C203.698 12.0033 204.025 11.6207 204.482 11.378C204.949 11.126 205.583 11 206.386 11H209.326V18.364C209.326 18.952 209.191 19.456 208.92 19.876C208.649 20.296 208.262 20.6133 207.758 20.828C207.254 21.0427 206.652 21.15 205.952 21.15ZM210.838 18V16.922C210.894 16.922 210.941 16.936 210.978 16.964C211.015 16.9827 211.043 17.0153 211.062 17.062C211.081 17.1087 211.095 17.1647 211.104 17.23C211.113 17.2953 211.118 17.37 211.118 17.454C211.118 17.538 211.113 17.6173 211.104 17.692C211.095 17.7573 211.081 17.8133 211.062 17.86C211.043 17.9067 211.015 17.944 210.978 17.972C210.941 17.9907 210.894 18 210.838 18ZM210.838 18V16.922H218.44L217.628 17.51V14.57C217.628 13.9353 217.553 13.436 217.404 13.072C217.264 12.708 217.017 12.4513 216.662 12.302C216.317 12.1527 215.845 12.078 215.248 12.078C214.856 12.078 214.469 12.106 214.086 12.162C213.703 12.2087 213.405 12.2787 213.19 12.372L213.918 11.644C213.862 11.868 213.806 12.1527 213.75 12.498C213.694 12.834 213.647 13.198 213.61 13.59C213.573 13.9727 213.554 14.3553 213.554 14.738C213.554 15.13 213.573 15.5173 213.61 15.9C213.647 16.2827 213.689 16.614 213.736 16.894C213.783 17.1647 213.82 17.356 213.848 17.468L212.714 17.79C212.677 17.6687 212.63 17.4587 212.574 17.16C212.518 16.8613 212.467 16.502 212.42 16.082C212.383 15.662 212.364 15.214 212.364 14.738C212.364 14.2807 212.387 13.8373 212.434 13.408C212.481 12.9693 212.532 12.5727 212.588 12.218C212.653 11.8633 212.714 11.5787 212.77 11.364C212.975 11.28 213.302 11.196 213.75 11.112C214.207 11.028 214.707 10.986 215.248 10.986C216.041 10.986 216.704 11.1027 217.236 11.336C217.768 11.5693 218.165 11.9473 218.426 12.47C218.687 12.9927 218.818 13.6927 218.818 14.57V18H210.838ZM210.838 18C210.782 18 210.735 17.9907 210.698 17.972C210.661 17.944 210.633 17.9067 210.614 17.86C210.595 17.8133 210.581 17.7573 210.572 17.692C210.563 17.6173 210.558 17.538 210.558 17.454C210.558 17.342 210.567 17.2487 210.586 17.174C210.595 17.0993 210.623 17.0387 210.67 16.992C210.707 16.9453 210.763 16.922 210.838 16.922V18ZM228.958 18V16.922H230.456V18H228.958ZM223.498 18V16.922H228.706L227.754 17.762V14.808C227.754 14.1173 227.674 13.576 227.516 13.184C227.366 12.7827 227.114 12.498 226.76 12.33C226.405 12.162 225.929 12.078 225.332 12.078H224.198V11H225.332C226.097 11 226.75 11.1213 227.292 11.364C227.833 11.5973 228.244 11.994 228.524 12.554C228.813 13.1047 228.958 13.856 228.958 14.808V18H223.498ZM230.456 18V16.922C230.512 16.922 230.558 16.936 230.596 16.964C230.633 16.9827 230.661 17.0153 230.68 17.062C230.698 17.1087 230.712 17.1647 230.722 17.23C230.731 17.2953 230.736 17.37 230.736 17.454C230.736 17.538 230.731 17.6173 230.722 17.692C230.712 17.7573 230.698 17.8133 230.68 17.86C230.661 17.9067 230.633 17.944 230.596 17.972C230.558 17.9907 230.512 18 230.456 18ZM230.457 18V16.922H232.655L232.067 17.398V11H233.271V18H230.457ZM230.457 18C230.401 18 230.354 17.9907 230.317 17.972C230.28 17.944 230.252 17.9067 230.233 17.86C230.214 17.8133 230.2 17.7573 230.191 17.692C230.182 17.6173 230.177 17.538 230.177 17.454C230.177 17.342 230.186 17.2487 230.205 17.174C230.214 17.0993 230.242 17.0387 230.289 16.992C230.326 16.9453 230.382 16.922 230.457 16.922V18ZM231.017 20.59V19.288H232.207V20.59H231.017ZM233.019 20.59V19.288H234.209V20.59H233.019ZM240.415 18V16.922H241.913V18H240.415ZM234.955 18V16.922H240.163L239.211 17.762V14.808C239.211 14.1173 239.131 13.576 238.973 13.184C238.823 12.7827 238.571 12.498 238.217 12.33C237.862 12.162 237.386 12.078 236.789 12.078H235.655V11H236.789C237.554 11 238.207 11.1213 238.749 11.364C239.29 11.5973 239.701 11.994 239.981 12.554C240.27 13.1047 240.415 13.856 240.415 14.808V18H234.955ZM241.913 18V16.922C241.969 16.922 242.015 16.936 242.053 16.964C242.09 16.9827 242.118 17.0153 242.137 17.062C242.155 17.1087 242.169 17.1647 242.179 17.23C242.188 17.2953 242.193 17.37 242.193 17.454C242.193 17.538 242.188 17.6173 242.179 17.692C242.169 17.7573 242.155 17.8133 242.137 17.86C242.118 17.9067 242.09 17.944 242.053 17.972C242.015 17.9907 241.969 18 241.913 18ZM248.886 18V16.922H250.398V18H248.886ZM241.914 18C241.858 18 241.811 17.9907 241.774 17.972C241.737 17.944 241.709 17.9067 241.69 17.86C241.671 17.8133 241.657 17.7573 241.648 17.692C241.639 17.6173 241.634 17.538 241.634 17.454C241.634 17.342 241.643 17.2487 241.662 17.174C241.671 17.0993 241.699 17.0387 241.746 16.992C241.783 16.9453 241.839 16.922 241.914 16.922V18ZM241.914 18V16.922H248.06L247.696 17.244V13.898C247.696 13.2913 247.505 12.8387 247.122 12.54C246.749 12.2413 246.179 12.092 245.414 12.092C245.171 12.092 244.826 12.1153 244.378 12.162C243.939 12.1993 243.473 12.2507 242.978 12.316L242.838 11.35C243.221 11.2567 243.636 11.1773 244.084 11.112C244.541 11.0373 244.985 11 245.414 11C246.123 11 246.739 11.112 247.262 11.336C247.785 11.56 248.186 11.8867 248.466 12.316C248.746 12.7453 248.886 13.2727 248.886 13.898V18H241.914ZM250.398 18V16.922C250.454 16.922 250.501 16.936 250.538 16.964C250.575 16.9827 250.603 17.0153 250.622 17.062C250.641 17.1087 250.655 17.1647 250.664 17.23C250.673 17.2953 250.678 17.37 250.678 17.454C250.678 17.538 250.673 17.6173 250.664 17.692C250.655 17.7573 250.641 17.8133 250.622 17.86C250.603 17.9067 250.575 17.944 250.538 17.972C250.501 17.9907 250.454 18 250.398 18ZM250.404 18V16.922H252.602L252.014 17.398V11H253.218V18H250.404ZM250.404 18C250.348 18 250.302 17.9907 250.264 17.972C250.227 17.944 250.199 17.9067 250.18 17.86C250.162 17.8133 250.148 17.7573 250.138 17.692C250.129 17.6173 250.124 17.538 250.124 17.454C250.124 17.342 250.134 17.2487 250.152 17.174C250.162 17.0993 250.19 17.0387 250.236 16.992C250.274 16.9453 250.33 16.922 250.404 16.922V18ZM251.034 9.74V8.438H252.224V9.74H251.034ZM253.036 9.74V8.438H254.226V9.74H253.036ZM261.884 21.472C261.333 21.472 260.82 21.3927 260.344 21.234C259.877 21.0753 259.467 20.856 259.112 20.576C258.757 20.3053 258.477 19.974 258.272 19.582C258.076 19.1993 257.978 18.7747 257.978 18.308C257.978 18.1213 257.992 17.8787 258.02 17.58C258.057 17.272 258.099 16.9267 258.146 16.544C258.202 16.1613 258.263 15.7693 258.328 15.368L259.504 15.536C259.411 16.152 259.331 16.712 259.266 17.216C259.21 17.72 259.182 18.0793 259.182 18.294C259.182 18.7047 259.294 19.0687 259.518 19.386C259.751 19.7033 260.069 19.9507 260.47 20.128C260.881 20.3053 261.352 20.394 261.884 20.394H265.846C266.546 20.394 267.073 20.2027 267.428 19.82C267.792 19.4373 267.974 18.882 267.974 18.154V17.678H269.15V18.168C269.15 18.812 269.019 19.3813 268.758 19.876C268.506 20.38 268.133 20.772 267.638 21.052C267.153 21.332 266.555 21.472 265.846 21.472H261.884ZM267.176 18C266.849 18 266.518 17.9673 266.182 17.902C265.855 17.8273 265.529 17.6873 265.202 17.482L265.888 16.586C266.019 16.67 266.145 16.74 266.266 16.796C266.387 16.8427 266.518 16.8753 266.658 16.894C266.807 16.9127 266.98 16.922 267.176 16.922H269.892V18H267.176ZM269.892 18V16.922C269.948 16.922 269.995 16.936 270.032 16.964C270.069 16.9827 270.097 17.0153 270.116 17.062C270.135 17.1087 270.149 17.1647 270.158 17.23C270.167 17.2953 270.172 17.37 270.172 17.454C270.172 17.538 270.167 17.6173 270.158 17.692C270.149 17.7573 270.135 17.8133 270.116 17.86C270.097 17.9067 270.069 17.944 270.032 17.972C269.995 17.9907 269.948 18 269.892 18ZM261.982 24.062V22.76H263.172V24.062H261.982ZM263.984 24.062V22.76H265.174V24.062H263.984ZM267.057 18V16.922H274.057L273.343 17.524V11.616L273.903 12.078H271.607C271.084 12.078 270.678 12.1433 270.389 12.274C270.109 12.3953 269.913 12.6333 269.801 12.988C269.698 13.3333 269.647 13.8373 269.647 14.5C269.647 15.172 269.698 15.6807 269.801 16.026C269.913 16.3713 270.109 16.6093 270.389 16.74C270.678 16.8613 271.084 16.922 271.607 16.922V17.734C270.804 17.734 270.169 17.6313 269.703 17.426C269.245 17.2207 268.919 16.8847 268.723 16.418C268.536 15.942 268.443 15.3027 268.443 14.5C268.443 13.6973 268.536 13.0393 268.723 12.526C268.919 12.0033 269.245 11.6207 269.703 11.378C270.169 11.126 270.804 11 271.607 11H274.547V18H267.057ZM267.057 18C267.001 18 266.954 17.9907 266.917 17.972C266.879 17.944 266.851 17.9067 266.833 17.86C266.814 17.8133 266.8 17.7573 266.791 17.692C266.781 17.6173 266.777 17.538 266.777 17.454C266.777 17.342 266.786 17.2487 266.805 17.174C266.814 17.0993 266.842 17.0387 266.889 16.992C266.926 16.9453 266.982 16.922 267.057 16.922V18ZM271.215 9.74V8.438H272.419V9.74H271.215ZM288.73 18V16.922H290.242V18H288.73ZM283.452 18C282.518 18 281.739 17.8927 281.114 17.678C280.488 17.454 280.017 17.118 279.7 16.67C279.392 16.2127 279.238 15.6387 279.238 14.948C279.238 14.724 279.252 14.486 279.28 14.234C279.317 13.9727 279.359 13.7207 279.406 13.478C279.452 13.226 279.494 13.0113 279.532 12.834C279.569 12.6473 279.592 12.5213 279.602 12.456L280.764 12.68C280.736 12.82 280.694 13.0207 280.638 13.282C280.591 13.5433 280.544 13.8187 280.498 14.108C280.46 14.3973 280.442 14.6773 280.442 14.948C280.442 15.2933 280.493 15.592 280.596 15.844C280.708 16.096 280.88 16.3013 281.114 16.46C281.356 16.6187 281.669 16.7353 282.052 16.81C282.444 16.8847 282.915 16.922 283.466 16.922H287.54V11H288.73V18H283.452ZM290.242 18V16.922C290.298 16.922 290.344 16.936 290.382 16.964C290.419 16.9827 290.447 17.0153 290.466 17.062C290.484 17.1087 290.498 17.1647 290.508 17.23C290.517 17.2953 290.522 17.37 290.522 17.454C290.522 17.538 290.517 17.6173 290.508 17.692C290.498 17.7573 290.484 17.8133 290.466 17.86C290.447 17.9067 290.419 17.944 290.382 17.972C290.344 17.9907 290.298 18 290.242 18ZM283.41 20.59V19.288H284.614V20.59H283.41ZM293.226 17.93C292.722 17.5007 292.339 17.0107 292.078 16.46C291.817 15.9093 291.686 15.326 291.686 14.71C291.686 14.178 291.779 13.688 291.966 13.24C292.162 12.7827 292.423 12.386 292.75 12.05C293.086 11.714 293.478 11.4573 293.926 11.28C294.374 11.0933 294.855 11 295.368 11C295.648 11 295.942 11.028 296.25 11.084C296.558 11.14 296.857 11.2193 297.146 11.322L296.754 12.33C296.521 12.2553 296.287 12.1947 296.054 12.148C295.821 12.1013 295.601 12.078 295.396 12.078C294.911 12.078 294.477 12.19 294.094 12.414C293.711 12.638 293.413 12.9507 293.198 13.352C292.993 13.744 292.89 14.1967 292.89 14.71C292.89 15.1767 292.983 15.6153 293.17 16.026C293.366 16.4367 293.651 16.8053 294.024 17.132L293.226 17.93ZM290.244 18V16.922H297.314V18H290.244ZM290.244 18C290.188 18 290.141 17.9907 290.104 17.972C290.067 17.944 290.039 17.9067 290.02 17.86C290.001 17.8133 289.987 17.7573 289.978 17.692C289.969 17.6173 289.964 17.538 289.964 17.454C289.964 17.342 289.973 17.2487 289.992 17.174C290.001 17.0993 290.029 17.0387 290.076 16.992C290.113 16.9453 290.169 16.922 290.244 16.922V18ZM294.22 9.74V8.438H295.424V9.74H294.22ZM301.022 18V16.922H302.814V18H301.022ZM298.684 21.15C298.563 21.15 298.437 21.1407 298.306 21.122C298.166 21.1127 298.031 21.1033 297.9 21.094L298.012 20.016C298.143 20.0253 298.269 20.0347 298.39 20.044C298.502 20.0627 298.6 20.072 298.684 20.072C299.113 20.072 299.459 19.9087 299.72 19.582C299.981 19.2553 300.112 18.8027 300.112 18.224V11H301.316V18.224C301.316 18.8027 301.204 19.3113 300.98 19.75C300.756 20.198 300.443 20.5433 300.042 20.786C299.65 21.0287 299.197 21.15 298.684 21.15ZM302.814 18V16.922C302.87 16.922 302.917 16.936 302.954 16.964C302.991 16.9827 303.019 17.0153 303.038 17.062C303.057 17.1087 303.071 17.1647 303.08 17.23C303.089 17.2953 303.094 17.37 303.094 17.454C303.094 17.538 303.089 17.6173 303.08 17.692C303.071 17.7573 303.057 17.8133 303.038 17.86C303.019 17.9067 302.991 17.944 302.954 17.972C302.917 17.9907 302.87 18 302.814 18ZM302.809 18V16.922H305.007L304.419 17.398V11H305.623V18H302.809ZM302.809 18C302.753 18 302.706 17.9907 302.669 17.972C302.631 17.944 302.603 17.9067 302.585 17.86C302.566 17.8133 302.552 17.7573 302.543 17.692C302.533 17.6173 302.529 17.538 302.529 17.454C302.529 17.342 302.538 17.2487 302.557 17.174C302.566 17.0993 302.594 17.0387 302.641 16.992C302.678 16.9453 302.734 16.922 302.809 16.922V18ZM303.439 9.74V8.438H304.629V9.74H303.439ZM305.441 9.74V8.438H306.631V9.74H305.441ZM319.874 18V16.922H321.386V18H319.874ZM314.596 18C313.663 18 312.884 17.8927 312.258 17.678C311.633 17.454 311.162 17.118 310.844 16.67C310.536 16.2127 310.382 15.6387 310.382 14.948C310.382 14.724 310.396 14.486 310.424 14.234C310.462 13.9727 310.504 13.7207 310.55 13.478C310.597 13.226 310.639 13.0113 310.676 12.834C310.714 12.6473 310.737 12.5213 310.746 12.456L311.908 12.68C311.88 12.82 311.838 13.0207 311.782 13.282C311.736 13.5433 311.689 13.8187 311.642 14.108C311.605 14.3973 311.586 14.6773 311.586 14.948C311.586 15.2933 311.638 15.592 311.74 15.844C311.852 16.096 312.025 16.3013 312.258 16.46C312.501 16.6187 312.814 16.7353 313.196 16.81C313.588 16.8847 314.06 16.922 314.61 16.922H318.684V11H319.874V18H314.596ZM321.386 18V16.922C321.442 16.922 321.489 16.936 321.526 16.964C321.564 16.9827 321.592 17.0153 321.61 17.062C321.629 17.1087 321.643 17.1647 321.652 17.23C321.662 17.2953 321.666 17.37 321.666 17.454C321.666 17.538 321.662 17.6173 321.652 17.692C321.643 17.7573 321.629 17.8133 321.61 17.86C321.592 17.9067 321.564 17.944 321.526 17.972C321.489 17.9907 321.442 18 321.386 18ZM313.56 11.042V9.74H314.75V11.042H313.56ZM315.562 11.042V9.74H316.752V11.042H315.562ZM324.091 18V16.922H325.603V18H324.091ZM321.389 18C321.333 18 321.286 17.9907 321.249 17.972C321.211 17.944 321.183 17.9067 321.165 17.86C321.146 17.8133 321.132 17.7573 321.123 17.692C321.113 17.6173 321.109 17.538 321.109 17.454C321.109 17.342 321.118 17.2487 321.137 17.174C321.146 17.0993 321.174 17.0387 321.221 16.992C321.258 16.9453 321.314 16.922 321.389 16.922V18ZM321.389 18V16.922H323.475L322.901 17.398V11H324.091V18H321.389ZM325.603 18V16.922C325.659 16.922 325.705 16.936 325.743 16.964C325.78 16.9827 325.808 17.0153 325.827 17.062C325.845 17.1087 325.859 17.1647 325.869 17.23C325.878 17.2953 325.883 17.37 325.883 17.454C325.883 17.538 325.878 17.6173 325.869 17.692C325.859 17.7573 325.845 17.8133 325.827 17.86C325.808 17.9067 325.78 17.944 325.743 17.972C325.705 17.9907 325.659 18 325.603 18ZM322.901 9.74V8.438H324.105V9.74H322.901ZM325.6 18V16.922H332.6L332.18 17.286V14.878C332.18 14.374 332.114 13.9633 331.984 13.646C331.853 13.3193 331.657 13.0767 331.396 12.918C331.144 12.7593 330.822 12.68 330.43 12.68H327.378L326.524 11.406L327.14 10.216C327.252 10.02 327.364 9.81933 327.476 9.614C327.597 9.39933 327.746 9.152 327.924 8.872C328.101 8.592 328.325 8.25133 328.596 7.85L329.59 8.452C329.328 8.85333 329.114 9.18933 328.946 9.46C328.778 9.72133 328.638 9.95 328.526 10.146C328.414 10.3327 328.306 10.524 328.204 10.72L327.518 12.022L327.238 11.588H330.43C331.018 11.588 331.503 11.6907 331.886 11.896C332.268 12.092 332.567 12.358 332.782 12.694C333.006 13.0207 333.16 13.3753 333.244 13.758C333.337 14.1407 333.384 14.514 333.384 14.878V18H325.6ZM325.6 18C325.544 18 325.497 17.9907 325.46 17.972C325.422 17.944 325.394 17.9067 325.376 17.86C325.357 17.8133 325.343 17.7573 325.334 17.692C325.324 17.6173 325.32 17.538 325.32 17.454C325.32 17.342 325.329 17.2487 325.348 17.174C325.357 17.0993 325.385 17.0387 325.432 16.992C325.469 16.9453 325.525 16.922 325.6 16.922V18ZM338.824 18V7.976H340.014V18H338.824ZM341.91 18V16.922H347.118L346.166 17.762V14.808C346.166 14.1173 346.086 13.576 345.928 13.184C345.778 12.7827 345.526 12.498 345.172 12.33C344.817 12.162 344.341 12.078 343.744 12.078H342.61V11H343.744C344.509 11 345.162 11.1213 345.704 11.364C346.245 11.5973 346.656 11.994 346.936 12.554C347.225 13.1047 347.37 13.856 347.37 14.808V18H341.91ZM342.932 9.74V8.438H344.136V9.74H342.932ZM349.475 18V7.976H350.665V18H349.475ZM349.391 21.822C349.241 21.6353 349.125 21.4487 349.041 21.262C348.957 21.0847 348.915 20.898 348.915 20.702C348.915 20.422 348.985 20.17 349.125 19.946C349.265 19.7313 349.451 19.5587 349.685 19.428C349.918 19.3067 350.17 19.246 350.441 19.246C350.59 19.246 350.739 19.2647 350.889 19.302C351.047 19.3487 351.183 19.4093 351.295 19.484L350.917 20.156C350.842 20.1093 350.767 20.0767 350.693 20.058C350.627 20.0487 350.557 20.044 350.483 20.044C350.268 20.044 350.095 20.1047 349.965 20.226C349.843 20.3473 349.783 20.506 349.783 20.702C349.783 20.814 349.806 20.926 349.853 21.038C349.909 21.15 349.988 21.2713 350.091 21.402L349.391 21.822ZM348.649 21.836V21.052H351.491V21.836H348.649ZM104.492 44V42.306H105.78V44H104.492ZM113.472 44C112.669 44 112.035 43.8787 111.568 43.636C111.111 43.384 110.784 43.0013 110.588 42.488C110.401 41.9653 110.308 41.3027 110.308 40.5C110.308 39.7067 110.401 39.0487 110.588 38.526C110.784 38.0033 111.111 37.6207 111.568 37.378C112.035 37.126 112.669 37 113.472 37H116.412V43.398H115.208V37.616L115.754 38.078H113.472C112.959 38.078 112.557 38.1433 112.268 38.274C111.988 38.3953 111.792 38.6287 111.68 38.974C111.568 39.3193 111.512 39.828 111.512 40.5C111.512 41.172 111.563 41.6807 111.666 42.026C111.778 42.3713 111.979 42.6093 112.268 42.74C112.557 42.8613 112.959 42.922 113.472 42.922H117.924V44H113.472ZM117.924 44V42.922C117.98 42.922 118.027 42.936 118.064 42.964C118.101 42.9827 118.129 43.0153 118.148 43.062C118.167 43.1087 118.181 43.1647 118.19 43.23C118.199 43.2953 118.204 43.37 118.204 43.454C118.204 43.538 118.199 43.6173 118.19 43.692C118.181 43.7573 118.167 43.8133 118.148 43.86C118.129 43.9067 118.101 43.944 118.064 43.972C118.027 43.9907 117.98 44 117.924 44ZM112.03 35.74V34.438H113.22V35.74H112.03ZM114.032 35.74V34.438H115.222V35.74H114.032ZM127.01 44V42.922H128.508V44H127.01ZM117.924 44V42.922H127.276L126.184 43.888V40.654C126.184 40.0753 126.104 39.5993 125.946 39.226C125.787 38.8433 125.549 38.5587 125.232 38.372C124.924 38.176 124.532 38.078 124.056 38.078C123.645 38.078 123.262 38.148 122.908 38.288C122.562 38.428 122.24 38.61 121.942 38.834C121.643 39.058 121.363 39.3053 121.102 39.576C120.85 39.8373 120.616 40.1033 120.402 40.374C120.187 40.6447 119.991 40.892 119.814 41.116L119.45 40.066C119.748 39.6833 120.047 39.31 120.346 38.946C120.654 38.582 120.985 38.2553 121.34 37.966C121.694 37.6767 122.096 37.4433 122.544 37.266C122.992 37.0887 123.505 37 124.084 37C124.746 37 125.288 37.112 125.708 37.336C126.137 37.5507 126.473 37.8447 126.716 38.218C126.958 38.582 127.126 38.9787 127.22 39.408C127.322 39.828 127.374 40.2433 127.374 40.654V44H117.924ZM118.848 42.922V33.976H120.052V42.922H118.848ZM117.924 44C117.868 44 117.821 43.9907 117.784 43.972C117.746 43.944 117.718 43.9067 117.7 43.86C117.681 43.8133 117.667 43.7573 117.658 43.692C117.648 43.6173 117.644 43.538 117.644 43.454C117.644 43.342 117.653 43.2487 117.672 43.174C117.681 43.0993 117.709 43.0387 117.756 42.992C117.793 42.9453 117.849 42.922 117.924 42.922V44ZM128.508 44V42.922C128.564 42.922 128.61 42.936 128.648 42.964C128.685 42.9827 128.713 43.0153 128.732 43.062C128.75 43.1087 128.764 43.1647 128.774 43.23C128.783 43.2953 128.788 43.37 128.788 43.454C128.788 43.538 128.783 43.6173 128.774 43.692C128.764 43.7573 128.75 43.8133 128.732 43.86C128.713 43.9067 128.685 43.944 128.648 43.972C128.61 43.9907 128.564 44 128.508 44ZM128.506 44V42.922H130.704L130.116 43.398V37H131.32V44H128.506ZM128.506 44C128.45 44 128.403 43.9907 128.366 43.972C128.329 43.944 128.301 43.9067 128.282 43.86C128.263 43.8133 128.249 43.7573 128.24 43.692C128.231 43.6173 128.226 43.538 128.226 43.454C128.226 43.342 128.235 43.2487 128.254 43.174C128.263 43.0993 128.291 43.0387 128.338 42.992C128.375 42.9453 128.431 42.922 128.506 42.922V44ZM129.066 46.59V45.288H130.256V46.59H129.066ZM131.068 46.59V45.288H132.258V46.59H131.068ZM136.057 44V42.922H137.849V44H136.057ZM133.719 47.15C133.598 47.15 133.472 47.1407 133.341 47.122C133.201 47.1127 133.066 47.1033 132.935 47.094L133.047 46.016C133.178 46.0253 133.304 46.0347 133.425 46.044C133.537 46.0627 133.635 46.072 133.719 46.072C134.148 46.072 134.494 45.9087 134.755 45.582C135.016 45.2553 135.147 44.8027 135.147 44.224V37H136.351V44.224C136.351 44.8027 136.239 45.3113 136.015 45.75C135.791 46.198 135.478 46.5433 135.077 46.786C134.685 47.0287 134.232 47.15 133.719 47.15ZM137.849 44V42.922C137.905 42.922 137.952 42.936 137.989 42.964C138.026 42.9827 138.054 43.0153 138.073 43.062C138.092 43.1087 138.106 43.1647 138.115 43.23C138.124 43.2953 138.129 43.37 138.129 43.454C138.129 43.538 138.124 43.6173 138.115 43.692C138.106 43.7573 138.092 43.8133 138.073 43.86C138.054 43.9067 138.026 43.944 137.989 43.972C137.952 43.9907 137.905 44 137.849 44ZM144.816 44V42.922H146.328V44H144.816ZM137.844 44C137.788 44 137.741 43.9907 137.704 43.972C137.666 43.944 137.638 43.9067 137.62 43.86C137.601 43.8133 137.587 43.7573 137.578 43.692C137.568 43.6173 137.564 43.538 137.564 43.454C137.564 43.342 137.573 43.2487 137.592 43.174C137.601 43.0993 137.629 43.0387 137.676 42.992C137.713 42.9453 137.769 42.922 137.844 42.922V44ZM137.844 44V42.922H143.99L143.626 43.244V39.898C143.626 39.2913 143.434 38.8387 143.052 38.54C142.678 38.2413 142.109 38.092 141.344 38.092C141.101 38.092 140.756 38.1153 140.308 38.162C139.869 38.1993 139.402 38.2507 138.908 38.316L138.768 37.35C139.15 37.2567 139.566 37.1773 140.014 37.112C140.471 37.0373 140.914 37 141.344 37C142.053 37 142.669 37.112 143.192 37.336C143.714 37.56 144.116 37.8867 144.396 38.316C144.676 38.7453 144.816 39.2727 144.816 39.898V44H137.844ZM146.328 44V42.922C146.384 42.922 146.43 42.936 146.468 42.964C146.505 42.9827 146.533 43.0153 146.552 43.062C146.57 43.1087 146.584 43.1647 146.594 43.23C146.603 43.2953 146.608 43.37 146.608 43.454C146.608 43.538 146.603 43.6173 146.594 43.692C146.584 43.7573 146.57 43.8133 146.552 43.86C146.533 43.9067 146.505 43.944 146.468 43.972C146.43 43.9907 146.384 44 146.328 44ZM140.742 36.02V34.718H141.946V36.02H140.742ZM148.014 44V33.976H149.218V44H148.014ZM146.334 44V42.922H148.014V44H146.334ZM146.334 44C146.278 44 146.231 43.9907 146.194 43.972C146.157 43.944 146.129 43.9067 146.11 43.86C146.091 43.8133 146.077 43.7573 146.068 43.692C146.059 43.6173 146.054 43.538 146.054 43.454C146.054 43.342 146.063 43.2487 146.082 43.174C146.091 43.0993 146.119 43.0387 146.166 42.992C146.203 42.9453 146.259 42.922 146.334 42.922V44ZM151.601 44V33.976H152.791V44H151.601ZM168.571 44V37H169.761V43.398L169.187 42.922H171.315V44H168.571ZM165.547 39.464V38.372H168.571V39.464H165.547ZM161.739 47.472C160.992 47.472 160.316 47.332 159.709 47.052C159.112 46.7813 158.636 46.3987 158.281 45.904C157.936 45.4187 157.763 44.8633 157.763 44.238C157.763 44.042 157.777 43.7853 157.805 43.468C157.842 43.1413 157.884 42.782 157.931 42.39C157.987 41.998 158.048 41.6013 158.113 41.2C158.178 40.7893 158.239 40.402 158.295 40.038L159.471 40.22C159.368 40.8547 159.28 41.4473 159.205 41.998C159.13 42.5393 159.07 43.0013 159.023 43.384C158.986 43.7667 158.967 44.0513 158.967 44.238C158.967 44.658 159.079 45.0267 159.303 45.344C159.536 45.6707 159.863 45.9273 160.283 46.114C160.703 46.3007 161.188 46.394 161.739 46.394C162.29 46.394 162.761 46.3053 163.153 46.128C163.545 45.96 163.844 45.7173 164.049 45.4C164.254 45.092 164.357 44.7327 164.357 44.322V37H165.547V44.322C165.547 44.9753 165.374 45.5353 165.029 46.002C164.693 46.478 164.236 46.842 163.657 47.094C163.088 47.346 162.448 47.472 161.739 47.472ZM161.081 36.93V35.614H162.285V36.93H161.081ZM171.315 44V42.922C171.371 42.922 171.413 42.936 171.441 42.964C171.478 42.9827 171.506 43.0153 171.525 43.062C171.553 43.1087 171.572 43.1647 171.581 43.23C171.59 43.2953 171.595 43.37 171.595 43.454C171.595 43.538 171.59 43.6173 171.581 43.692C171.572 43.7573 171.553 43.8133 171.525 43.86C171.506 43.9067 171.478 43.944 171.441 43.972C171.413 43.9907 171.371 44 171.315 44ZM167.577 46.59V45.288H168.767V46.59H167.577ZM169.579 46.59V45.288H170.769V46.59H169.579ZM179.293 44V42.922H180.805V44H179.293ZM171.312 44C171.256 44 171.21 43.9907 171.172 43.972C171.135 43.944 171.107 43.9067 171.088 43.86C171.07 43.8133 171.056 43.7573 171.046 43.692C171.037 43.6173 171.032 43.538 171.032 43.454C171.032 43.342 171.042 43.2487 171.06 43.174C171.07 43.0993 171.098 43.0387 171.144 42.992C171.182 42.9453 171.238 42.922 171.312 42.922V44ZM171.312 44V42.922H178.915L178.103 43.51V40.57C178.103 39.9353 178.028 39.436 177.879 39.072C177.739 38.708 177.491 38.4513 177.137 38.302C176.791 38.1527 176.32 38.078 175.723 38.078C175.331 38.078 174.943 38.106 174.561 38.162C174.178 38.2087 173.879 38.2787 173.665 38.372L174.393 37.644C174.337 37.868 174.281 38.1527 174.225 38.498C174.169 38.834 174.122 39.198 174.085 39.59C174.047 39.9727 174.029 40.3553 174.029 40.738C174.029 41.13 174.047 41.5173 174.085 41.9C174.122 42.2827 174.164 42.614 174.211 42.894C174.257 43.1647 174.295 43.356 174.323 43.468L173.189 43.79C173.151 43.6687 173.105 43.4587 173.049 43.16C172.993 42.8613 172.941 42.502 172.895 42.082C172.857 41.662 172.839 41.214 172.839 40.738C172.839 40.2807 172.862 39.8373 172.909 39.408C172.955 38.9693 173.007 38.5727 173.062 38.218C173.128 37.8633 173.189 37.5787 173.245 37.364C173.45 37.28 173.777 37.196 174.225 37.112C174.682 37.028 175.181 36.986 175.723 36.986C176.516 36.986 177.179 37.1027 177.711 37.336C178.243 37.5693 178.639 37.9473 178.901 38.47C179.162 38.9927 179.293 39.6927 179.293 40.57V44H171.312ZM180.805 44V42.922C180.861 42.922 180.907 42.936 180.945 42.964C180.982 42.9827 181.01 43.0153 181.029 43.062C181.047 43.1087 181.061 43.1647 181.071 43.23C181.08 43.2953 181.085 43.37 181.085 43.454C181.085 43.538 181.08 43.6173 181.071 43.692C181.061 43.7573 181.047 43.8133 181.029 43.86C181.01 43.9067 180.982 43.944 180.945 43.972C180.907 43.9907 180.861 44 180.805 44ZM180.801 44V42.922H182.999L182.411 43.398V37H183.615V44H180.801ZM180.801 44C180.745 44 180.698 43.9907 180.661 43.972C180.623 43.944 180.595 43.9067 180.577 43.86C180.558 43.8133 180.544 43.7573 180.535 43.692C180.525 43.6173 180.521 43.538 180.521 43.454C180.521 43.342 180.53 43.2487 180.549 43.174C180.558 43.0993 180.586 43.0387 180.633 42.992C180.67 42.9453 180.726 42.922 180.801 42.922V44ZM181.361 46.59V45.288H182.551V46.59H181.361ZM183.363 46.59V45.288H184.553V46.59H183.363ZM192.28 47.472C191.73 47.472 191.216 47.3927 190.74 47.234C190.274 47.0753 189.863 46.856 189.508 46.576C189.154 46.3053 188.874 45.974 188.668 45.582C188.472 45.1993 188.374 44.7747 188.374 44.308C188.374 44.1213 188.388 43.8787 188.416 43.58C188.454 43.272 188.496 42.9267 188.542 42.544C188.598 42.1613 188.659 41.7693 188.724 41.368L189.9 41.536C189.807 42.152 189.728 42.712 189.662 43.216C189.606 43.72 189.578 44.0793 189.578 44.294C189.578 44.7047 189.69 45.0687 189.914 45.386C190.148 45.7033 190.465 45.9507 190.866 46.128C191.277 46.3053 191.748 46.394 192.28 46.394H196.242C196.942 46.394 197.47 46.2027 197.824 45.82C198.188 45.4373 198.37 44.882 198.37 44.154V43.678H199.546V44.168C199.546 44.812 199.416 45.3813 199.154 45.876C198.902 46.38 198.529 46.772 198.034 47.052C197.549 47.332 196.952 47.472 196.242 47.472H192.28ZM197.572 44C197.246 44 196.914 43.9673 196.578 43.902C196.252 43.8273 195.925 43.6873 195.598 43.482L196.284 42.586C196.415 42.67 196.541 42.74 196.662 42.796C196.784 42.8427 196.914 42.8753 197.054 42.894C197.204 42.9127 197.376 42.922 197.572 42.922H200.288V44H197.572ZM200.288 44V42.922C200.344 42.922 200.391 42.936 200.428 42.964C200.466 42.9827 200.494 43.0153 200.512 43.062C200.531 43.1087 200.545 43.1647 200.554 43.23C200.564 43.2953 200.568 43.37 200.568 43.454C200.568 43.538 200.564 43.6173 200.554 43.692C200.545 43.7573 200.531 43.8133 200.512 43.86C200.494 43.9067 200.466 43.944 200.428 43.972C200.391 43.9907 200.344 44 200.288 44ZM192.378 50.062V48.76H193.568V50.062H192.378ZM194.38 50.062V48.76H195.57V50.062H194.38ZM197.453 44V42.922H204.453L203.739 43.524V37.616L204.299 38.078H202.003C201.48 38.078 201.074 38.1433 200.785 38.274C200.505 38.3953 200.309 38.6333 200.197 38.988C200.094 39.3333 200.043 39.8373 200.043 40.5C200.043 41.172 200.094 41.6807 200.197 42.026C200.309 42.3713 200.505 42.6093 200.785 42.74C201.074 42.8613 201.48 42.922 202.003 42.922V43.734C201.2 43.734 200.566 43.6313 200.099 43.426C199.642 43.2207 199.315 42.8847 199.119 42.418C198.932 41.942 198.839 41.3027 198.839 40.5C198.839 39.6973 198.932 39.0393 199.119 38.526C199.315 38.0033 199.642 37.6207 200.099 37.378C200.566 37.126 201.2 37 202.003 37H204.943V44H197.453ZM197.453 44C197.397 44 197.35 43.9907 197.313 43.972C197.276 43.944 197.248 43.9067 197.229 43.86C197.21 43.8133 197.196 43.7573 197.187 43.692C197.178 43.6173 197.173 43.538 197.173 43.454C197.173 43.342 197.182 43.2487 197.201 43.174C197.21 43.0993 197.238 43.0387 197.285 42.992C197.322 42.9453 197.378 42.922 197.453 42.922V44ZM201.611 35.74V34.438H202.815V35.74H201.611ZM211.594 44V42.922H213.288V44H211.594ZM210.404 44V33.976H211.594V44H210.404ZM213.288 44V42.922C213.344 42.922 213.391 42.936 213.428 42.964C213.466 42.9827 213.494 43.0153 213.512 43.062C213.531 43.1087 213.545 43.1647 213.554 43.23C213.564 43.2953 213.568 43.37 213.568 43.454C213.568 43.538 213.564 43.6173 213.554 43.692C213.545 43.7573 213.531 43.8133 213.512 43.86C213.494 43.9067 213.466 43.944 213.428 43.972C213.391 43.9907 213.344 44 213.288 44ZM218.241 35.706V35.174H221.041V35.706H218.241ZM218.241 34.446V33.914H221.041V34.446H218.241ZM223.771 44V42.922H225.283V44H223.771ZM213.285 44C213.229 44 213.182 43.9907 213.145 43.972C213.108 43.944 213.08 43.9067 213.061 43.86C213.042 43.8133 213.028 43.7573 213.019 43.692C213.01 43.6173 213.005 43.538 213.005 43.454C213.005 43.342 213.014 43.2487 213.033 43.174C213.042 43.0993 213.07 43.0387 213.117 42.992C213.154 42.9453 213.21 42.922 213.285 42.922V44ZM213.285 44V42.922H223.659L222.581 43.888V40.654C222.581 40.0753 222.497 39.5993 222.329 39.226C222.17 38.8433 221.932 38.5587 221.615 38.372C221.307 38.176 220.92 38.078 220.453 38.078C220.042 38.078 219.66 38.148 219.305 38.288C218.96 38.428 218.633 38.61 218.325 38.834C218.026 39.058 217.746 39.3053 217.485 39.576C217.233 39.8373 217 40.1033 216.785 40.374C216.57 40.6447 216.379 40.892 216.211 41.116L215.847 40.066C216.099 39.758 216.346 39.4547 216.589 39.156C216.841 38.8573 217.098 38.5773 217.359 38.316C217.62 38.0547 217.905 37.826 218.213 37.63C218.521 37.434 218.862 37.28 219.235 37.168C219.608 37.056 220.028 37 220.495 37C221.148 37 221.685 37.112 222.105 37.336C222.534 37.5507 222.87 37.8447 223.113 38.218C223.356 38.582 223.524 38.9787 223.617 39.408C223.72 39.828 223.771 40.2433 223.771 40.654V44H213.285ZM215.245 42.922V37H216.449V42.922H215.245ZM225.283 44V42.922C225.339 42.922 225.386 42.936 225.423 42.964C225.46 42.9827 225.488 43.0153 225.507 43.062C225.526 43.1087 225.54 43.1647 225.549 43.23C225.558 43.2953 225.563 43.37 225.563 43.454C225.563 43.538 225.558 43.6173 225.549 43.692C225.54 43.7573 225.526 43.8133 225.507 43.86C225.488 43.9067 225.46 43.944 225.423 43.972C225.386 43.9907 225.339 44 225.283 44ZM232.261 44V42.922H233.773V44H232.261ZM225.289 44C225.233 44 225.186 43.9907 225.149 43.972C225.112 43.944 225.084 43.9067 225.065 43.86C225.046 43.8133 225.032 43.7573 225.023 43.692C225.014 43.6173 225.009 43.538 225.009 43.454C225.009 43.342 225.018 43.2487 225.037 43.174C225.046 43.0993 225.074 43.0387 225.121 42.992C225.158 42.9453 225.214 42.922 225.289 42.922V44ZM225.289 44V42.922H231.435L231.071 43.244V39.898C231.071 39.2913 230.88 38.8387 230.497 38.54C230.124 38.2413 229.554 38.092 228.789 38.092C228.546 38.092 228.201 38.1153 227.753 38.162C227.314 38.1993 226.848 38.2507 226.353 38.316L226.213 37.35C226.596 37.2567 227.011 37.1773 227.459 37.112C227.916 37.0373 228.36 37 228.789 37C229.498 37 230.114 37.112 230.637 37.336C231.16 37.56 231.561 37.8867 231.841 38.316C232.121 38.7453 232.261 39.2727 232.261 39.898V44H225.289ZM233.773 44V42.922C233.829 42.922 233.876 42.936 233.913 42.964C233.95 42.9827 233.978 43.0153 233.997 43.062C234.016 43.1087 234.03 43.1647 234.039 43.23C234.048 43.2953 234.053 43.37 234.053 43.454C234.053 43.538 234.048 43.6173 234.039 43.692C234.03 43.7573 234.016 43.8133 233.997 43.86C233.978 43.9067 233.95 43.944 233.913 43.972C233.876 43.9907 233.829 44 233.773 44ZM228.187 36.02V34.718H229.391V36.02H228.187ZM241.269 44C240.943 44 240.621 43.9393 240.303 43.818C239.986 43.6873 239.687 43.4913 239.407 43.23L240.177 42.418C240.392 42.5953 240.583 42.726 240.751 42.81C240.919 42.8847 241.092 42.922 241.269 42.922H243.775L243.271 43.426V40.108C243.271 39.9493 243.253 39.716 243.215 39.408C243.187 39.1 243.141 38.7547 243.075 38.372C243.019 37.98 242.949 37.588 242.865 37.196L244.041 37C244.107 37.3267 244.172 37.6907 244.237 38.092C244.303 38.4933 244.359 38.876 244.405 39.24C244.452 39.604 244.475 39.8933 244.475 40.108V44H241.269ZM233.779 44V42.922H235.823L235.529 43.216V38.4H236.705V44H233.779ZM236.705 44V42.922H238.231C238.549 42.922 238.787 42.8753 238.945 42.782C239.113 42.6887 239.23 42.502 239.295 42.222C239.361 41.942 239.393 41.5313 239.393 40.99V37.7H240.583V40.99C240.583 41.7273 240.504 42.32 240.345 42.768C240.187 43.2067 239.935 43.524 239.589 43.72C239.244 43.9067 238.791 44 238.231 44H236.705ZM233.779 44C233.723 44 233.677 43.9907 233.639 43.972C233.602 43.944 233.574 43.9067 233.555 43.86C233.537 43.8133 233.523 43.7573 233.513 43.692C233.504 43.6173 233.499 43.538 233.499 43.454C233.499 43.342 233.509 43.2487 233.527 43.174C233.537 43.0993 233.565 43.0387 233.611 42.992C233.649 42.9453 233.705 42.922 233.779 42.922V44ZM239.435 33.85V32.632H240.527V33.85H239.435ZM238.385 35.74V34.438H239.575V35.74H238.385ZM240.387 35.74V34.438H241.577V35.74H240.387ZM256.93 44V42.922H258.442V44H256.93ZM253.122 47.472C252.375 47.472 251.699 47.332 251.092 47.052C250.495 46.7813 250.019 46.3987 249.664 45.904C249.319 45.4187 249.146 44.8633 249.146 44.238C249.146 44.042 249.16 43.7853 249.188 43.468C249.225 43.1413 249.267 42.782 249.314 42.39C249.37 41.998 249.431 41.6013 249.496 41.2C249.561 40.7893 249.622 40.402 249.678 40.038L250.854 40.22C250.751 40.8547 250.663 41.4473 250.588 41.998C250.513 42.5393 250.453 43.0013 250.406 43.384C250.369 43.7667 250.35 44.0513 250.35 44.238C250.35 44.658 250.462 45.0267 250.686 45.344C250.919 45.6707 251.246 45.9273 251.666 46.114C252.086 46.3007 252.571 46.394 253.122 46.394C253.673 46.394 254.144 46.3053 254.536 46.128C254.928 45.96 255.227 45.7173 255.432 45.4C255.637 45.092 255.74 44.7327 255.74 44.322V33.976H256.93V44.322C256.93 44.9753 256.757 45.5353 256.412 46.002C256.076 46.478 255.619 46.842 255.04 47.094C254.471 47.346 253.831 47.472 253.122 47.472ZM258.442 44V42.922C258.498 42.922 258.545 42.936 258.582 42.964C258.619 42.9827 258.647 43.0153 258.666 43.062C258.685 43.1087 258.699 43.1647 258.708 43.23C258.717 43.2953 258.722 43.37 258.722 43.454C258.722 43.538 258.717 43.6173 258.708 43.692C258.699 43.7573 258.685 43.8133 258.666 43.86C258.647 43.9067 258.619 43.944 258.582 43.972C258.545 43.9907 258.498 44 258.442 44ZM261.257 44V42.922H262.797V44H261.257ZM262.797 44V42.922C262.853 42.922 262.9 42.936 262.937 42.964C262.975 42.9827 263.003 43.0153 263.021 43.062C263.04 43.1087 263.054 43.1647 263.063 43.23C263.073 43.2953 263.077 43.37 263.077 43.454C263.077 43.538 263.073 43.6173 263.063 43.692C263.054 43.7573 263.04 43.8133 263.021 43.86C263.003 43.9067 262.975 43.944 262.937 43.972C262.9 43.9907 262.853 44 262.797 44ZM258.443 44C258.387 44 258.341 43.9907 258.303 43.972C258.266 43.944 258.238 43.9067 258.219 43.86C258.201 43.8133 258.187 43.7573 258.177 43.692C258.168 43.6173 258.163 43.538 258.163 43.454C258.163 43.342 258.173 43.2487 258.191 43.174C258.201 43.0993 258.229 43.0387 258.275 42.992C258.313 42.9453 258.369 42.922 258.443 42.922V44ZM258.443 44V42.922H260.641L260.053 43.398V37H261.257V44H258.443ZM260.095 33.85V32.632H261.187V33.85H260.095ZM259.045 35.74V34.438H260.235V35.74H259.045ZM261.047 35.74V34.438H262.237V35.74H261.047ZM270.771 44V42.922H272.283V44H270.771ZM262.791 44C262.735 44 262.688 43.9907 262.651 43.972C262.614 43.944 262.586 43.9067 262.567 43.86C262.548 43.8133 262.534 43.7573 262.525 43.692C262.516 43.6173 262.511 43.538 262.511 43.454C262.511 43.342 262.52 43.2487 262.539 43.174C262.548 43.0993 262.576 43.0387 262.623 42.992C262.66 42.9453 262.716 42.922 262.791 42.922V44ZM262.791 44V42.922H270.393L269.581 43.51V40.57C269.581 39.9353 269.506 39.436 269.357 39.072C269.217 38.708 268.97 38.4513 268.615 38.302C268.27 38.1527 267.798 38.078 267.201 38.078C266.809 38.078 266.422 38.106 266.039 38.162C265.656 38.2087 265.358 38.2787 265.143 38.372L265.871 37.644C265.815 37.868 265.759 38.1527 265.703 38.498C265.647 38.834 265.6 39.198 265.563 39.59C265.526 39.9727 265.507 40.3553 265.507 40.738C265.507 41.13 265.526 41.5173 265.563 41.9C265.6 42.2827 265.642 42.614 265.689 42.894C265.736 43.1647 265.773 43.356 265.801 43.468L264.667 43.79C264.63 43.6687 264.583 43.4587 264.527 43.16C264.471 42.8613 264.42 42.502 264.373 42.082C264.336 41.662 264.317 41.214 264.317 40.738C264.317 40.2807 264.34 39.8373 264.387 39.408C264.434 38.9693 264.485 38.5727 264.541 38.218C264.606 37.8633 264.667 37.5787 264.723 37.364C264.928 37.28 265.255 37.196 265.703 37.112C266.16 37.028 266.66 36.986 267.201 36.986C267.994 36.986 268.657 37.1027 269.189 37.336C269.721 37.5693 270.118 37.9473 270.379 38.47C270.64 38.9927 270.771 39.6927 270.771 40.57V44H262.791ZM272.283 44V42.922C272.339 42.922 272.386 42.936 272.423 42.964C272.46 42.9827 272.488 43.0153 272.507 43.062C272.526 43.1087 272.54 43.1647 272.549 43.23C272.558 43.2953 272.563 43.37 272.563 43.454C272.563 43.538 272.558 43.6173 272.549 43.692C272.54 43.7573 272.526 43.8133 272.507 43.86C272.488 43.9067 272.46 43.944 272.423 43.972C272.386 43.9907 272.339 44 272.283 44ZM272.279 44V42.922H274.477L273.889 43.398V37H275.093V44H272.279ZM272.279 44C272.223 44 272.177 43.9907 272.139 43.972C272.102 43.944 272.074 43.9067 272.055 43.86C272.037 43.8133 272.023 43.7573 272.013 43.692C272.004 43.6173 271.999 43.538 271.999 43.454C271.999 43.342 272.009 43.2487 272.027 43.174C272.037 43.0993 272.065 43.0387 272.111 42.992C272.149 42.9453 272.205 42.922 272.279 42.922V44ZM272.909 35.74V34.438H274.099V35.74H272.909ZM274.911 35.74V34.438H276.101V35.74H274.911ZM283.759 47.472C283.208 47.472 282.695 47.3927 282.219 47.234C281.752 47.0753 281.342 46.856 280.987 46.576C280.632 46.3053 280.352 45.974 280.147 45.582C279.951 45.1993 279.853 44.7747 279.853 44.308C279.853 44.1213 279.867 43.8787 279.895 43.58C279.932 43.272 279.974 42.9267 280.021 42.544C280.077 42.1613 280.138 41.7693 280.203 41.368L281.379 41.536C281.286 42.152 281.206 42.712 281.141 43.216C281.085 43.72 281.057 44.0793 281.057 44.294C281.057 44.7047 281.169 45.0687 281.393 45.386C281.626 45.7033 281.944 45.9507 282.345 46.128C282.756 46.3053 283.227 46.394 283.759 46.394H287.721C288.421 46.394 288.948 46.2027 289.303 45.82C289.667 45.4467 289.849 44.8773 289.849 44.112C289.849 43.7387 289.788 43.4447 289.667 43.23C289.555 43.0153 289.354 42.838 289.065 42.698C288.776 42.5487 288.365 42.3947 287.833 42.236C287.338 42.096 286.895 41.9607 286.503 41.83C286.12 41.69 285.794 41.5313 285.523 41.354C285.252 41.1673 285.047 40.9387 284.907 40.668C284.767 40.388 284.697 40.024 284.697 39.576C284.697 38.9973 284.818 38.5167 285.061 38.134C285.304 37.7513 285.649 37.4667 286.097 37.28C286.554 37.0933 287.105 37 287.749 37L287.707 38.078C287.287 38.078 286.942 38.1293 286.671 38.232C286.4 38.3347 286.2 38.4933 286.069 38.708C285.938 38.9133 285.873 39.184 285.873 39.52C285.873 39.7907 285.92 40.0147 286.013 40.192C286.106 40.36 286.251 40.5 286.447 40.612C286.643 40.724 286.881 40.8267 287.161 40.92C287.45 41.004 287.782 41.0973 288.155 41.2C288.603 41.3307 289.004 41.4707 289.359 41.62C289.714 41.7693 290.012 41.9513 290.255 42.166C290.507 42.3807 290.698 42.6513 290.829 42.978C290.96 43.2953 291.025 43.692 291.025 44.168C291.025 44.812 290.894 45.3813 290.633 45.876C290.381 46.38 290.008 46.772 289.513 47.052C289.028 47.332 288.43 47.472 287.721 47.472H283.759ZM292.341 44V37H293.545V43.398L292.957 42.922H295.057V44H292.341ZM287.707 38.078L287.749 37H292.341V38.078H287.707ZM295.057 44V42.922C295.113 42.922 295.16 42.936 295.197 42.964C295.234 42.9827 295.262 43.0153 295.281 43.062C295.3 43.1087 295.314 43.1647 295.323 43.23C295.332 43.2953 295.337 43.37 295.337 43.454C295.337 43.538 295.332 43.6173 295.323 43.692C295.314 43.7573 295.3 43.8133 295.281 43.86C295.262 43.9067 295.234 43.944 295.197 43.972C295.16 43.9907 295.113 44 295.057 44ZM290.381 35.74V34.438H291.571V35.74H290.381ZM292.383 35.74V34.438H293.573V35.74H292.383ZM283.857 50.09V48.788H285.047V50.09H283.857ZM285.859 50.09V48.788H287.049V50.09H285.859ZM296.737 44V33.976H297.941V44H296.737ZM295.057 44V42.922H296.737V44H295.057ZM295.057 44C295.001 44 294.954 43.9907 294.917 43.972C294.879 43.944 294.851 43.9067 294.833 43.86C294.814 43.8133 294.8 43.7573 294.791 43.692C294.781 43.6173 294.777 43.538 294.777 43.454C294.777 43.342 294.786 43.2487 294.805 43.174C294.814 43.0993 294.842 43.0387 294.889 42.992C294.926 42.9453 294.982 42.922 295.057 42.922V44ZM300.324 44V33.976H301.514V44H300.324ZM309.65 44C308.847 44 308.212 43.8787 307.746 43.636C307.288 43.384 306.962 43.0013 306.766 42.488C306.579 41.9653 306.486 41.3027 306.486 40.5C306.486 39.7067 306.579 39.0487 306.766 38.526C306.962 38.0033 307.288 37.6207 307.746 37.378C308.212 37.126 308.847 37 309.65 37H312.59V43.398H311.386V37.616L311.932 38.078H309.65C309.136 38.078 308.735 38.1433 308.446 38.274C308.166 38.3953 307.97 38.6287 307.858 38.974C307.746 39.3193 307.69 39.828 307.69 40.5C307.69 41.172 307.741 41.6807 307.844 42.026C307.956 42.3713 308.156 42.6093 308.446 42.74C308.735 42.8613 309.136 42.922 309.65 42.922H314.102V44H309.65ZM314.102 44V42.922C314.158 42.922 314.204 42.936 314.242 42.964C314.279 42.9827 314.307 43.0153 314.326 43.062C314.344 43.1087 314.358 43.1647 314.368 43.23C314.377 43.2953 314.382 43.37 314.382 43.454C314.382 43.538 314.377 43.6173 314.368 43.692C314.358 43.7573 314.344 43.8133 314.326 43.86C314.307 43.9067 314.279 43.944 314.242 43.972C314.204 43.9907 314.158 44 314.102 44ZM308.208 35.74V34.438H309.398V35.74H308.208ZM310.21 35.74V34.438H311.4V35.74H310.21ZM314.102 44V42.922H316.188L315.614 43.398V37H316.804V44H314.102ZM314.102 44C314.046 44 313.999 43.9907 313.962 43.972C313.924 43.944 313.896 43.9067 313.878 43.86C313.859 43.8133 313.845 43.7573 313.836 43.692C313.826 43.6173 313.822 43.538 313.822 43.454C313.822 43.342 313.831 43.2487 313.85 43.174C313.859 43.0993 313.887 43.0387 313.934 42.992C313.971 42.9453 314.027 42.922 314.102 42.922V44ZM315.614 35.74V34.438H316.818V35.74H315.614ZM324.594 44V42.922H326.106V44H324.594ZM321.22 47.15C320.884 47.15 320.529 47.122 320.156 47.066C319.792 47.0193 319.39 46.9493 318.952 46.856L319.134 45.89C319.628 45.9553 320.039 46.002 320.366 46.03C320.702 46.058 320.986 46.072 321.22 46.072C321.976 46.072 322.526 45.9273 322.872 45.638C323.217 45.3487 323.39 44.9287 323.39 44.378V37.714L323.936 38.078H321.654C321.14 38.078 320.739 38.1433 320.45 38.274C320.17 38.3953 319.974 38.6287 319.862 38.974C319.75 39.3193 319.694 39.828 319.694 40.5C319.694 41.172 319.745 41.6807 319.848 42.026C319.96 42.3713 320.16 42.6093 320.45 42.74C320.739 42.8613 321.14 42.922 321.654 42.922H323.39V44H321.654C320.851 44 320.216 43.8787 319.75 43.636C319.292 43.384 318.966 43.0013 318.77 42.488C318.583 41.9653 318.49 41.3027 318.49 40.5C318.49 39.7067 318.583 39.0487 318.77 38.526C318.966 38.0033 319.292 37.6207 319.75 37.378C320.216 37.126 320.851 37 321.654 37H324.594V44.364C324.594 44.952 324.458 45.456 324.188 45.876C323.917 46.296 323.53 46.6133 323.026 46.828C322.522 47.0427 321.92 47.15 321.22 47.15ZM326.106 44V42.922C326.162 42.922 326.208 42.936 326.246 42.964C326.283 42.9827 326.311 43.0153 326.33 43.062C326.348 43.1087 326.362 43.1647 326.372 43.23C326.381 43.2953 326.386 43.37 326.386 43.454C326.386 43.538 326.381 43.6173 326.372 43.692C326.362 43.7573 326.348 43.8133 326.33 43.86C326.311 43.9067 326.283 43.944 326.246 43.972C326.208 43.9907 326.162 44 326.106 44ZM333.595 44V42.922H335.107V44H333.595ZM326.105 44C326.049 44 326.003 43.9907 325.965 43.972C325.928 43.944 325.9 43.9067 325.881 43.86C325.863 43.8133 325.849 43.7573 325.839 43.692C325.83 43.6173 325.825 43.538 325.825 43.454C325.825 43.342 325.835 43.2487 325.853 43.174C325.863 43.0993 325.891 43.0387 325.937 42.992C325.975 42.9453 326.031 42.922 326.105 42.922V44ZM326.105 44V42.922H333.105L332.391 43.524V37.616L332.951 38.078H330.655C330.133 38.078 329.727 38.1433 329.437 38.274C329.157 38.3953 328.961 38.6333 328.849 38.988C328.747 39.3333 328.695 39.8373 328.695 40.5C328.695 41.172 328.747 41.6807 328.849 42.026C328.961 42.3713 329.157 42.6093 329.437 42.74C329.727 42.8613 330.133 42.922 330.655 42.922V43.734C329.853 43.734 329.218 43.6313 328.751 43.426C328.294 43.2207 327.967 42.8847 327.771 42.418C327.585 41.942 327.491 41.3027 327.491 40.5C327.491 39.6973 327.585 39.0393 327.771 38.526C327.967 38.0033 328.294 37.6207 328.751 37.378C329.218 37.126 329.853 37 330.655 37H333.595V44H326.105ZM335.107 44V42.922C335.163 42.922 335.21 42.936 335.247 42.964C335.285 42.9827 335.313 43.0153 335.331 43.062C335.35 43.1087 335.364 43.1647 335.373 43.23C335.383 43.2953 335.387 43.37 335.387 43.454C335.387 43.538 335.383 43.6173 335.373 43.692C335.364 43.7573 335.35 43.8133 335.331 43.86C335.313 43.9067 335.285 43.944 335.247 43.972C335.21 43.9907 335.163 44 335.107 44ZM329.283 35.74V34.438H330.473V35.74H329.283ZM331.285 35.74V34.438H332.475V35.74H331.285ZM335.102 44V42.922H337.3L336.712 43.398V37H337.916V44H335.102ZM335.102 44C335.046 44 334.999 43.9907 334.962 43.972C334.924 43.944 334.896 43.9067 334.878 43.86C334.859 43.8133 334.845 43.7573 334.836 43.692C334.826 43.6173 334.822 43.538 334.822 43.454C334.822 43.342 334.831 43.2487 334.85 43.174C334.859 43.0993 334.887 43.0387 334.934 42.992C334.971 42.9453 335.027 42.922 335.102 42.922V44ZM335.662 46.59V45.288H336.852V46.59H335.662ZM337.664 46.59V45.288H338.854V46.59H337.664ZM339.599 44V42.922H346.487L345.829 43.594V33.976H347.033V44H339.599ZM341.797 42.922V35.964H342.987V42.922H341.797ZM341.713 34.998C341.564 34.8113 341.447 34.6293 341.363 34.452C341.279 34.2653 341.237 34.074 341.237 33.878C341.237 33.598 341.307 33.3507 341.447 33.136C341.587 32.912 341.774 32.7393 342.007 32.618C342.24 32.4873 342.492 32.422 342.763 32.422C342.912 32.422 343.062 32.4453 343.211 32.492C343.37 32.5293 343.505 32.5853 343.617 32.66L343.239 33.332C343.164 33.2853 343.09 33.2573 343.015 33.248C342.95 33.2293 342.88 33.22 342.805 33.22C342.59 33.22 342.418 33.2807 342.287 33.402C342.166 33.5233 342.105 33.682 342.105 33.878C342.105 33.99 342.128 34.102 342.175 34.214C342.231 34.326 342.31 34.4473 342.413 34.578L341.713 34.998ZM340.971 35.012V34.228H343.813V35.012H340.971ZM349.475 44V33.976H350.665V44H349.475Z" fill="#245957"/>
<path d="M373.326 12.5463C373.216 12.568 373.111 12.6113 373.017 12.6737C372.923 12.7361 372.843 12.8163 372.78 12.9098C372.717 13.0033 372.674 13.1082 372.651 13.2186C372.629 13.329 372.629 13.4427 372.651 13.5531C372.673 13.6636 372.716 13.7687 372.778 13.8624C372.841 13.9561 372.921 14.0366 373.014 14.0994C373.108 14.1621 373.213 14.2058 373.323 14.2279C373.434 14.2501 373.547 14.2503 373.658 14.2285C375.205 13.9293 376.796 13.9293 378.343 14.2285C378.566 14.2726 378.798 14.2263 378.987 14.0998C379.176 13.9732 379.307 13.7768 379.351 13.5537C379.395 13.3306 379.349 13.0991 379.222 12.9102C379.095 12.7213 378.899 12.5904 378.676 12.5463C376.909 12.2037 375.093 12.2037 373.326 12.5463ZM383.62 14.5965C383.431 14.478 383.203 14.4377 382.985 14.4842C382.767 14.5307 382.576 14.6604 382.452 14.8457C382.328 15.031 382.281 15.2574 382.321 15.4767C382.361 15.6961 382.485 15.8911 382.667 16.0205C383.976 16.8989 385.101 18.0243 385.979 19.3337C386.041 19.4273 386.122 19.5076 386.216 19.5701C386.309 19.6325 386.414 19.6759 386.525 19.6978C386.635 19.7197 386.749 19.7195 386.86 19.6975C386.97 19.6754 387.075 19.6318 387.169 19.5691C387.262 19.5065 387.342 19.426 387.405 19.3323C387.467 19.2386 387.511 19.1335 387.533 19.023C387.555 18.9125 387.554 18.7988 387.532 18.6884C387.51 18.578 387.467 18.473 387.404 18.3794C386.401 16.8842 385.115 15.5992 383.62 14.5965ZM369.334 16.0205C369.52 15.8929 369.649 15.6969 369.691 15.4752C369.734 15.2535 369.687 15.024 369.562 14.8365C369.436 14.649 369.241 14.5186 369.02 14.4737C368.799 14.4287 368.569 14.4729 368.38 14.5965C366.885 15.5992 365.6 16.8842 364.597 18.3794C364.471 18.5684 364.424 18.7999 364.468 19.023C364.513 19.2461 364.644 19.4426 364.833 19.5691C365.022 19.6957 365.253 19.7419 365.476 19.6978C365.699 19.6536 365.896 19.5227 366.022 19.3337C366.9 18.0243 368.025 16.8989 369.334 16.0205ZM389.454 23.3234C389.434 23.2112 389.392 23.104 389.33 23.0083C389.268 22.9125 389.188 22.8301 389.094 22.7658C389 22.7015 388.894 22.6566 388.782 22.6337C388.67 22.6109 388.555 22.6106 388.443 22.6327C388.332 22.6549 388.225 22.6992 388.131 22.763C388.036 22.8268 387.956 22.9087 387.893 23.0041C387.831 23.0995 387.788 23.2064 387.767 23.3185C387.747 23.4307 387.749 23.5458 387.773 23.6571C388.072 25.2047 388.072 26.7953 387.773 28.3428C387.735 28.5631 387.785 28.7895 387.912 28.9736C388.039 29.1577 388.232 29.285 388.452 29.3284C388.671 29.3718 388.898 29.3278 389.086 29.2058C389.273 29.0838 389.405 28.8935 389.454 28.6754C389.797 26.9082 389.797 25.0917 389.454 23.3245M364.229 23.6571C364.254 23.5455 364.257 23.43 364.236 23.3174C364.216 23.2048 364.173 23.0974 364.111 23.0015C364.049 22.9056 363.968 22.8232 363.873 22.7592C363.778 22.6951 363.671 22.6506 363.559 22.6284C363.447 22.6062 363.331 22.6067 363.219 22.6299C363.107 22.653 363.001 22.6984 362.907 22.7633C362.813 22.8281 362.732 22.9112 362.671 23.0076C362.609 23.104 362.567 23.2118 362.548 23.3245C362.205 25.0917 362.205 26.9082 362.548 28.6754C362.597 28.8935 362.729 29.0838 362.916 29.2058C363.104 29.3278 363.331 29.3718 363.551 29.3284C363.77 29.285 363.964 29.1577 364.09 28.9736C364.217 28.7895 364.267 28.5631 364.229 28.3428C363.93 26.7953 363.93 25.2047 364.229 23.6571ZM387.405 33.6205C387.468 33.527 387.511 33.422 387.533 33.3115C387.556 33.2011 387.556 33.0874 387.534 32.9769C387.512 32.8664 387.469 32.7614 387.406 32.6677C387.344 32.574 387.263 32.4935 387.17 32.4308C387.076 32.3682 386.971 32.3246 386.861 32.3025C386.75 32.2804 386.637 32.2803 386.526 32.3021C386.416 32.324 386.311 32.3674 386.217 32.4299C386.123 32.4924 386.043 32.5727 385.98 32.6663C385.102 33.9756 383.977 35.101 382.668 35.9794C382.571 36.0404 382.487 36.1202 382.421 36.2142C382.356 36.3082 382.309 36.4144 382.285 36.5265C382.261 36.6387 382.26 36.7545 382.282 36.8671C382.304 36.9797 382.348 37.0868 382.411 37.1821C382.475 37.2774 382.557 37.359 382.653 37.4219C382.749 37.4848 382.857 37.5279 382.969 37.5485C383.082 37.5691 383.198 37.5669 383.31 37.542C383.422 37.5171 383.528 37.4699 383.621 37.4034C385.116 36.4007 386.402 35.1157 387.405 33.6205ZM366.021 32.6663C365.895 32.4773 365.698 32.3463 365.475 32.3021C365.252 32.258 365.02 32.3043 364.831 32.4308C364.642 32.5574 364.511 32.7538 364.467 32.9769C364.423 33.2 364.469 33.4316 364.596 33.6205C365.599 35.1157 366.884 36.4007 368.379 37.4034C368.472 37.4675 368.578 37.5124 368.688 37.5356C368.799 37.5587 368.914 37.5597 369.025 37.5383C369.136 37.5169 369.242 37.4737 369.337 37.4111C369.431 37.3485 369.513 37.2678 369.576 37.1737C369.639 37.0795 369.683 36.9738 369.704 36.8626C369.726 36.7514 369.726 36.637 369.704 36.5259C369.681 36.4149 369.637 36.3094 369.573 36.2156C369.509 36.1217 369.428 36.0415 369.333 35.9794C368.024 35.101 366.899 33.9756 366.021 32.6663ZM378.676 39.4537C378.899 39.4094 379.095 39.2784 379.222 39.0893C379.348 38.9003 379.395 38.6688 379.35 38.4457C379.306 38.2226 379.175 38.0262 378.986 37.8998C378.797 37.7733 378.565 37.7271 378.342 37.7714C376.795 38.0706 375.204 38.0706 373.657 37.7714C373.433 37.7274 373.202 37.7739 373.013 37.9006C372.824 38.0273 372.694 38.2237 372.65 38.4468C372.606 38.6699 372.652 38.9013 372.779 39.0901C372.906 39.279 373.102 39.4097 373.325 39.4537C375.057 39.7965 376.943 39.7965 378.676 39.4537ZM372.286 24.2857C372.665 24.2857 373.028 24.1352 373.296 23.8673C373.564 23.5994 373.715 23.236 373.715 22.8571C373.715 22.4782 373.564 22.1149 373.296 21.847C373.028 21.5791 372.665 21.4285 372.286 21.4285C371.907 21.4285 371.544 21.5791 371.276 21.847C371.008 22.1149 370.858 22.4782 370.858 22.8571C370.858 23.236 371.008 23.5994 371.276 23.8673C371.544 24.1352 371.907 24.2857 372.286 24.2857ZM381.143 22.8571C381.143 23.236 380.993 23.5994 380.725 23.8673C380.457 24.1352 380.094 24.2857 379.715 24.2857C379.336 24.2857 378.973 24.1352 378.705 23.8673C378.437 23.5994 378.286 23.236 378.286 22.8571C378.286 22.4782 378.437 22.1149 378.705 21.847C378.973 21.5791 379.336 21.4285 379.715 21.4285C380.094 21.4285 380.457 21.5791 380.725 21.847C380.993 22.1149 381.143 22.4782 381.143 22.8571ZM371.667 29.7234C371.593 29.638 371.504 29.5679 371.403 29.5171C371.303 29.4663 371.193 29.4358 371.081 29.4273C370.969 29.4188 370.856 29.4325 370.749 29.4676C370.642 29.5027 370.543 29.5586 370.458 29.632C370.372 29.7054 370.302 29.7949 370.251 29.8953C370.201 29.9958 370.17 30.1053 370.162 30.2176C370.153 30.3299 370.167 30.4427 370.202 30.5497C370.237 30.6567 370.293 30.7557 370.366 30.8411C371.063 31.6533 371.928 32.3051 372.9 32.7518C373.873 33.1984 374.93 33.4293 376.001 33.4285C378.254 33.4285 380.275 32.424 381.635 30.8411C381.778 30.6682 381.848 30.4459 381.829 30.2221C381.81 29.9982 381.704 29.7908 381.534 29.6443C381.364 29.4978 381.143 29.424 380.918 29.4388C380.694 29.4536 380.485 29.5558 380.335 29.7234C379.8 30.3484 379.135 30.8499 378.387 31.1936C377.639 31.5373 376.825 31.7149 376.002 31.7143C375.178 31.715 374.364 31.5375 373.616 31.1938C372.868 30.8502 372.203 30.3485 371.667 29.7234Z" fill="#245957"/>
</svg>
