<svg width="35" height="35" viewBox="0 0 35 35" fill="none" xmlns="http://www.w3.org/2000/svg">
<path d="M17.5006 2.24402e-06C19.1021 2.24402e-06 20.6451 0.208336 22.1295 0.625002C23.6139 1.04167 25.0071 1.62761 26.3092 2.38281C27.6113 3.13802 28.7962 4.05599 29.8639 5.13672C30.9316 6.21745 31.843 7.39584 32.5982 8.67188C33.3534 9.94792 33.9459 11.3411 34.3756 12.8516C34.8053 14.362 35.0136 15.9115 35.0006 17.5C35.0006 19.1016 34.7922 20.6445 34.3756 22.1289C33.9589 23.6133 33.373 25.0065 32.6178 26.3086C31.8626 27.6107 30.9446 28.7956 29.8639 29.8633C28.7831 30.931 27.6047 31.8425 26.3287 32.5977C25.0527 33.3529 23.6594 33.9453 22.149 34.375C20.6386 34.8047 19.0891 35.013 17.5006 35C15.899 35 14.356 34.7917 12.8717 34.375C11.3873 33.9583 9.99407 33.3724 8.69198 32.6172C7.3899 31.862 6.205 30.944 5.13729 29.8633C4.06959 28.7826 3.15813 27.6042 2.40292 26.3281C1.64771 25.0521 1.05526 23.6589 0.625575 22.1484C0.195887 20.638 -0.0124464 19.0885 0.000574449 17.5C0.000574449 15.8984 0.208908 14.3555 0.625575 12.8711C1.04224 11.3867 1.62818 9.99349 2.38339 8.69141C3.1386 7.38933 4.05656 6.20443 5.13729 5.13672C6.21802 4.06901 7.39641 3.15755 8.67245 2.40235C9.94849 1.64714 11.3417 1.05469 12.8521 0.625002C14.3626 0.195315 15.912 -0.0130186 17.5006 2.24402e-06ZM17.5006 32.5C18.8808 32.5 20.2089 32.3242 21.485 31.9727C22.761 31.6211 23.9524 31.1133 25.0592 30.4492C26.1659 29.7852 27.1816 29.0039 28.106 28.1055C29.0305 27.207 29.8118 26.1979 30.4498 25.0781C31.0878 23.9583 31.5891 22.7604 31.9537 21.4844C32.3183 20.2083 32.5006 18.8802 32.5006 17.5C32.5006 16.1198 32.3248 14.7917 31.9732 13.5156C31.6217 12.2396 31.1139 11.0482 30.4498 9.94141C29.7857 8.83464 29.0045 7.81901 28.106 6.89453C27.2076 5.97006 26.1985 5.18881 25.0787 4.55078C23.9589 3.91276 22.761 3.41146 21.485 3.04688C20.2089 2.68229 18.8808 2.5 17.5006 2.5C16.1204 2.5 14.7922 2.67578 13.5162 3.02735C12.2402 3.37891 11.0488 3.88672 9.94198 4.55078C8.83521 5.21485 7.81959 5.9961 6.89511 6.89453C5.97063 7.79297 5.18938 8.80209 4.55136 9.92188C3.91334 11.0417 3.41203 12.2396 3.04745 13.5156C2.68287 14.7917 2.50057 16.1198 2.50057 17.5C2.50057 18.8802 2.67636 20.2083 3.02792 21.4844C3.37948 22.7604 3.88729 23.9518 4.55136 25.0586C5.21542 26.1654 5.99667 27.181 6.89511 28.1055C7.79354 29.03 8.80266 29.8112 9.92245 30.4492C11.0422 31.0872 12.2402 31.5885 13.5162 31.9531C14.7922 32.3177 16.1204 32.5 17.5006 32.5ZM17.5006 10C18.5292 10 19.4993 10.1953 20.4107 10.5859C21.3222 10.9766 22.1165 11.5169 22.7935 12.207C23.4706 12.8971 24.0045 13.6914 24.3951 14.5898C24.7857 15.4883 24.9876 16.4583 25.0006 17.5C25.0006 18.5287 24.8053 19.4987 24.4146 20.4102C24.024 21.3216 23.4837 22.1159 22.7935 22.793C22.1034 23.4701 21.3092 24.0039 20.4107 24.3945C19.5123 24.7852 18.5422 24.987 17.5006 25C16.4719 25 15.5019 24.8047 14.5904 24.4141C13.679 24.0234 12.8847 23.4831 12.2076 22.793C11.5305 22.1029 10.9967 21.3086 10.606 20.4102C10.2154 19.5117 10.0136 18.5417 10.0006 17.5C10.0006 16.4714 10.1959 15.5013 10.5865 14.5898C10.9771 13.6784 11.5175 12.8841 12.2076 12.207C12.8977 11.53 13.692 10.9961 14.5904 10.6055C15.4889 10.2148 16.4589 10.013 17.5006 10Z" fill="#FF0000"/>
</svg>
