<svg width="441" height="519" viewBox="0 0 441 519" fill="none" xmlns="http://www.w3.org/2000/svg">
<path d="M139.669 327.788C122.782 270.762 122.255 213.813 143.4 156.965C143.48 153.508 144.952 150.223 147.493 147.83C150.035 145.438 153.439 144.134 156.958 144.204L288.265 146.973C291.784 147.051 295.127 148.497 297.562 150.995C299.997 153.492 301.325 156.836 301.253 160.294C315.758 220.41 318.506 278.156 297.522 331.117C297.442 334.574 295.97 337.859 293.429 340.252C290.887 342.644 287.483 343.948 283.964 343.878L152.657 341.109C149.138 341.031 145.795 339.585 143.36 337.087C140.925 334.59 139.597 331.246 139.669 327.788Z" fill="#F8F8F8"/>
<path opacity="0.5" d="M167.128 335.284C163.609 335.206 160.265 333.759 157.83 331.262C155.395 328.765 154.068 325.421 154.14 321.963C137.253 264.937 136.726 207.988 157.871 151.14C157.934 148.87 158.607 146.657 159.821 144.725L157.237 144.671C153.718 144.6 150.314 145.904 147.773 148.297C145.231 150.689 143.759 153.974 143.679 157.431C122.534 214.279 123.061 271.228 139.948 328.255C139.877 331.712 141.204 335.056 143.639 337.554C146.074 340.051 149.417 341.497 152.936 341.575L284.243 344.344C286.575 344.385 288.878 343.82 290.916 342.706C292.955 341.591 294.657 339.967 295.851 337.998L167.128 335.284Z" fill="#245957"/>
<path d="M264.419 242.206L176.423 240.591C175.024 240.563 173.693 239.991 172.723 239C171.752 238.01 171.222 236.681 171.248 235.306C171.274 233.932 171.855 232.624 172.862 231.669C173.869 230.715 175.221 230.192 176.62 230.216L264.616 231.831C266.014 231.861 267.342 232.435 268.31 233.425C269.278 234.415 269.807 235.743 269.781 237.115C269.754 238.488 269.175 239.795 268.17 240.749C267.165 241.704 265.817 242.227 264.419 242.206Z" fill="#C6C6C6"/>
<path d="M195.991 212.875L176.632 212.52C175.231 212.498 173.897 211.931 172.922 210.943C171.947 209.955 171.412 208.627 171.434 207.251C171.455 205.875 172.032 204.564 173.038 203.607C174.044 202.649 175.395 202.123 176.796 202.144L176.829 202.145L196.188 202.5C197.586 202.53 198.914 203.103 199.882 204.094C200.851 205.084 201.38 206.411 201.354 207.784C201.327 209.157 200.748 210.464 199.743 211.419C198.738 212.373 197.388 212.897 195.991 212.875Z" fill="#C6C6C6"/>
<path d="M264.251 265.014L176.255 263.398C174.855 263.373 173.524 262.803 172.552 261.813C171.58 260.823 171.048 259.495 171.072 258.12C171.097 256.745 171.676 255.436 172.682 254.48C173.689 253.525 175.04 253 176.44 253.023L176.452 253.023L264.449 254.639C265.846 254.669 267.174 255.242 268.142 256.233C269.11 257.223 269.639 258.55 269.613 259.923C269.587 261.296 269.008 262.603 268.003 263.557C266.998 264.511 265.649 265.035 264.251 265.014Z" fill="#C6C6C6"/>
<path d="M228.847 164.654C239.378 158.68 242.986 145.449 236.906 135.102C230.826 124.755 217.36 121.21 206.828 127.184C196.297 133.158 192.689 146.388 198.769 156.735C204.849 167.082 218.315 170.628 228.847 164.654Z" fill="#245957"/>
<path d="M304.999 364.618C327.508 351.85 335.22 323.571 322.224 301.456C309.229 279.341 280.447 271.764 257.938 284.532C235.429 297.3 227.717 325.579 240.712 347.694C253.708 369.809 282.49 377.386 304.999 364.618Z" fill="#D8E7DD"/>
<path d="M275.049 348.64C274.236 348.64 273.435 348.454 272.708 348.097C271.981 347.74 271.349 347.222 270.861 346.583L258.022 329.763C257.609 329.223 257.308 328.608 257.137 327.953C256.966 327.299 256.928 326.618 257.025 325.949C257.122 325.28 257.352 324.636 257.703 324.054C258.053 323.473 258.516 322.965 259.067 322.559C259.617 322.154 260.243 321.859 260.91 321.691C261.576 321.524 262.269 321.487 262.95 321.583C263.631 321.679 264.286 321.905 264.878 322.25C265.469 322.595 265.986 323.051 266.398 323.592L274.798 334.595L296.371 302.801C296.753 302.239 297.243 301.756 297.814 301.38C298.385 301.004 299.026 300.743 299.7 300.61C300.375 300.478 301.069 300.477 301.743 300.608C302.417 300.739 303.059 301 303.631 301.374C304.203 301.749 304.694 302.231 305.077 302.792C305.459 303.353 305.726 303.983 305.86 304.645C305.995 305.307 305.996 305.989 305.863 306.652C305.729 307.315 305.464 307.945 305.083 308.507L279.405 346.35C278.94 347.034 278.316 347.599 277.583 347.998C276.85 348.396 276.031 348.616 275.194 348.639C275.146 348.64 275.097 348.64 275.049 348.64Z" fill="#53B175"/>
<path d="M92.6764 48.5359L93.2844 51.9599C92.3244 52.1519 91.4071 52.3012 90.5324 52.4079C89.6791 52.5359 88.8471 52.5999 88.0364 52.5999C86.3084 52.5999 84.7938 52.3226 83.4924 51.7679C82.2124 51.2133 81.2098 50.4026 80.4844 49.3359C79.7804 48.2906 79.4284 47.0426 79.4284 45.5919C79.4284 44.1199 79.7804 42.8612 80.4844 41.8159C81.2098 40.7706 82.2124 39.9706 83.4924 39.4159C84.7938 38.8399 86.3191 38.5519 88.0684 38.5519H91.5244V42.2639H88.0684C86.5538 42.2639 85.4444 42.5412 84.7404 43.0959C84.0578 43.6506 83.7164 44.4826 83.7164 45.5919C83.7164 46.7012 84.0578 47.5332 84.7404 48.0879C85.4444 48.6426 86.5431 48.9199 88.0364 48.9199C88.5698 48.9199 89.2098 48.8879 89.9564 48.8239C90.7031 48.7599 91.6098 48.6639 92.6764 48.5359ZM81.4444 30.3919L81.0604 27.0319C81.9991 26.7972 82.9698 26.6052 83.9724 26.4559C84.9751 26.2852 85.9458 26.1999 86.8844 26.1999C88.6338 26.1999 90.1698 26.5092 91.4924 27.1279C92.8364 27.7252 93.8818 28.5892 94.6284 29.7199C95.3964 30.8506 95.7804 32.2159 95.7804 33.8159V42.2639H91.5244V33.8159C91.5244 32.5359 91.1191 31.5652 90.3084 30.9039C89.4978 30.2426 88.2391 29.9119 86.5324 29.9119C85.9991 29.9119 85.2844 29.9546 84.3884 30.0399C83.5138 30.1252 82.5324 30.2426 81.4444 30.3919ZM104.847 42.2639V38.5519H108.495V42.2639H104.847ZM100.591 42.2639V19.6399H104.847V42.2639H100.591ZM108.495 42.2639V38.5519C108.623 38.5519 108.719 38.5946 108.783 38.6799C108.868 38.7652 108.932 38.8932 108.975 39.0639C109.039 39.2346 109.082 39.4372 109.103 39.6719C109.124 39.8852 109.135 40.1306 109.135 40.4079C109.135 40.6852 109.124 40.9412 109.103 41.1759C109.082 41.4106 109.039 41.6132 108.975 41.7839C108.932 41.9332 108.868 42.0506 108.783 42.1359C108.719 42.2212 108.623 42.2639 108.495 42.2639ZM125.068 42.2639V38.5519H128.46V42.2639H125.068ZM108.492 42.2639C108.364 42.2639 108.268 42.2212 108.204 42.1359C108.119 42.0506 108.055 41.9332 108.012 41.7839C107.948 41.6132 107.906 41.4106 107.884 41.1759C107.863 40.9412 107.852 40.6852 107.852 40.4079C107.852 40.0239 107.874 39.7039 107.916 39.4479C107.959 39.1706 108.034 38.9572 108.14 38.8079C108.226 38.6372 108.343 38.5519 108.492 38.5519V42.2639ZM108.492 42.2639V38.5519H122.252L120.812 39.7359V33.8159C120.812 32.5359 120.407 31.5652 119.596 30.9039C118.807 30.2426 117.548 29.9119 115.82 29.9119C115.33 29.9119 114.658 29.9546 113.804 30.0399C112.951 30.1039 112.023 30.2106 111.02 30.3599L110.604 26.9679C111.522 26.7546 112.45 26.5732 113.388 26.4239C114.348 26.2746 115.287 26.1999 116.204 26.1999C117.954 26.1999 119.49 26.5092 120.812 27.1279C122.135 27.7252 123.17 28.5892 123.916 29.7199C124.684 30.8506 125.068 32.2159 125.068 33.8159V42.2639H108.492ZM128.46 42.2639V38.5519C128.567 38.5519 128.663 38.5946 128.748 38.6799C128.834 38.7652 128.898 38.8932 128.94 39.0639C128.983 39.2346 129.015 39.4372 129.036 39.6719C129.079 39.8852 129.1 40.1306 129.1 40.4079C129.1 40.6852 129.079 40.9412 129.036 41.1759C129.015 41.4106 128.983 41.6132 128.94 41.7839C128.898 41.9332 128.834 42.0506 128.748 42.1359C128.663 42.2212 128.567 42.2639 128.46 42.2639ZM114.668 49.0799V45.4319H118.956V49.0799H114.668ZM136.109 42.2639V38.5519H139.469V42.2639H136.109ZM128.461 42.2639C128.333 42.2639 128.237 42.2212 128.173 42.1359C128.088 42.0506 128.024 41.9332 127.981 41.7839C127.917 41.6132 127.874 41.4106 127.853 41.1759C127.832 40.9412 127.821 40.6852 127.821 40.4079C127.821 40.0239 127.842 39.7039 127.885 39.4479C127.928 39.1706 128.002 38.9572 128.109 38.8079C128.194 38.6372 128.312 38.5519 128.461 38.5519V42.2639ZM128.461 42.2639V38.5519H134.317L131.821 40.6319V26.1999H136.109V42.2639H128.461ZM139.469 42.2639V38.5519C139.597 38.5519 139.704 38.5946 139.789 38.6799C139.874 38.7652 139.938 38.8932 139.981 39.0639C140.024 39.2346 140.056 39.4372 140.077 39.6719C140.098 39.8852 140.109 40.1306 140.109 40.4079C140.109 40.6852 140.098 40.9412 140.077 41.1759C140.056 41.4106 140.024 41.6132 139.981 41.7839C139.938 41.9332 139.874 42.0506 139.789 42.1359C139.704 42.2212 139.597 42.2639 139.469 42.2639ZM131.821 23.2559V19.6079H136.109V23.2559H131.821ZM139.461 42.2639V38.5519H145.317L142.821 40.6319V26.1999H147.109V42.2639H139.461ZM139.461 42.2639C139.333 42.2639 139.237 42.2212 139.173 42.1359C139.088 42.0506 139.024 41.9332 138.981 41.7839C138.917 41.6132 138.874 41.4106 138.853 41.1759C138.832 40.9412 138.821 40.6852 138.821 40.4079C138.821 40.0239 138.842 39.7039 138.885 39.4479C138.928 39.1706 139.002 38.9572 139.109 38.8079C139.194 38.6372 139.312 38.5519 139.461 38.5519V42.2639ZM142.821 49.0799V45.4319H147.109V49.0799H142.821ZM181.262 42.2639V38.5519H184.622V42.2639H181.262ZM168.206 42.2639C165.924 42.2639 163.993 41.9652 162.414 41.3679C160.857 40.7706 159.673 39.8852 158.862 38.7119C158.073 37.5386 157.678 36.0772 157.678 34.3279C157.678 33.8159 157.71 33.2826 157.774 32.7279C157.838 32.1519 157.913 31.6079 157.998 31.0959C158.105 30.5626 158.201 30.0932 158.286 29.6879C158.372 29.2826 158.436 28.9839 158.478 28.7919L162.638 29.5919C162.574 29.9332 162.489 30.3706 162.382 30.9039C162.276 31.4372 162.18 32.0026 162.094 32.5999C162.009 33.1759 161.966 33.7306 161.966 34.2639C161.966 35.0959 162.094 35.7892 162.35 36.3439C162.628 36.8986 163.033 37.3466 163.566 37.6879C164.1 38.0079 164.772 38.2319 165.582 38.3599C166.393 38.4879 167.342 38.5519 168.43 38.5519H179.47L176.974 40.6319V19.6399H181.262V42.2639H168.206ZM184.622 42.2639V38.5519C184.75 38.5519 184.846 38.5946 184.91 38.6799C184.996 38.7652 185.06 38.8932 185.102 39.0639C185.166 39.2346 185.209 39.4372 185.23 39.6719C185.252 39.8852 185.262 40.1306 185.262 40.4079C185.262 40.6852 185.252 40.9412 185.23 41.1759C185.209 41.4106 185.166 41.6132 185.102 41.7839C185.06 41.9332 184.996 42.0506 184.91 42.1359C184.846 42.2212 184.75 42.2639 184.622 42.2639ZM167.534 30.1999C167.129 29.7092 166.82 29.2399 166.606 28.7919C166.393 28.3439 166.286 27.8639 166.286 27.3519C166.286 26.6266 166.478 25.9759 166.862 25.3999C167.246 24.8026 167.748 24.3439 168.366 24.0239C168.985 23.6826 169.668 23.5119 170.414 23.5119C170.82 23.5119 171.236 23.5652 171.662 23.6719C172.089 23.7786 172.452 23.9386 172.75 24.1519L171.662 26.1039C171.47 25.9972 171.278 25.9332 171.086 25.9119C170.916 25.8692 170.734 25.8479 170.542 25.8479C170.03 25.8479 169.636 25.9866 169.358 26.2639C169.081 26.5199 168.942 26.8719 168.942 27.3199C168.942 27.5759 168.996 27.8212 169.102 28.0559C169.209 28.2906 169.369 28.5466 169.582 28.8239L167.534 30.1999ZM165.582 30.4559V28.1199H173.326V30.4559H165.582ZM192.265 42.2639V38.5519H195.625V42.2639H192.265ZM184.617 42.2639C184.489 42.2639 184.393 42.2212 184.329 42.1359C184.244 42.0506 184.18 41.9332 184.137 41.7839C184.073 41.6132 184.031 41.4106 184.009 41.1759C183.988 40.9412 183.977 40.6852 183.977 40.4079C183.977 40.0239 183.999 39.7039 184.041 39.4479C184.084 39.1706 184.159 38.9572 184.265 38.8079C184.351 38.6372 184.468 38.5519 184.617 38.5519V42.2639ZM184.617 42.2639V38.5519H190.473L187.977 40.6319V26.1999H192.265V42.2639H184.617ZM195.625 42.2639V38.5519C195.753 38.5519 195.86 38.5946 195.945 38.6799C196.031 38.7652 196.095 38.8932 196.137 39.0639C196.18 39.2346 196.212 39.4372 196.233 39.6719C196.255 39.8852 196.265 40.1306 196.265 40.4079C196.265 40.6852 196.255 40.9412 196.233 41.1759C196.212 41.4106 196.18 41.6132 196.137 41.7839C196.095 41.9332 196.031 42.0506 195.945 42.1359C195.86 42.2212 195.753 42.2639 195.625 42.2639ZM187.977 49.0799V45.4319H192.265V49.0799H187.977ZM203.521 42.2639V38.5519H206.881V42.2639H203.521ZM195.617 42.2639C195.489 42.2639 195.393 42.2212 195.329 42.1359C195.244 42.0506 195.18 41.9332 195.137 41.7839C195.073 41.6132 195.031 41.4106 195.009 41.1759C194.988 40.9412 194.977 40.6852 194.977 40.4079C194.977 40.0239 194.999 39.7039 195.041 39.4479C195.084 39.1706 195.159 38.9572 195.265 38.8079C195.351 38.6372 195.468 38.5519 195.617 38.5519V42.2639ZM199.233 42.2639V19.6399H203.521V42.2639H199.233ZM195.617 42.2639V38.5519H199.233V42.2639H195.617ZM206.881 42.2639V38.5519C207.009 38.5519 207.116 38.5946 207.201 38.6799C207.287 38.7652 207.351 38.8932 207.393 39.0639C207.436 39.2346 207.468 39.4372 207.489 39.6719C207.511 39.8852 207.521 40.1306 207.521 40.4079C207.521 40.6852 207.511 40.9412 207.489 41.1759C207.468 41.4106 207.436 41.6132 207.393 41.7839C207.351 41.9332 207.287 42.0506 207.201 42.1359C207.116 42.2212 207.009 42.2639 206.881 42.2639ZM206.867 42.2639V38.5519H229.203L225.587 41.6879V34.9679C225.587 33.7519 225.427 32.7812 225.107 32.0559C224.787 31.3092 224.318 30.7652 223.699 30.4239C223.102 30.0826 222.377 29.9119 221.523 29.9119C220.606 29.9119 219.742 30.0932 218.931 30.4559C218.121 30.8186 217.353 31.2879 216.627 31.8639C215.923 32.4399 215.273 33.0586 214.675 33.7199C214.078 34.3812 213.545 35.0212 213.075 35.6399C212.606 36.2372 212.201 36.7492 211.859 37.1759L210.899 34.0719C211.774 32.9626 212.585 31.9279 213.331 30.9679C214.099 30.0079 214.899 29.1759 215.731 28.4719C216.563 27.7466 217.481 27.1919 218.483 26.8079C219.486 26.4026 220.649 26.1999 221.971 26.1999C223.401 26.1999 224.606 26.4452 225.587 26.9359C226.59 27.4052 227.411 28.0559 228.051 28.8879C228.691 29.7199 229.15 30.6586 229.427 31.7039C229.705 32.7492 229.843 33.8372 229.843 34.9679V42.2639H206.867ZM209.075 38.5519V19.6399H213.331V38.5519H209.075ZM206.867 42.2639C206.739 42.2639 206.643 42.2212 206.579 42.1359C206.494 42.0506 206.43 41.9332 206.387 41.7839C206.323 41.6132 206.281 41.4106 206.259 41.1759C206.238 40.9412 206.227 40.6852 206.227 40.4079C206.227 40.0239 206.249 39.7039 206.291 39.4479C206.334 39.1706 206.409 38.9572 206.515 38.8079C206.601 38.6372 206.718 38.5519 206.867 38.5519V42.2639ZM249.999 50.1999C248.143 50.1999 246.479 49.8586 245.007 49.1759C243.556 48.5146 242.415 47.5866 241.583 46.3919C240.751 45.1972 240.335 43.8426 240.335 42.3279C240.335 41.9012 240.367 41.3359 240.431 40.6319C240.495 39.9279 240.58 39.1386 240.687 38.2639C240.815 37.3892 240.943 36.5039 241.071 35.6079C241.22 34.6906 241.359 33.8052 241.487 32.9519L245.711 33.5279C245.476 34.9572 245.273 36.2692 245.103 37.4639C244.953 38.6372 244.836 39.6399 244.751 40.4719C244.665 41.3039 244.623 41.9119 244.623 42.2959C244.623 43.1492 244.836 43.8852 245.263 44.5039C245.689 45.1226 246.297 45.6026 247.087 45.9439C247.897 46.3066 248.868 46.4879 249.999 46.4879C251.172 46.4879 252.121 46.3172 252.847 45.9759C253.572 45.6346 254.095 45.1652 254.415 44.5679C254.756 43.9706 254.927 43.2986 254.927 42.5519V19.6399H259.215V42.5519C259.215 44.0879 258.809 45.4319 257.999 46.5839C257.209 47.7359 256.121 48.6212 254.735 49.2399C253.348 49.8799 251.769 50.1999 249.999 50.1999ZM268.566 42.2639V38.5519H272.214V42.2639H268.566ZM264.31 42.2639V19.6399H268.566V42.2639H264.31ZM272.214 42.2639V38.5519C272.342 38.5519 272.438 38.5946 272.502 38.6799C272.587 38.7652 272.651 38.8932 272.694 39.0639C272.758 39.2346 272.8 39.4372 272.822 39.6719C272.843 39.8852 272.854 40.1306 272.854 40.4079C272.854 40.6852 272.843 40.9412 272.822 41.1759C272.8 41.4106 272.758 41.6132 272.694 41.7839C272.651 41.9332 272.587 42.0506 272.502 42.1359C272.438 42.2212 272.342 42.2639 272.214 42.2639ZM291.027 42.2639C290.152 42.2639 289.278 42.1039 288.403 41.7839C287.55 41.4426 286.76 40.9412 286.035 40.2799L288.659 37.5599C289.086 37.9012 289.48 38.1572 289.843 38.3279C290.227 38.4772 290.622 38.5519 291.027 38.5519H297.011L294.803 40.5679V33.4639C294.803 33.1226 294.76 32.6106 294.675 31.9279C294.611 31.2239 294.504 30.4346 294.355 29.5599C294.227 28.6639 294.067 27.7572 293.875 26.8399L298.099 26.1999C298.248 26.9679 298.387 27.8319 298.515 28.7919C298.664 29.7306 298.792 30.6266 298.899 31.4799C299.006 32.3119 299.059 32.9732 299.059 33.4639V42.2639H291.027ZM272.211 42.2639V38.5519H276.883L275.923 39.5439V29.4639H280.211V42.2639H272.211ZM280.211 42.2639V38.5519H282.803C283.486 38.5519 284.008 38.4559 284.371 38.2639C284.734 38.0506 284.979 37.6346 285.107 37.0159C285.256 36.3759 285.331 35.4266 285.331 34.1679V27.8639H289.619V34.1679C289.619 36.0666 289.374 37.6132 288.883 38.8079C288.414 40.0026 287.678 40.8772 286.675 41.4319C285.672 41.9866 284.382 42.2639 282.803 42.2639H280.211ZM272.211 42.2639C272.083 42.2639 271.987 42.2212 271.923 42.1359C271.838 42.0506 271.774 41.9332 271.731 41.7839C271.667 41.6132 271.624 41.4106 271.603 41.1759C271.582 40.9412 271.571 40.6852 271.571 40.4079C271.571 40.0239 271.592 39.7039 271.635 39.4479C271.678 39.1706 271.752 38.9572 271.859 38.8079C271.944 38.6372 272.062 38.5519 272.211 38.5519V42.2639ZM302.521 50.1999C302.243 50.1999 301.945 50.1892 301.625 50.1679C301.305 50.1466 300.974 50.1146 300.633 50.0719L300.793 46.4239C301.134 46.4452 301.454 46.4666 301.753 46.4879C302.073 46.5092 302.307 46.5199 302.457 46.5199C303.289 46.5199 303.95 46.1892 304.441 45.5279C304.953 44.8666 305.209 43.9386 305.209 42.7439V26.1999H309.497V42.7439C309.497 44.1946 309.198 45.4852 308.601 46.6159C308.025 47.7466 307.214 48.6212 306.169 49.2399C305.123 49.8799 303.907 50.1999 302.521 50.1999ZM314.528 42.2639V19.6399H318.784V42.2639H314.528ZM314.72 51.8319C314.315 51.3413 314.006 50.8719 313.792 50.4239C313.579 49.9759 313.472 49.4959 313.472 48.9839C313.472 48.2586 313.664 47.5972 314.048 46.9999C314.432 46.4239 314.934 45.9652 315.552 45.6239C316.171 45.3039 316.854 45.1439 317.6 45.1439C318.006 45.1439 318.422 45.1972 318.848 45.3039C319.275 45.4106 319.638 45.5706 319.936 45.7839L318.848 47.7359C318.656 47.6292 318.464 47.5546 318.272 47.5119C318.102 47.4906 317.92 47.4799 317.728 47.4799C317.216 47.4799 316.822 47.6079 316.544 47.8639C316.267 48.1412 316.128 48.5039 316.128 48.9519C316.128 49.2079 316.182 49.4532 316.288 49.6879C316.395 49.9226 316.555 50.1786 316.768 50.4559L314.72 51.8319ZM312.768 52.0879V49.7519H320.512V52.0879H312.768ZM347.688 42.2639V38.5519H351.08V42.2639H347.688ZM330.696 52.8879C330.504 51.7359 330.323 50.6159 330.152 49.5279C330.003 48.4399 329.928 47.4799 329.928 46.6479C329.928 44.9839 330.248 43.5439 330.888 42.3279C331.528 41.1332 332.435 40.2052 333.608 39.5439C334.782 38.8826 336.168 38.5519 337.768 38.5519C338.088 38.5519 338.483 38.5519 338.952 38.5519C339.443 38.5519 340.008 38.5519 340.648 38.5519C341.288 38.5519 342.003 38.5519 342.792 38.5519C343.582 38.5519 344.446 38.5519 345.384 38.5519L343.432 40.4079V34.3599C343.432 33.2506 343.304 32.3759 343.048 31.7359C342.814 31.0746 342.376 30.6052 341.736 30.3279C341.118 30.0506 340.211 29.9119 339.016 29.9119C338.206 29.9119 337.374 29.9759 336.52 30.1039C335.688 30.2106 335.027 30.3599 334.536 30.5519L337.224 28.0559C337.075 28.5679 336.936 29.2079 336.808 29.9759C336.702 30.7439 336.616 31.5439 336.552 32.3759C336.488 33.1866 336.456 33.9546 336.456 34.6799C336.456 35.4692 336.488 36.2692 336.552 37.0799C336.616 37.8692 336.691 38.5732 336.776 39.1919C336.883 39.8106 336.968 40.2372 337.032 40.4719L332.968 41.5919C332.862 41.2932 332.744 40.8026 332.616 40.1199C332.51 39.4372 332.403 38.6372 332.296 37.7199C332.211 36.7812 332.168 35.7892 332.168 34.7439C332.168 33.6986 332.211 32.6852 332.296 31.7039C332.403 30.7012 332.531 29.8052 332.68 29.0159C332.83 28.2052 332.968 27.5546 333.096 27.0639C333.651 26.8506 334.472 26.6586 335.56 26.4879C336.648 26.2959 337.822 26.1999 339.08 26.1999C340.467 26.1999 341.651 26.3386 342.632 26.6159C343.635 26.8719 344.456 27.2452 345.096 27.7359C345.758 28.2266 346.28 28.8132 346.664 29.4959C347.048 30.1572 347.315 30.9039 347.464 31.7359C347.614 32.5679 347.688 33.4532 347.688 34.3919V42.2639C346.75 42.2639 345.768 42.2639 344.744 42.2639C343.742 42.2639 342.76 42.2639 341.8 42.2639C340.862 42.2639 340.03 42.2639 339.304 42.2639C338.6 42.2639 338.088 42.2639 337.768 42.2639C337.427 42.2639 337.054 42.3066 336.648 42.3919C336.243 42.4986 335.848 42.6906 335.464 42.9679C335.102 43.2666 334.803 43.7039 334.568 44.2799C334.334 44.8772 334.216 45.6666 334.216 46.6479C334.216 47.4159 334.28 48.3119 334.408 49.3359C334.558 50.3599 334.728 51.5439 334.92 52.8879H330.696ZM351.08 42.2639V38.5519C351.187 38.5519 351.283 38.5946 351.368 38.6799C351.454 38.7652 351.518 38.8932 351.56 39.0639C351.603 39.2346 351.635 39.4372 351.656 39.6719C351.699 39.8852 351.72 40.1306 351.72 40.4079C351.72 40.6852 351.699 40.9412 351.656 41.1759C351.635 41.4106 351.603 41.6132 351.56 41.7839C351.518 41.9332 351.454 42.0506 351.368 42.1359C351.283 42.2212 351.187 42.2639 351.08 42.2639ZM351.086 42.2639V38.5519H358.67L356.174 40.6319V26.1999H360.43V42.2639H351.086ZM351.086 42.2639C350.958 42.2639 350.862 42.2212 350.798 42.1359C350.713 42.0506 350.649 41.9332 350.606 41.7839C350.542 41.6132 350.499 41.4106 350.478 41.1759C350.457 40.9412 350.446 40.6852 350.446 40.4079C350.446 40.0239 350.467 39.7039 350.51 39.4479C350.553 39.1706 350.627 38.9572 350.734 38.8079C350.819 38.6372 350.937 38.5519 351.086 38.5519V42.2639ZM353.358 23.2559V19.6079H357.486V23.2559H353.358ZM359.182 23.2559V19.6079H363.31V23.2559H359.182Z" fill="#53B175"/>
<path d="M60.5035 459.264V456.48H63.0235V459.264H60.5035ZM50.7115 459.264C48.9995 459.264 47.5515 459.04 46.3675 458.592C45.1995 458.144 44.3115 457.48 43.7035 456.6C43.1115 455.72 42.8155 454.624 42.8155 453.312C42.8155 452.928 42.8395 452.528 42.8875 452.112C42.9355 451.68 42.9915 451.272 43.0555 450.888C43.1355 450.488 43.2075 450.136 43.2715 449.832C43.3355 449.528 43.3835 449.304 43.4155 449.16L46.5355 449.76C46.4875 450.016 46.4235 450.344 46.3435 450.744C46.2635 451.144 46.1915 451.568 46.1275 452.016C46.0635 452.448 46.0315 452.864 46.0315 453.264C46.0315 453.888 46.1275 454.408 46.3195 454.824C46.5275 455.24 46.8315 455.576 47.2315 455.832C47.6315 456.072 48.1355 456.24 48.7435 456.336C49.3515 456.432 50.0635 456.48 50.8795 456.48H57.2875V447.216H60.5035V459.264H50.7115ZM63.0235 459.264V456.48C63.1195 456.48 63.1915 456.512 63.2395 456.576C63.3035 456.64 63.3515 456.736 63.3835 456.864C63.4315 456.992 63.4635 457.144 63.4795 457.32C63.4955 457.48 63.5035 457.664 63.5035 457.872C63.5035 458.08 63.4955 458.272 63.4795 458.448C63.4635 458.624 63.4315 458.776 63.3835 458.904C63.3515 459.016 63.3035 459.104 63.2395 459.168C63.1915 459.232 63.1195 459.264 63.0235 459.264ZM47.9515 446.712V443.976H51.0475V446.712H47.9515ZM52.3195 446.712V443.976H55.4155V446.712H52.3195ZM63.0195 459.264V456.48H74.2275L73.2435 457.32V449.304L74.0595 450H71.0355C70.3315 450 69.7795 450.088 69.3795 450.264C68.9795 450.44 68.6995 450.768 68.5395 451.248C68.3795 451.712 68.2995 452.376 68.2995 453.24C68.2995 454.184 68.3795 454.888 68.5395 455.352C68.6995 455.8 68.9795 456.104 69.3795 456.264C69.7795 456.408 70.3315 456.48 71.0355 456.48V458.976C69.6755 458.976 68.5555 458.784 67.6755 458.4C66.7955 458.016 66.1395 457.408 65.7075 456.576C65.2915 455.728 65.0835 454.616 65.0835 453.24C65.0835 451.928 65.2915 450.824 65.7075 449.928C66.1395 449.032 66.7955 448.36 67.6755 447.912C68.5555 447.448 69.6755 447.216 71.0355 447.216H76.4595V459.264H63.0195ZM63.0195 459.264C62.9235 459.264 62.8515 459.232 62.8035 459.168C62.7395 459.104 62.6915 459.016 62.6595 458.904C62.6115 458.776 62.5795 458.624 62.5635 458.448C62.5475 458.272 62.5395 458.08 62.5395 457.872C62.5395 457.584 62.5555 457.344 62.5875 457.152C62.6195 456.944 62.6755 456.784 62.7555 456.672C62.8195 456.544 62.9075 456.48 63.0195 456.48V459.264ZM67.6515 445.008V442.272H70.7475V445.008H67.6515ZM72.0195 445.008V442.272H75.1155V445.008H72.0195ZM83.9927 465.216C83.4007 465.216 82.7767 465.168 82.1207 465.072C81.4807 464.992 80.7927 464.88 80.0567 464.736L80.5367 462.168C81.3367 462.264 82.0167 462.336 82.5767 462.384C83.1367 462.432 83.6087 462.456 83.9927 462.456C85.1447 462.456 85.9767 462.248 86.4887 461.832C87.0007 461.416 87.2567 460.792 87.2567 459.96V449.424L88.0487 450H85.0487C84.3927 450 83.8647 450.08 83.4647 450.24C83.0647 450.384 82.7687 450.696 82.5767 451.176C82.4007 451.64 82.3127 452.352 82.3127 453.312C82.3127 454.224 82.3927 454.912 82.5527 455.376C82.7287 455.824 83.0167 456.12 83.4167 456.264C83.8167 456.408 84.3607 456.48 85.0487 456.48H87.2567V459.264H85.0487C83.6887 459.264 82.5687 459.048 81.6887 458.616C80.8087 458.184 80.1527 457.528 79.7207 456.648C79.3047 455.768 79.0967 454.656 79.0967 453.312C79.0967 451.968 79.3047 450.848 79.7207 449.952C80.1527 449.04 80.8087 448.36 81.6887 447.912C82.5687 447.448 83.6887 447.216 85.0487 447.216H90.4727V459.96C90.4727 461.048 90.2007 461.984 89.6567 462.768C89.1287 463.568 88.3767 464.176 87.4007 464.592C86.4407 465.008 85.3047 465.216 83.9927 465.216ZM106.211 459.264C104.499 459.264 103.051 459.04 101.867 458.592C100.699 458.144 99.8115 457.48 99.2035 456.6C98.6115 455.72 98.3155 454.624 98.3155 453.312C98.3155 452.928 98.3395 452.528 98.3875 452.112C98.4355 451.68 98.4915 451.272 98.5555 450.888C98.6355 450.488 98.7075 450.136 98.7715 449.832C98.8355 449.528 98.8835 449.304 98.9155 449.16L102.035 449.76C101.987 450.016 101.923 450.344 101.843 450.744C101.763 451.144 101.691 451.568 101.627 452.016C101.563 452.448 101.531 452.864 101.531 453.264C101.531 453.888 101.627 454.408 101.819 454.824C102.027 455.24 102.331 455.576 102.731 455.832C103.131 456.072 103.635 456.24 104.243 456.336C104.851 456.432 105.563 456.48 106.379 456.48H112.787V447.216H116.003V459.264H106.211ZM105.731 464.376V461.64H108.947V464.376H105.731ZM123.033 459.264V456.48H126.129V459.264H123.033ZM118.377 465.216C118.169 465.216 117.945 465.208 117.705 465.192C117.465 465.176 117.217 465.152 116.961 465.12L117.081 462.384C117.337 462.4 117.577 462.416 117.801 462.432C118.041 462.448 118.217 462.456 118.329 462.456C118.953 462.456 119.449 462.208 119.817 461.712C120.201 461.216 120.393 460.52 120.393 459.624V447.216H123.609V459.624C123.609 460.712 123.385 461.68 122.937 462.528C122.505 463.376 121.897 464.032 121.113 464.496C120.329 464.976 119.417 465.216 118.377 465.216ZM126.129 459.264V456.48C126.225 456.48 126.297 456.512 126.345 456.576C126.409 456.64 126.457 456.736 126.489 456.864C126.537 456.992 126.569 457.144 126.585 457.32C126.601 457.48 126.609 457.664 126.609 457.872C126.609 458.08 126.601 458.272 126.585 458.448C126.569 458.624 126.537 458.776 126.489 458.904C126.457 459.016 126.409 459.104 126.345 459.168C126.297 459.232 126.225 459.264 126.129 459.264ZM126.137 459.264V456.48H137.345L136.361 457.32V449.304L137.177 450H134.153C133.449 450 132.897 450.088 132.497 450.264C132.097 450.44 131.817 450.768 131.657 451.248C131.497 451.712 131.417 452.376 131.417 453.24C131.417 454.184 131.497 454.888 131.657 455.352C131.817 455.8 132.097 456.104 132.497 456.264C132.897 456.408 133.449 456.48 134.153 456.48V458.976C132.793 458.976 131.673 458.784 130.793 458.4C129.913 458.016 129.257 457.408 128.825 456.576C128.409 455.728 128.201 454.616 128.201 453.24C128.201 451.928 128.409 450.824 128.825 449.928C129.257 449.032 129.913 448.36 130.793 447.912C131.673 447.448 132.793 447.216 134.153 447.216H139.577V459.264H126.137ZM126.137 459.264C126.041 459.264 125.969 459.232 125.921 459.168C125.857 459.104 125.809 459.016 125.777 458.904C125.729 458.776 125.697 458.624 125.681 458.448C125.665 458.272 125.657 458.08 125.657 457.872C125.657 457.584 125.673 457.344 125.705 457.152C125.737 456.944 125.793 456.784 125.873 456.672C125.937 456.544 126.025 456.48 126.137 456.48V459.264ZM130.769 445.008V442.272H133.865V445.008H130.769ZM135.137 445.008V442.272H138.233V445.008H135.137ZM143.414 459.264V442.296H146.606V459.264H143.414ZM143.558 440.376C143.254 440.008 143.022 439.656 142.862 439.32C142.702 438.984 142.622 438.624 142.622 438.24C142.622 437.696 142.766 437.208 143.054 436.776C143.342 436.328 143.718 435.984 144.182 435.744C144.646 435.488 145.158 435.36 145.718 435.36C146.022 435.36 146.334 435.4 146.654 435.48C146.974 435.56 147.246 435.68 147.47 435.84L146.654 437.304C146.51 437.224 146.366 437.176 146.222 437.16C146.094 437.128 145.958 437.112 145.814 437.112C145.43 437.112 145.134 437.216 144.926 437.424C144.718 437.616 144.614 437.88 144.614 438.216C144.614 438.408 144.654 438.592 144.734 438.768C144.814 438.944 144.934 439.136 145.094 439.344L143.558 440.376ZM142.094 440.568V438.816H147.902V440.568H142.094ZM162.284 465.216C161.244 465.216 160.276 465.064 159.38 464.76C158.5 464.472 157.732 464.064 157.076 463.536C156.42 463.024 155.9 462.408 155.516 461.688C155.148 460.984 154.964 460.216 154.964 459.384C154.964 459.08 154.988 458.688 155.036 458.208C155.084 457.728 155.148 457.176 155.228 456.552C155.324 455.928 155.428 455.264 155.54 454.56L158.708 454.992C158.548 456 158.42 456.896 158.324 457.68C158.228 458.464 158.18 459.016 158.18 459.336C158.18 459.944 158.348 460.48 158.684 460.944C159.02 461.408 159.492 461.768 160.1 462.024C160.724 462.296 161.452 462.432 162.284 462.432H169.076C170.116 462.432 170.892 462.168 171.404 461.64C171.916 461.112 172.172 460.344 172.172 459.336V458.424H175.364V459.336C175.364 460.488 175.108 461.504 174.596 462.384C174.084 463.264 173.356 463.952 172.412 464.448C171.484 464.96 170.372 465.216 169.076 465.216H162.284ZM171.116 459.264C170.38 459.264 169.668 459.184 168.98 459.024C168.308 458.864 167.668 458.576 167.06 458.16L168.884 455.856C169.14 456.032 169.364 456.168 169.556 456.264C169.764 456.344 169.988 456.4 170.228 456.432C170.484 456.464 170.78 456.48 171.116 456.48H176.42V459.264H171.116ZM176.42 459.264V456.48C176.5 456.48 176.572 456.512 176.636 456.576C176.7 456.64 176.748 456.736 176.78 456.864C176.812 456.992 176.836 457.144 176.852 457.32C176.884 457.48 176.9 457.664 176.9 457.872C176.9 458.08 176.884 458.272 176.852 458.448C176.836 458.624 176.812 458.776 176.78 458.904C176.748 459.016 176.7 459.104 176.636 459.168C176.572 459.232 176.5 459.264 176.42 459.264ZM161.468 470.16V467.424H164.564V470.16H161.468ZM165.836 470.16V467.424H168.932V470.16H165.836ZM171.066 459.264V456.48H182.274L181.29 457.32V449.304L182.106 450H179.082C178.378 450 177.826 450.088 177.426 450.264C177.026 450.44 176.746 450.768 176.586 451.248C176.426 451.712 176.346 452.376 176.346 453.24C176.346 454.184 176.426 454.888 176.586 455.352C176.746 455.8 177.026 456.104 177.426 456.264C177.826 456.408 178.378 456.48 179.082 456.48V458.976C177.722 458.976 176.602 458.784 175.722 458.4C174.842 458.016 174.186 457.408 173.754 456.576C173.338 455.728 173.13 454.616 173.13 453.24C173.13 451.928 173.338 450.824 173.754 449.928C174.186 449.032 174.842 448.36 175.722 447.912C176.602 447.448 177.722 447.216 179.082 447.216H184.506V459.264H171.066ZM171.066 459.264C170.97 459.264 170.898 459.232 170.85 459.168C170.786 459.104 170.738 459.016 170.706 458.904C170.658 458.776 170.626 458.624 170.61 458.448C170.594 458.272 170.586 458.08 170.586 457.872C170.586 457.584 170.602 457.344 170.634 457.152C170.666 456.944 170.722 456.784 170.802 456.672C170.866 456.544 170.954 456.48 171.066 456.48V459.264ZM177.81 445.008V442.272H181.026V445.008H177.81ZM210.058 459.264V456.48H212.578V459.264H210.058ZM200.266 459.264C198.554 459.264 197.106 459.04 195.922 458.592C194.754 458.144 193.866 457.48 193.258 456.6C192.666 455.72 192.37 454.624 192.37 453.312C192.37 452.928 192.394 452.528 192.442 452.112C192.49 451.68 192.546 451.272 192.61 450.888C192.69 450.488 192.762 450.136 192.826 449.832C192.89 449.528 192.938 449.304 192.97 449.16L196.09 449.76C196.042 450.016 195.978 450.344 195.898 450.744C195.818 451.144 195.746 451.568 195.682 452.016C195.618 452.448 195.586 452.864 195.586 453.264C195.586 453.888 195.682 454.408 195.874 454.824C196.082 455.24 196.386 455.576 196.786 455.832C197.186 456.072 197.69 456.24 198.298 456.336C198.906 456.432 199.618 456.48 200.434 456.48H208.714L206.842 458.04V442.296H210.058V459.264H200.266ZM212.578 459.264V456.48C212.674 456.48 212.746 456.512 212.794 456.576C212.858 456.64 212.906 456.736 212.938 456.864C212.986 456.992 213.018 457.144 213.034 457.32C213.05 457.48 213.058 457.664 213.058 457.872C213.058 458.08 213.05 458.272 213.034 458.448C213.018 458.624 212.986 458.776 212.938 458.904C212.906 459.016 212.858 459.104 212.794 459.168C212.746 459.232 212.674 459.264 212.578 459.264ZM199.762 450.216C199.458 449.848 199.226 449.496 199.066 449.16C198.906 448.824 198.826 448.464 198.826 448.08C198.826 447.536 198.97 447.048 199.258 446.616C199.546 446.168 199.922 445.824 200.386 445.584C200.85 445.328 201.362 445.2 201.922 445.2C202.226 445.2 202.538 445.24 202.858 445.32C203.178 445.4 203.45 445.52 203.674 445.68L202.858 447.144C202.714 447.064 202.57 447.016 202.426 447C202.298 446.968 202.162 446.952 202.018 446.952C201.634 446.952 201.338 447.056 201.13 447.264C200.922 447.456 200.818 447.72 200.818 448.056C200.818 448.248 200.858 448.432 200.938 448.608C201.018 448.784 201.138 448.976 201.298 449.184L199.762 450.216ZM198.298 450.408V448.656H204.106V450.408H198.298ZM212.574 459.264V456.48H217.662C218.35 456.48 219.014 456.352 219.654 456.096C220.294 455.824 220.878 455.472 221.406 455.04C221.95 454.592 222.422 454.104 222.822 453.576C223.238 453.032 223.558 452.48 223.782 451.92C224.022 451.36 224.142 450.832 224.142 450.336V448.8L225.678 451.344C224.846 450.896 223.998 450.56 223.134 450.336C222.27 450.112 221.446 450 220.662 450C219.894 450 219.07 450.112 218.19 450.336C217.326 450.56 216.486 450.896 215.67 451.344L217.206 448.8V450.336C217.206 450.832 217.318 451.36 217.542 451.92C217.782 452.48 218.102 453.032 218.502 453.576C218.902 454.104 219.374 454.592 219.918 455.04C220.462 455.472 221.054 455.824 221.694 456.096C222.334 456.352 222.99 456.48 223.662 456.48H228.606V459.264H224.67C223.422 459.264 222.254 459.064 221.166 458.664C220.078 458.264 219.094 457.736 218.214 457.08C217.334 456.408 216.574 455.68 215.934 454.896C215.31 454.096 214.83 453.304 214.494 452.52C214.158 451.72 213.99 450.992 213.99 450.336V448.968C214.678 448.584 215.406 448.264 216.174 448.008C216.958 447.752 217.734 447.56 218.502 447.432C219.286 447.288 220.006 447.216 220.662 447.216C221.334 447.216 222.054 447.288 222.822 447.432C223.59 447.56 224.358 447.752 225.126 448.008C225.91 448.264 226.646 448.584 227.334 448.968V450.336C227.334 450.992 227.166 451.72 226.83 452.52C226.494 453.304 226.006 454.096 225.366 454.896C224.742 455.68 223.99 456.408 223.11 457.08C222.23 457.736 221.246 458.264 220.158 458.664C219.07 459.064 217.902 459.264 216.654 459.264H212.574ZM212.574 459.264C212.478 459.264 212.406 459.232 212.358 459.168C212.294 459.104 212.246 459.016 212.214 458.904C212.166 458.776 212.134 458.624 212.118 458.448C212.102 458.272 212.094 458.08 212.094 457.872C212.094 457.584 212.11 457.344 212.142 457.152C212.174 456.944 212.23 456.784 212.31 456.672C212.374 456.544 212.462 456.48 212.574 456.48V459.264ZM228.606 459.264V456.48C228.702 456.48 228.782 456.512 228.846 456.576C228.91 456.64 228.958 456.736 228.99 456.864C229.022 456.992 229.046 457.144 229.062 457.32C229.078 457.48 229.086 457.664 229.086 457.872C229.086 458.08 229.078 458.272 229.062 458.448C229.046 458.624 229.022 458.776 228.99 458.904C228.958 459.016 228.91 459.104 228.846 459.168C228.782 459.232 228.702 459.264 228.606 459.264ZM228.605 459.264V456.48H241.061L239.597 457.728V453.312C239.597 452.448 239.501 451.776 239.309 451.296C239.117 450.8 238.781 450.456 238.301 450.264C237.837 450.056 237.189 449.952 236.357 449.952C235.701 449.952 235.053 450 234.413 450.096C233.789 450.176 233.301 450.288 232.949 450.432L234.941 448.56C234.845 448.928 234.749 449.392 234.653 449.952C234.573 450.512 234.501 451.112 234.437 451.752C234.373 452.376 234.341 452.992 234.341 453.6C234.341 454.16 234.365 454.744 234.413 455.352C234.477 455.96 234.541 456.496 234.605 456.96C234.685 457.424 234.749 457.744 234.797 457.92L231.749 458.76C231.685 458.536 231.605 458.168 231.509 457.656C231.413 457.144 231.325 456.536 231.245 455.832C231.181 455.128 231.149 454.384 231.149 453.6C231.149 452.8 231.189 452.032 231.269 451.296C231.349 450.544 231.437 449.872 231.533 449.28C231.645 448.672 231.749 448.184 231.845 447.816C232.229 447.672 232.829 447.528 233.645 447.384C234.461 447.24 235.365 447.168 236.357 447.168C237.797 447.168 238.989 447.368 239.933 447.768C240.893 448.168 241.605 448.816 242.069 449.712C242.549 450.608 242.789 451.816 242.789 453.336V459.264H228.605ZM228.605 459.264C228.509 459.264 228.437 459.232 228.389 459.168C228.325 459.104 228.277 459.016 228.245 458.904C228.197 458.776 228.165 458.624 228.149 458.448C228.133 458.272 228.125 458.08 228.125 457.872C228.125 457.584 228.141 457.344 228.173 457.152C228.205 456.944 228.261 456.784 228.341 456.672C228.405 456.544 228.493 456.48 228.605 456.48V459.264ZM264.819 459.264V456.48H267.339V459.264H264.819ZM257.907 465.216C256.515 465.216 255.267 464.96 254.163 464.448C253.075 463.952 252.219 463.256 251.595 462.36C250.971 461.464 250.659 460.448 250.659 459.312C250.659 458.992 250.683 458.568 250.731 458.04C250.779 457.512 250.843 456.92 250.923 456.264C251.019 455.608 251.115 454.944 251.211 454.272C251.323 453.584 251.427 452.92 251.523 452.28L254.691 452.712C254.515 453.784 254.363 454.768 254.235 455.664C254.123 456.544 254.035 457.296 253.971 457.92C253.907 458.544 253.875 459 253.875 459.288C253.875 459.928 254.035 460.48 254.355 460.944C254.675 461.408 255.131 461.768 255.723 462.024C256.331 462.296 257.059 462.432 257.907 462.432C258.787 462.432 259.499 462.304 260.043 462.048C260.587 461.792 260.979 461.44 261.219 460.992C261.475 460.544 261.603 460.04 261.603 459.48V442.296H264.819V459.48C264.819 460.632 264.515 461.64 263.907 462.504C263.315 463.368 262.499 464.032 261.459 464.496C260.419 464.976 259.235 465.216 257.907 465.216ZM267.339 459.264V456.48C267.435 456.48 267.507 456.512 267.555 456.576C267.619 456.64 267.667 456.736 267.699 456.864C267.747 456.992 267.779 457.144 267.795 457.32C267.811 457.48 267.819 457.664 267.819 457.872C267.819 458.08 267.811 458.272 267.795 458.448C267.779 458.624 267.747 458.776 267.699 458.904C267.667 459.016 267.619 459.104 267.555 459.168C267.507 459.232 267.435 459.264 267.339 459.264ZM267.348 459.264V456.48H285.492L282.78 458.832V453.792C282.78 452.88 282.66 452.152 282.42 451.608C282.18 451.048 281.828 450.64 281.364 450.384C280.916 450.128 280.372 450 279.732 450C279.044 450 278.388 450.136 277.764 450.408C277.156 450.68 276.588 451.032 276.06 451.464C275.532 451.896 275.044 452.36 274.596 452.856C274.148 453.352 273.748 453.832 273.396 454.296C273.044 454.744 272.74 455.128 272.484 455.448L271.764 453.12C272.388 452.368 272.948 451.68 273.444 451.056C273.94 450.432 274.412 449.88 274.86 449.4C275.324 448.92 275.804 448.52 276.3 448.2C276.812 447.88 277.364 447.64 277.956 447.48C278.564 447.304 279.268 447.216 280.068 447.216C281.14 447.216 282.052 447.4 282.804 447.768C283.556 448.12 284.164 448.608 284.628 449.232C285.108 449.856 285.452 450.56 285.66 451.344C285.884 452.128 285.996 452.944 285.996 453.792V459.264H267.348ZM270.372 456.48V447.216H273.588V456.48H270.372ZM267.348 459.264C267.252 459.264 267.18 459.232 267.132 459.168C267.068 459.104 267.02 459.016 266.988 458.904C266.94 458.776 266.908 458.624 266.892 458.448C266.876 458.272 266.868 458.08 266.868 457.872C266.868 457.584 266.884 457.344 266.916 457.152C266.948 456.944 267.004 456.784 267.084 456.672C267.148 456.544 267.236 456.48 267.348 456.48V459.264ZM289.805 459.264V442.296H292.997V459.264H289.805ZM307.504 459.264V456.48H310.024V459.264H307.504ZM301.024 465.216C300.432 465.216 299.808 465.168 299.152 465.072C298.512 464.992 297.824 464.88 297.088 464.736L297.568 462.168C298.368 462.264 299.048 462.336 299.608 462.384C300.168 462.432 300.64 462.456 301.024 462.456C302.176 462.456 303.008 462.248 303.52 461.832C304.032 461.416 304.288 460.792 304.288 459.96V449.424L305.08 450H302.08C301.424 450 300.896 450.08 300.496 450.24C300.096 450.384 299.8 450.696 299.608 451.176C299.432 451.64 299.344 452.352 299.344 453.312C299.344 454.224 299.424 454.912 299.584 455.376C299.76 455.824 300.048 456.12 300.448 456.264C300.848 456.408 301.392 456.48 302.08 456.48H304.288V459.264H302.08C300.72 459.264 299.6 459.048 298.72 458.616C297.84 458.184 297.184 457.528 296.752 456.648C296.336 455.768 296.128 454.656 296.128 453.312C296.128 451.968 296.336 450.848 296.752 449.952C297.184 449.04 297.84 448.36 298.72 447.912C299.6 447.448 300.72 447.216 302.08 447.216H307.504V459.96C307.504 461.048 307.232 461.984 306.688 462.768C306.16 463.568 305.408 464.176 304.432 464.592C303.472 465.008 302.336 465.216 301.024 465.216ZM310.024 459.264V456.48C310.12 456.48 310.192 456.512 310.24 456.576C310.304 456.64 310.352 456.736 310.384 456.864C310.432 456.992 310.464 457.144 310.48 457.32C310.496 457.48 310.504 457.664 310.504 457.872C310.504 458.08 310.496 458.272 310.48 458.448C310.464 458.624 310.432 458.776 310.384 458.904C310.352 459.016 310.304 459.104 310.24 459.168C310.192 459.232 310.12 459.264 310.024 459.264ZM317.035 459.264V456.48H320.035V459.264H317.035ZM320.035 459.264V456.48C320.115 456.48 320.187 456.512 320.251 456.576C320.315 456.64 320.363 456.736 320.395 456.864C320.427 456.992 320.451 457.144 320.467 457.32C320.499 457.48 320.515 457.664 320.515 457.872C320.515 458.08 320.499 458.272 320.467 458.448C320.451 458.624 320.427 458.776 320.395 458.904C320.363 459.016 320.315 459.104 320.251 459.168C320.203 459.232 320.131 459.264 320.035 459.264ZM310.027 459.264C309.931 459.264 309.859 459.232 309.811 459.168C309.747 459.104 309.699 459.016 309.667 458.904C309.619 458.776 309.587 458.624 309.571 458.448C309.555 458.272 309.547 458.08 309.547 457.872C309.547 457.584 309.563 457.344 309.595 457.152C309.627 456.944 309.683 456.784 309.763 456.672C309.827 456.544 309.915 456.48 310.027 456.48V459.264ZM310.027 459.264V456.48H315.715L313.843 458.04V447.216H317.035V459.264H310.027ZM311.731 445.008V442.272H314.827V445.008H311.731ZM316.099 445.008V442.272H319.195V445.008H316.099ZM322.747 459.264V442.296H325.963V459.264H322.747ZM320.035 459.264V456.48H322.747V459.264H320.035ZM320.035 459.264C319.939 459.264 319.867 459.232 319.819 459.168C319.755 459.104 319.707 459.016 319.675 458.904C319.627 458.776 319.595 458.624 319.579 458.448C319.563 458.272 319.555 458.08 319.555 457.872C319.555 457.584 319.571 457.344 319.603 457.152C319.635 456.944 319.691 456.784 319.771 456.672C319.835 456.544 319.923 456.48 320.035 456.48V459.264ZM329.812 459.264V442.296H333.004V459.264H329.812ZM354.682 459.264V456.48H357.226V459.264H354.682ZM341.938 467.232C341.794 466.368 341.658 465.528 341.53 464.712C341.418 463.896 341.362 463.176 341.362 462.552C341.362 461.304 341.602 460.224 342.082 459.312C342.562 458.416 343.242 457.72 344.122 457.224C345.002 456.728 346.042 456.48 347.242 456.48C347.482 456.48 347.778 456.48 348.13 456.48C348.498 456.48 348.922 456.48 349.402 456.48C349.882 456.48 350.418 456.48 351.01 456.48C351.602 456.48 352.25 456.48 352.954 456.48L351.49 457.872V453.336C351.49 452.504 351.394 451.848 351.202 451.368C351.026 450.872 350.698 450.52 350.218 450.312C349.754 450.104 349.074 450 348.178 450C347.57 450 346.946 450.048 346.306 450.144C345.682 450.224 345.186 450.336 344.818 450.48L346.834 448.608C346.722 448.992 346.618 449.472 346.522 450.048C346.442 450.624 346.378 451.224 346.33 451.848C346.282 452.456 346.258 453.032 346.258 453.576C346.258 454.168 346.282 454.768 346.33 455.376C346.378 455.968 346.434 456.496 346.498 456.96C346.578 457.424 346.642 457.744 346.69 457.92L343.642 458.76C343.562 458.536 343.474 458.168 343.378 457.656C343.298 457.144 343.218 456.544 343.138 455.856C343.074 455.152 343.042 454.408 343.042 453.624C343.042 452.84 343.074 452.08 343.138 451.344C343.218 450.592 343.314 449.92 343.426 449.328C343.538 448.72 343.642 448.232 343.738 447.864C344.154 447.704 344.77 447.56 345.586 447.432C346.402 447.288 347.282 447.216 348.226 447.216C349.266 447.216 350.154 447.32 350.89 447.528C351.642 447.72 352.258 448 352.738 448.368C353.234 448.736 353.626 449.176 353.914 449.688C354.202 450.184 354.402 450.744 354.514 451.368C354.626 451.992 354.682 452.656 354.682 453.36V459.264C353.978 459.264 353.242 459.264 352.474 459.264C351.722 459.264 350.986 459.264 350.266 459.264C349.562 459.264 348.938 459.264 348.394 459.264C347.866 459.264 347.482 459.264 347.242 459.264C346.986 459.264 346.706 459.296 346.402 459.36C346.098 459.44 345.802 459.584 345.514 459.792C345.242 460.016 345.018 460.344 344.842 460.776C344.666 461.224 344.578 461.816 344.578 462.552C344.578 463.128 344.626 463.8 344.722 464.568C344.834 465.336 344.962 466.224 345.106 467.232H341.938ZM357.226 459.264V456.48C357.306 456.48 357.378 456.512 357.442 456.576C357.506 456.64 357.554 456.736 357.586 456.864C357.618 456.992 357.642 457.144 357.658 457.32C357.69 457.48 357.706 457.664 357.706 457.872C357.706 458.08 357.69 458.272 357.658 458.448C357.642 458.624 357.618 458.776 357.586 458.904C357.554 459.016 357.506 459.104 357.442 459.168C357.378 459.232 357.306 459.264 357.226 459.264ZM364.238 459.264V456.48H367.238V459.264H364.238ZM367.238 459.264V456.48C367.318 456.48 367.39 456.512 367.454 456.576C367.518 456.64 367.566 456.736 367.598 456.864C367.63 456.992 367.654 457.144 367.67 457.32C367.702 457.48 367.718 457.664 367.718 457.872C367.718 458.08 367.702 458.272 367.67 458.448C367.654 458.624 367.63 458.776 367.598 458.904C367.566 459.016 367.518 459.104 367.454 459.168C367.406 459.232 367.334 459.264 367.238 459.264ZM357.23 459.264C357.134 459.264 357.062 459.232 357.014 459.168C356.95 459.104 356.902 459.016 356.87 458.904C356.822 458.776 356.79 458.624 356.774 458.448C356.758 458.272 356.75 458.08 356.75 457.872C356.75 457.584 356.766 457.344 356.798 457.152C356.83 456.944 356.886 456.784 356.966 456.672C357.03 456.544 357.118 456.48 357.23 456.48V459.264ZM357.23 459.264V456.48H362.918L361.046 458.04V447.216H364.238V459.264H357.23ZM358.934 445.008V442.272H362.03V445.008H358.934ZM363.302 445.008V442.272H366.398V445.008H363.302ZM374.246 459.264V456.48H377.246V459.264H374.246ZM377.246 459.264V456.48C377.326 456.48 377.398 456.512 377.462 456.576C377.526 456.64 377.574 456.736 377.606 456.864C377.638 456.992 377.662 457.144 377.678 457.32C377.71 457.48 377.726 457.664 377.726 457.872C377.726 458.08 377.71 458.272 377.678 458.448C377.662 458.624 377.638 458.776 377.606 458.904C377.574 459.016 377.526 459.104 377.462 459.168C377.414 459.232 377.342 459.264 377.246 459.264ZM367.238 459.264C367.142 459.264 367.07 459.232 367.022 459.168C366.958 459.104 366.91 459.016 366.878 458.904C366.83 458.776 366.798 458.624 366.782 458.448C366.766 458.272 366.758 458.08 366.758 457.872C366.758 457.584 366.774 457.344 366.806 457.152C366.838 456.944 366.894 456.784 366.974 456.672C367.038 456.544 367.126 456.48 367.238 456.48V459.264ZM367.238 459.264V456.48H372.926L371.054 458.04V447.216H374.246V459.264H367.238ZM368.102 464.376V461.64H371.198V464.376H368.102ZM372.47 464.376V461.64H375.566V464.376H372.47ZM391.358 459.264C390.702 459.264 390.046 459.144 389.39 458.904C388.75 458.648 388.158 458.272 387.614 457.776L389.582 455.736C389.902 455.992 390.198 456.184 390.47 456.312C390.758 456.424 391.054 456.48 391.358 456.48H395.846L394.19 457.992V452.664C394.19 452.408 394.158 452.024 394.094 451.512C394.046 450.984 393.966 450.392 393.854 449.736C393.758 449.064 393.638 448.384 393.494 447.696L396.662 447.216C396.774 447.792 396.878 448.44 396.974 449.16C397.086 449.864 397.182 450.536 397.262 451.176C397.342 451.8 397.382 452.296 397.382 452.664V459.264H391.358ZM377.246 459.264V456.48H380.75L380.03 457.224V449.664H383.246V459.264H377.246ZM383.246 459.264V456.48H385.19C385.702 456.48 386.094 456.408 386.366 456.264C386.638 456.104 386.822 455.792 386.918 455.328C387.03 454.848 387.086 454.136 387.086 453.192V448.464H390.302V453.192C390.302 454.616 390.118 455.776 389.75 456.672C389.398 457.568 388.846 458.224 388.094 458.64C387.342 459.056 386.374 459.264 385.19 459.264H383.246ZM377.246 459.264C377.15 459.264 377.078 459.232 377.03 459.168C376.966 459.104 376.918 459.016 376.886 458.904C376.838 458.776 376.806 458.624 376.79 458.448C376.774 458.272 376.766 458.08 376.766 457.872C376.766 457.584 376.782 457.344 376.814 457.152C376.846 456.944 376.902 456.784 376.982 456.672C377.046 456.544 377.134 456.48 377.246 456.48V459.264ZM44.3641 512.232C44.2201 511.368 44.0841 510.528 43.9561 509.712C43.8441 508.896 43.7881 508.176 43.7881 507.552C43.7881 506.304 44.0281 505.224 44.5081 504.312C44.9881 503.416 45.6681 502.72 46.5481 502.224C47.4281 501.728 48.4681 501.48 49.6681 501.48C49.9081 501.48 50.2041 501.48 50.5561 501.48C50.9241 501.48 51.3481 501.48 51.8281 501.48C52.3081 501.48 52.8441 501.48 53.4361 501.48C54.0281 501.48 54.6761 501.48 55.3801 501.48L53.9161 502.872V498.336C53.9161 497.504 53.8201 496.848 53.6281 496.368C53.4521 495.872 53.1241 495.52 52.6441 495.312C52.1801 495.104 51.5001 495 50.6041 495C49.9961 495 49.3721 495.048 48.7321 495.144C48.1081 495.224 47.6121 495.336 47.2441 495.48L49.2601 493.608C49.1481 493.992 49.0441 494.472 48.9481 495.048C48.8681 495.624 48.8041 496.224 48.7561 496.848C48.7081 497.456 48.6841 498.032 48.6841 498.576C48.6841 499.168 48.7081 499.768 48.7561 500.376C48.8041 500.968 48.8601 501.496 48.9241 501.96C49.0041 502.424 49.0681 502.744 49.1161 502.92L46.0681 503.76C45.9881 503.536 45.9001 503.168 45.8041 502.656C45.7241 502.144 45.6441 501.544 45.5641 500.856C45.5001 500.152 45.4681 499.408 45.4681 498.624C45.4681 497.84 45.5001 497.08 45.5641 496.344C45.6441 495.592 45.7401 494.92 45.8521 494.328C45.9641 493.72 46.0681 493.232 46.1641 492.864C46.5801 492.704 47.1961 492.56 48.0121 492.432C48.8281 492.288 49.7081 492.216 50.6521 492.216C51.6921 492.216 52.5801 492.32 53.3161 492.528C54.0681 492.72 54.6841 493 55.1641 493.368C55.6601 493.736 56.0521 494.176 56.3401 494.688C56.6281 495.184 56.8281 495.744 56.9401 496.368C57.0521 496.992 57.1081 497.656 57.1081 498.36V504.264C56.4041 504.264 55.6681 504.264 54.9001 504.264C54.1481 504.264 53.4121 504.264 52.6921 504.264C51.9881 504.264 51.3641 504.264 50.8201 504.264C50.2921 504.264 49.9081 504.264 49.6681 504.264C49.4121 504.264 49.1321 504.296 48.8281 504.36C48.5241 504.44 48.2281 504.584 47.9401 504.792C47.6681 505.016 47.4441 505.344 47.2681 505.776C47.0921 506.224 47.0041 506.816 47.0041 507.552C47.0041 508.128 47.0521 508.8 47.1481 509.568C47.2601 510.336 47.3881 511.224 47.5321 512.232H44.3641ZM59.7011 510.216C59.4931 510.216 59.2691 510.208 59.0291 510.192C58.7891 510.176 58.5411 510.152 58.2851 510.12L58.4051 507.384C58.6611 507.4 58.9011 507.416 59.1251 507.432C59.3651 507.448 59.5411 507.456 59.6531 507.456C60.2771 507.456 60.7731 507.208 61.1411 506.712C61.5251 506.216 61.7171 505.52 61.7171 504.624V492.216H64.9331V504.624C64.9331 505.712 64.7091 506.68 64.2611 507.528C63.8291 508.376 63.2211 509.032 62.4371 509.496C61.6531 509.976 60.7411 510.216 59.7011 510.216ZM61.7171 490.008V487.272H64.9331V490.008H61.7171ZM81.3789 504.264V501.48H83.8989V504.264H81.3789ZM67.5069 504.264V501.48H79.6989L78.1629 503.064V487.296H81.3789V504.264H67.5069ZM70.8429 501.48V490.656H74.0349V501.48H70.8429ZM83.8989 504.264V501.48C83.9949 501.48 84.0669 501.512 84.1149 501.576C84.1789 501.64 84.2269 501.736 84.2589 501.864C84.3069 501.992 84.3389 502.144 84.3549 502.32C84.3709 502.48 84.3789 502.664 84.3789 502.872C84.3789 503.08 84.3709 503.272 84.3549 503.448C84.3389 503.624 84.3069 503.776 84.2589 503.904C84.2269 504.016 84.1789 504.104 84.1149 504.168C84.0669 504.232 83.9949 504.264 83.8989 504.264ZM86.6026 504.264V487.296H89.8186V504.264H86.6026ZM83.8906 504.264V501.48H86.6026V504.264H83.8906ZM83.8906 504.264C83.7946 504.264 83.7226 504.232 83.6746 504.168C83.6106 504.104 83.5626 504.016 83.5306 503.904C83.4826 503.776 83.4506 503.624 83.4346 503.448C83.4186 503.272 83.4106 503.08 83.4106 502.872C83.4106 502.584 83.4266 502.344 83.4586 502.152C83.4906 501.944 83.5466 501.784 83.6266 501.672C83.6906 501.544 83.7786 501.48 83.8906 501.48V504.264ZM93.6678 504.264V487.296H96.8598V504.264H93.6678ZM118.538 504.264V501.48H121.082V504.264H118.538ZM105.794 512.232C105.65 511.368 105.514 510.528 105.386 509.712C105.274 508.896 105.218 508.176 105.218 507.552C105.218 506.304 105.458 505.224 105.938 504.312C106.418 503.416 107.098 502.72 107.978 502.224C108.858 501.728 109.898 501.48 111.098 501.48C111.338 501.48 111.634 501.48 111.986 501.48C112.354 501.48 112.778 501.48 113.258 501.48C113.738 501.48 114.274 501.48 114.866 501.48C115.458 501.48 116.106 501.48 116.81 501.48L115.346 502.872V498.336C115.346 497.504 115.25 496.848 115.058 496.368C114.882 495.872 114.554 495.52 114.074 495.312C113.61 495.104 112.93 495 112.034 495C111.426 495 110.802 495.048 110.162 495.144C109.538 495.224 109.042 495.336 108.674 495.48L110.69 493.608C110.578 493.992 110.474 494.472 110.378 495.048C110.298 495.624 110.234 496.224 110.186 496.848C110.138 497.456 110.114 498.032 110.114 498.576C110.114 499.168 110.138 499.768 110.186 500.376C110.234 500.968 110.29 501.496 110.354 501.96C110.434 502.424 110.498 502.744 110.546 502.92L107.498 503.76C107.418 503.536 107.33 503.168 107.234 502.656C107.154 502.144 107.074 501.544 106.994 500.856C106.93 500.152 106.898 499.408 106.898 498.624C106.898 497.84 106.93 497.08 106.994 496.344C107.074 495.592 107.17 494.92 107.282 494.328C107.394 493.72 107.498 493.232 107.594 492.864C108.01 492.704 108.626 492.56 109.442 492.432C110.258 492.288 111.138 492.216 112.082 492.216C113.122 492.216 114.01 492.32 114.746 492.528C115.498 492.72 116.114 493 116.594 493.368C117.09 493.736 117.482 494.176 117.77 494.688C118.058 495.184 118.258 495.744 118.37 496.368C118.482 496.992 118.538 497.656 118.538 498.36V504.264C117.834 504.264 117.098 504.264 116.33 504.264C115.578 504.264 114.842 504.264 114.122 504.264C113.418 504.264 112.794 504.264 112.25 504.264C111.722 504.264 111.338 504.264 111.098 504.264C110.842 504.264 110.562 504.296 110.258 504.36C109.954 504.44 109.658 504.584 109.37 504.792C109.098 505.016 108.874 505.344 108.698 505.776C108.522 506.224 108.434 506.816 108.434 507.552C108.434 508.128 108.482 508.8 108.578 509.568C108.69 510.336 108.818 511.224 108.962 512.232H105.794ZM121.082 504.264V501.48C121.162 501.48 121.234 501.512 121.298 501.576C121.362 501.64 121.41 501.736 121.442 501.864C121.474 501.992 121.498 502.144 121.514 502.32C121.546 502.48 121.562 502.664 121.562 502.872C121.562 503.08 121.546 503.272 121.514 503.448C121.498 503.624 121.474 503.776 121.442 503.904C121.41 504.016 121.362 504.104 121.298 504.168C121.234 504.232 121.162 504.264 121.082 504.264ZM125.598 503.88C124.782 503.112 124.166 502.296 123.75 501.432C123.35 500.568 123.15 499.648 123.15 498.672C123.15 497.728 123.326 496.864 123.678 496.08C124.03 495.28 124.51 494.592 125.118 494.016C125.726 493.44 126.43 493 127.23 492.696C128.046 492.376 128.902 492.216 129.798 492.216C130.278 492.216 130.782 492.264 131.31 492.36C131.838 492.456 132.342 492.584 132.822 492.744L131.862 495.36C131.526 495.248 131.19 495.16 130.854 495.096C130.534 495.032 130.222 495 129.918 495C129.214 495 128.59 495.16 128.046 495.48C127.502 495.784 127.078 496.208 126.774 496.752C126.486 497.296 126.342 497.92 126.342 498.624C126.342 499.264 126.47 499.864 126.726 500.424C126.998 500.984 127.382 501.488 127.878 501.936L125.598 503.88ZM121.086 504.264V501.48H133.038V504.264H121.086ZM121.086 504.264C120.99 504.264 120.918 504.232 120.87 504.168C120.806 504.104 120.758 504.016 120.726 503.904C120.678 503.776 120.646 503.624 120.63 503.448C120.614 503.272 120.606 503.08 120.606 502.872C120.606 502.584 120.622 502.344 120.654 502.152C120.686 501.944 120.742 501.784 120.822 501.672C120.886 501.544 120.974 501.48 121.086 501.48V504.264ZM145.665 504.264V501.48H148.185V504.264H145.665ZM135.921 504.264V501.48H144.633L142.449 503.376V499.344C142.449 498.208 142.329 497.328 142.089 496.704C141.865 496.08 141.481 495.64 140.937 495.384C140.409 495.128 139.681 495 138.753 495H136.809V492.216H138.753C140.225 492.216 141.473 492.456 142.497 492.936C143.537 493.416 144.321 494.184 144.849 495.24C145.393 496.28 145.665 497.648 145.665 499.344V504.264H135.921ZM148.185 504.264V501.48C148.281 501.48 148.361 501.512 148.425 501.576C148.489 501.64 148.537 501.736 148.569 501.864C148.601 501.992 148.625 502.144 148.641 502.32C148.657 502.48 148.665 502.664 148.665 502.872C148.665 503.08 148.657 503.272 148.641 503.448C148.625 503.624 148.601 503.776 148.569 503.904C148.537 504.016 148.489 504.104 148.425 504.168C148.361 504.232 148.281 504.264 148.185 504.264ZM150.892 504.264V487.296H154.108V504.264H150.892ZM148.18 504.264V501.48H150.892V504.264H148.18ZM148.18 504.264C148.084 504.264 148.012 504.232 147.964 504.168C147.9 504.104 147.852 504.016 147.82 503.904C147.772 503.776 147.74 503.624 147.724 503.448C147.708 503.272 147.7 503.08 147.7 502.872C147.7 502.584 147.716 502.344 147.748 502.152C147.78 501.944 147.836 501.784 147.916 501.672C147.98 501.544 148.068 501.48 148.18 501.48V504.264ZM157.957 504.264V487.296H161.149V504.264H157.957ZM182.827 504.264V501.48H185.371V504.264H182.827ZM170.083 512.232C169.939 511.368 169.803 510.528 169.675 509.712C169.563 508.896 169.507 508.176 169.507 507.552C169.507 506.304 169.747 505.224 170.227 504.312C170.707 503.416 171.387 502.72 172.267 502.224C173.147 501.728 174.187 501.48 175.387 501.48C175.627 501.48 175.923 501.48 176.275 501.48C176.643 501.48 177.067 501.48 177.547 501.48C178.027 501.48 178.563 501.48 179.155 501.48C179.747 501.48 180.395 501.48 181.099 501.48L179.635 502.872V498.336C179.635 497.504 179.539 496.848 179.347 496.368C179.171 495.872 178.843 495.52 178.363 495.312C177.899 495.104 177.219 495 176.323 495C175.715 495 175.091 495.048 174.451 495.144C173.827 495.224 173.331 495.336 172.963 495.48L174.979 493.608C174.867 493.992 174.763 494.472 174.667 495.048C174.587 495.624 174.523 496.224 174.475 496.848C174.427 497.456 174.403 498.032 174.403 498.576C174.403 499.168 174.427 499.768 174.475 500.376C174.523 500.968 174.579 501.496 174.643 501.96C174.723 502.424 174.787 502.744 174.835 502.92L171.787 503.76C171.707 503.536 171.619 503.168 171.523 502.656C171.443 502.144 171.363 501.544 171.283 500.856C171.219 500.152 171.187 499.408 171.187 498.624C171.187 497.84 171.219 497.08 171.283 496.344C171.363 495.592 171.459 494.92 171.571 494.328C171.683 493.72 171.787 493.232 171.883 492.864C172.299 492.704 172.915 492.56 173.731 492.432C174.547 492.288 175.427 492.216 176.371 492.216C177.411 492.216 178.299 492.32 179.035 492.528C179.787 492.72 180.403 493 180.883 493.368C181.379 493.736 181.771 494.176 182.059 494.688C182.347 495.184 182.547 495.744 182.659 496.368C182.771 496.992 182.827 497.656 182.827 498.36V504.264C182.123 504.264 181.387 504.264 180.619 504.264C179.867 504.264 179.131 504.264 178.411 504.264C177.707 504.264 177.083 504.264 176.539 504.264C176.011 504.264 175.627 504.264 175.387 504.264C175.131 504.264 174.851 504.296 174.547 504.36C174.243 504.44 173.947 504.584 173.659 504.792C173.387 505.016 173.163 505.344 172.987 505.776C172.811 506.224 172.723 506.816 172.723 507.552C172.723 508.128 172.771 508.8 172.867 509.568C172.979 510.336 173.107 511.224 173.251 512.232H170.083ZM185.371 504.264V501.48C185.451 501.48 185.523 501.512 185.587 501.576C185.651 501.64 185.699 501.736 185.731 501.864C185.763 501.992 185.787 502.144 185.803 502.32C185.835 502.48 185.851 502.664 185.851 502.872C185.851 503.08 185.835 503.272 185.803 503.448C185.787 503.624 185.763 503.776 185.731 503.904C185.699 504.016 185.651 504.104 185.587 504.168C185.523 504.232 185.451 504.264 185.371 504.264ZM185.375 504.264V501.48H191.063L189.191 503.04V492.216H192.383V504.264H185.375ZM185.375 504.264C185.279 504.264 185.207 504.232 185.159 504.168C185.095 504.104 185.047 504.016 185.015 503.904C184.967 503.776 184.935 503.624 184.919 503.448C184.903 503.272 184.895 503.08 184.895 502.872C184.895 502.584 184.911 502.344 184.943 502.152C184.975 501.944 185.031 501.784 185.111 501.672C185.175 501.544 185.263 501.48 185.375 501.48V504.264ZM186.239 509.376V506.64H189.335V509.376H186.239ZM190.607 509.376V506.64H193.703V509.376H190.607ZM204.845 504.264V501.48H207.365V504.264H204.845ZM195.101 504.264V501.48H203.813L201.629 503.376V499.344C201.629 498.208 201.509 497.328 201.269 496.704C201.045 496.08 200.661 495.64 200.117 495.384C199.589 495.128 198.861 495 197.933 495H195.989V492.216H197.933C199.405 492.216 200.653 492.456 201.677 492.936C202.717 493.416 203.501 494.184 204.029 495.24C204.573 496.28 204.845 497.648 204.845 499.344V504.264H195.101ZM207.365 504.264V501.48C207.461 501.48 207.541 501.512 207.605 501.576C207.669 501.64 207.717 501.736 207.749 501.864C207.781 501.992 207.805 502.144 207.821 502.32C207.837 502.48 207.845 502.664 207.845 502.872C207.845 503.08 207.837 503.272 207.821 503.448C207.805 503.624 207.781 503.776 207.749 503.904C207.717 504.016 207.669 504.104 207.605 504.168C207.541 504.232 207.461 504.264 207.365 504.264ZM220.799 504.264V501.48H223.319V504.264H220.799ZM207.359 504.264C207.263 504.264 207.191 504.232 207.143 504.168C207.079 504.104 207.031 504.016 206.999 503.904C206.951 503.776 206.919 503.624 206.903 503.448C206.887 503.272 206.879 503.08 206.879 502.872C206.879 502.584 206.895 502.344 206.927 502.152C206.959 501.944 207.015 501.784 207.095 501.672C207.159 501.544 207.247 501.48 207.359 501.48V504.264ZM207.359 504.264V501.48H218.567L217.583 502.32V494.304L218.399 495H215.375C214.671 495 214.119 495.088 213.719 495.264C213.319 495.44 213.039 495.768 212.879 496.248C212.719 496.712 212.639 497.376 212.639 498.24C212.639 499.184 212.719 499.888 212.879 500.352C213.039 500.8 213.319 501.104 213.719 501.264C214.119 501.408 214.671 501.48 215.375 501.48V503.976C214.015 503.976 212.895 503.784 212.015 503.4C211.135 503.016 210.479 502.408 210.047 501.576C209.631 500.728 209.423 499.616 209.423 498.24C209.423 496.928 209.631 495.824 210.047 494.928C210.479 494.032 211.135 493.36 212.015 492.912C212.895 492.448 214.015 492.216 215.375 492.216H220.799V504.264H207.359ZM223.319 504.264V501.48C223.415 501.48 223.495 501.512 223.559 501.576C223.623 501.64 223.671 501.736 223.703 501.864C223.735 501.992 223.759 502.144 223.775 502.32C223.791 502.48 223.799 502.664 223.799 502.872C223.799 503.08 223.791 503.272 223.775 503.448C223.759 503.624 223.735 503.776 223.703 503.904C223.671 504.016 223.623 504.104 223.559 504.168C223.495 504.232 223.415 504.264 223.319 504.264ZM211.991 490.008V487.272H215.087V490.008H211.991ZM216.359 490.008V487.272H219.455V490.008H216.359ZM223.32 504.264V501.48H229.008L227.136 503.04V492.216H230.328V504.264H223.32ZM223.32 504.264C223.224 504.264 223.152 504.232 223.104 504.168C223.04 504.104 222.992 504.016 222.96 503.904C222.912 503.776 222.88 503.624 222.864 503.448C222.848 503.272 222.84 503.08 222.84 502.872C222.84 502.584 222.856 502.344 222.888 502.152C222.92 501.944 222.976 501.784 223.056 501.672C223.12 501.544 223.208 501.48 223.32 501.48V504.264ZM225.024 490.008V487.272H228.12V490.008H225.024ZM229.392 490.008V487.272H232.488V490.008H229.392ZM237.942 510.216C237.35 510.216 236.726 510.168 236.07 510.072C235.43 509.992 234.742 509.88 234.006 509.736L234.486 507.168C235.286 507.264 235.966 507.336 236.526 507.384C237.086 507.432 237.558 507.456 237.942 507.456C239.094 507.456 239.926 507.248 240.438 506.832C240.95 506.416 241.206 505.792 241.206 504.96V494.424L241.998 495H238.998C238.342 495 237.814 495.08 237.414 495.24C237.014 495.384 236.718 495.696 236.526 496.176C236.35 496.64 236.262 497.352 236.262 498.312C236.262 499.224 236.342 499.912 236.502 500.376C236.678 500.824 236.966 501.12 237.366 501.264C237.766 501.408 238.31 501.48 238.998 501.48H241.206V504.264H238.998C237.638 504.264 236.518 504.048 235.638 503.616C234.758 503.184 234.102 502.528 233.67 501.648C233.254 500.768 233.046 499.656 233.046 498.312C233.046 496.968 233.254 495.848 233.67 494.952C234.102 494.04 234.758 493.36 235.638 492.912C236.518 492.448 237.638 492.216 238.998 492.216H244.422V504.96C244.422 506.048 244.15 506.984 243.606 507.768C243.078 508.568 242.326 509.176 241.35 509.592C240.39 510.008 239.254 510.216 237.942 510.216ZM269.953 504.264V501.48H272.473V504.264H269.953ZM260.161 504.264C258.449 504.264 257.001 504.04 255.817 503.592C254.649 503.144 253.761 502.48 253.153 501.6C252.561 500.72 252.265 499.624 252.265 498.312C252.265 497.928 252.289 497.528 252.337 497.112C252.385 496.68 252.441 496.272 252.505 495.888C252.585 495.488 252.657 495.136 252.721 494.832C252.785 494.528 252.833 494.304 252.865 494.16L255.985 494.76C255.937 495.016 255.873 495.344 255.793 495.744C255.713 496.144 255.641 496.568 255.577 497.016C255.513 497.448 255.481 497.864 255.481 498.264C255.481 498.888 255.577 499.408 255.769 499.824C255.977 500.24 256.281 500.576 256.681 500.832C257.081 501.072 257.585 501.24 258.193 501.336C258.801 501.432 259.513 501.48 260.329 501.48H268.609L266.737 503.04V487.296H269.953V504.264H260.161ZM272.473 504.264V501.48C272.569 501.48 272.641 501.512 272.689 501.576C272.753 501.64 272.801 501.736 272.833 501.864C272.881 501.992 272.913 502.144 272.929 502.32C272.945 502.48 272.953 502.664 272.953 502.872C272.953 503.08 272.945 503.272 272.929 503.448C272.913 503.624 272.881 503.776 272.833 503.904C272.801 504.016 272.753 504.104 272.689 504.168C272.641 504.232 272.569 504.264 272.473 504.264ZM259.657 495.216C259.353 494.848 259.121 494.496 258.961 494.16C258.801 493.824 258.721 493.464 258.721 493.08C258.721 492.536 258.865 492.048 259.153 491.616C259.441 491.168 259.817 490.824 260.281 490.584C260.745 490.328 261.257 490.2 261.817 490.2C262.121 490.2 262.433 490.24 262.753 490.32C263.073 490.4 263.345 490.52 263.569 490.68L262.753 492.144C262.609 492.064 262.465 492.016 262.321 492C262.193 491.968 262.057 491.952 261.913 491.952C261.529 491.952 261.233 492.056 261.025 492.264C260.817 492.456 260.713 492.72 260.713 493.056C260.713 493.248 260.753 493.432 260.833 493.608C260.913 493.784 261.033 493.976 261.193 494.184L259.657 495.216ZM258.193 495.408V493.656H264.001V495.408H258.193ZM279.477 504.264V501.48H282.477V504.264H279.477ZM282.477 504.264V501.48C282.557 501.48 282.629 501.512 282.693 501.576C282.757 501.64 282.805 501.736 282.837 501.864C282.869 501.992 282.893 502.144 282.909 502.32C282.941 502.48 282.957 502.664 282.957 502.872C282.957 503.08 282.941 503.272 282.909 503.448C282.893 503.624 282.869 503.776 282.837 503.904C282.805 504.016 282.757 504.104 282.693 504.168C282.645 504.232 282.573 504.264 282.477 504.264ZM272.469 504.264C272.373 504.264 272.301 504.232 272.253 504.168C272.189 504.104 272.141 504.016 272.109 503.904C272.061 503.776 272.029 503.624 272.013 503.448C271.997 503.272 271.989 503.08 271.989 502.872C271.989 502.584 272.005 502.344 272.037 502.152C272.069 501.944 272.125 501.784 272.205 501.672C272.269 501.544 272.357 501.48 272.469 501.48V504.264ZM272.469 504.264V501.48H278.157L276.285 503.04V492.216H279.477V504.264H272.469ZM274.173 490.008V487.272H277.269V490.008H274.173ZM278.541 490.008V487.272H281.637V490.008H278.541ZM285.189 504.264V487.296H288.405V504.264H285.189ZM282.477 504.264V501.48H285.189V504.264H282.477ZM282.477 504.264C282.381 504.264 282.309 504.232 282.261 504.168C282.197 504.104 282.149 504.016 282.117 503.904C282.069 503.776 282.037 503.624 282.021 503.448C282.005 503.272 281.997 503.08 281.997 502.872C281.997 502.584 282.013 502.344 282.045 502.152C282.077 501.944 282.133 501.784 282.213 501.672C282.277 501.544 282.365 501.48 282.477 501.48V504.264ZM295.446 504.264V501.48H298.182V504.264H295.446ZM292.254 504.264V487.296H295.446V504.264H292.254ZM298.182 504.264V501.48C298.278 501.48 298.35 501.512 298.398 501.576C298.462 501.64 298.51 501.736 298.542 501.864C298.59 501.992 298.622 502.144 298.638 502.32C298.654 502.48 298.662 502.664 298.662 502.872C298.662 503.08 298.654 503.272 298.638 503.448C298.622 503.624 298.59 503.776 298.542 503.904C298.51 504.016 298.462 504.104 298.398 504.168C298.35 504.232 298.278 504.264 298.182 504.264ZM298.18 504.264V501.48H308.5L307.42 502.368V497.928C307.42 496.968 307.116 496.24 306.508 495.744C305.916 495.248 304.972 495 303.676 495C303.308 495 302.804 495.032 302.164 495.096C301.524 495.144 300.828 495.224 300.076 495.336L299.764 492.792C300.452 492.632 301.148 492.496 301.852 492.384C302.572 492.272 303.276 492.216 303.964 492.216C305.276 492.216 306.428 492.448 307.42 492.912C308.412 493.36 309.188 494.008 309.748 494.856C310.324 495.704 310.612 496.728 310.612 497.928V504.264H298.18ZM298.18 504.264C298.084 504.264 298.012 504.232 297.964 504.168C297.9 504.104 297.852 504.016 297.82 503.904C297.772 503.776 297.74 503.624 297.724 503.448C297.708 503.272 297.7 503.08 297.7 502.872C297.7 502.584 297.716 502.344 297.748 502.152C297.78 501.944 297.836 501.784 297.916 501.672C297.98 501.544 298.068 501.48 298.18 501.48V504.264ZM324.193 504.264C322.833 504.264 321.713 504.048 320.833 503.616C319.953 503.184 319.297 502.528 318.865 501.648C318.449 500.768 318.241 499.656 318.241 498.312C318.241 496.968 318.449 495.848 318.865 494.952C319.297 494.04 319.953 493.36 320.833 492.912C321.713 492.448 322.833 492.216 324.193 492.216H329.617V502.752H326.401V494.304L327.193 495H324.193C323.537 495 323.009 495.08 322.609 495.24C322.209 495.384 321.913 495.696 321.721 496.176C321.545 496.64 321.457 497.352 321.457 498.312C321.457 499.224 321.537 499.912 321.697 500.376C321.873 500.824 322.161 501.12 322.561 501.264C322.961 501.408 323.505 501.48 324.193 501.48H332.137V504.264H324.193ZM332.137 504.264V501.48C332.233 501.48 332.305 501.512 332.353 501.576C332.417 501.64 332.465 501.736 332.497 501.864C332.545 501.992 332.577 502.144 332.593 502.32C332.609 502.48 332.617 502.664 332.617 502.872C332.617 503.08 332.609 503.272 332.593 503.448C332.577 503.624 332.545 503.776 332.497 503.904C332.465 504.016 332.417 504.104 332.353 504.168C332.305 504.232 332.233 504.264 332.137 504.264ZM320.617 490.008V487.272H323.713V490.008H320.617ZM324.985 490.008V487.272H328.081V490.008H324.985ZM332.141 504.264V501.48H337.229C337.917 501.48 338.581 501.352 339.221 501.096C339.861 500.824 340.445 500.472 340.973 500.04C341.517 499.592 341.989 499.104 342.389 498.576C342.805 498.032 343.125 497.48 343.349 496.92C343.589 496.36 343.709 495.832 343.709 495.336V493.8L345.245 496.344C344.413 495.896 343.565 495.56 342.701 495.336C341.837 495.112 341.013 495 340.229 495C339.461 495 338.637 495.112 337.757 495.336C336.893 495.56 336.053 495.896 335.237 496.344L336.773 493.8V495.336C336.773 495.832 336.885 496.36 337.109 496.92C337.349 497.48 337.669 498.032 338.069 498.576C338.469 499.104 338.941 499.592 339.485 500.04C340.029 500.472 340.621 500.824 341.261 501.096C341.901 501.352 342.557 501.48 343.229 501.48H348.173V504.264H344.237C342.989 504.264 341.821 504.064 340.733 503.664C339.645 503.264 338.661 502.736 337.781 502.08C336.901 501.408 336.141 500.68 335.501 499.896C334.877 499.096 334.397 498.304 334.061 497.52C333.725 496.72 333.557 495.992 333.557 495.336V493.968C334.245 493.584 334.973 493.264 335.741 493.008C336.525 492.752 337.301 492.56 338.069 492.432C338.853 492.288 339.573 492.216 340.229 492.216C340.901 492.216 341.621 492.288 342.389 492.432C343.157 492.56 343.925 492.752 344.693 493.008C345.477 493.264 346.213 493.584 346.901 493.968V495.336C346.901 495.992 346.733 496.72 346.397 497.52C346.061 498.304 345.573 499.096 344.933 499.896C344.309 500.68 343.557 501.408 342.677 502.08C341.797 502.736 340.813 503.264 339.725 503.664C338.637 504.064 337.469 504.264 336.221 504.264H332.141ZM332.141 504.264C332.045 504.264 331.973 504.232 331.925 504.168C331.861 504.104 331.813 504.016 331.781 503.904C331.733 503.776 331.701 503.624 331.685 503.448C331.669 503.272 331.661 503.08 331.661 502.872C331.661 502.584 331.677 502.344 331.709 502.152C331.741 501.944 331.797 501.784 331.877 501.672C331.941 501.544 332.029 501.48 332.141 501.48V504.264ZM348.173 504.264V501.48C348.269 501.48 348.349 501.512 348.413 501.576C348.477 501.64 348.525 501.736 348.557 501.864C348.589 501.992 348.613 502.144 348.629 502.32C348.645 502.48 348.653 502.664 348.653 502.872C348.653 503.08 348.645 503.272 348.629 503.448C348.613 503.624 348.589 503.776 348.557 503.904C348.525 504.016 348.477 504.104 348.413 504.168C348.349 504.232 348.269 504.264 348.173 504.264ZM348.172 504.264V501.48H352.564L350.692 503.04V492.216H353.908V504.264H348.172ZM348.172 504.264C348.076 504.264 348.004 504.232 347.956 504.168C347.892 504.104 347.844 504.016 347.812 503.904C347.764 503.776 347.732 503.624 347.716 503.448C347.7 503.272 347.692 503.08 347.692 502.872C347.692 502.584 347.708 502.344 347.74 502.152C347.772 501.944 347.828 501.784 347.908 501.672C347.972 501.544 348.06 501.48 348.172 501.48V504.264ZM350.692 509.376V506.64H353.908V509.376H350.692ZM361 504.264V501.48H363.736V504.264H361ZM357.808 504.264V487.296H361V504.264H357.808ZM363.736 504.264V501.48C363.832 501.48 363.904 501.512 363.952 501.576C364.016 501.64 364.064 501.736 364.096 501.864C364.144 501.992 364.176 502.144 364.192 502.32C364.208 502.48 364.216 502.664 364.216 502.872C364.216 503.08 364.208 503.272 364.192 503.448C364.176 503.624 364.144 503.776 364.096 503.904C364.064 504.016 364.016 504.104 363.952 504.168C363.904 504.232 363.832 504.264 363.736 504.264ZM370.742 504.264V501.48H373.742V504.264H370.742ZM373.742 504.264V501.48C373.822 501.48 373.894 501.512 373.958 501.576C374.022 501.64 374.07 501.736 374.102 501.864C374.134 501.992 374.158 502.144 374.174 502.32C374.206 502.48 374.222 502.664 374.222 502.872C374.222 503.08 374.206 503.272 374.174 503.448C374.158 503.624 374.134 503.776 374.102 503.904C374.07 504.016 374.022 504.104 373.958 504.168C373.91 504.232 373.838 504.264 373.742 504.264ZM363.734 504.264C363.638 504.264 363.566 504.232 363.518 504.168C363.454 504.104 363.406 504.016 363.374 503.904C363.326 503.776 363.294 503.624 363.278 503.448C363.262 503.272 363.254 503.08 363.254 502.872C363.254 502.584 363.27 502.344 363.302 502.152C363.334 501.944 363.39 501.784 363.47 501.672C363.534 501.544 363.622 501.48 363.734 501.48V504.264ZM363.734 504.264V501.48H369.422L367.55 503.04V492.216H370.742V504.264H363.734ZM365.438 490.008V487.272H368.534V490.008H365.438ZM369.806 490.008V487.272H372.902V490.008H369.806ZM387.926 504.264V501.48H390.47V504.264H387.926ZM373.742 504.264C373.646 504.264 373.574 504.232 373.526 504.168C373.462 504.104 373.414 504.016 373.382 503.904C373.334 503.776 373.302 503.624 373.286 503.448C373.27 503.272 373.262 503.08 373.262 502.872C373.262 502.584 373.278 502.344 373.31 502.152C373.342 501.944 373.398 501.784 373.478 501.672C373.542 501.544 373.63 501.48 373.742 501.48V504.264ZM373.742 504.264V501.48H386.198L384.734 502.728V498.312C384.734 497.448 384.638 496.776 384.446 496.296C384.254 495.8 383.918 495.456 383.438 495.264C382.974 495.056 382.326 494.952 381.494 494.952C380.838 494.952 380.19 495 379.55 495.096C378.926 495.176 378.438 495.288 378.086 495.432L380.078 493.56C379.982 493.928 379.886 494.392 379.79 494.952C379.71 495.512 379.638 496.112 379.574 496.752C379.51 497.376 379.478 497.992 379.478 498.6C379.478 499.16 379.502 499.744 379.55 500.352C379.614 500.96 379.678 501.496 379.742 501.96C379.822 502.424 379.886 502.744 379.934 502.92L376.886 503.76C376.822 503.536 376.742 503.168 376.646 502.656C376.55 502.144 376.462 501.536 376.382 500.832C376.318 500.128 376.286 499.384 376.286 498.6C376.286 497.8 376.326 497.032 376.406 496.296C376.486 495.544 376.574 494.872 376.67 494.28C376.782 493.672 376.886 493.184 376.982 492.816C377.366 492.672 377.966 492.528 378.782 492.384C379.598 492.24 380.502 492.168 381.494 492.168C382.934 492.168 384.126 492.368 385.07 492.768C386.03 493.168 386.742 493.816 387.206 494.712C387.686 495.608 387.926 496.816 387.926 498.336V504.264H373.742ZM390.47 504.264V501.48C390.55 501.48 390.622 501.512 390.686 501.576C390.75 501.64 390.798 501.736 390.83 501.864C390.862 501.992 390.886 502.144 390.902 502.32C390.934 502.48 390.95 502.664 390.95 502.872C390.95 503.08 390.934 503.272 390.902 503.448C390.886 503.624 390.862 503.776 390.83 503.904C390.798 504.016 390.75 504.104 390.686 504.168C390.622 504.232 390.55 504.264 390.47 504.264ZM393.189 504.264V487.296H396.405V504.264H393.189ZM390.477 504.264V501.48H393.189V504.264H390.477ZM390.477 504.264C390.381 504.264 390.309 504.232 390.261 504.168C390.197 504.104 390.149 504.016 390.117 503.904C390.069 503.776 390.037 503.624 390.021 503.448C390.005 503.272 389.997 503.08 389.997 502.872C389.997 502.584 390.013 502.344 390.045 502.152C390.077 501.944 390.133 501.784 390.213 501.672C390.277 501.544 390.365 501.48 390.477 501.48V504.264Z" fill="#245957"/>
</svg>
