<svg width="34" height="34" viewBox="0 0 34 34" fill="none" xmlns="http://www.w3.org/2000/svg">
<path d="M30.5 10.3647V6.94638C30.5 5.58648 30.0259 4.28227 29.182 3.32067C28.3381 2.35907 27.1935 1.81885 26 1.81885H21.5M21.5 32.5841H26C27.1935 32.5841 28.3381 32.0438 29.182 31.0822C30.0259 30.1206 30.5 28.8164 30.5 27.4565V24.0382M3.5 24.0382V27.4565C3.5 28.8164 3.97411 30.1206 4.81802 31.0822C5.66193 32.0438 6.80653 32.5841 8 32.5841H12.5M12.5 1.81885H8C6.80653 1.81885 5.66193 2.35907 4.81802 3.32067C3.97411 4.28227 3.5 5.58648 3.5 6.94638V10.3647M2 17.2014H32" stroke="#245957" stroke-width="2.04651" stroke-linecap="round" stroke-linejoin="round"/>
</svg>
