<svg width="344" height="278" viewBox="0 0 344 278" fill="none" xmlns="http://www.w3.org/2000/svg">
<path d="M148.258 53.0073C148.258 53.0073 159.783 57.4037 165.695 68.0252C171.607 78.6467 181.534 122.494 181.534 122.494C181.534 122.494 199.491 123.908 203.272 123.908C207.053 123.908 230.688 122.015 230.688 122.015L231.871 129.329C231.871 129.329 216.279 135.943 202.09 137.59C187.901 139.237 171.594 138.537 168.995 136.89C166.397 135.243 153.169 101.731 153.169 101.731C153.169 101.731 150.324 86.869 147.972 76.481C145.62 66.0929 143.359 56.6386 148.258 53.0073Z" fill="white" stroke="#245957" stroke-width="1.3" stroke-linecap="round" stroke-linejoin="round"/>
<path d="M162.98 73.9909L156.548 87.271L162.551 82.1354" stroke="#245957" stroke-width="1.3" stroke-linecap="round" stroke-linejoin="round"/>
<path d="M230.663 122.041C230.663 122.041 207.028 123.934 203.247 123.934C199.466 123.934 181.509 122.52 181.509 122.52C181.509 122.52 179.3 112.781 176.311 101.368C169.517 103.875 162.931 106.91 156.613 110.446C160.732 120.497 167.203 135.788 168.931 136.89C171.53 138.537 187.85 139.237 202.025 137.59C216.201 135.943 231.806 129.329 231.806 129.329L230.663 122.041Z" fill="white" stroke="#245957" stroke-width="1.3" stroke-linecap="round" stroke-linejoin="round"/>
<path d="M241.331 130.535L235.185 130.302L217.67 135.969L215.305 120.873L228.779 121.574C231.759 119.899 234.835 118.401 237.991 117.086C239.888 116.62 248.165 117.333 248.165 117.333C248.165 117.333 248.633 118.267 247.45 118.98L246.255 119.745C246.255 119.745 253.349 122.092 254.532 123.039C255.714 123.986 254.051 126.113 254.051 126.113C253.867 126.689 253.56 127.219 253.152 127.667C252.744 128.114 252.244 128.469 251.686 128.707C250.054 129.489 248.293 129.968 246.489 130.12C246.489 130.12 242.981 130.535 241.331 130.535Z" fill="#245957" stroke="#245957" stroke-width="1.3" stroke-linecap="round" stroke-linejoin="round"/>
<path d="M130.275 216.713C130.275 216.713 136.018 216.13 138.578 213.562C141.137 210.994 135.615 206.857 132.653 209.217C129.69 211.578 128.897 211.591 130.275 216.713Z" fill="white" stroke="#245957" stroke-width="1.3" stroke-linecap="round" stroke-linejoin="round"/>
<path d="M126.13 50.0504C117.892 53.5399 110.435 58.637 104.198 65.0424C93.1271 76.0919 92.5034 91.2784 90.1646 105.479C87.8258 119.68 89.7748 151.039 90.3595 161.245C90.9442 171.452 99.8447 183.928 116.255 199.906C132.666 215.883 167.605 239.94 179.066 239.94C190.526 239.94 195.788 227.192 194.281 216.065C190.604 188.999 152.806 151.376 150.636 146.85C148.466 142.324 149.649 135.398 149.843 134.218C150.038 133.038 157.159 99.9027 158.939 90.63C160.719 81.3572 155.379 57.1055 150.831 53.9411C146.283 50.7767 137.201 47.6901 126.13 50.0504Z" fill="#53B175" stroke="#245957" stroke-width="1.3" stroke-linecap="round" stroke-linejoin="round"/>
<path d="M135.811 154.592C135.811 154.592 141.749 148.471 146.491 147.888" stroke="#245957" stroke-width="1.3" stroke-linecap="round" stroke-linejoin="round"/>
<path d="M90.165 136.436C90.165 136.436 106.368 147.096 143.724 139.198" stroke="#245957" stroke-width="1.3" stroke-linecap="round" stroke-linejoin="round"/>
<path d="M92.9326 141.792C92.9326 141.792 118.621 151.065 142.139 142.778" stroke="#245957" stroke-width="1.3" stroke-linecap="round" stroke-linejoin="round"/>
<path d="M126.716 96.2066C136.438 95.9843 146.001 93.6987 154.769 89.5017L154.184 92.6531" stroke="#245957" stroke-width="1.3" stroke-linecap="round" stroke-linejoin="round"/>
<path d="M140.656 199.413C140.656 199.413 162.303 220.357 167.644 222.601" stroke="#245957" stroke-width="1.3" stroke-linecap="round" stroke-linejoin="round"/>
<path d="M126.716 185.64C126.716 185.64 128.665 172.671 141.658 160.351" stroke="#245957" stroke-width="1.3" stroke-linecap="round" stroke-linejoin="round"/>
<path d="M140.657 199.413C140.657 199.413 131.47 208.491 130.262 216.713L112.292 197.986C111.128 197.163 109.861 196.496 108.524 196.002C107.731 196.002 104.366 203.498 102.391 206.468C100.416 209.438 98.246 206.662 98.4929 201.734C98.7398 196.806 104.717 187.78 105.704 183.435C106.692 179.091 110.044 175.939 113.007 176.73C115.969 177.521 140.657 199.413 140.657 199.413Z" fill="#245957" stroke="#245957" stroke-width="1.3" stroke-linecap="round" stroke-linejoin="round"/>
<path d="M93.7254 122.637C99.0657 122.443 111.305 119.278 116.646 110.965C121.986 102.652 121.986 82.5633 118.231 71.9029C115.45 64.0308 110.955 61.5278 108.798 60.7886C107.278 62.0855 105.744 63.4602 104.198 65.0035C93.1277 76.053 92.504 91.2395 90.1651 105.44C89.3753 111.177 89.0019 116.963 89.0477 122.754L93.7254 122.637Z" fill="white" stroke="#245957" stroke-width="1.3" stroke-linecap="round" stroke-linejoin="round"/>
<path d="M126.131 50.0504C121.392 52.0028 116.924 54.5571 112.839 57.6502C115.775 59.438 118.236 61.9073 120.011 64.8479C123.364 70.7617 125.936 87.9195 125.936 87.9195C125.936 87.9195 127.314 87.9195 136.799 86.5448C143.021 85.5482 149.119 83.8918 154.99 81.6036C154.587 77.0775 150.247 55.9642 148.259 53.0722C148.045 52.7635 147.806 52.4729 147.544 52.2032C140.829 49.1878 133.314 48.4323 126.131 50.0504Z" fill="white" stroke="#245957" stroke-width="1.3" stroke-linecap="round" stroke-linejoin="round"/>
<path d="M121.362 64.1476C121.362 64.1476 129.938 78.2836 137.24 76.9867C144.543 75.6898 144.53 66.7154 144.53 66.7154" stroke="#245957" stroke-width="1.3" stroke-linecap="round" stroke-linejoin="round"/>
<path d="M122.569 35.4475C122.569 35.4475 121.985 50.8285 122.569 55.9512C123.154 61.0739 130.677 72.1234 136.797 71.3453C142.917 70.5671 142.735 54.5765 142.735 54.5765C142.735 54.5765 132.263 39.1955 129.287 36.4201C126.312 33.6448 123.557 33.6837 122.569 35.4475Z" fill="white" stroke="#245957" stroke-width="1.3" stroke-linecap="round" stroke-linejoin="round"/>
<path d="M122.18 32.8537C122.18 32.8537 118.282 29.6893 116.255 32.4517C114.228 35.214 117.633 42.1135 120.595 43.0991C123.558 44.0847 124.493 43.5011 124.493 43.5011C125.87 47.4269 127.661 51.1959 129.834 54.7451C132.601 58.6358 141.294 65.9891 147.219 63.8233C153.144 61.6575 155.924 48.2607 156.912 42.723C157.392 40.4473 157.722 38.1425 157.899 35.8236C152.972 34.6271 147.943 33.8976 142.879 33.6448C134.628 33.2428 122.18 32.8537 122.18 32.8537Z" fill="white" stroke="#245957" stroke-width="1.3" stroke-linecap="round" stroke-linejoin="round"/>
<path d="M126.533 34.4229C126.533 34.4229 127.716 40.5442 125.936 40.9074C124.156 41.2705 122.181 32.8278 122.181 32.8278L126.533 34.4229Z" fill="#245957" stroke="#245957" stroke-width="1.3" stroke-linecap="round" stroke-linejoin="round"/>
<path d="M150.441 40.3367C150.441 40.3367 151.429 49.4149 149.844 50.2061C148.259 50.9972 145.504 49.4149 145.504 49.4149" stroke="#245957" stroke-width="1.3" stroke-linecap="round" stroke-linejoin="round"/>
<path d="M119.466 30.2599C119.466 30.2599 129.419 40.4145 138.514 41.2834C147.609 42.1524 169.698 36.3164 170.998 33.9431C172.297 31.5698 159.524 25.7208 159.524 25.7208C159.524 25.7208 158.004 10.1582 156.055 6.26753C154.106 2.37687 142.425 -1.07285 132.667 1.9489C122.909 4.97064 116.425 8.21285 116.646 13.6209C116.867 19.0289 119.466 30.2599 119.466 30.2599Z" fill="#245957" stroke="#245957" stroke-width="1.3" stroke-linecap="round" stroke-linejoin="round"/>
<path d="M126.274 31.064C135.37 31.8032 151.443 32.0367 159.512 25.7597" stroke="white" stroke-width="1.3" stroke-linecap="round" stroke-linejoin="round"/>
<path d="M93.9189 90.8763C93.9189 90.8763 97.2843 107.645 99.6491 116.723C102.014 125.802 102.417 129.342 104.392 130.133C106.367 130.924 170.203 120.86 170.203 120.86V113.961L121.985 109.227C121.985 109.227 117.567 77.6611 115.488 73.7186C114.895 72.5251 113.962 71.5329 112.806 70.8662C111.651 70.1994 110.324 69.8879 108.991 69.9705" fill="white"/>
<path d="M93.9189 90.8763C93.9189 90.8763 97.2843 107.645 99.6491 116.723C102.014 125.802 102.417 129.342 104.392 130.133C106.367 130.924 170.203 120.86 170.203 120.86V113.961L121.985 109.227C121.985 109.227 117.567 77.6611 115.488 73.7186C114.895 72.5251 113.962 71.5329 112.806 70.8662C111.651 70.1994 110.324 69.8879 108.991 69.9705" stroke="#245957" stroke-width="1.3" stroke-linecap="round" stroke-linejoin="round"/>
<path d="M120.453 96.0121C116.098 95.8749 111.761 96.646 107.72 98.2761C103.68 99.9062 100.024 102.36 96.9873 105.479C97.8709 109.487 98.8194 113.611 99.586 116.788C101.964 125.866 102.354 129.407 104.329 130.198C106.304 130.989 170.14 120.925 170.14 120.925V114.026L121.922 109.292C121.922 109.292 121.389 103.145 120.453 96.0121Z" fill="white" stroke="#245957" stroke-width="1.3" stroke-linecap="round" stroke-linejoin="round"/>
<path d="M121.985 109.227C121.985 109.227 112.695 108.436 107.952 112.768" stroke="#245957" stroke-width="1.3" stroke-linecap="round" stroke-linejoin="round"/>
<path d="M199.115 109.266C199.115 109.266 205.975 105.155 211.472 103.962L200.141 112.184L201.857 114.415L215.253 108.592C215.253 108.592 209.926 114.078 207.015 115.271C205.28 115.99 203.611 116.858 202.026 117.865L196.828 110.148L199.115 109.266Z" fill="white" stroke="#245957" stroke-width="1.3" stroke-linecap="round" stroke-linejoin="round"/>
<path d="M195.489 119.745C195.489 119.745 195.1 121.911 191.734 124.673C188.369 127.436 184.224 127.034 187.394 128.019C190.565 129.005 194.502 127.63 198.452 120.925C202.402 114.22 195.489 119.745 195.489 119.745Z" fill="white" stroke="#245957" stroke-width="1.3" stroke-linecap="round" stroke-linejoin="round"/>
<path d="M165.255 111.782L166.047 123.623L177.313 121.029C178.978 121.802 180.72 122.398 182.51 122.806C186.368 122.988 190.231 122.59 193.97 121.626C195.045 121.207 196.174 120.941 197.323 120.834C197.323 120.834 195.945 123.428 197.518 123.428C199.09 123.428 202.468 122.443 203.456 121.055C204.443 119.667 204.248 116.723 204.248 116.723C204.248 116.723 204.638 113.753 203.456 112.184C202.273 110.615 198.258 106.997 196.335 107.256C194.412 107.515 176.975 111.588 175.546 111.99C174.116 112.392 165.255 111.782 165.255 111.782Z" fill="#245957" stroke="#245957" stroke-width="1.3" stroke-linecap="round" stroke-linejoin="round"/>
<path d="M101.041 139.6C101.041 139.6 91.1525 152.569 89.5803 165.836C88.0081 179.104 92.5428 195.665 94.115 198.972C95.6872 202.279 95.3104 205.275 99.4553 205.871C103.6 206.468 124.143 206.662 125.143 203.109C126.144 199.555 126.923 152.816 126.131 145.903C125.338 138.991 115.658 135.658 111.513 135.658C107.656 135.645 103.929 137.048 101.041 139.6Z" fill="#53B175" stroke="#245957" stroke-width="1.3" stroke-linecap="round" stroke-linejoin="round"/>
<path d="M93.127 200.347C104.233 201.642 115.483 200.908 126.325 198.181C126.325 198.181 125.468 249.304 126.065 250.484C126.663 251.664 136.538 264.101 140.098 267.253C143.658 270.404 144.243 271.403 142.073 273.737C139.903 276.072 136.538 278.86 126.065 274.528C115.593 270.197 112.435 262.104 109.46 258.162C106.484 254.219 107.095 253.221 107.095 247.307C107.095 241.393 93.127 200.347 93.127 200.347Z" fill="#245957" stroke="#245957" stroke-width="1.3" stroke-linecap="round" stroke-linejoin="round"/>
<path d="M102.677 200.554C99.9296 195.701 97.9569 190.451 96.8301 184.991" stroke="#245957" stroke-width="1.3" stroke-linecap="round" stroke-linejoin="round"/>
<path d="M113.722 200.554C113.722 200.554 118.269 193.421 116.97 188.234" stroke="#245957" stroke-width="1.3" stroke-linecap="round" stroke-linejoin="round"/>
<path d="M3.37109 203.628L4.7484 229.176C4.81042 230.373 5.22084 231.526 5.92936 232.493C6.63788 233.461 7.61373 234.201 8.73738 234.623C17.4042 237.986 27.0189 237.986 35.6858 234.623C36.8026 234.206 37.774 233.474 38.4821 232.516C39.1902 231.559 39.6045 230.416 39.6748 229.228L41.2859 203.641L3.37109 203.628Z" fill="white" stroke="#245957" stroke-width="1.3" stroke-linecap="round" stroke-linejoin="round"/>
<path d="M1.5 194.887V203.965C1.5 205.573 10.7643 206.883 22.1856 206.883C33.6068 206.883 42.8711 205.586 42.8711 203.965V194.887H1.5Z" fill="white" stroke="#245957" stroke-width="1.3" stroke-linecap="round" stroke-linejoin="round"/>
<path d="M22.1856 197.805C33.6099 197.805 42.8711 196.498 42.8711 194.887C42.8711 193.275 33.6099 191.969 22.1856 191.969C10.7612 191.969 1.5 193.275 1.5 194.887C1.5 196.498 10.7612 197.805 22.1856 197.805Z" fill="white" stroke="#245957" stroke-width="1.3" stroke-linecap="round" stroke-linejoin="round"/>
<path d="M3.77441 196.261C7.20468 197.208 14.1692 197.857 22.1861 197.857C30.2031 197.857 37.1676 197.208 40.5978 196.261C37.1676 195.328 30.2031 194.679 22.1861 194.679C14.1692 194.679 7.26965 195.276 3.77441 196.261Z" fill="#245957" stroke="#245957" stroke-width="1.3" stroke-linecap="round" stroke-linejoin="round"/>
<path d="M18.2095 176.354C18.2095 176.354 16.6113 188.026 17.6768 195.678H29.072C31.2364 189.893 33.0118 183.97 34.3864 177.949L25.9016 180.063L18.2095 176.354Z" fill="white" stroke="#245957" stroke-width="1.3" stroke-linecap="round" stroke-linejoin="round"/>
<path d="M26.8501 174.954H26.5902C26.2513 174.909 25.9246 174.798 25.6288 174.627C25.3329 174.456 25.0738 174.228 24.8662 173.957C24.6586 173.686 24.5066 173.377 24.4189 173.047C24.3313 172.717 24.3097 172.374 24.3553 172.036L27.2659 150.689C27.3111 150.348 27.4231 150.02 27.5954 149.722C27.7678 149.425 27.9972 149.164 28.2705 148.955C28.5438 148.746 28.8556 148.593 29.1882 148.505C29.5208 148.416 29.8676 148.394 30.2089 148.439C30.5501 148.484 30.8792 148.596 31.1771 148.768C31.4751 148.94 31.7362 149.169 31.9456 149.441C32.1549 149.714 32.3084 150.025 32.3972 150.357C32.486 150.689 32.5085 151.036 32.4632 151.376L29.5657 172.736C29.4725 173.377 29.1421 173.961 28.6395 174.371C28.1369 174.782 27.4985 174.989 26.8501 174.954Z" fill="#245957" stroke="#245957" stroke-width="1.3" stroke-linecap="round" stroke-linejoin="round"/>
<path d="M25.0569 187.092H24.927C24.5884 187.044 24.2826 186.864 24.0758 186.593C23.8691 186.321 23.7781 185.978 23.8226 185.64L25.6546 172.191C25.7011 171.847 25.8827 171.536 26.1592 171.325C26.4358 171.115 26.7848 171.023 27.1294 171.069C27.474 171.116 27.786 171.297 27.9968 171.573C28.2076 171.849 28.2998 172.197 28.2533 172.541L26.4213 185.99C26.3731 186.311 26.2063 186.602 25.9538 186.806C25.7012 187.01 25.3813 187.112 25.0569 187.092Z" fill="white" stroke="#245957" stroke-width="1.3" stroke-linecap="round" stroke-linejoin="round"/>
<path d="M249.545 205.249L250.935 230.797C250.994 231.995 251.403 233.149 252.112 234.117C252.821 235.085 253.799 235.825 254.924 236.244C263.591 239.607 273.206 239.607 281.873 236.244C282.988 235.826 283.957 235.094 284.663 234.136C285.369 233.178 285.781 232.036 285.849 230.849L287.473 205.262L249.545 205.249Z" fill="white" stroke="#245957" stroke-width="1.3" stroke-linecap="round" stroke-linejoin="round"/>
<path d="M247.648 196.508V205.586C247.648 207.194 256.913 208.504 268.334 208.504C279.755 208.504 289.02 207.207 289.02 205.586V196.508H247.648Z" fill="white" stroke="#245957" stroke-width="1.3" stroke-linecap="round" stroke-linejoin="round"/>
<path d="M268.372 199.426C279.796 199.426 289.058 198.119 289.058 196.508C289.058 194.896 279.796 193.59 268.372 193.59C256.948 193.59 247.687 194.896 247.687 196.508C247.687 198.119 256.948 199.426 268.372 199.426Z" fill="white" stroke="#245957" stroke-width="1.3" stroke-linecap="round" stroke-linejoin="round"/>
<path d="M249.96 197.831C253.39 198.777 260.355 199.426 268.372 199.426C276.389 199.426 283.353 198.777 286.783 197.831C283.353 196.897 276.389 196.248 268.372 196.248C260.355 196.248 253.39 196.897 249.96 197.831Z" fill="#245957" stroke="#245957" stroke-width="1.3" stroke-linecap="round" stroke-linejoin="round"/>
<path d="M269.386 197.96C269.386 197.96 268.412 151.921 266.463 146.409C264.514 140.897 252.82 134.413 252.82 137.979C252.922 140.276 253.843 142.461 255.418 144.139C255.418 144.139 236.578 141.546 240.151 146.085C243.724 150.624 251.845 148.679 251.845 148.679C251.845 148.679 233.329 154.19 242.75 155.487C247.915 156.241 253.123 156.674 258.342 156.784C258.342 156.784 252.495 161.972 257.367 161.972C260.025 162.041 262.672 161.601 265.163 160.675L267.437 197.96H269.386Z" fill="#53B175"/>
<path d="M270.283 197.96L266.463 146.409C266.463 146.409 279.456 132.467 280.431 136.034C281.405 139.6 275.233 143.491 277.832 143.491C280.431 143.491 295.048 135.385 296.997 141.221C298.946 147.057 276.533 148.679 280.106 150.624C283.679 152.569 293.099 152.245 285.953 154.515C278.807 156.784 267.762 158.729 271.335 160.351C274.909 161.972 273.284 162.944 271.985 164.565L271.335 197.96H270.283Z" fill="#53B175"/>
<path d="M264.189 198.284C264.189 198.284 260.291 191.476 260.291 188.234C260.291 184.991 261.266 180.452 259.317 175.913C257.368 171.374 251.845 176.237 250.546 177.21C249.247 178.183 245.349 170.726 242.425 172.347C239.502 173.968 244.699 176.886 243.725 178.183C242.75 179.48 227.808 175.265 227.808 179.804C227.808 184.343 242.425 180.452 243.725 182.073C245.024 183.695 234.954 185.964 240.151 187.585C245.349 189.206 248.597 184.019 248.922 185.964C249.247 187.909 241.126 190.179 247.298 191.8C253.47 193.421 255.744 191.476 257.693 192.448C259.642 193.421 262.565 198.284 262.565 198.284H264.189Z" fill="#53B175"/>
<path d="M272.635 198.284C272.635 198.284 276.533 191.476 276.533 188.234C276.533 184.991 275.558 180.452 277.507 175.913C279.456 171.374 284.979 176.237 286.278 177.21C287.577 178.183 291.475 170.726 294.399 172.347C297.322 173.968 292.125 176.886 293.099 178.183C294.074 179.48 309.016 175.265 309.016 179.804C309.016 184.343 294.399 180.452 293.099 182.073C291.8 183.695 301.87 185.964 296.673 187.585C291.475 189.206 288.227 184.019 287.902 185.964C287.577 187.909 295.698 190.179 289.526 191.8C283.354 193.421 281.081 191.476 279.131 192.448C277.182 193.421 274.259 198.284 274.259 198.284H272.635Z" fill="#53B175"/>
<path d="M267.437 197.96C267.437 197.96 265.488 168.78 264.838 167.483C264.189 166.187 259.966 167.808 254.769 170.077C249.571 172.347 251.52 171.374 248.597 170.401C245.673 169.429 241.775 170.726 236.578 171.698C231.38 172.671 232.68 166.187 238.202 164.241C241.439 163.081 244.835 162.425 248.272 162.296C248.272 162.296 241.775 159.378 247.622 158.405C253.469 157.433 260.291 161.972 263.539 163.917C264.428 164.37 265.208 165.011 265.825 165.795C266.442 166.578 266.881 167.486 267.112 168.456L269.386 197.96H267.437Z" fill="#53B175"/>
<path d="M270.283 197.96C270.283 197.96 272.232 168.78 272.882 167.483C273.531 166.187 277.754 167.808 282.952 170.077C288.149 172.347 286.2 171.374 289.123 170.401C292.047 169.429 295.945 170.726 301.142 171.698C306.34 172.671 305.04 166.187 299.518 164.241C296.281 163.081 292.885 162.425 289.448 162.296C289.448 162.296 295.945 159.378 290.098 158.405C284.251 157.433 277.429 161.972 274.181 163.917C273.292 164.37 272.512 165.011 271.895 165.795C271.278 166.578 270.839 167.486 270.608 168.456L268.334 197.96H270.283Z" fill="#53B175"/>
<path d="M302.987 205.249L304.378 230.797C304.44 231.994 304.85 233.147 305.559 234.114C306.267 235.082 307.243 235.822 308.367 236.244C317.033 239.607 326.648 239.607 335.315 236.244C336.432 235.827 337.403 235.095 338.111 234.137C338.819 233.18 339.234 232.037 339.304 230.849L340.915 205.262L302.987 205.249Z" fill="white" stroke="#245957" stroke-width="1.3" stroke-linecap="round" stroke-linejoin="round"/>
<path d="M301.129 196.508V205.586C301.129 207.194 310.393 208.504 321.814 208.504C333.236 208.504 342.5 207.207 342.5 205.586V196.508H301.129Z" fill="white" stroke="#245957" stroke-width="1.3" stroke-linecap="round" stroke-linejoin="round"/>
<path d="M321.814 199.426C333.239 199.426 342.5 198.119 342.5 196.508C342.5 194.896 333.239 193.59 321.814 193.59C310.39 193.59 301.129 194.896 301.129 196.508C301.129 198.119 310.39 199.426 321.814 199.426Z" fill="white" stroke="#245957" stroke-width="1.3" stroke-linecap="round" stroke-linejoin="round"/>
<path d="M303.416 197.831C306.833 198.777 313.811 199.426 321.815 199.426C329.819 199.426 336.809 198.777 340.226 197.831C336.809 196.897 329.832 196.248 321.815 196.248C313.798 196.248 306.833 196.897 303.416 197.831Z" fill="#245957" stroke="#245957" stroke-width="1.3" stroke-linecap="round" stroke-linejoin="round"/>
<path d="M311.459 176.224C314.8 183.268 317.522 190.589 319.593 198.103C319.593 198.103 318.813 171.997 316.929 162.309" stroke="#245957" stroke-width="0.65" stroke-linecap="round" stroke-linejoin="round"/>
<path d="M329.609 169.027C329.609 169.027 322.723 183.876 321.476 197.947" stroke="#245957" stroke-width="0.65" stroke-linecap="round" stroke-linejoin="round"/>
<path d="M331.338 181.373C331.338 181.373 324.452 192.163 323.659 198.103" stroke="#245957" stroke-width="0.65" stroke-linecap="round" stroke-linejoin="round"/>
<path d="M318.345 187.002C319.438 190.396 320.119 193.91 320.372 197.467" stroke="#245957" stroke-width="0.65" stroke-linecap="round" stroke-linejoin="round"/>
<path d="M317.396 159.819C317.396 159.819 314.537 156.59 312.419 157.64C310.301 158.691 309.95 160.454 313.121 161.155C316.291 161.855 309.106 161.453 310.522 164.967C311.938 168.482 315.382 162.374 316.785 164.501C318.188 166.627 318.084 168.508 320.072 167.626C323.672 166.057 319.488 163.567 320.54 162.153C321.593 160.74 323.711 161.868 323.711 159.754C323.711 157.64 320.93 155.941 317.396 159.819Z" fill="#53B175"/>
<path d="M330.714 167.004C330.714 167.004 327.843 163.774 325.725 164.825C323.607 165.875 323.256 167.639 326.427 168.352C329.597 169.066 322.412 168.638 323.828 172.152C325.244 175.667 328.687 169.558 330.091 171.685C331.494 173.812 331.39 175.706 333.378 174.811C336.99 173.255 332.793 170.752 333.859 169.351C334.924 167.95 337.016 169.053 337.016 166.939C337.016 164.825 334.236 163.126 330.714 167.004Z" fill="#53B175"/>
<path d="M318.813 185.29C318.813 185.29 315.941 182.06 313.823 183.111C311.705 184.161 311.368 185.925 314.538 186.625C317.708 187.326 310.51 186.924 311.939 190.438C313.369 193.953 316.786 187.845 318.202 189.971C319.618 192.098 319.436 193.979 321.489 193.097C325.089 191.528 320.892 189.038 321.957 187.624C323.023 186.21 325.115 187.339 325.115 185.225C325.115 183.111 322.334 181.412 318.813 185.29Z" fill="#53B175"/>
<path d="M311.926 174.033C311.926 174.033 309.055 170.803 306.937 171.867C304.819 172.93 304.468 174.681 307.638 175.381C310.809 176.082 303.624 175.667 305.04 179.194C306.456 182.722 309.886 176.601 311.303 178.714C312.719 180.828 312.537 182.735 314.59 181.84C318.189 180.284 313.992 177.781 315.058 176.38C316.123 174.979 318.215 176.082 318.215 173.968C318.215 171.854 315.448 170.168 311.926 174.033Z" fill="#53B175"/>
<path d="M332.274 179.817C332.274 179.817 329.402 176.588 327.297 177.638C325.192 178.689 324.828 180.452 327.999 181.166C331.169 181.879 323.971 181.451 325.4 184.965C326.829 188.48 330.247 182.372 331.663 184.499C333.079 186.625 332.962 188.519 334.95 187.624C338.55 186.068 334.366 183.565 335.418 182.164C336.471 180.764 338.576 181.866 338.576 179.752C338.576 177.638 335.795 175.939 332.274 179.817Z" fill="#53B175"/>
<path d="M187.474 243.987C187.474 243.987 180.315 221.81 202.286 179.039C224.258 136.267 203.391 67.1952 203.391 67.1952" stroke="#53B175" stroke-width="3.9" stroke-linecap="round" stroke-linejoin="round"/>
<path d="M173.727 242.651C173.727 242.651 166.035 226.206 174.819 202.071C183.602 177.936 181.315 164.254 181.315 164.254" stroke="#53B175" stroke-width="3.9" stroke-linecap="round" stroke-linejoin="round"/>
<path d="M207.161 168.106C207.161 168.106 224.26 147.239 230.861 122.015C232.381 116.192 233.551 111.069 234.46 106.621" stroke="#53B175" stroke-width="3.9" stroke-linecap="round" stroke-linejoin="round"/>
<path d="M194.271 244.389C194.271 244.389 204.483 224.002 206.692 194.394C207.965 176.302 206.106 158.126 201.196 140.664" stroke="#53B175" stroke-width="3.9" stroke-linecap="round" stroke-linejoin="round"/>
<path d="M195.531 178.961C195.44 179.609 194.543 180.089 194.374 180.712C194.205 181.334 194.738 182.216 194.491 182.813C194.244 183.409 193.257 183.656 192.932 184.213C192.607 184.771 192.932 185.757 192.49 186.275C192.049 186.794 191.074 186.768 190.606 187.222C190.139 187.676 190.177 188.701 189.658 189.103C189.138 189.505 188.163 189.206 187.605 189.53C187.046 189.855 186.799 190.827 186.188 191.1C185.578 191.372 184.72 190.814 184.097 190.983C183.473 191.152 182.979 192.046 182.329 192.137C181.68 192.228 181.03 191.476 180.328 191.476C179.627 191.476 178.964 192.215 178.314 192.137C177.665 192.059 177.184 191.152 176.56 190.983C175.937 190.814 175.053 191.346 174.455 191.1C173.858 190.853 173.611 189.868 173.052 189.543C172.493 189.219 171.506 189.543 170.986 189.103C170.466 188.662 170.492 187.689 170.038 187.222C169.583 186.755 168.556 186.794 168.154 186.275C167.751 185.757 168.05 184.784 167.725 184.226C167.4 183.669 166.425 183.422 166.153 182.813C165.88 182.203 166.438 181.347 166.27 180.725C166.101 180.102 165.204 179.609 165.113 178.961C165.022 178.312 165.776 177.664 165.776 176.964C165.776 176.263 165.035 175.602 165.113 174.966C165.191 174.331 166.101 173.825 166.27 173.203C166.438 172.58 165.906 171.698 166.153 171.102C166.399 170.505 167.452 170.259 167.725 169.701C167.998 169.143 167.725 168.158 168.154 167.639C168.582 167.12 169.57 167.146 170.038 166.692C170.505 166.238 170.466 165.214 170.986 164.812C171.506 164.41 172.48 164.708 173.052 164.384C173.624 164.06 173.845 163.087 174.455 162.815C175.066 162.542 175.924 163.1 176.56 162.931C177.197 162.763 177.665 161.868 178.314 161.777C178.964 161.686 179.614 162.439 180.328 162.439C181.043 162.439 181.628 161.699 182.329 161.777C183.031 161.855 183.46 162.763 184.084 162.931C184.707 163.1 185.591 162.568 186.188 162.815C186.786 163.061 187.033 164.112 187.592 164.384C188.151 164.656 189.138 164.384 189.658 164.812C190.177 165.24 190.152 166.225 190.606 166.692C191.061 167.159 192.088 167.12 192.49 167.639C192.893 168.158 192.594 169.13 192.919 169.701C193.244 170.272 194.218 170.492 194.491 171.102C194.764 171.711 194.205 172.567 194.374 173.203C194.543 173.838 195.44 174.305 195.531 174.954C195.622 175.602 194.868 176.25 194.868 176.964C194.868 177.677 195.674 178.312 195.531 178.961ZM216.32 135.71C216.32 134.88 217.243 133.998 217.139 133.194C217.035 132.39 215.84 131.754 215.697 130.976C215.554 130.198 216.151 129.083 215.84 128.382C215.528 127.682 214.267 127.319 213.865 126.606C213.462 125.892 213.865 124.673 213.306 124.012C212.747 123.35 211.526 123.389 210.941 122.806C210.356 122.222 210.395 120.951 209.746 120.445C209.096 119.94 207.862 120.316 207.147 119.901C206.432 119.486 206.133 118.241 205.38 117.929C204.626 117.618 203.522 118.28 202.781 118.072C202.041 117.865 201.378 116.775 200.546 116.62C199.715 116.464 198.857 117.45 198.026 117.45C197.194 117.45 196.31 116.516 195.505 116.62C194.699 116.723 194.063 117.916 193.283 118.072C192.503 118.228 191.386 117.618 190.684 117.929C189.983 118.241 189.619 119.486 188.904 119.901C188.19 120.316 186.968 119.901 186.305 120.445C185.643 120.99 185.695 122.235 185.11 122.806C184.525 123.376 183.252 123.363 182.745 124.012C182.238 124.66 182.602 125.892 182.2 126.606C181.797 127.319 180.536 127.604 180.225 128.369C179.913 129.135 180.575 130.211 180.354 130.963C180.134 131.715 179.055 132.364 178.912 133.181C178.769 133.998 179.744 134.867 179.744 135.697C179.744 136.527 178.808 137.422 178.912 138.226C179.016 139.03 180.212 139.652 180.367 140.443C180.523 141.234 179.9 142.337 180.225 143.037C180.549 143.737 181.784 144.101 182.2 144.801C182.615 145.501 182.2 146.746 182.745 147.395C183.291 148.043 184.538 148.017 185.11 148.588C185.682 149.158 185.656 150.455 186.318 150.961C186.981 151.467 188.202 151.091 188.917 151.506C189.632 151.921 189.931 153.166 190.697 153.477C191.464 153.788 192.542 153.127 193.296 153.334C194.05 153.542 194.699 154.631 195.518 154.774C196.336 154.917 197.207 153.957 198.039 153.957C198.87 153.957 199.754 154.878 200.559 154.774C201.365 154.67 202.002 153.542 202.794 153.334C203.587 153.127 204.691 153.788 205.393 153.477C206.094 153.166 206.458 151.908 207.16 151.506C207.862 151.104 209.109 151.506 209.759 150.948C210.408 150.39 210.382 149.171 210.954 148.588C211.526 148.004 212.825 148.043 213.319 147.395C213.813 146.746 213.462 145.514 213.878 144.801C214.293 144.088 215.541 143.789 215.853 143.037C216.164 142.285 215.489 141.183 215.71 140.443C215.931 139.704 217.009 139.043 217.152 138.226C217.295 137.409 216.268 136.605 216.268 135.71H216.32ZM218.49 209.23C218.49 208.4 219.413 207.518 219.309 206.714C219.205 205.91 218.074 205.275 217.866 204.484C217.659 203.692 218.321 202.603 218.009 201.89C217.698 201.177 216.437 200.839 216.034 200.126C215.632 199.413 216.034 198.181 215.476 197.532C214.917 196.884 213.696 196.923 213.111 196.339C212.526 195.756 212.565 194.472 211.916 193.979C211.266 193.486 210.031 193.836 209.317 193.421C208.602 193.006 208.303 191.774 207.55 191.45C206.796 191.126 205.692 191.813 204.951 191.593C204.21 191.372 203.548 190.296 202.716 190.153C201.885 190.01 201.027 190.983 200.195 190.983C199.364 190.983 198.48 190.049 197.675 190.153C196.869 190.257 196.232 191.385 195.453 191.593C194.673 191.8 193.556 191.139 192.854 191.45C192.152 191.761 191.789 193.019 191.074 193.421C190.359 193.823 189.138 193.421 188.475 193.979C187.813 194.536 187.852 195.756 187.267 196.339C186.682 196.923 185.409 196.884 184.902 197.532C184.395 198.181 184.759 199.413 184.356 200.126C183.954 200.839 182.693 201.138 182.381 201.903C182.07 202.668 182.732 203.744 182.524 204.497C182.316 205.249 181.225 205.884 181.069 206.714C180.913 207.544 181.901 208.4 181.901 209.23C181.901 210.06 180.965 210.942 181.069 211.746C181.173 212.55 182.303 213.186 182.524 213.977C182.745 214.768 182.07 215.857 182.381 216.571C182.693 217.284 183.941 217.621 184.356 218.334C184.772 219.048 184.356 220.28 184.902 220.928C185.448 221.577 186.695 221.538 187.267 222.121C187.839 222.705 187.826 223.989 188.475 224.482C189.125 224.974 190.359 224.624 191.074 225.039C191.789 225.454 192.075 226.686 192.841 227.01C193.608 227.335 194.686 226.647 195.44 226.868C196.193 227.088 196.843 228.165 197.662 228.307C198.48 228.45 199.351 227.477 200.182 227.477C201.014 227.477 201.911 228.411 202.716 228.307C203.522 228.204 204.145 227.011 204.938 226.868C205.731 226.725 206.835 227.322 207.537 227.01C208.238 226.699 208.602 225.441 209.304 225.039C210.005 224.637 211.253 225.039 211.903 224.482C212.552 223.924 212.526 222.705 213.098 222.121C213.67 221.538 214.969 221.577 215.476 220.928C215.982 220.28 215.606 219.048 216.021 218.334C216.437 217.621 217.685 217.323 217.996 216.558C218.308 215.792 217.646 214.716 217.854 213.964C218.061 213.212 219.153 212.576 219.296 211.746C219.439 210.916 218.49 210.112 218.49 209.23ZM180.588 219.683C180.588 219.125 181.537 218.529 181.459 217.997C181.381 217.465 180.315 217.115 180.16 216.597C180.004 216.078 180.783 215.235 180.575 214.729C180.367 214.223 179.276 214.184 178.977 213.717C178.678 213.251 179.211 212.239 178.886 211.811C178.561 211.383 177.457 211.629 177.067 211.24C176.677 210.851 176.924 209.762 176.495 209.438C176.067 209.113 175.066 209.619 174.598 209.347C174.131 209.075 174.079 207.959 173.572 207.752C173.065 207.544 172.273 208.296 171.714 208.154C171.155 208.011 170.856 206.948 170.311 206.857C169.765 206.766 169.167 207.739 168.621 207.739C168.076 207.739 167.465 206.792 166.932 206.857C166.399 206.922 166.049 208.011 165.529 208.154C165.009 208.296 164.165 207.544 163.671 207.752C163.177 207.959 163.112 209.049 162.644 209.347C162.177 209.645 161.176 209.113 160.747 209.438C160.319 209.762 160.552 210.864 160.176 211.253C159.799 211.642 158.681 211.396 158.357 211.824C158.032 212.252 158.538 213.251 158.266 213.717C157.993 214.184 156.875 214.236 156.667 214.742C156.46 215.248 157.213 216.039 157.083 216.597C156.953 217.154 155.862 217.452 155.784 217.997C155.706 218.542 156.654 219.125 156.654 219.683C156.654 220.241 155.706 220.837 155.784 221.369C155.862 221.901 156.927 222.251 157.083 222.77C157.239 223.288 156.46 224.067 156.667 224.624C156.875 225.182 157.967 225.182 158.279 225.649C158.59 226.116 158.032 227.114 158.357 227.542C158.681 227.97 159.786 227.737 160.176 228.113C160.565 228.489 160.319 229.591 160.747 229.928C161.176 230.266 162.177 229.734 162.644 230.006C163.112 230.279 163.164 231.407 163.671 231.614C164.178 231.822 164.97 231.057 165.529 231.199C166.088 231.342 166.387 232.419 166.932 232.496C167.478 232.574 168.076 231.614 168.621 231.614C169.167 231.614 169.778 232.561 170.311 232.496C170.843 232.431 171.194 231.355 171.714 231.199C172.234 231.044 173.078 231.822 173.572 231.614C174.066 231.407 174.131 230.318 174.598 230.006C175.066 229.695 176.067 230.253 176.495 229.928C176.924 229.604 176.69 228.489 177.067 228.113C177.444 227.737 178.561 227.97 178.886 227.542C179.211 227.114 178.704 226.116 178.977 225.649C179.25 225.182 180.367 225.13 180.575 224.624C180.783 224.118 180.03 223.327 180.173 222.77C180.315 222.212 181.381 221.914 181.472 221.369C181.563 220.824 180.588 220.28 180.588 219.735V219.683ZM220.66 69.2443C220.66 68.4143 221.596 67.5324 221.492 66.7284C221.388 65.9243 220.257 65.2888 220.049 64.4977C219.842 63.7066 220.504 62.6172 220.192 61.9039C219.88 61.1907 218.62 60.8405 218.217 60.1272C217.815 59.4139 218.217 58.1819 217.659 57.5334C217.1 56.885 215.879 56.9239 215.294 56.3403C214.709 55.7567 214.748 54.4728 214.098 53.98C213.449 53.4872 212.214 53.8373 211.5 53.4223C210.785 53.0073 210.486 51.7753 209.72 51.451C208.953 51.1268 207.875 51.8142 207.121 51.5937C206.367 51.3732 205.731 50.2968 204.899 50.1542C204.067 50.0115 203.21 50.9842 202.378 50.9842C201.547 50.9842 200.663 50.0504 199.858 50.1542C199.052 50.2579 198.415 51.451 197.623 51.5937C196.83 51.7364 195.739 51.1398 195.024 51.451C194.309 51.7623 193.972 53.0203 193.257 53.4223C192.542 53.8244 191.308 53.4223 190.658 53.98C190.009 54.5376 190.048 55.7567 189.463 56.3403C188.878 56.9239 187.592 56.885 187.098 57.5334C186.604 58.1819 186.955 59.4139 186.539 60.1272C186.124 60.8405 184.889 61.1388 184.564 61.9039C184.239 62.6691 184.928 63.7455 184.707 64.4977C184.486 65.2499 183.408 65.8854 183.265 66.7154C183.122 67.5454 184.097 68.4013 184.097 69.2313C184.097 70.0613 183.161 70.9432 183.265 71.7473C183.369 72.5514 184.499 73.1868 184.707 73.9779C184.915 74.7691 184.252 75.8584 184.564 76.5717C184.876 77.285 186.137 77.6222 186.539 78.3355C186.942 79.0488 186.539 80.2808 187.098 80.9293C187.657 81.5777 188.878 81.5388 189.463 82.1224C190.048 82.706 190.009 83.9899 190.658 84.4827C191.308 84.9756 192.542 84.6254 193.257 85.0404C193.972 85.4554 194.27 86.6875 195.037 87.0117C195.804 87.3359 196.882 86.6485 197.636 86.869C198.389 87.0895 199.026 88.1659 199.858 88.3086C200.689 88.4512 201.547 87.4785 202.378 87.4785C203.21 87.4785 204.093 88.4123 204.899 88.3086C205.705 88.2048 206.341 87.0765 207.134 86.869C207.927 86.6615 209.018 87.3229 209.733 87.0117C210.447 86.7004 210.785 85.4424 211.5 85.0404C212.214 84.6384 213.449 85.0404 214.098 84.4827C214.748 83.9251 214.709 82.706 215.294 82.1224C215.879 81.5388 217.165 81.5777 217.659 80.9293C218.152 80.2808 217.802 79.0488 218.217 78.3355C218.633 77.6222 219.868 77.3239 220.192 76.5588C220.517 75.7936 219.829 74.7172 220.049 73.965C220.27 73.2128 221.349 72.5773 221.492 71.7473C221.635 70.9173 220.66 70.0873 220.66 69.2573V69.2443ZM254.235 102.743C254.235 101.913 255.158 101.031 255.054 100.227C254.95 99.4229 253.819 98.7874 253.611 98.0092C253.404 97.2311 254.066 96.1158 253.754 95.4155C253.443 94.7152 252.182 94.352 251.779 93.6387C251.377 92.9255 251.779 91.7064 251.221 91.045C250.662 90.3836 249.441 90.4225 248.856 89.8389C248.271 89.2553 248.31 87.9843 247.66 87.4785C247.011 86.9728 245.776 87.3489 245.062 86.9339C244.347 86.5189 244.048 85.2738 243.295 84.9626C242.541 84.6513 241.437 85.3128 240.696 85.1053C239.955 84.8978 239.293 83.8084 238.474 83.6527C237.656 83.4971 236.772 84.4827 235.94 84.4827C235.109 84.4827 234.225 83.549 233.42 83.6527C232.614 83.7565 231.977 84.9496 231.198 85.1053C230.418 85.2609 229.301 84.6513 228.599 84.9626C227.897 85.2738 227.534 86.5189 226.819 86.9339C226.104 87.3489 224.883 86.9338 224.22 87.4785C223.558 88.0232 223.597 89.2682 223.012 89.8389C222.427 90.4095 221.154 90.3965 220.647 91.045C220.14 91.6934 220.504 92.9255 220.101 93.6387C219.699 94.352 218.438 94.6374 218.126 95.4025C217.815 96.1677 218.477 97.2441 218.269 97.9963C218.061 98.7485 216.97 99.3969 216.814 100.214C216.658 101.031 217.646 101.9 217.646 102.73C217.646 103.56 216.71 104.455 216.814 105.324C216.918 106.193 218.048 106.75 218.269 107.541C218.49 108.332 217.815 109.435 218.126 110.135C218.438 110.835 219.686 111.199 220.101 111.899C220.517 112.599 220.101 113.844 220.647 114.493C221.193 115.141 222.44 115.115 223.012 115.686C223.584 116.256 223.571 117.553 224.22 118.059C224.87 118.565 226.104 118.189 226.819 118.604C227.534 119.019 227.819 120.264 228.586 120.575C229.353 120.886 230.431 120.225 231.185 120.432C231.938 120.64 232.588 121.729 233.407 121.872C234.225 122.015 235.096 121.055 235.927 121.055C236.759 121.055 237.656 121.976 238.461 121.872C239.267 121.768 239.89 120.64 240.683 120.432C241.476 120.225 242.58 120.886 243.282 120.575C243.983 120.264 244.347 119.006 245.049 118.604C245.75 118.202 246.998 118.604 247.647 118.046C248.297 117.488 248.271 116.269 248.843 115.686C249.415 115.102 250.714 115.141 251.221 114.493C251.727 113.844 251.351 112.612 251.766 111.899C252.182 111.186 253.43 110.887 253.741 110.135C254.053 109.383 253.391 108.281 253.598 107.541C253.806 106.802 254.898 106.141 255.041 105.324C255.184 104.507 254.235 103.599 254.235 102.756V102.743Z" fill="#53B175"/>
<path opacity="0.53" d="M195.531 178.961C195.44 179.609 194.543 180.089 194.374 180.712C194.205 181.334 194.738 182.216 194.491 182.813C194.244 183.409 193.257 183.656 192.932 184.213C192.607 184.771 192.932 185.757 192.49 186.275C192.049 186.794 191.074 186.768 190.606 187.222C190.139 187.676 190.177 188.701 189.658 189.103C189.138 189.505 188.163 189.206 187.605 189.53C187.046 189.855 186.799 190.827 186.188 191.1C185.578 191.372 184.72 190.814 184.097 190.983C183.473 191.152 182.979 192.046 182.329 192.137C181.68 192.228 181.03 191.476 180.328 191.476C179.627 191.476 178.964 192.215 178.314 192.137C177.665 192.059 177.184 191.152 176.56 190.983C175.937 190.814 175.053 191.346 174.455 191.1C173.858 190.853 173.611 189.868 173.052 189.543C172.493 189.219 171.506 189.543 170.986 189.103C170.466 188.662 170.492 187.689 170.038 187.222C169.583 186.755 168.556 186.794 168.154 186.275C167.751 185.757 168.05 184.784 167.725 184.226C167.4 183.669 166.425 183.422 166.153 182.813C165.88 182.203 166.438 181.347 166.27 180.725C166.101 180.102 165.204 179.609 165.113 178.961C165.022 178.312 165.776 177.664 165.776 176.964C165.776 176.263 165.035 175.602 165.113 174.966C165.191 174.331 166.101 173.825 166.27 173.203C166.438 172.58 165.906 171.698 166.153 171.102C166.399 170.505 167.452 170.259 167.725 169.701C167.998 169.143 167.725 168.158 168.154 167.639C168.582 167.12 169.57 167.146 170.038 166.692C170.505 166.238 170.466 165.214 170.986 164.812C171.506 164.41 172.48 164.708 173.052 164.384C173.624 164.06 173.845 163.087 174.455 162.815C175.066 162.542 175.924 163.1 176.56 162.931C177.197 162.763 177.665 161.868 178.314 161.777C178.964 161.686 179.614 162.439 180.328 162.439C181.043 162.439 181.628 161.699 182.329 161.777C183.031 161.855 183.46 162.763 184.084 162.931C184.707 163.1 185.591 162.568 186.188 162.815C186.786 163.061 187.033 164.112 187.592 164.384C188.151 164.656 189.138 164.384 189.658 164.812C190.177 165.24 190.152 166.225 190.606 166.692C191.061 167.159 192.088 167.12 192.49 167.639C192.893 168.158 192.594 169.13 192.919 169.701C193.244 170.272 194.218 170.492 194.491 171.102C194.764 171.711 194.205 172.567 194.374 173.203C194.543 173.838 195.44 174.305 195.531 174.954C195.622 175.602 194.868 176.25 194.868 176.964C194.868 177.677 195.674 178.312 195.531 178.961ZM216.32 135.71C216.32 134.88 217.243 133.998 217.139 133.194C217.035 132.39 215.84 131.754 215.697 130.976C215.554 130.198 216.151 129.083 215.84 128.382C215.528 127.682 214.267 127.319 213.865 126.606C213.462 125.892 213.865 124.673 213.306 124.012C212.747 123.35 211.526 123.389 210.941 122.806C210.356 122.222 210.395 120.951 209.746 120.445C209.096 119.94 207.862 120.316 207.147 119.901C206.432 119.486 206.133 118.241 205.38 117.929C204.626 117.618 203.522 118.28 202.781 118.072C202.041 117.865 201.378 116.775 200.546 116.62C199.715 116.464 198.857 117.45 198.026 117.45C197.194 117.45 196.31 116.516 195.505 116.62C194.699 116.723 194.063 117.916 193.283 118.072C192.503 118.228 191.386 117.618 190.684 117.929C189.983 118.241 189.619 119.486 188.904 119.901C188.19 120.316 186.968 119.901 186.305 120.445C185.643 120.99 185.695 122.235 185.11 122.806C184.525 123.376 183.252 123.363 182.745 124.012C182.238 124.66 182.602 125.892 182.2 126.606C181.797 127.319 180.536 127.604 180.225 128.369C179.913 129.135 180.575 130.211 180.354 130.963C180.134 131.715 179.055 132.364 178.912 133.181C178.769 133.998 179.744 134.867 179.744 135.697C179.744 136.527 178.808 137.422 178.912 138.226C179.016 139.03 180.212 139.652 180.367 140.443C180.523 141.234 179.9 142.337 180.225 143.037C180.549 143.737 181.784 144.101 182.2 144.801C182.615 145.501 182.2 146.746 182.745 147.395C183.291 148.043 184.538 148.017 185.11 148.588C185.682 149.158 185.656 150.455 186.318 150.961C186.981 151.467 188.202 151.091 188.917 151.506C189.632 151.921 189.931 153.166 190.697 153.477C191.464 153.788 192.542 153.127 193.296 153.334C194.05 153.542 194.699 154.631 195.518 154.774C196.336 154.917 197.207 153.957 198.039 153.957C198.87 153.957 199.754 154.878 200.559 154.774C201.365 154.67 202.002 153.542 202.794 153.334C203.587 153.127 204.691 153.788 205.393 153.477C206.094 153.166 206.458 151.908 207.16 151.506C207.862 151.104 209.109 151.506 209.759 150.948C210.408 150.39 210.382 149.171 210.954 148.588C211.526 148.004 212.825 148.043 213.319 147.395C213.813 146.746 213.462 145.514 213.878 144.801C214.293 144.088 215.541 143.789 215.853 143.037C216.164 142.285 215.489 141.183 215.71 140.443C215.931 139.704 217.009 139.043 217.152 138.226C217.295 137.409 216.268 136.605 216.268 135.71H216.32ZM218.49 209.23C218.49 208.4 219.413 207.518 219.309 206.714C219.205 205.91 218.074 205.275 217.866 204.484C217.659 203.692 218.321 202.603 218.009 201.89C217.698 201.177 216.437 200.839 216.034 200.126C215.632 199.413 216.034 198.181 215.476 197.532C214.917 196.884 213.696 196.923 213.111 196.339C212.526 195.756 212.565 194.472 211.916 193.979C211.266 193.486 210.031 193.836 209.317 193.421C208.602 193.006 208.303 191.774 207.55 191.45C206.796 191.126 205.692 191.813 204.951 191.593C204.21 191.372 203.548 190.296 202.716 190.153C201.885 190.01 201.027 190.983 200.195 190.983C199.364 190.983 198.48 190.049 197.675 190.153C196.869 190.257 196.232 191.385 195.453 191.593C194.673 191.8 193.556 191.139 192.854 191.45C192.152 191.761 191.789 193.019 191.074 193.421C190.359 193.823 189.138 193.421 188.475 193.979C187.813 194.536 187.852 195.756 187.267 196.339C186.682 196.923 185.409 196.884 184.902 197.532C184.395 198.181 184.759 199.413 184.356 200.126C183.954 200.839 182.693 201.138 182.381 201.903C182.07 202.668 182.732 203.744 182.524 204.497C182.316 205.249 181.225 205.884 181.069 206.714C180.913 207.544 181.901 208.4 181.901 209.23C181.901 210.06 180.965 210.942 181.069 211.746C181.173 212.55 182.303 213.186 182.524 213.977C182.745 214.768 182.07 215.857 182.381 216.571C182.693 217.284 183.941 217.621 184.356 218.334C184.772 219.048 184.356 220.28 184.902 220.928C185.448 221.577 186.695 221.538 187.267 222.121C187.839 222.705 187.826 223.989 188.475 224.482C189.125 224.974 190.359 224.624 191.074 225.039C191.789 225.454 192.075 226.686 192.841 227.01C193.608 227.335 194.686 226.647 195.44 226.868C196.193 227.088 196.843 228.165 197.662 228.307C198.48 228.45 199.351 227.477 200.182 227.477C201.014 227.477 201.911 228.411 202.716 228.307C203.522 228.204 204.145 227.011 204.938 226.868C205.731 226.725 206.835 227.322 207.537 227.01C208.238 226.699 208.602 225.441 209.304 225.039C210.005 224.637 211.253 225.039 211.903 224.482C212.552 223.924 212.526 222.705 213.098 222.121C213.67 221.538 214.969 221.577 215.476 220.928C215.982 220.28 215.606 219.048 216.021 218.334C216.437 217.621 217.685 217.323 217.996 216.558C218.308 215.792 217.646 214.716 217.854 213.964C218.061 213.212 219.153 212.576 219.296 211.746C219.439 210.916 218.49 210.112 218.49 209.23ZM180.588 219.683C180.588 219.125 181.537 218.529 181.459 217.997C181.381 217.465 180.315 217.115 180.16 216.597C180.004 216.078 180.783 215.235 180.575 214.729C180.367 214.223 179.276 214.184 178.977 213.717C178.678 213.251 179.211 212.239 178.886 211.811C178.561 211.383 177.457 211.629 177.067 211.24C176.677 210.851 176.924 209.762 176.495 209.438C176.067 209.113 175.066 209.619 174.598 209.347C174.131 209.075 174.079 207.959 173.572 207.752C173.065 207.544 172.273 208.296 171.714 208.154C171.155 208.011 170.856 206.948 170.311 206.857C169.765 206.766 169.167 207.739 168.621 207.739C168.076 207.739 167.465 206.792 166.932 206.857C166.399 206.922 166.049 208.011 165.529 208.154C165.009 208.296 164.165 207.544 163.671 207.752C163.177 207.959 163.112 209.049 162.644 209.347C162.177 209.645 161.176 209.113 160.747 209.438C160.319 209.762 160.552 210.864 160.176 211.253C159.799 211.642 158.681 211.396 158.357 211.824C158.032 212.252 158.538 213.251 158.266 213.717C157.993 214.184 156.875 214.236 156.667 214.742C156.46 215.248 157.213 216.039 157.083 216.597C156.953 217.154 155.862 217.452 155.784 217.997C155.706 218.542 156.654 219.125 156.654 219.683C156.654 220.241 155.706 220.837 155.784 221.369C155.862 221.901 156.927 222.251 157.083 222.77C157.239 223.288 156.46 224.067 156.667 224.624C156.875 225.182 157.967 225.182 158.279 225.649C158.59 226.116 158.032 227.114 158.357 227.542C158.681 227.97 159.786 227.737 160.176 228.113C160.565 228.489 160.319 229.591 160.747 229.928C161.176 230.266 162.177 229.734 162.644 230.006C163.112 230.279 163.164 231.407 163.671 231.614C164.178 231.822 164.97 231.057 165.529 231.199C166.088 231.342 166.387 232.419 166.932 232.496C167.478 232.574 168.076 231.614 168.621 231.614C169.167 231.614 169.778 232.561 170.311 232.496C170.843 232.431 171.194 231.355 171.714 231.199C172.234 231.044 173.078 231.822 173.572 231.614C174.066 231.407 174.131 230.318 174.598 230.006C175.066 229.695 176.067 230.253 176.495 229.928C176.924 229.604 176.69 228.489 177.067 228.113C177.444 227.737 178.561 227.97 178.886 227.542C179.211 227.114 178.704 226.116 178.977 225.649C179.25 225.182 180.367 225.13 180.575 224.624C180.783 224.118 180.03 223.327 180.173 222.77C180.315 222.212 181.381 221.914 181.472 221.369C181.563 220.824 180.588 220.28 180.588 219.735V219.683ZM220.66 69.2443C220.66 68.4143 221.596 67.5324 221.492 66.7284C221.388 65.9243 220.257 65.2888 220.049 64.4977C219.842 63.7066 220.504 62.6172 220.192 61.9039C219.88 61.1907 218.62 60.8405 218.217 60.1272C217.815 59.4139 218.217 58.1819 217.659 57.5334C217.1 56.885 215.879 56.9239 215.294 56.3403C214.709 55.7567 214.748 54.4728 214.098 53.98C213.449 53.4872 212.214 53.8373 211.5 53.4223C210.785 53.0073 210.486 51.7753 209.72 51.451C208.953 51.1268 207.875 51.8142 207.121 51.5937C206.367 51.3732 205.731 50.2968 204.899 50.1542C204.067 50.0115 203.21 50.9842 202.378 50.9842C201.547 50.9842 200.663 50.0504 199.858 50.1542C199.052 50.2579 198.415 51.451 197.623 51.5937C196.83 51.7364 195.739 51.1398 195.024 51.451C194.309 51.7623 193.972 53.0203 193.257 53.4223C192.542 53.8244 191.308 53.4223 190.658 53.98C190.009 54.5376 190.048 55.7567 189.463 56.3403C188.878 56.9239 187.592 56.885 187.098 57.5334C186.604 58.1819 186.955 59.4139 186.539 60.1272C186.124 60.8405 184.889 61.1388 184.564 61.9039C184.239 62.6691 184.928 63.7455 184.707 64.4977C184.486 65.2499 183.408 65.8854 183.265 66.7154C183.122 67.5454 184.097 68.4013 184.097 69.2313C184.097 70.0613 183.161 70.9432 183.265 71.7473C183.369 72.5514 184.499 73.1868 184.707 73.9779C184.915 74.7691 184.252 75.8584 184.564 76.5717C184.876 77.285 186.137 77.6222 186.539 78.3355C186.942 79.0488 186.539 80.2808 187.098 80.9293C187.657 81.5777 188.878 81.5388 189.463 82.1224C190.048 82.706 190.009 83.9899 190.658 84.4827C191.308 84.9756 192.542 84.6254 193.257 85.0404C193.972 85.4554 194.27 86.6875 195.037 87.0117C195.804 87.3359 196.882 86.6485 197.636 86.869C198.389 87.0895 199.026 88.1659 199.858 88.3086C200.689 88.4512 201.547 87.4785 202.378 87.4785C203.21 87.4785 204.093 88.4123 204.899 88.3086C205.705 88.2048 206.341 87.0765 207.134 86.869C207.927 86.6615 209.018 87.3229 209.733 87.0117C210.447 86.7004 210.785 85.4424 211.5 85.0404C212.214 84.6384 213.449 85.0404 214.098 84.4827C214.748 83.9251 214.709 82.706 215.294 82.1224C215.879 81.5388 217.165 81.5777 217.659 80.9293C218.152 80.2808 217.802 79.0488 218.217 78.3355C218.633 77.6222 219.868 77.3239 220.192 76.5588C220.517 75.7936 219.829 74.7172 220.049 73.965C220.27 73.2128 221.349 72.5773 221.492 71.7473C221.635 70.9173 220.66 70.0873 220.66 69.2573V69.2443ZM254.235 102.743C254.235 101.913 255.158 101.031 255.054 100.227C254.95 99.4229 253.819 98.7874 253.611 98.0092C253.404 97.2311 254.066 96.1158 253.754 95.4155C253.443 94.7152 252.182 94.352 251.779 93.6387C251.377 92.9255 251.779 91.7064 251.221 91.045C250.662 90.3836 249.441 90.4225 248.856 89.8389C248.271 89.2553 248.31 87.9843 247.66 87.4785C247.011 86.9728 245.776 87.3489 245.062 86.9339C244.347 86.5189 244.048 85.2738 243.295 84.9626C242.541 84.6513 241.437 85.3128 240.696 85.1053C239.955 84.8978 239.293 83.8084 238.474 83.6527C237.656 83.4971 236.772 84.4827 235.94 84.4827C235.109 84.4827 234.225 83.549 233.42 83.6527C232.614 83.7565 231.977 84.9496 231.198 85.1053C230.418 85.2609 229.301 84.6513 228.599 84.9626C227.897 85.2738 227.534 86.5189 226.819 86.9339C226.104 87.3489 224.883 86.9338 224.22 87.4785C223.558 88.0232 223.597 89.2682 223.012 89.8389C222.427 90.4095 221.154 90.3965 220.647 91.045C220.14 91.6934 220.504 92.9255 220.101 93.6387C219.699 94.352 218.438 94.6374 218.126 95.4025C217.815 96.1677 218.477 97.2441 218.269 97.9963C218.061 98.7485 216.97 99.3969 216.814 100.214C216.658 101.031 217.646 101.9 217.646 102.73C217.646 103.56 216.71 104.455 216.814 105.324C216.918 106.193 218.048 106.75 218.269 107.541C218.49 108.332 217.815 109.435 218.126 110.135C218.438 110.835 219.686 111.199 220.101 111.899C220.517 112.599 220.101 113.844 220.647 114.493C221.193 115.141 222.44 115.115 223.012 115.686C223.584 116.256 223.571 117.553 224.22 118.059C224.87 118.565 226.104 118.189 226.819 118.604C227.534 119.019 227.819 120.264 228.586 120.575C229.353 120.886 230.431 120.225 231.185 120.432C231.938 120.64 232.588 121.729 233.407 121.872C234.225 122.015 235.096 121.055 235.927 121.055C236.759 121.055 237.656 121.976 238.461 121.872C239.267 121.768 239.89 120.64 240.683 120.432C241.476 120.225 242.58 120.886 243.282 120.575C243.983 120.264 244.347 119.006 245.049 118.604C245.75 118.202 246.998 118.604 247.647 118.046C248.297 117.488 248.271 116.269 248.843 115.686C249.415 115.102 250.714 115.141 251.221 114.493C251.727 113.844 251.351 112.612 251.766 111.899C252.182 111.186 253.43 110.887 253.741 110.135C254.053 109.383 253.391 108.281 253.598 107.541C253.806 106.802 254.898 106.141 255.041 105.324C255.184 104.507 254.235 103.599 254.235 102.756V102.743Z" fill="white"/>
<path d="M162.269 247.177L164.088 246.879L167.076 246.386L165.075 241.198L168.272 243.585V239.201L173.066 240.796L176.678 235.998L178.277 239.201L181.07 232.808L182.668 239.201L187.073 235.609V241.99L193.076 238.799L193.466 241.99L197.468 236.4L198.676 241.587L202.275 237.995L201.873 242.392L207.876 239.603L205.069 244.389L210.266 243.987L207.876 247.579H220.271L211.865 248.785L227.067 251.171L171.871 252.365L179.472 248.785L153.069 249.174L162.269 247.177Z" fill="#245957"/>
<path opacity="0.7" d="M162.269 247.177L164.088 246.879L167.076 246.386L165.075 241.198L168.272 243.585V239.201L173.066 240.796L176.678 235.998L178.277 239.201L181.07 232.808L182.668 239.201L187.073 235.609V241.99L193.076 238.799L193.466 241.99L197.468 236.4L198.676 241.587L202.275 237.995L201.873 242.392L207.876 239.603L205.069 244.389L210.266 243.987L207.876 247.579H220.271L211.865 248.785L227.067 251.171L171.871 252.365L179.472 248.785L153.069 249.174L162.269 247.177Z" fill="white"/>
</svg>
