<svg width="367" height="52" viewBox="0 0 367 52" fill="none" xmlns="http://www.w3.org/2000/svg">
<path d="M5.08919 17.7657C4.16119 17.7657 3.32919 17.5951 2.59319 17.2537C1.86785 16.9231 1.29719 16.4591 0.881188 15.8617C0.465188 15.2644 0.257188 14.5871 0.257188 13.8297C0.257188 13.6164 0.273188 13.3337 0.305188 12.9817C0.337188 12.6297 0.379854 12.2351 0.433188 11.7977C0.497188 11.3604 0.561188 10.9177 0.625188 10.4697C0.699854 10.0111 0.769188 9.5684 0.833188 9.14173L2.94519 9.42973C2.82785 10.1444 2.72652 10.8004 2.64119 11.3977C2.56652 11.9844 2.50785 12.4857 2.46519 12.9017C2.42252 13.3177 2.40119 13.6217 2.40119 13.8137C2.40119 14.2404 2.50785 14.6084 2.72119 14.9177C2.93452 15.2271 3.23852 15.4671 3.63319 15.6377C4.03852 15.8191 4.52385 15.9097 5.08919 15.9097C5.67585 15.9097 6.15052 15.8244 6.51319 15.6537C6.87585 15.4831 7.13719 15.2484 7.29719 14.9497C7.46785 14.6511 7.55319 14.3151 7.55319 13.9417V5.76573H9.69719V13.9417C9.69719 14.7097 9.49452 15.3817 9.08919 15.9577C8.69452 16.5337 8.15052 16.9764 7.45719 17.2857C6.76385 17.6057 5.97452 17.7657 5.08919 17.7657ZM3.92119 5.18973V3.36573H6.06519V5.18973H3.92119ZM14.3727 13.7977V11.9417H16.1967V13.7977H14.3727ZM12.2447 13.7977V2.48573H14.3727V13.7977H12.2447ZM16.1967 13.7977V11.9417C16.2607 11.9417 16.3087 11.9631 16.3407 12.0057C16.3834 12.0484 16.4154 12.1124 16.4367 12.1977C16.4687 12.2831 16.49 12.3844 16.5007 12.5017C16.5114 12.6084 16.5167 12.7311 16.5167 12.8697C16.5167 13.0084 16.5114 13.1364 16.5007 13.2537C16.49 13.3711 16.4687 13.4724 16.4367 13.5577C16.4154 13.6324 16.3834 13.6911 16.3407 13.7337C16.3087 13.7764 16.2607 13.7977 16.1967 13.7977ZM25.6513 13.7977V11.9417H27.3473V13.7977H25.6513ZM16.1953 13.7977C16.1313 13.7977 16.0833 13.7764 16.0513 13.7337C16.0086 13.6911 15.9766 13.6324 15.9553 13.5577C15.9233 13.4724 15.902 13.3711 15.8913 13.2537C15.8806 13.1364 15.8753 13.0084 15.8753 12.8697C15.8753 12.6777 15.886 12.5177 15.9073 12.3897C15.9286 12.2511 15.966 12.1444 16.0193 12.0697C16.062 11.9844 16.1206 11.9417 16.1953 11.9417V13.7977ZM16.1953 13.7977V11.9417H24.4993L23.5233 12.7737V9.82973C23.5233 9.25373 23.4593 8.80573 23.3313 8.48573C23.2033 8.15506 22.9793 7.92573 22.6593 7.79773C22.35 7.65906 21.918 7.58973 21.3633 7.58973C20.926 7.58973 20.494 7.62173 20.0673 7.68573C19.6513 7.73906 19.326 7.81373 19.0913 7.90973L20.4193 6.66173C20.3553 6.90706 20.2913 7.2164 20.2273 7.58973C20.174 7.96306 20.126 8.36306 20.0833 8.78973C20.0406 9.20573 20.0193 9.6164 20.0193 10.0217C20.0193 10.3951 20.0353 10.7844 20.0673 11.1897C20.11 11.5951 20.1526 11.9524 20.1953 12.2617C20.2486 12.5711 20.2913 12.7844 20.3233 12.9017L18.2913 13.4617C18.2486 13.3124 18.1953 13.0671 18.1313 12.7257C18.0673 12.3844 18.0086 11.9791 17.9553 11.5097C17.9126 11.0404 17.8913 10.5444 17.8913 10.0217C17.8913 9.4884 17.918 8.9764 17.9713 8.48573C18.0246 7.9844 18.0833 7.5364 18.1473 7.14173C18.222 6.7364 18.2913 6.41106 18.3553 6.16573C18.6113 6.06973 19.0113 5.97373 19.5553 5.87773C20.0993 5.78173 20.702 5.73373 21.3633 5.73373C22.3233 5.73373 23.118 5.86706 23.7473 6.13373C24.3873 6.4004 24.862 6.8324 25.1713 7.42973C25.4913 8.02706 25.6513 8.8324 25.6513 9.84573V13.7977H16.1953ZM27.3473 13.7977V11.9417C27.4006 11.9417 27.4486 11.9631 27.4913 12.0057C27.534 12.0484 27.566 12.1124 27.5873 12.1977C27.6086 12.2831 27.6246 12.3844 27.6353 12.5017C27.6566 12.6084 27.6673 12.7311 27.6673 12.8697C27.6673 13.0084 27.6566 13.1364 27.6353 13.2537C27.6246 13.3711 27.6086 13.4724 27.5873 13.5577C27.566 13.6324 27.534 13.6911 27.4913 13.7337C27.4486 13.7764 27.4006 13.7977 27.3473 13.7977ZM39.7836 13.7977V11.9417H41.4636V13.7977H39.7836ZM27.3516 13.7977C27.2876 13.7977 27.2396 13.7764 27.2076 13.7337C27.1649 13.6911 27.1329 13.6324 27.1116 13.5577C27.0796 13.4724 27.0582 13.3711 27.0476 13.2537C27.0369 13.1364 27.0316 13.0084 27.0316 12.8697C27.0316 12.6777 27.0422 12.5177 27.0636 12.3897C27.0849 12.2511 27.1222 12.1444 27.1756 12.0697C27.2182 11.9844 27.2769 11.9417 27.3516 11.9417V13.7977ZM27.3516 13.7977V11.9417H39.4476L37.6396 13.5097V10.1497C37.6396 9.54173 37.5596 9.0564 37.3996 8.69373C37.2396 8.3204 37.0049 8.0484 36.6956 7.87773C36.3969 7.70706 36.0342 7.62173 35.6076 7.62173C35.1489 7.62173 34.7116 7.7124 34.2956 7.89373C33.8902 8.07506 33.5116 8.30973 33.1596 8.59773C32.8076 8.88573 32.4822 9.19506 32.1836 9.52573C31.8849 9.8564 31.6182 10.1764 31.3836 10.4857C31.1489 10.7844 30.9462 11.0404 30.7756 11.2537L30.2956 9.70173C30.7116 9.2004 31.0849 8.74173 31.4156 8.32573C31.7462 7.90973 32.0609 7.54173 32.3596 7.22173C32.6689 6.90173 32.9889 6.63506 33.3196 6.42173C33.6609 6.2084 34.0289 6.0484 34.4236 5.94173C34.8289 5.8244 35.2982 5.76573 35.8316 5.76573C36.5462 5.76573 37.1542 5.8884 37.6556 6.13373C38.1569 6.3684 38.5622 6.69373 38.8716 7.10973C39.1916 7.52573 39.4209 7.99506 39.5596 8.51773C39.7089 9.0404 39.7836 9.5844 39.7836 10.1497V13.7977H27.3516ZM29.3676 11.9417V5.76573H31.5116V11.9417H29.3676ZM41.4636 13.7977V11.9417C41.5276 11.9417 41.5756 11.9631 41.6076 12.0057C41.6502 12.0484 41.6822 12.1124 41.7036 12.1977C41.7356 12.2831 41.7569 12.3844 41.7676 12.5017C41.7782 12.6084 41.7836 12.7311 41.7836 12.8697C41.7836 13.0084 41.7782 13.1364 41.7676 13.2537C41.7569 13.3711 41.7356 13.4724 41.7036 13.5577C41.6822 13.6324 41.6502 13.6911 41.6076 13.7337C41.5756 13.7764 41.5276 13.7977 41.4636 13.7977ZM33.6876 4.30973V2.48573H35.8316V4.30973H33.6876ZM43.2689 13.7977V2.48573H45.4129V13.7977H43.2689ZM41.4609 13.7977V11.9417H43.2689V13.7977H41.4609ZM41.4609 13.7977C41.3969 13.7977 41.3489 13.7764 41.3169 13.7337C41.2743 13.6911 41.2423 13.6324 41.2209 13.5577C41.1889 13.4724 41.1676 13.3711 41.1569 13.2537C41.1463 13.1364 41.1409 13.0084 41.1409 12.8697C41.1409 12.6777 41.1516 12.5177 41.1729 12.3897C41.1943 12.2511 41.2316 12.1444 41.2849 12.0697C41.3276 11.9844 41.3863 11.9417 41.4609 11.9417V13.7977ZM50.6634 13.7977V10.1657C50.6634 9.10973 50.8288 8.26173 51.1594 7.62173C51.4901 6.97106 51.9808 6.50173 52.6314 6.21373C53.2821 5.91506 54.0821 5.76573 55.0314 5.76573C55.9914 5.76573 56.7968 5.91506 57.4474 6.21373C58.0981 6.50173 58.5888 6.97106 58.9194 7.62173C59.2501 8.26173 59.4154 9.10973 59.4154 10.1657V13.7977H50.6634ZM52.8074 12.9017L51.7834 11.9417H58.2954L57.2874 12.9017V10.2137C57.2874 9.57373 57.2234 9.06706 57.0954 8.69373C56.9674 8.30973 56.7381 8.03773 56.4074 7.87773C56.0874 7.70706 55.6288 7.62173 55.0314 7.62173C54.4448 7.62173 53.9861 7.70706 53.6554 7.87773C53.3354 8.03773 53.1114 8.30973 52.9834 8.69373C52.8661 9.06706 52.8074 9.57373 52.8074 10.2137V12.9017ZM52.5514 4.29373V2.46973H54.6154V4.29373H52.5514ZM55.4634 4.29373V2.46973H57.5274V4.29373H55.4634ZM67.1907 13.7977V11.9417H68.8707V13.7977H67.1907ZM60.6947 13.7977V11.9417H66.5027L65.0467 13.2057V10.5177C65.0467 9.7604 64.9667 9.17373 64.8067 8.75773C64.6574 8.34173 64.4014 8.0484 64.0387 7.87773C63.6867 7.70706 63.2014 7.62173 62.5827 7.62173H61.2867V5.76573H62.5827C63.564 5.76573 64.396 5.92573 65.0787 6.24573C65.772 6.56573 66.2947 7.07773 66.6467 7.78173C67.0094 8.47506 67.1907 9.38706 67.1907 10.5177V13.7977H60.6947ZM68.8707 13.7977V11.9417C68.9347 11.9417 68.988 11.9631 69.0307 12.0057C69.0734 12.0484 69.1054 12.1124 69.1267 12.1977C69.148 12.2831 69.164 12.3844 69.1747 12.5017C69.1854 12.6084 69.1907 12.7311 69.1907 12.8697C69.1907 13.0084 69.1854 13.1364 69.1747 13.2537C69.164 13.3711 69.148 13.4724 69.1267 13.5577C69.1054 13.6324 69.0734 13.6911 69.0307 13.7337C68.988 13.7764 68.9347 13.7977 68.8707 13.7977ZM68.8672 13.7977V11.9417H72.6592L71.4112 12.9817V5.76573H73.5392V13.7977H68.8672ZM68.8672 13.7977C68.8032 13.7977 68.7552 13.7764 68.7232 13.7337C68.6805 13.6911 68.6485 13.6324 68.6272 13.5577C68.5952 13.4724 68.5739 13.3711 68.5632 13.2537C68.5525 13.1364 68.5472 13.0084 68.5472 12.8697C68.5472 12.6777 68.5579 12.5177 68.5792 12.3897C68.6005 12.2511 68.6379 12.1444 68.6912 12.0697C68.7339 11.9844 68.7925 11.9417 68.8672 11.9417V13.7977ZM69.4432 17.2057V15.3817H71.5072V17.2057H69.4432ZM72.3552 17.2057V15.3817H74.4192V17.2057H72.3552ZM81.8469 13.7977V11.9417H83.5269V13.7977H81.8469ZM75.3509 13.7977V11.9417H81.1589L79.7029 13.2057V10.5177C79.7029 9.7604 79.6229 9.17373 79.4629 8.75773C79.3136 8.34173 79.0576 8.0484 78.6949 7.87773C78.3429 7.70706 77.8576 7.62173 77.2389 7.62173H75.9429V5.76573H77.2389C78.2203 5.76573 79.0523 5.92573 79.7349 6.24573C80.4283 6.56573 80.9509 7.07773 81.3029 7.78173C81.6656 8.47506 81.8469 9.38706 81.8469 10.5177V13.7977H75.3509ZM83.5269 13.7977V11.9417C83.5909 11.9417 83.6443 11.9631 83.6869 12.0057C83.7296 12.0484 83.7616 12.1124 83.7829 12.1977C83.8043 12.2831 83.8203 12.3844 83.8309 12.5017C83.8416 12.6084 83.8469 12.7311 83.8469 12.8697C83.8469 13.0084 83.8416 13.1364 83.8309 13.2537C83.8203 13.3711 83.8043 13.4724 83.7829 13.5577C83.7616 13.6324 83.7296 13.6911 83.6869 13.7337C83.6443 13.7764 83.5909 13.7977 83.5269 13.7977ZM83.5234 13.7977V11.9417H90.4034L89.6834 12.5337V9.57373C89.6834 8.93373 89.4808 8.4484 89.0754 8.11773C88.6808 7.78706 88.0514 7.62173 87.1874 7.62173C86.9421 7.62173 86.6061 7.64306 86.1794 7.68573C85.7528 7.71773 85.2888 7.77106 84.7874 7.84573L84.5794 6.14973C85.0381 6.04306 85.5021 5.9524 85.9714 5.87773C86.4514 5.80306 86.9208 5.76573 87.3794 5.76573C88.2541 5.76573 89.0221 5.9204 89.6834 6.22973C90.3448 6.5284 90.8621 6.9604 91.2354 7.52573C91.6194 8.09106 91.8114 8.77373 91.8114 9.57373V13.7977H83.5234ZM83.5234 13.7977C83.4594 13.7977 83.4114 13.7764 83.3794 13.7337C83.3368 13.6911 83.3048 13.6324 83.2834 13.5577C83.2514 13.4724 83.2301 13.3711 83.2194 13.2537C83.2088 13.1364 83.2034 13.0084 83.2034 12.8697C83.2034 12.6777 83.2141 12.5177 83.2354 12.3897C83.2568 12.2511 83.2941 12.1444 83.3474 12.0697C83.3901 11.9844 83.4488 11.9417 83.5234 11.9417V13.7977ZM86.6114 17.2057V15.3817H88.7554V17.2057H86.6114ZM96.8658 17.7657C96.7271 17.7657 96.5778 17.7604 96.4178 17.7497C96.2578 17.7391 96.0925 17.7231 95.9218 17.7017L96.0018 15.8777C96.1725 15.8884 96.3325 15.8991 96.4818 15.9097C96.6418 15.9204 96.7591 15.9257 96.8338 15.9257C97.2498 15.9257 97.5805 15.7604 97.8258 15.4297C98.0818 15.0991 98.2098 14.6351 98.2098 14.0377V5.76573H100.354V14.0377C100.354 14.7631 100.204 15.4084 99.9058 15.9737C99.6178 16.5391 99.2125 16.9764 98.6898 17.2857C98.1671 17.6057 97.5591 17.7657 96.8658 17.7657ZM105.334 17.7657C104.939 17.7657 104.523 17.7337 104.086 17.6697C103.659 17.6164 103.2 17.5417 102.71 17.4457L103.03 15.7337C103.563 15.7977 104.016 15.8457 104.39 15.8777C104.763 15.9097 105.078 15.9257 105.334 15.9257C106.102 15.9257 106.656 15.7871 106.998 15.5097C107.339 15.2324 107.51 14.8164 107.51 14.2617V7.23773L108.038 7.62173H106.038C105.6 7.62173 105.248 7.67506 104.982 7.78173C104.715 7.87773 104.518 8.08573 104.39 8.40573C104.272 8.71506 104.214 9.18973 104.214 9.82973C104.214 10.4377 104.267 10.8964 104.374 11.2057C104.491 11.5044 104.683 11.7017 104.95 11.7977C105.216 11.8937 105.579 11.9417 106.038 11.9417H107.51V13.7977H106.038C105.131 13.7977 104.384 13.6537 103.798 13.3657C103.211 13.0777 102.774 12.6404 102.486 12.0537C102.208 11.4671 102.07 10.7257 102.07 9.82973C102.07 8.93373 102.208 8.18706 102.486 7.58973C102.774 6.98173 103.211 6.5284 103.798 6.22973C104.384 5.9204 105.131 5.76573 106.038 5.76573H109.654V14.2617C109.654 14.9871 109.472 15.6111 109.11 16.1337C108.758 16.6671 108.256 17.0724 107.606 17.3497C106.966 17.6271 106.208 17.7657 105.334 17.7657ZM114.47 13.7977V11.9417H116.534V13.7977H114.47ZM111.366 17.7657C111.227 17.7657 111.078 17.7604 110.918 17.7497C110.758 17.7391 110.592 17.7231 110.422 17.7017L110.502 15.8777C110.672 15.8884 110.832 15.8991 110.982 15.9097C111.142 15.9204 111.259 15.9257 111.334 15.9257C111.75 15.9257 112.08 15.7604 112.326 15.4297C112.582 15.0991 112.71 14.6351 112.71 14.0377V5.76573H114.854V14.0377C114.854 14.7631 114.704 15.4084 114.406 15.9737C114.118 16.5391 113.712 16.9764 113.19 17.2857C112.667 17.6057 112.059 17.7657 111.366 17.7657ZM116.534 13.7977V11.9417C116.598 11.9417 116.646 11.9631 116.678 12.0057C116.72 12.0484 116.752 12.1124 116.774 12.1977C116.806 12.2831 116.827 12.3844 116.838 12.5017C116.848 12.6084 116.854 12.7311 116.854 12.8697C116.854 13.0084 116.848 13.1364 116.838 13.2537C116.827 13.3711 116.806 13.4724 116.774 13.5577C116.752 13.6324 116.72 13.6911 116.678 13.7337C116.646 13.7764 116.598 13.7977 116.534 13.7977ZM116.539 13.7977V11.9417H124.843L123.867 12.7737V9.82973C123.867 9.25373 123.803 8.80573 123.675 8.48573C123.547 8.15506 123.323 7.92573 123.003 7.79773C122.694 7.65906 122.262 7.58973 121.707 7.58973C121.27 7.58973 120.838 7.62173 120.411 7.68573C119.995 7.73906 119.67 7.81373 119.435 7.90973L120.763 6.66173C120.699 6.90706 120.635 7.2164 120.571 7.58973C120.518 7.96306 120.47 8.36306 120.427 8.78973C120.384 9.20573 120.363 9.6164 120.363 10.0217C120.363 10.3951 120.379 10.7844 120.411 11.1897C120.454 11.5951 120.496 11.9524 120.539 12.2617C120.592 12.5711 120.635 12.7844 120.667 12.9017L118.635 13.4617C118.592 13.3124 118.539 13.0671 118.475 12.7257C118.411 12.3844 118.352 11.9791 118.299 11.5097C118.256 11.0404 118.235 10.5444 118.235 10.0217C118.235 9.4884 118.262 8.9764 118.315 8.48573C118.368 7.9844 118.427 7.5364 118.491 7.14173C118.566 6.7364 118.635 6.41106 118.699 6.16573C118.955 6.06973 119.355 5.97373 119.899 5.87773C120.443 5.78173 121.046 5.73373 121.707 5.73373C122.667 5.73373 123.462 5.86706 124.091 6.13373C124.731 6.4004 125.206 6.8324 125.515 7.42973C125.835 8.02706 125.995 8.8324 125.995 9.84573V13.7977H116.539ZM116.539 13.7977C116.475 13.7977 116.427 13.7764 116.395 13.7337C116.352 13.6911 116.32 13.6324 116.299 13.5577C116.267 13.4724 116.246 13.3711 116.235 13.2537C116.224 13.1364 116.219 13.0084 116.219 12.8697C116.219 12.6777 116.23 12.5177 116.251 12.3897C116.272 12.2511 116.31 12.1444 116.363 12.0697C116.406 11.9844 116.464 11.9417 116.539 11.9417V13.7977ZM135.21 13.7977C134.303 13.7977 133.556 13.6537 132.97 13.3657C132.383 13.0777 131.946 12.6404 131.658 12.0537C131.38 11.4671 131.242 10.7257 131.242 9.82973C131.242 8.93373 131.38 8.18706 131.658 7.58973C131.946 6.98173 132.383 6.5284 132.97 6.22973C133.556 5.9204 134.303 5.76573 135.21 5.76573H138.826V12.7897H136.682V7.15773L137.21 7.62173H135.21C134.772 7.62173 134.42 7.67506 134.154 7.78173C133.887 7.87773 133.69 8.08573 133.562 8.40573C133.444 8.71506 133.386 9.18973 133.386 9.82973C133.386 10.4377 133.439 10.8964 133.546 11.2057C133.663 11.5044 133.855 11.7017 134.122 11.7977C134.388 11.8937 134.751 11.9417 135.21 11.9417H140.506V13.7977H135.21ZM140.506 13.7977V11.9417C140.57 11.9417 140.618 11.9631 140.65 12.0057C140.692 12.0484 140.724 12.1124 140.746 12.1977C140.778 12.2831 140.799 12.3844 140.81 12.5017C140.82 12.6084 140.826 12.7311 140.826 12.8697C140.826 13.0084 140.82 13.1364 140.81 13.2537C140.799 13.3711 140.778 13.4724 140.746 13.5577C140.724 13.6324 140.692 13.6911 140.65 13.7337C140.618 13.7764 140.57 13.7977 140.506 13.7977ZM132.826 4.29373V2.46973H134.89V4.29373H132.826ZM135.738 4.29373V2.46973H137.802V4.29373H135.738ZM149.964 13.7977V11.9417H151.66V13.7977H149.964ZM140.508 13.7977C140.444 13.7977 140.396 13.7764 140.364 13.7337C140.321 13.6911 140.289 13.6324 140.268 13.5577C140.236 13.4724 140.214 13.3711 140.204 13.2537C140.193 13.1364 140.188 13.0084 140.188 12.8697C140.188 12.6777 140.198 12.5177 140.22 12.3897C140.241 12.2511 140.278 12.1444 140.332 12.0697C140.374 11.9844 140.433 11.9417 140.508 11.9417V13.7977ZM140.508 13.7977V11.9417H148.812L147.836 12.7737V9.82973C147.836 9.25373 147.772 8.80573 147.644 8.48573C147.516 8.15506 147.292 7.92573 146.972 7.79773C146.662 7.65906 146.23 7.58973 145.676 7.58973C145.238 7.58973 144.806 7.62173 144.38 7.68573C143.964 7.73906 143.638 7.81373 143.404 7.90973L144.732 6.66173C144.668 6.90706 144.604 7.2164 144.54 7.58973C144.486 7.96306 144.438 8.36306 144.396 8.78973C144.353 9.20573 144.332 9.6164 144.332 10.0217C144.332 10.3951 144.348 10.7844 144.38 11.1897C144.422 11.5951 144.465 11.9524 144.508 12.2617C144.561 12.5711 144.604 12.7844 144.636 12.9017L142.604 13.4617C142.561 13.3124 142.508 13.0671 142.444 12.7257C142.38 12.3844 142.321 11.9791 142.268 11.5097C142.225 11.0404 142.204 10.5444 142.204 10.0217C142.204 9.4884 142.23 8.9764 142.284 8.48573C142.337 7.9844 142.396 7.5364 142.46 7.14173C142.534 6.7364 142.604 6.41106 142.668 6.16573C142.924 6.06973 143.324 5.97373 143.868 5.87773C144.412 5.78173 145.014 5.73373 145.676 5.73373C146.636 5.73373 147.43 5.86706 148.06 6.13373C148.7 6.4004 149.174 6.8324 149.484 7.42973C149.804 8.02706 149.964 8.8324 149.964 9.84573V13.7977H140.508ZM151.66 13.7977V11.9417C151.713 11.9417 151.761 11.9631 151.804 12.0057C151.846 12.0484 151.878 12.1124 151.9 12.1977C151.921 12.2831 151.937 12.3844 151.948 12.5017C151.969 12.6084 151.98 12.7311 151.98 12.8697C151.98 13.0084 151.969 13.1364 151.948 13.2537C151.937 13.3711 151.921 13.4724 151.9 13.5577C151.878 13.6324 151.846 13.6911 151.804 13.7337C151.761 13.7764 151.713 13.7977 151.66 13.7977ZM155.616 13.7977V11.9417H157.296V13.7977H155.616ZM151.664 13.7977C151.6 13.7977 151.552 13.7764 151.52 13.7337C151.477 13.6911 151.445 13.6324 151.424 13.5577C151.392 13.4724 151.371 13.3711 151.36 13.2537C151.349 13.1364 151.344 13.0084 151.344 12.8697C151.344 12.6777 151.355 12.5177 151.376 12.3897C151.397 12.2511 151.435 12.1444 151.488 12.0697C151.531 11.9844 151.589 11.9417 151.664 11.9417V13.7977ZM153.472 13.7977V2.48573H155.616V13.7977H153.472ZM151.664 13.7977V11.9417H153.472V13.7977H151.664ZM157.296 13.7977V11.9417C157.36 11.9417 157.413 11.9631 157.456 12.0057C157.499 12.0484 157.531 12.1124 157.552 12.1977C157.573 12.2831 157.589 12.3844 157.6 12.5017C157.611 12.6084 157.616 12.7311 157.616 12.8697C157.616 13.0084 157.611 13.1364 157.6 13.2537C157.589 13.3711 157.573 13.4724 157.552 13.5577C157.531 13.6324 157.499 13.6911 157.456 13.7337C157.413 13.7764 157.36 13.7977 157.296 13.7977ZM157.289 13.7977V11.9417H165.321L164.617 12.5177V10.3417C164.617 9.78706 164.558 9.3444 164.441 9.01373C164.324 8.68306 164.142 8.44306 163.897 8.29373C163.662 8.1444 163.364 8.06973 163.001 8.06973H159.497L158.169 6.14973L158.985 4.61373C159.081 4.4324 159.188 4.23506 159.305 4.02173C159.422 3.8084 159.577 3.5524 159.769 3.25373C159.961 2.95506 160.206 2.58173 160.505 2.13373L162.297 3.14173C162.02 3.55773 161.796 3.9044 161.625 4.18173C161.454 4.4484 161.31 4.68306 161.193 4.88573C161.076 5.0884 160.969 5.29106 160.873 5.49373L160.233 6.69373L159.913 6.21373H163.001C163.684 6.21373 164.265 6.32573 164.745 6.54973C165.225 6.77373 165.609 7.08306 165.897 7.47773C166.196 7.8724 166.414 8.31506 166.553 8.80573C166.692 9.2964 166.761 9.8084 166.761 10.3417V13.7977H157.289ZM157.289 13.7977C157.225 13.7977 157.177 13.7764 157.145 13.7337C157.102 13.6911 157.07 13.6324 157.049 13.5577C157.017 13.4724 156.996 13.3711 156.985 13.2537C156.974 13.1364 156.969 13.0084 156.969 12.8697C156.969 12.6777 156.98 12.5177 157.001 12.3897C157.022 12.2511 157.06 12.1444 157.113 12.0697C157.156 11.9844 157.214 11.9417 157.289 11.9417V13.7977ZM174.072 13.4297C173.624 12.9284 173.288 12.4377 173.064 11.9577C172.85 11.4777 172.744 10.9657 172.744 10.4217C172.744 9.84573 172.85 9.31773 173.064 8.83773C173.288 8.35773 173.592 7.94173 173.976 7.58973C174.36 7.23773 174.802 6.96573 175.304 6.77373C175.816 6.57106 176.354 6.46973 176.92 6.46973C177.357 6.46973 177.784 6.5284 178.2 6.64573C178.626 6.7524 178.994 6.9124 179.304 7.12573L178.344 8.67773C178.13 8.5604 177.912 8.47506 177.688 8.42173C177.474 8.35773 177.245 8.32573 177 8.32573C176.584 8.32573 176.216 8.4164 175.896 8.59773C175.576 8.7684 175.325 9.0084 175.144 9.31773C174.973 9.62706 174.888 9.9844 174.888 10.3897C174.888 10.7204 174.946 11.0297 175.064 11.3177C175.192 11.6057 175.394 11.9044 175.672 12.2137L174.072 13.4297ZM171.96 13.7977V11.9417H180.072V13.7977H171.96ZM184.17 13.7977V11.9417H185.994V13.7977H184.17ZM182.042 13.7977V2.48573H184.17V13.7977H182.042ZM185.994 13.7977V11.9417C186.058 11.9417 186.106 11.9631 186.138 12.0057C186.18 12.0484 186.212 12.1124 186.234 12.1977C186.266 12.2831 186.287 12.3844 186.298 12.5017C186.308 12.6084 186.314 12.7311 186.314 12.8697C186.314 13.0084 186.308 13.1364 186.298 13.2537C186.287 13.3711 186.266 13.4724 186.234 13.5577C186.212 13.6324 186.18 13.6911 186.138 13.7337C186.106 13.7764 186.058 13.7977 185.994 13.7977ZM199.416 13.7977V11.9417H201.112V13.7977H199.416ZM185.992 13.7977C185.928 13.7977 185.88 13.7764 185.848 13.7337C185.806 13.6911 185.774 13.6324 185.752 13.5577C185.72 13.4724 185.699 13.3711 185.688 13.2537C185.678 13.1364 185.672 13.0084 185.672 12.8697C185.672 12.6777 185.683 12.5177 185.704 12.3897C185.726 12.2511 185.763 12.1444 185.816 12.0697C185.859 11.9844 185.918 11.9417 185.992 11.9417V13.7977ZM195.4 13.7977C194.963 13.7977 194.526 13.7177 194.088 13.5577C193.662 13.3871 193.267 13.1364 192.904 12.8057L194.216 11.4457C194.43 11.6164 194.627 11.7444 194.808 11.8297C195 11.9044 195.198 11.9417 195.4 11.9417H198.392L197.288 12.9497V9.39773C197.288 9.22706 197.267 8.97106 197.224 8.62973C197.192 8.27773 197.139 7.88306 197.064 7.44573C197 6.99773 196.92 6.5444 196.824 6.08573L198.936 5.76573C199.011 6.14973 199.08 6.58173 199.144 7.06173C199.219 7.53106 199.283 7.97906 199.336 8.40573C199.39 8.82173 199.416 9.1524 199.416 9.39773V13.7977H195.4ZM185.992 13.7977V11.9417H188.328L187.848 12.4377V7.39773H189.992V13.7977H185.992ZM189.992 13.7977V11.9417H191.288C191.63 11.9417 191.891 11.8937 192.072 11.7977C192.254 11.6911 192.376 11.4831 192.44 11.1737C192.515 10.8537 192.552 10.3791 192.552 9.74973V6.59773H194.696V9.74973C194.696 10.6991 194.574 11.4724 194.328 12.0697C194.094 12.6671 193.726 13.1044 193.224 13.3817C192.723 13.6591 192.078 13.7977 191.288 13.7977H189.992ZM201.112 13.7977V11.9417C201.166 11.9417 201.214 11.9631 201.256 12.0057C201.299 12.0484 201.331 12.1124 201.352 12.1977C201.374 12.2831 201.39 12.3844 201.4 12.5017C201.422 12.6084 201.432 12.7311 201.432 12.8697C201.432 13.0084 201.422 13.1364 201.4 13.2537C201.39 13.3711 201.374 13.4724 201.352 13.5577C201.331 13.6324 201.299 13.6911 201.256 13.7337C201.214 13.7764 201.166 13.7977 201.112 13.7977ZM192.712 1.84573V0.245728H194.568V1.84573H192.712ZM191.16 4.29373V2.46973H193.224V4.29373H191.16ZM194.072 4.29373V2.46973H196.136V4.29373H194.072ZM201.117 13.7977V11.9417H204.045L202.797 12.9817V5.76573H204.941V13.7977H201.117ZM201.117 13.7977C201.053 13.7977 201.005 13.7764 200.973 13.7337C200.931 13.6911 200.899 13.6324 200.877 13.5577C200.845 13.4724 200.824 13.3711 200.813 13.2537C200.803 13.1364 200.797 13.0084 200.797 12.8697C200.797 12.6777 200.808 12.5177 200.829 12.3897C200.851 12.2511 200.888 12.1444 200.941 12.0697C200.984 11.9844 201.043 11.9417 201.117 11.9417V13.7977ZM202.797 4.29373V2.46973H204.941V4.29373H202.797ZM207.542 13.7977V2.48573H209.67V13.7977H207.542ZM207.638 18.5817C207.435 18.3364 207.28 18.1017 207.174 17.8777C207.067 17.6537 207.014 17.4137 207.014 17.1577C207.014 16.7951 207.11 16.4644 207.302 16.1657C207.494 15.8777 207.744 15.6484 208.054 15.4777C208.363 15.3177 208.704 15.2377 209.078 15.2377C209.28 15.2377 209.488 15.2644 209.702 15.3177C209.915 15.3711 210.096 15.4511 210.246 15.5577L209.702 16.5337C209.606 16.4804 209.51 16.4431 209.414 16.4217C209.328 16.4111 209.238 16.4057 209.142 16.4057C208.886 16.4057 208.688 16.4697 208.55 16.5977C208.411 16.7364 208.342 16.9177 208.342 17.1417C208.342 17.2697 208.368 17.3924 208.422 17.5097C208.475 17.6271 208.555 17.7551 208.662 17.8937L207.638 18.5817ZM206.662 18.7097V17.5417H210.534V18.7097H206.662ZM215.242 13.7977V10.1657C215.242 9.10973 215.407 8.26173 215.738 7.62173C216.068 6.97106 216.559 6.50173 217.21 6.21373C217.86 5.91506 218.66 5.76573 219.61 5.76573C220.57 5.76573 221.375 5.91506 222.026 6.21373C222.676 6.50173 223.167 6.97106 223.498 7.62173C223.828 8.26173 223.994 9.10973 223.994 10.1657V13.7977H215.242ZM217.386 12.9017L216.362 11.9417H222.874L221.866 12.9017V10.2137C221.866 9.57373 221.802 9.06706 221.674 8.69373C221.546 8.30973 221.316 8.03773 220.986 7.87773C220.666 7.70706 220.207 7.62173 219.61 7.62173C219.023 7.62173 218.564 7.70706 218.234 7.87773C217.914 8.03773 217.69 8.30973 217.562 8.69373C217.444 9.06706 217.386 9.57373 217.386 10.2137V12.9017ZM217.13 4.29373V2.46973H219.194V4.29373H217.13ZM220.042 4.29373V2.46973H222.106V4.29373H220.042ZM225.273 13.7977V11.9417H231.081L229.625 13.2057V10.5177C229.625 9.7604 229.545 9.17373 229.385 8.75773C229.235 8.34173 228.979 8.0484 228.617 7.87773C228.265 7.70706 227.779 7.62173 227.161 7.62173H225.865V5.76573H227.161C228.142 5.76573 228.974 5.92573 229.657 6.24573C230.35 6.56573 230.873 7.07773 231.225 7.78173C231.587 8.47506 231.769 9.38706 231.769 10.5177V13.7977H225.273ZM236.138 13.7977V11.9417H237.962V13.7977H236.138ZM234.01 13.7977V2.48573H236.138V13.7977H234.01ZM237.962 13.7977V11.9417C238.026 11.9417 238.074 11.9631 238.106 12.0057C238.149 12.0484 238.181 12.1124 238.202 12.1977C238.234 12.2831 238.256 12.3844 238.266 12.5017C238.277 12.6084 238.282 12.7311 238.282 12.8697C238.282 13.0084 238.277 13.1364 238.266 13.2537C238.256 13.3711 238.234 13.4724 238.202 13.5577C238.181 13.6324 238.149 13.6911 238.106 13.7337C238.074 13.7764 238.026 13.7977 237.962 13.7977ZM240.969 13.5417C240.425 13.0297 240.014 12.4857 239.737 11.9097C239.47 11.3337 239.337 10.7204 239.337 10.0697C239.337 9.4404 239.454 8.8644 239.689 8.34173C239.924 7.8084 240.244 7.34973 240.649 6.96573C241.054 6.58173 241.524 6.2884 242.057 6.08573C242.601 5.8724 243.172 5.76573 243.769 5.76573C244.089 5.76573 244.425 5.79773 244.777 5.86173C245.129 5.92573 245.465 6.01106 245.785 6.11773L245.145 7.86173C244.921 7.78706 244.697 7.7284 244.473 7.68573C244.26 7.64306 244.052 7.62173 243.849 7.62173C243.38 7.62173 242.964 7.7284 242.601 7.94173C242.238 8.1444 241.956 8.42706 241.753 8.78973C241.561 9.1524 241.465 9.5684 241.465 10.0377C241.465 10.4644 241.55 10.8644 241.721 11.2377C241.902 11.6111 242.158 11.9471 242.489 12.2457L240.969 13.5417ZM237.961 13.7977V11.9417H245.929V13.7977H237.961ZM237.961 13.7977C237.897 13.7977 237.849 13.7764 237.817 13.7337C237.774 13.6911 237.742 13.6324 237.721 13.5577C237.689 13.4724 237.668 13.3711 237.657 13.2537C237.646 13.1364 237.641 13.0084 237.641 12.8697C237.641 12.6777 237.652 12.5177 237.673 12.3897C237.694 12.2511 237.732 12.1444 237.785 12.0697C237.828 11.9844 237.886 11.9417 237.961 11.9417V13.7977ZM248.651 13.7977V2.48573H250.779V13.7977H248.651ZM248.747 18.5817C248.544 18.3364 248.39 18.1017 248.283 17.8777C248.176 17.6537 248.123 17.4137 248.123 17.1577C248.123 16.7951 248.219 16.4644 248.411 16.1657C248.603 15.8777 248.854 15.6484 249.163 15.4777C249.472 15.3177 249.814 15.2377 250.187 15.2377C250.39 15.2377 250.598 15.2644 250.811 15.3177C251.024 15.3711 251.206 15.4511 251.355 15.5577L250.811 16.5337C250.715 16.4804 250.619 16.4431 250.523 16.4217C250.438 16.4111 250.347 16.4057 250.251 16.4057C249.995 16.4057 249.798 16.4697 249.659 16.5977C249.52 16.7364 249.451 16.9177 249.451 17.1417C249.451 17.2697 249.478 17.3924 249.531 17.5097C249.584 17.6271 249.664 17.7551 249.771 17.8937L248.747 18.5817ZM247.771 18.7097V17.5417H251.643V18.7097H247.771ZM261.183 17.7657C260.255 17.7657 259.423 17.5951 258.687 17.2537C257.962 16.9231 257.391 16.4591 256.975 15.8617C256.559 15.2644 256.351 14.5871 256.351 13.8297C256.351 13.6164 256.367 13.3337 256.399 12.9817C256.431 12.6297 256.474 12.2351 256.527 11.7977C256.591 11.3604 256.655 10.9177 256.719 10.4697C256.794 10.0111 256.863 9.5684 256.927 9.14173L259.039 9.42973C258.922 10.1444 258.82 10.8004 258.735 11.3977C258.66 11.9844 258.602 12.4857 258.559 12.9017C258.516 13.3177 258.495 13.6217 258.495 13.8137C258.495 14.2404 258.602 14.6084 258.815 14.9177C259.028 15.2271 259.332 15.4671 259.727 15.6377C260.132 15.8191 260.618 15.9097 261.183 15.9097C261.77 15.9097 262.244 15.8244 262.607 15.6537C262.97 15.4831 263.231 15.2484 263.391 14.9497C263.562 14.6511 263.647 14.3151 263.647 13.9417V5.76573H265.791V13.9417C265.791 14.7097 265.588 15.3817 265.183 15.9577C264.788 16.5337 264.244 16.9764 263.551 17.2857C262.858 17.6057 262.068 17.7657 261.183 17.7657ZM260.015 5.18973V3.36573H262.159V5.18973H260.015ZM267.538 13.7977V11.9417H275.666L274.642 12.9977V2.48573H276.786V13.7977H267.538ZM269.762 11.9417V4.72573H271.89V11.9417H269.762ZM269.122 3.54173L268.274 2.90173L269.122 1.63773H270.354C270.504 1.75506 270.68 1.84573 270.882 1.90973C271.085 1.97373 271.293 2.00573 271.506 2.00573C271.72 2.00573 271.922 1.97373 272.114 1.90973C272.317 1.84573 272.488 1.75506 272.626 1.63773L273.298 2.11773C273.17 2.33106 273.005 2.53373 272.802 2.72573C272.61 2.90706 272.381 3.0564 272.114 3.17373C271.848 3.2804 271.538 3.33373 271.186 3.33373C270.93 3.33373 270.685 3.30173 270.45 3.23773C270.216 3.16306 270.002 3.0564 269.81 2.91773L269.122 3.54173ZM279.401 13.7977V2.48573H281.529V13.7977H279.401ZM298.893 13.7977V11.9417H300.573V13.7977H298.893ZM292.365 13.7977C291.224 13.7977 290.258 13.6484 289.469 13.3497C288.69 13.0511 288.098 12.6084 287.693 12.0217C287.298 11.4351 287.101 10.7044 287.101 9.82973C287.101 9.57373 287.117 9.30706 287.149 9.02973C287.181 8.74173 287.218 8.46973 287.261 8.21373C287.314 7.94706 287.362 7.7124 287.405 7.50973C287.448 7.30706 287.48 7.15773 287.501 7.06173L289.581 7.46173C289.549 7.6324 289.506 7.85106 289.453 8.11773C289.4 8.3844 289.352 8.66706 289.309 8.96573C289.266 9.25373 289.245 9.53106 289.245 9.79773C289.245 10.2137 289.309 10.5604 289.437 10.8377C289.576 11.1151 289.778 11.3391 290.045 11.5097C290.312 11.6697 290.648 11.7817 291.053 11.8457C291.458 11.9097 291.933 11.9417 292.477 11.9417H297.997L296.749 12.9817V2.48573H298.893V13.7977H292.365ZM300.573 13.7977V11.9417C300.637 11.9417 300.685 11.9631 300.717 12.0057C300.76 12.0484 300.792 12.1124 300.813 12.1977C300.845 12.2831 300.866 12.3844 300.877 12.5017C300.888 12.6084 300.893 12.7311 300.893 12.8697C300.893 13.0084 300.888 13.1364 300.877 13.2537C300.866 13.3711 300.845 13.4724 300.813 13.5577C300.792 13.6324 300.76 13.6911 300.717 13.7337C300.685 13.7764 300.637 13.7977 300.573 13.7977ZM292.029 7.76573C291.826 7.5204 291.672 7.28573 291.565 7.06173C291.458 6.83773 291.405 6.59773 291.405 6.34173C291.405 5.97906 291.501 5.65373 291.693 5.36573C291.885 5.06706 292.136 4.83773 292.445 4.67773C292.754 4.50706 293.096 4.42173 293.469 4.42173C293.672 4.42173 293.88 4.4484 294.093 4.50173C294.306 4.55506 294.488 4.63506 294.637 4.74173L294.093 5.71773C293.997 5.6644 293.901 5.6324 293.805 5.62173C293.72 5.6004 293.629 5.58973 293.533 5.58973C293.277 5.58973 293.08 5.65906 292.941 5.79773C292.802 5.92573 292.733 6.10173 292.733 6.32573C292.733 6.45373 292.76 6.5764 292.813 6.69373C292.866 6.81106 292.946 6.93906 293.053 7.07773L292.029 7.76573ZM291.053 7.89373V6.72573H294.925V7.89373H291.053ZM305.242 13.7977V11.9417H307.242V13.7977H305.242ZM307.242 13.7977V11.9417C307.296 11.9417 307.344 11.9631 307.386 12.0057C307.429 12.0484 307.461 12.1124 307.482 12.1977C307.504 12.2831 307.52 12.3844 307.53 12.5017C307.552 12.6084 307.562 12.7311 307.562 12.8697C307.562 13.0084 307.552 13.1364 307.53 13.2537C307.52 13.3711 307.504 13.4724 307.482 13.5577C307.461 13.6324 307.429 13.6911 307.386 13.7337C307.354 13.7764 307.306 13.7977 307.242 13.7977ZM300.57 13.7977C300.506 13.7977 300.458 13.7764 300.426 13.7337C300.384 13.6911 300.352 13.6324 300.33 13.5577C300.298 13.4724 300.277 13.3711 300.266 13.2537C300.256 13.1364 300.25 13.0084 300.25 12.8697C300.25 12.6777 300.261 12.5177 300.282 12.3897C300.304 12.2511 300.341 12.1444 300.394 12.0697C300.437 11.9844 300.496 11.9417 300.57 11.9417V13.7977ZM300.57 13.7977V11.9417H304.362L303.114 12.9817V5.76573H305.242V13.7977H300.57ZM301.146 17.2057V15.3817H303.21V17.2057H301.146ZM304.058 17.2057V15.3817H306.122V17.2057H304.058ZM311.194 13.7977V11.9417H312.874V13.7977H311.194ZM307.242 13.7977C307.178 13.7977 307.13 13.7764 307.098 13.7337C307.056 13.6911 307.024 13.6324 307.002 13.5577C306.97 13.4724 306.949 13.3711 306.938 13.2537C306.928 13.1364 306.922 13.0084 306.922 12.8697C306.922 12.6777 306.933 12.5177 306.954 12.3897C306.976 12.2511 307.013 12.1444 307.066 12.0697C307.109 11.9844 307.168 11.9417 307.242 11.9417V13.7977ZM309.05 13.7977V2.48573H311.194V13.7977H309.05ZM307.242 13.7977V11.9417H309.05V13.7977H307.242ZM312.874 13.7977V11.9417C312.938 11.9417 312.992 11.9631 313.034 12.0057C313.077 12.0484 313.109 12.1124 313.13 12.1977C313.152 12.2831 313.168 12.3844 313.178 12.5017C313.189 12.6084 313.194 12.7311 313.194 12.8697C313.194 13.0084 313.189 13.1364 313.178 13.2537C313.168 13.3711 313.152 13.4724 313.13 13.5577C313.109 13.6324 313.077 13.6911 313.034 13.7337C312.992 13.7764 312.938 13.7977 312.874 13.7977ZM315.875 13.5417C315.331 13.0297 314.921 12.4857 314.643 11.9097C314.377 11.3337 314.243 10.7204 314.243 10.0697C314.243 9.4404 314.361 8.8644 314.595 8.34173C314.83 7.8084 315.15 7.34973 315.555 6.96573C315.961 6.58173 316.43 6.2884 316.963 6.08573C317.507 5.8724 318.078 5.76573 318.675 5.76573C318.995 5.76573 319.331 5.79773 319.683 5.86173C320.035 5.92573 320.371 6.01106 320.691 6.11773L320.051 7.86173C319.827 7.78706 319.603 7.7284 319.379 7.68573C319.166 7.64306 318.958 7.62173 318.755 7.62173C318.286 7.62173 317.87 7.7284 317.507 7.94173C317.145 8.1444 316.862 8.42706 316.659 8.78973C316.467 9.1524 316.371 9.5684 316.371 10.0377C316.371 10.4644 316.457 10.8644 316.627 11.2377C316.809 11.6111 317.065 11.9471 317.395 12.2457L315.875 13.5417ZM312.867 13.7977V11.9417H320.835V13.7977H312.867ZM312.867 13.7977C312.803 13.7977 312.755 13.7764 312.723 13.7337C312.681 13.6911 312.649 13.6324 312.627 13.5577C312.595 13.4724 312.574 13.3711 312.563 13.2537C312.553 13.1364 312.547 13.0084 312.547 12.8697C312.547 12.6777 312.558 12.5177 312.579 12.3897C312.601 12.2511 312.638 12.1444 312.691 12.0697C312.734 11.9844 312.793 11.9417 312.867 11.9417V13.7977ZM339.058 13.7977V5.76573H341.186V12.9817L339.938 11.9417H343.186V13.7977H339.058ZM335.682 9.22173V7.34973H339.058V9.22173H335.682ZM331.074 17.7657C330.146 17.7657 329.314 17.5951 328.578 17.2537C327.852 16.9231 327.282 16.4591 326.866 15.8617C326.45 15.2644 326.242 14.5871 326.242 13.8297C326.242 13.6164 326.258 13.3337 326.29 12.9817C326.322 12.6297 326.364 12.2351 326.418 11.7977C326.482 11.3604 326.546 10.9177 326.61 10.4697C326.684 10.0111 326.754 9.5684 326.818 9.14173L328.93 9.42973C328.812 10.1444 328.711 10.8004 328.626 11.3977C328.551 11.9844 328.492 12.4857 328.45 12.9017C328.407 13.3177 328.386 13.6217 328.386 13.8137C328.386 14.2404 328.492 14.6084 328.706 14.9177C328.919 15.2271 329.223 15.4671 329.618 15.6377C330.023 15.8191 330.508 15.9097 331.074 15.9097C331.66 15.9097 332.135 15.8244 332.498 15.6537C332.86 15.4831 333.122 15.2484 333.282 14.9497C333.452 14.6511 333.538 14.3151 333.538 13.9417V5.76573H335.682V13.9417C335.682 14.7097 335.479 15.3817 335.074 15.9577C334.679 16.5337 334.135 16.9764 333.442 17.2857C332.748 17.6057 331.959 17.7657 331.074 17.7657ZM329.906 5.18973V3.36573H332.05V5.18973H329.906ZM343.186 13.7977V11.9417C343.239 11.9417 343.287 11.9631 343.33 12.0057C343.372 12.0484 343.404 12.1124 343.426 12.1977C343.447 12.2831 343.463 12.3844 343.474 12.5017C343.495 12.6084 343.506 12.7311 343.506 12.8697C343.506 13.0084 343.495 13.1364 343.474 13.2537C343.463 13.3711 343.447 13.4724 343.426 13.5577C343.404 13.6324 343.372 13.6911 343.33 13.7337C343.287 13.7764 343.239 13.7977 343.186 13.7977ZM337.65 17.2057V15.3817H339.714V17.2057H337.65ZM340.562 17.2057V15.3817H342.626V17.2057H340.562ZM343.18 13.7977V11.9417H346.572C347.03 11.9417 347.473 11.8564 347.9 11.6857C348.326 11.5044 348.716 11.2697 349.068 10.9817C349.43 10.6831 349.745 10.3577 350.012 10.0057C350.289 9.64306 350.502 9.27506 350.652 8.90173C350.812 8.5284 350.892 8.1764 350.892 7.84573V6.82173L351.916 8.51773C351.361 8.21906 350.796 7.99506 350.22 7.84573C349.644 7.6964 349.094 7.62173 348.572 7.62173C348.06 7.62173 347.51 7.6964 346.924 7.84573C346.348 7.99506 345.788 8.21906 345.244 8.51773L346.268 6.82173V7.84573C346.268 8.1764 346.342 8.5284 346.492 8.90173C346.652 9.27506 346.865 9.64306 347.132 10.0057C347.398 10.3577 347.713 10.6831 348.076 10.9817C348.438 11.2697 348.833 11.5044 349.26 11.6857C349.686 11.8564 350.124 11.9417 350.572 11.9417H353.868V13.7977H351.244C350.412 13.7977 349.633 13.6644 348.908 13.3977C348.182 13.1311 347.526 12.7791 346.94 12.3417C346.353 11.8937 345.846 11.4084 345.42 10.8857C345.004 10.3524 344.684 9.8244 344.46 9.30173C344.236 8.7684 344.124 8.28306 344.124 7.84573V6.93373C344.582 6.67773 345.068 6.4644 345.58 6.29373C346.102 6.12306 346.62 5.99506 347.132 5.90973C347.654 5.81373 348.134 5.76573 348.572 5.76573C349.02 5.76573 349.5 5.81373 350.012 5.90973C350.524 5.99506 351.036 6.12306 351.548 6.29373C352.07 6.4644 352.561 6.67773 353.02 6.93373V7.84573C353.02 8.28306 352.908 8.7684 352.684 9.30173C352.46 9.8244 352.134 10.3524 351.708 10.8857C351.292 11.4084 350.79 11.8937 350.204 12.3417C349.617 12.7791 348.961 13.1311 348.236 13.3977C347.51 13.6644 346.732 13.7977 345.9 13.7977H343.18ZM343.18 13.7977C343.116 13.7977 343.068 13.7764 343.036 13.7337C342.993 13.6911 342.961 13.6324 342.94 13.5577C342.908 13.4724 342.886 13.3711 342.876 13.2537C342.865 13.1364 342.86 13.0084 342.86 12.8697C342.86 12.6777 342.87 12.5177 342.892 12.3897C342.913 12.2511 342.95 12.1444 343.004 12.0697C343.046 11.9844 343.105 11.9417 343.18 11.9417V13.7977ZM353.868 13.7977V11.9417C353.932 11.9417 353.985 11.9631 354.028 12.0057C354.07 12.0484 354.102 12.1124 354.124 12.1977C354.145 12.2831 354.161 12.3844 354.172 12.5017C354.182 12.6084 354.188 12.7311 354.188 12.8697C354.188 13.0084 354.182 13.1364 354.172 13.2537C354.161 13.3711 354.145 13.4724 354.124 13.5577C354.102 13.6324 354.07 13.6911 354.028 13.7337C353.985 13.7764 353.932 13.7977 353.868 13.7977ZM358.539 13.7977V11.9417H360.539V13.7977H358.539ZM360.539 13.7977V11.9417C360.593 11.9417 360.641 11.9631 360.683 12.0057C360.726 12.0484 360.758 12.1124 360.779 12.1977C360.801 12.2831 360.817 12.3844 360.827 12.5017C360.849 12.6084 360.859 12.7311 360.859 12.8697C360.859 13.0084 360.849 13.1364 360.827 13.2537C360.817 13.3711 360.801 13.4724 360.779 13.5577C360.758 13.6324 360.726 13.6911 360.683 13.7337C360.651 13.7764 360.603 13.7977 360.539 13.7977ZM353.867 13.7977C353.803 13.7977 353.755 13.7764 353.723 13.7337C353.681 13.6911 353.649 13.6324 353.627 13.5577C353.595 13.4724 353.574 13.3711 353.563 13.2537C353.553 13.1364 353.547 13.0084 353.547 12.8697C353.547 12.6777 353.558 12.5177 353.579 12.3897C353.601 12.2511 353.638 12.1444 353.691 12.0697C353.734 11.9844 353.793 11.9417 353.867 11.9417V13.7977ZM353.867 13.7977V11.9417H357.659L356.411 12.9817V5.76573H358.539V13.7977H353.867ZM355.003 4.29373V2.46973H357.067V4.29373H355.003ZM357.915 4.29373V2.46973H359.979V4.29373H357.915ZM360.539 13.7977V11.9417H364.331L363.083 12.9817V5.76573H365.211V13.7977H360.539ZM360.539 13.7977C360.475 13.7977 360.427 13.7764 360.395 13.7337C360.352 13.6911 360.32 13.6324 360.299 13.5577C360.267 13.4724 360.246 13.3711 360.235 13.2537C360.224 13.1364 360.219 13.0084 360.219 12.8697C360.219 12.6777 360.23 12.5177 360.251 12.3897C360.272 12.2511 360.31 12.1444 360.363 12.0697C360.406 11.9844 360.464 11.9417 360.539 11.9417V13.7977ZM361.115 17.2057V15.3817H363.179V17.2057H361.115ZM364.027 17.2057V15.3817H366.091V17.2057H364.027ZM10.722 47.7657C9.794 47.7657 8.962 47.5951 8.226 47.2537C7.50067 46.9231 6.93 46.4591 6.514 45.8617C6.098 45.2644 5.89 44.5871 5.89 43.8297C5.89 43.6164 5.906 43.3337 5.938 42.9817C5.97 42.6297 6.01267 42.2351 6.066 41.7977C6.13 41.3604 6.194 40.9177 6.258 40.4697C6.33267 40.0111 6.402 39.5684 6.466 39.1417L8.578 39.4297C8.46067 40.1444 8.35933 40.8004 8.274 41.3977C8.19933 41.9844 8.14067 42.4857 8.098 42.9017C8.05533 43.3177 8.034 43.6217 8.034 43.8137C8.034 44.2404 8.14067 44.6084 8.354 44.9177C8.56733 45.2271 8.87133 45.4671 9.266 45.6377C9.67133 45.8191 10.1567 45.9097 10.722 45.9097C11.3087 45.9097 11.7833 45.8244 12.146 45.6537C12.5087 45.4831 12.77 45.2484 12.93 44.9497C13.1007 44.6511 13.186 44.3151 13.186 43.9417V35.7657H15.33V43.9417C15.33 44.7097 15.1273 45.3817 14.722 45.9577C14.3273 46.5337 13.7833 46.9764 13.09 47.2857C12.3967 47.6057 11.6073 47.7657 10.722 47.7657ZM9.554 35.1897V33.3657H11.698V35.1897H9.554ZM20.0055 43.7977V41.9417H21.8295V43.7977H20.0055ZM17.8775 43.7977V32.4857H20.0055V43.7977H17.8775ZM21.8295 43.7977V41.9417C21.8935 41.9417 21.9415 41.9631 21.9735 42.0057C22.0162 42.0484 22.0482 42.1124 22.0695 42.1977C22.1015 42.2831 22.1228 42.3844 22.1335 42.5017C22.1442 42.6084 22.1495 42.7311 22.1495 42.8697C22.1495 43.0084 22.1442 43.1364 22.1335 43.2537C22.1228 43.3711 22.1015 43.4724 22.0695 43.5577C22.0482 43.6324 22.0162 43.6911 21.9735 43.7337C21.9415 43.7764 21.8935 43.7977 21.8295 43.7977ZM21.8281 43.7977V41.9417H30.1321L29.1561 42.7737V39.8297C29.1561 39.2537 29.0921 38.8057 28.9641 38.4857C28.8361 38.1551 28.6121 37.9257 28.2921 37.7977C27.9828 37.6591 27.5508 37.5897 26.9961 37.5897C26.5588 37.5897 26.1268 37.6217 25.7001 37.6857C25.2841 37.7391 24.9588 37.8137 24.7241 37.9097L26.0521 36.6617C25.9881 36.9071 25.9241 37.2164 25.8601 37.5897C25.8068 37.9631 25.7588 38.3631 25.7161 38.7897C25.6735 39.2057 25.6521 39.6164 25.6521 40.0217C25.6521 40.3951 25.6681 40.7844 25.7001 41.1897C25.7428 41.5951 25.7855 41.9524 25.8281 42.2617C25.8815 42.5711 25.9241 42.7844 25.9561 42.9017L23.9241 43.4617C23.8815 43.3124 23.8281 43.0671 23.7641 42.7257C23.7001 42.3844 23.6415 41.9791 23.5881 41.5097C23.5455 41.0404 23.5241 40.5444 23.5241 40.0217C23.5241 39.4884 23.5508 38.9764 23.6041 38.4857C23.6575 37.9844 23.7161 37.5364 23.7801 37.1417C23.8548 36.7364 23.9241 36.4111 23.9881 36.1657C24.2441 36.0697 24.6441 35.9737 25.1881 35.8777C25.7321 35.7817 26.3348 35.7337 26.9961 35.7337C27.9561 35.7337 28.7508 35.8671 29.3801 36.1337C30.0201 36.4004 30.4948 36.8324 30.8041 37.4297C31.1241 38.0271 31.2841 38.8324 31.2841 39.8457V43.7977H21.8281ZM21.8281 43.7977C21.7641 43.7977 21.7161 43.7764 21.6841 43.7337C21.6415 43.6911 21.6095 43.6324 21.5881 43.5577C21.5561 43.4724 21.5348 43.3711 21.5241 43.2537C21.5135 43.1364 21.5081 43.0084 21.5081 42.8697C21.5081 42.6777 21.5188 42.5177 21.5401 42.3897C21.5615 42.2511 21.5988 42.1444 21.6521 42.0697C21.6948 41.9844 21.7535 41.9417 21.8281 41.9417V43.7977ZM35.9743 43.7977V41.9417H37.7983V43.7977H35.9743ZM33.8463 43.7977V32.4857H35.9743V43.7977H33.8463ZM37.7983 43.7977V41.9417C37.8623 41.9417 37.9103 41.9631 37.9423 42.0057C37.9849 42.0484 38.0169 42.1124 38.0383 42.1977C38.0703 42.2831 38.0916 42.3844 38.1023 42.5017C38.1129 42.6084 38.1183 42.7311 38.1183 42.8697C38.1183 43.0084 38.1129 43.1364 38.1023 43.2537C38.0916 43.3711 38.0703 43.4724 38.0383 43.5577C38.0169 43.6324 37.9849 43.6911 37.9423 43.7337C37.9103 43.7764 37.8623 43.7977 37.7983 43.7977ZM33.9423 31.2057C33.7396 30.9604 33.5849 30.7257 33.4783 30.5017C33.3716 30.2777 33.3183 30.0377 33.3183 29.7817C33.3183 29.4191 33.4143 29.0937 33.6063 28.8057C33.7983 28.5071 34.0489 28.2777 34.3583 28.1177C34.6676 27.9471 35.0089 27.8617 35.3823 27.8617C35.5849 27.8617 35.7929 27.8884 36.0063 27.9417C36.2196 27.9951 36.4009 28.0751 36.5503 28.1817L36.0063 29.1577C35.9103 29.1044 35.8143 29.0724 35.7183 29.0617C35.6329 29.0404 35.5423 29.0297 35.4463 29.0297C35.1903 29.0297 34.9929 29.0991 34.8543 29.2377C34.7156 29.3657 34.6463 29.5417 34.6463 29.7657C34.6463 29.8937 34.6729 30.0164 34.7263 30.1337C34.7796 30.2511 34.8596 30.3791 34.9663 30.5177L33.9423 31.2057ZM32.9663 31.3337V30.1657H36.8383V31.3337H32.9663ZM37.7969 43.7977V41.9417H40.7249L39.4769 42.9817V35.7657H41.6209V43.7977H37.7969ZM37.7969 43.7977C37.7329 43.7977 37.6849 43.7764 37.6529 43.7337C37.6102 43.6911 37.5782 43.6324 37.5569 43.5577C37.5249 43.4724 37.5035 43.3711 37.4929 43.2537C37.4822 43.1364 37.4769 43.0084 37.4769 42.8697C37.4769 42.6777 37.4875 42.5177 37.5089 42.3897C37.5302 42.2511 37.5675 42.1444 37.6209 42.0697C37.6635 41.9844 37.7222 41.9417 37.7969 41.9417V43.7977ZM39.4769 47.2057V45.3817H41.6209V47.2057H39.4769ZM49.8336 43.7977V41.9417H51.6576V43.7977H49.8336ZM47.7056 43.7977V32.4857H49.8336V43.7977H47.7056ZM51.6576 43.7977V41.9417C51.7216 41.9417 51.7696 41.9631 51.8016 42.0057C51.8443 42.0484 51.8763 42.1124 51.8976 42.1977C51.9296 42.2831 51.951 42.3844 51.9616 42.5017C51.9723 42.6084 51.9776 42.7311 51.9776 42.8697C51.9776 43.0084 51.9723 43.1364 51.9616 43.2537C51.951 43.3711 51.9296 43.4724 51.8976 43.5577C51.8763 43.6324 51.8443 43.6911 51.8016 43.7337C51.7696 43.7764 51.7216 43.7977 51.6576 43.7977ZM55.4803 43.7977V41.9417H57.1603V43.7977H55.4803ZM51.6562 43.7977C51.5922 43.7977 51.5442 43.7764 51.5122 43.7337C51.4696 43.6911 51.4376 43.6324 51.4162 43.5577C51.3842 43.4724 51.3629 43.3711 51.3522 43.2537C51.3416 43.1364 51.3362 43.0084 51.3362 42.8697C51.3362 42.6777 51.3469 42.5177 51.3682 42.3897C51.3896 42.2511 51.4269 42.1444 51.4802 42.0697C51.5229 41.9844 51.5816 41.9417 51.6562 41.9417V43.7977ZM51.6562 43.7977V41.9417H54.5843L53.3363 42.9817V35.7657H55.4803V43.7977H51.6562ZM57.1603 43.7977V41.9417C57.2243 41.9417 57.2776 41.9631 57.3203 42.0057C57.3629 42.0484 57.3949 42.1124 57.4163 42.1977C57.4376 42.2831 57.4536 42.3844 57.4643 42.5017C57.4749 42.6084 57.4803 42.7311 57.4803 42.8697C57.4803 43.0084 57.4749 43.1364 57.4643 43.2537C57.4536 43.3711 57.4376 43.4724 57.4163 43.5577C57.3949 43.6324 57.3629 43.6911 57.3203 43.7337C57.2776 43.7764 57.2243 43.7977 57.1603 43.7977ZM53.3363 34.2937V32.4697H55.4803V34.2937H53.3363ZM57.1562 43.7977V41.9417H60.9483L59.7003 42.9817V35.7657H61.8283V43.7977H57.1562ZM57.1562 43.7977C57.0922 43.7977 57.0442 43.7764 57.0122 43.7337C56.9696 43.6911 56.9376 43.6324 56.9162 43.5577C56.8842 43.4724 56.8629 43.3711 56.8522 43.2537C56.8416 43.1364 56.8362 43.0084 56.8362 42.8697C56.8362 42.6777 56.8469 42.5177 56.8682 42.3897C56.8896 42.2511 56.9269 42.1444 56.9802 42.0697C57.0229 41.9844 57.0816 41.9417 57.1562 41.9417V43.7977ZM58.2923 34.2937V32.4697H60.3563V34.2937H58.2923ZM61.2043 34.2937V32.4697H63.2683V34.2937H61.2043ZM66.568 43.7977V41.9417H68.392V43.7977H66.568ZM64.44 43.7977V32.4857H66.568V43.7977H64.44ZM68.392 43.7977V41.9417C68.456 41.9417 68.504 41.9631 68.536 42.0057C68.5787 42.0484 68.6107 42.1124 68.632 42.1977C68.664 42.2831 68.6853 42.3844 68.696 42.5017C68.7067 42.6084 68.712 42.7311 68.712 42.8697C68.712 43.0084 68.7067 43.1364 68.696 43.2537C68.6853 43.3711 68.664 43.4724 68.632 43.5577C68.6107 43.6324 68.5787 43.6911 68.536 43.7337C68.504 43.7764 68.456 43.7977 68.392 43.7977ZM68.3906 43.7977V41.9417H76.6946L75.7186 42.7737V39.8297C75.7186 39.2537 75.6546 38.8057 75.5266 38.4857C75.3986 38.1551 75.1746 37.9257 74.8546 37.7977C74.5453 37.6591 74.1133 37.5897 73.5586 37.5897C73.1213 37.5897 72.6893 37.6217 72.2626 37.6857C71.8466 37.7391 71.5213 37.8137 71.2866 37.9097L72.6146 36.6617C72.5506 36.9071 72.4866 37.2164 72.4226 37.5897C72.3693 37.9631 72.3213 38.3631 72.2786 38.7897C72.236 39.2057 72.2146 39.6164 72.2146 40.0217C72.2146 40.3951 72.2306 40.7844 72.2626 41.1897C72.3053 41.5951 72.348 41.9524 72.3906 42.2617C72.444 42.5711 72.4866 42.7844 72.5186 42.9017L70.4866 43.4617C70.444 43.3124 70.3906 43.0671 70.3266 42.7257C70.2626 42.3844 70.204 41.9791 70.1506 41.5097C70.108 41.0404 70.0866 40.5444 70.0866 40.0217C70.0866 39.4884 70.1133 38.9764 70.1666 38.4857C70.22 37.9844 70.2786 37.5364 70.3426 37.1417C70.4173 36.7364 70.4866 36.4111 70.5506 36.1657C70.8066 36.0697 71.2066 35.9737 71.7506 35.8777C72.2946 35.7817 72.8973 35.7337 73.5586 35.7337C74.5186 35.7337 75.3133 35.8671 75.9426 36.1337C76.5826 36.4004 77.0573 36.8324 77.3666 37.4297C77.6866 38.0271 77.8466 38.8324 77.8466 39.8457V43.7977H68.3906ZM68.3906 43.7977C68.3266 43.7977 68.2786 43.7764 68.2466 43.7337C68.204 43.6911 68.172 43.6324 68.1506 43.5577C68.1186 43.4724 68.0973 43.3711 68.0866 43.2537C68.076 43.1364 68.0706 43.0084 68.0706 42.8697C68.0706 42.6777 68.0813 42.5177 68.1026 42.3897C68.124 42.2511 68.1613 42.1444 68.2146 42.0697C68.2573 41.9844 68.316 41.9417 68.3906 41.9417V43.7977ZM86.1048 43.7977V41.9417H87.7847V43.7977H86.1048ZM79.6088 43.7977V41.9417H85.4168L83.9608 43.2057V40.5177C83.9608 39.7604 83.8808 39.1737 83.7208 38.7577C83.5714 38.3417 83.3154 38.0484 82.9528 37.8777C82.6008 37.7071 82.1154 37.6217 81.4968 37.6217H80.2008V35.7657H81.4968C82.4781 35.7657 83.3101 35.9257 83.9928 36.2457C84.6861 36.5657 85.2088 37.0777 85.5608 37.7817C85.9234 38.4751 86.1048 39.3871 86.1048 40.5177V43.7977H79.6088ZM87.7847 43.7977V41.9417C87.8488 41.9417 87.9021 41.9631 87.9448 42.0057C87.9874 42.0484 88.0194 42.1124 88.0408 42.1977C88.0621 42.2831 88.0781 42.3844 88.0888 42.5017C88.0994 42.6084 88.1048 42.7311 88.1048 42.8697C88.1048 43.0084 88.0994 43.1364 88.0888 43.2537C88.0781 43.3711 88.0621 43.4724 88.0408 43.5577C88.0194 43.6324 87.9874 43.6911 87.9448 43.7337C87.9021 43.7764 87.8488 43.7977 87.7847 43.7977ZM87.7812 43.7977V41.9417H94.6613L93.9413 42.5337V39.5737C93.9413 38.9337 93.7386 38.4484 93.3333 38.1177C92.9386 37.7871 92.3093 37.6217 91.4453 37.6217C91.1999 37.6217 90.8639 37.6431 90.4373 37.6857C90.0106 37.7177 89.5466 37.7711 89.0453 37.8457L88.8372 36.1497C89.2959 36.0431 89.7599 35.9524 90.2293 35.8777C90.7093 35.8031 91.1786 35.7657 91.6373 35.7657C92.5119 35.7657 93.2799 35.9204 93.9413 36.2297C94.6026 36.5284 95.1199 36.9604 95.4933 37.5257C95.8773 38.0911 96.0693 38.7737 96.0693 39.5737V43.7977H87.7812ZM87.7812 43.7977C87.7172 43.7977 87.6692 43.7764 87.6372 43.7337C87.5946 43.6911 87.5626 43.6324 87.5412 43.5577C87.5092 43.4724 87.4879 43.3711 87.4772 43.2537C87.4666 43.1364 87.4612 43.0084 87.4612 42.8697C87.4612 42.6777 87.4719 42.5177 87.4932 42.3897C87.5146 42.2511 87.5519 42.1444 87.6052 42.0697C87.6479 41.9844 87.7066 41.9417 87.7812 41.9417V43.7977ZM90.5493 34.5017V32.6777H92.6933V34.5017H90.5493ZM101.54 49.1097C101.444 48.5337 101.353 47.9737 101.268 47.4297C101.193 46.8857 101.156 46.4057 101.156 45.9897C101.156 45.1577 101.316 44.4377 101.636 43.8297C101.956 43.2324 102.409 42.7684 102.996 42.4377C103.582 42.1071 104.276 41.9417 105.076 41.9417C105.236 41.9417 105.433 41.9417 105.668 41.9417C105.913 41.9417 106.196 41.9417 106.516 41.9417C106.836 41.9417 107.193 41.9417 107.588 41.9417C107.982 41.9417 108.414 41.9417 108.884 41.9417L107.908 42.8697V39.8457C107.908 39.2911 107.844 38.8537 107.716 38.5337C107.598 38.2031 107.38 37.9684 107.06 37.8297C106.75 37.6911 106.297 37.6217 105.7 37.6217C105.294 37.6217 104.878 37.6537 104.452 37.7177C104.036 37.7711 103.705 37.8457 103.46 37.9417L104.804 36.6937C104.729 36.9497 104.66 37.2697 104.596 37.6537C104.542 38.0377 104.5 38.4377 104.468 38.8537C104.436 39.2591 104.42 39.6431 104.42 40.0057C104.42 40.4004 104.436 40.8004 104.468 41.2057C104.5 41.6004 104.537 41.9524 104.58 42.2617C104.633 42.5711 104.676 42.7844 104.708 42.9017L102.676 43.4617C102.622 43.3124 102.564 43.0671 102.5 42.7257C102.446 42.3844 102.393 41.9844 102.34 41.5257C102.297 41.0564 102.276 40.5604 102.276 40.0377C102.276 39.5151 102.297 39.0084 102.34 38.5177C102.393 38.0164 102.457 37.5684 102.532 37.1737C102.606 36.7684 102.676 36.4431 102.74 36.1977C103.017 36.0911 103.428 35.9951 103.972 35.9097C104.516 35.8137 105.102 35.7657 105.732 35.7657C106.425 35.7657 107.017 35.8351 107.508 35.9737C108.009 36.1017 108.42 36.2884 108.74 36.5337C109.07 36.7791 109.332 37.0724 109.524 37.4137C109.716 37.7444 109.849 38.1177 109.924 38.5337C109.998 38.9497 110.036 39.3924 110.036 39.8617V43.7977C109.566 43.7977 109.076 43.7977 108.564 43.7977C108.062 43.7977 107.572 43.7977 107.092 43.7977C106.622 43.7977 106.206 43.7977 105.844 43.7977C105.492 43.7977 105.236 43.7977 105.076 43.7977C104.905 43.7977 104.718 43.8191 104.516 43.8617C104.313 43.9151 104.116 44.0111 103.924 44.1497C103.742 44.2991 103.593 44.5177 103.476 44.8057C103.358 45.1044 103.3 45.4991 103.3 45.9897C103.3 46.3737 103.332 46.8217 103.396 47.3337C103.47 47.8457 103.556 48.4377 103.652 49.1097H101.54ZM112.596 43.7977V32.4857H114.724V43.7977H112.596ZM123.308 43.7977V41.9417H124.988V43.7977H123.308ZM116.812 43.7977V41.9417H122.62L121.164 43.2057V40.5177C121.164 39.7604 121.084 39.1737 120.924 38.7577C120.775 38.3417 120.519 38.0484 120.156 37.8777C119.804 37.7071 119.319 37.6217 118.7 37.6217H117.404V35.7657H118.7C119.681 35.7657 120.513 35.9257 121.196 36.2457C121.889 36.5657 122.412 37.0777 122.764 37.7817C123.127 38.4751 123.308 39.3871 123.308 40.5177V43.7977H116.812ZM124.988 43.7977V41.9417C125.052 41.9417 125.105 41.9631 125.148 42.0057C125.191 42.0484 125.223 42.1124 125.244 42.1977C125.265 42.2831 125.281 42.3844 125.292 42.5017C125.303 42.6084 125.308 42.7311 125.308 42.8697C125.308 43.0084 125.303 43.1364 125.292 43.2537C125.281 43.3711 125.265 43.4724 125.244 43.5577C125.223 43.6324 125.191 43.6911 125.148 43.7337C125.105 43.7764 125.052 43.7977 124.988 43.7977ZM133.272 43.7977V41.9417H134.968V43.7977H133.272ZM124.984 43.7977C124.92 43.7977 124.872 43.7764 124.84 43.7337C124.798 43.6911 124.766 43.6324 124.744 43.5577C124.712 43.4724 124.691 43.3711 124.68 43.2537C124.67 43.1364 124.664 43.0084 124.664 42.8697C124.664 42.6777 124.675 42.5177 124.696 42.3897C124.718 42.2511 124.755 42.1444 124.808 42.0697C124.851 41.9844 124.91 41.9417 124.984 41.9417V43.7977ZM124.984 43.7977V41.9417H131.864L131.144 42.5337V39.5737C131.144 38.9337 130.942 38.4484 130.536 38.1177C130.142 37.7871 129.512 37.6217 128.648 37.6217C128.403 37.6217 128.067 37.6431 127.64 37.6857C127.214 37.7177 126.75 37.7711 126.248 37.8457L126.04 36.1497C126.499 36.0431 126.963 35.9524 127.432 35.8777C127.912 35.8031 128.382 35.7657 128.84 35.7657C129.715 35.7657 130.483 35.9204 131.144 36.2297C131.806 36.5284 132.323 36.9604 132.696 37.5257C133.08 38.0911 133.272 38.7737 133.272 39.5737V43.7977H124.984ZM134.968 43.7977V41.9417C135.022 41.9417 135.07 41.9631 135.112 42.0057C135.155 42.0484 135.187 42.1124 135.208 42.1977C135.23 42.2831 135.246 42.3844 135.256 42.5017C135.278 42.6084 135.288 42.7311 135.288 42.8697C135.288 43.0084 135.278 43.1364 135.256 43.2537C135.246 43.3711 135.23 43.4724 135.208 43.5577C135.187 43.6324 135.155 43.6911 135.112 43.7337C135.07 43.7764 135.022 43.7977 134.968 43.7977ZM127.752 34.5017V32.6777H129.896V34.5017H127.752ZM139.641 43.7977V41.9417H141.641V43.7977H139.641ZM141.641 43.7977V41.9417C141.694 41.9417 141.742 41.9631 141.785 42.0057C141.827 42.0484 141.859 42.1124 141.881 42.1977C141.902 42.2831 141.918 42.3844 141.929 42.5017C141.95 42.6084 141.961 42.7311 141.961 42.8697C141.961 43.0084 141.95 43.1364 141.929 43.2537C141.918 43.3711 141.902 43.4724 141.881 43.5577C141.859 43.6324 141.827 43.6911 141.785 43.7337C141.753 43.7764 141.705 43.7977 141.641 43.7977ZM134.969 43.7977C134.905 43.7977 134.857 43.7764 134.825 43.7337C134.782 43.6911 134.75 43.6324 134.729 43.5577C134.697 43.4724 134.675 43.3711 134.665 43.2537C134.654 43.1364 134.649 43.0084 134.649 42.8697C134.649 42.6777 134.659 42.5177 134.681 42.3897C134.702 42.2511 134.739 42.1444 134.793 42.0697C134.835 41.9844 134.894 41.9417 134.969 41.9417V43.7977ZM134.969 43.7977V41.9417H138.761L137.513 42.9817V35.7657H139.641V43.7977H134.969ZM136.105 34.2937V32.4697H138.169V34.2937H136.105ZM139.017 34.2937V32.4697H141.081V34.2937H139.017ZM151.049 43.7977C150.611 43.7977 150.174 43.7177 149.737 43.5577C149.31 43.3871 148.915 43.1364 148.553 42.8057L149.865 41.4457C150.078 41.6164 150.275 41.7444 150.457 41.8297C150.649 41.9044 150.846 41.9417 151.049 41.9417H154.041L152.937 42.9497V39.3977C152.937 39.2271 152.915 38.9711 152.873 38.6297C152.841 38.2777 152.787 37.8831 152.713 37.4457C152.649 36.9977 152.569 36.5444 152.473 36.0857L154.585 35.7657C154.659 36.1497 154.729 36.5817 154.793 37.0617C154.867 37.5311 154.931 37.9791 154.985 38.4057C155.038 38.8217 155.065 39.1524 155.065 39.3977V43.7977H151.049ZM141.641 43.7977V41.9417H143.977L143.497 42.4377V37.3977H145.641V43.7977H141.641ZM145.641 43.7977V41.9417H146.937C147.278 41.9417 147.539 41.8937 147.721 41.7977C147.902 41.6911 148.025 41.4831 148.089 41.1737C148.163 40.8537 148.201 40.3791 148.201 39.7497V36.5977H150.345V39.7497C150.345 40.6991 150.222 41.4724 149.977 42.0697C149.742 42.6671 149.374 43.1044 148.873 43.3817C148.371 43.6591 147.726 43.7977 146.937 43.7977H145.641ZM141.641 43.7977C141.577 43.7977 141.529 43.7764 141.497 43.7337C141.454 43.6911 141.422 43.6324 141.401 43.5577C141.369 43.4724 141.347 43.3711 141.337 43.2537C141.326 43.1364 141.321 43.0084 141.321 42.8697C141.321 42.6777 141.331 42.5177 141.353 42.3897C141.374 42.2511 141.411 42.1444 141.465 42.0697C141.507 41.9844 141.566 41.9417 141.641 41.9417V43.7977ZM157.628 43.7977V32.4857H159.756V43.7977H157.628ZM170.208 47.7657C169.514 47.7657 168.869 47.6644 168.272 47.4617C167.685 47.2697 167.173 46.9977 166.736 46.6457C166.298 46.3044 165.952 45.8937 165.696 45.4137C165.45 44.9444 165.328 44.4324 165.328 43.8777C165.328 43.6751 165.344 43.4137 165.376 43.0937C165.408 42.7737 165.45 42.4057 165.504 41.9897C165.568 41.5737 165.637 41.1311 165.712 40.6617L167.824 40.9497C167.717 41.6217 167.632 42.2191 167.568 42.7417C167.504 43.2644 167.472 43.6324 167.472 43.8457C167.472 44.2511 167.584 44.6084 167.808 44.9177C168.032 45.2271 168.346 45.4671 168.752 45.6377C169.168 45.8191 169.653 45.9097 170.208 45.9097H174.736C175.429 45.9097 175.946 45.7337 176.288 45.3817C176.629 45.0297 176.8 44.5177 176.8 43.8457V43.2377H178.928V43.8457C178.928 44.6137 178.757 45.2911 178.416 45.8777C178.074 46.4644 177.589 46.9231 176.96 47.2537C176.341 47.5951 175.6 47.7657 174.736 47.7657H170.208ZM176.096 43.7977C175.605 43.7977 175.13 43.7444 174.672 43.6377C174.224 43.5311 173.797 43.3391 173.392 43.0617L174.608 41.5257C174.778 41.6431 174.928 41.7337 175.056 41.7977C175.194 41.8511 175.344 41.8884 175.504 41.9097C175.674 41.9311 175.872 41.9417 176.096 41.9417H179.632V43.7977H176.096ZM179.632 43.7977V41.9417C179.685 41.9417 179.733 41.9631 179.776 42.0057C179.818 42.0484 179.85 42.1124 179.872 42.1977C179.893 42.2831 179.909 42.3844 179.92 42.5017C179.941 42.6084 179.952 42.7311 179.952 42.8697C179.952 43.0084 179.941 43.1364 179.92 43.2537C179.909 43.3711 179.893 43.4724 179.872 43.5577C179.85 43.6324 179.818 43.6911 179.776 43.7337C179.733 43.7764 179.685 43.7977 179.632 43.7977ZM169.664 51.0617V49.2377H171.728V51.0617H169.664ZM172.576 51.0617V49.2377H174.64V51.0617H172.576ZM176.062 43.7977V41.9417H183.535L182.879 42.5017V37.1577L183.423 37.6217H181.407C180.937 37.6217 180.569 37.6804 180.303 37.7977C180.036 37.9151 179.849 38.1337 179.743 38.4537C179.636 38.7631 179.583 39.2057 179.583 39.7817C179.583 40.4111 179.636 40.8804 179.743 41.1897C179.849 41.4884 180.036 41.6911 180.303 41.7977C180.569 41.8937 180.937 41.9417 181.407 41.9417V43.6057C180.5 43.6057 179.753 43.4777 179.167 43.2217C178.58 42.9657 178.143 42.5604 177.855 42.0057C177.577 41.4404 177.439 40.6991 177.439 39.7817C177.439 38.9071 177.577 38.1711 177.855 37.5737C178.143 36.9764 178.58 36.5284 179.167 36.2297C179.753 35.9204 180.5 35.7657 181.407 35.7657H185.023V43.7977H176.062ZM176.062 43.7977C175.998 43.7977 175.95 43.7764 175.918 43.7337C175.876 43.6911 175.844 43.6324 175.822 43.5577C175.79 43.4724 175.769 43.3711 175.758 43.2537C175.748 43.1364 175.742 43.0084 175.742 42.8697C175.742 42.6777 175.753 42.5177 175.774 42.3897C175.796 42.2511 175.833 42.1444 175.886 42.0697C175.929 41.9844 175.988 41.9417 176.062 41.9417V43.7977ZM180.559 34.2937V32.4697H182.703V34.2937H180.559ZM190.233 47.7657C190.094 47.7657 189.945 47.7604 189.785 47.7497C189.625 47.7391 189.46 47.7231 189.289 47.7017L189.369 45.8777C189.54 45.8884 189.7 45.8991 189.849 45.9097C190.009 45.9204 190.126 45.9257 190.201 45.9257C190.617 45.9257 190.948 45.7604 191.193 45.4297C191.449 45.0991 191.577 44.6351 191.577 44.0377V35.7657H193.721V44.0377C193.721 44.7631 193.572 45.4084 193.273 45.9737C192.985 46.5391 192.58 46.9764 192.057 47.2857C191.534 47.6057 190.926 47.7657 190.233 47.7657ZM196.237 43.7977V32.4857H198.365V43.7977H196.237ZM203.525 43.7977V41.9417H205.589V43.7977H203.525ZM200.421 47.7657C200.282 47.7657 200.133 47.7604 199.973 47.7497C199.812 47.7391 199.647 47.7231 199.476 47.7017L199.556 45.8777C199.727 45.8884 199.887 45.8991 200.037 45.9097C200.197 45.9204 200.314 45.9257 200.389 45.9257C200.805 45.9257 201.135 45.7604 201.381 45.4297C201.637 45.0991 201.765 44.6351 201.765 44.0377V35.7657H203.909V44.0377C203.909 44.7631 203.759 45.4084 203.461 45.9737C203.173 46.5391 202.767 46.9764 202.245 47.2857C201.722 47.6057 201.114 47.7657 200.421 47.7657ZM205.589 43.7977V41.9417C205.653 41.9417 205.701 41.9631 205.733 42.0057C205.775 42.0484 205.807 42.1124 205.829 42.1977C205.861 42.2831 205.882 42.3844 205.893 42.5017C205.903 42.6084 205.909 42.7311 205.909 42.8697C205.909 43.0084 205.903 43.1364 205.893 43.2537C205.882 43.3711 205.861 43.4724 205.829 43.5577C205.807 43.6324 205.775 43.6911 205.733 43.7337C205.701 43.7764 205.653 43.7977 205.589 43.7977ZM215.05 43.7977V41.9417H216.746V43.7977H215.05ZM205.594 43.7977C205.53 43.7977 205.482 43.7764 205.45 43.7337C205.407 43.6911 205.375 43.6324 205.354 43.5577C205.322 43.4724 205.3 43.3711 205.29 43.2537C205.279 43.1364 205.274 43.0084 205.274 42.8697C205.274 42.6777 205.284 42.5177 205.306 42.3897C205.327 42.2511 205.364 42.1444 205.418 42.0697C205.46 41.9844 205.519 41.9417 205.594 41.9417V43.7977ZM205.594 43.7977V41.9417H213.898L212.922 42.7737V39.8297C212.922 39.2537 212.858 38.8057 212.73 38.4857C212.602 38.1551 212.378 37.9257 212.058 37.7977C211.748 37.6591 211.316 37.5897 210.762 37.5897C210.324 37.5897 209.892 37.6217 209.466 37.6857C209.05 37.7391 208.724 37.8137 208.49 37.9097L209.818 36.6617C209.754 36.9071 209.69 37.2164 209.626 37.5897C209.572 37.9631 209.524 38.3631 209.482 38.7897C209.439 39.2057 209.418 39.6164 209.418 40.0217C209.418 40.3951 209.434 40.7844 209.466 41.1897C209.508 41.5951 209.551 41.9524 209.594 42.2617C209.647 42.5711 209.69 42.7844 209.722 42.9017L207.69 43.4617C207.647 43.3124 207.594 43.0671 207.53 42.7257C207.466 42.3844 207.407 41.9791 207.354 41.5097C207.311 41.0404 207.29 40.5444 207.29 40.0217C207.29 39.4884 207.316 38.9764 207.37 38.4857C207.423 37.9844 207.482 37.5364 207.546 37.1417C207.62 36.7364 207.69 36.4111 207.754 36.1657C208.01 36.0697 208.41 35.9737 208.954 35.8777C209.498 35.7817 210.1 35.7337 210.762 35.7337C211.722 35.7337 212.516 35.8671 213.146 36.1337C213.786 36.4004 214.26 36.8324 214.57 37.4297C214.89 38.0271 215.05 38.8324 215.05 39.8457V43.7977H205.594ZM216.746 43.7977V41.9417C216.799 41.9417 216.847 41.9631 216.89 42.0057C216.932 42.0484 216.964 42.1124 216.986 42.1977C217.007 42.2831 217.023 42.3844 217.034 42.5017C217.055 42.6084 217.066 42.7311 217.066 42.8697C217.066 43.0084 217.055 43.1364 217.034 43.2537C217.023 43.3711 217.007 43.4724 216.986 43.5577C216.964 43.6324 216.932 43.6911 216.89 43.7337C216.847 43.7764 216.799 43.7977 216.746 43.7977ZM221.422 43.7977V41.9417H223.422V43.7977H221.422ZM223.422 43.7977V41.9417C223.475 41.9417 223.523 41.9631 223.566 42.0057C223.609 42.0484 223.641 42.1124 223.662 42.1977C223.683 42.2831 223.699 42.3844 223.71 42.5017C223.731 42.6084 223.742 42.7311 223.742 42.8697C223.742 43.0084 223.731 43.1364 223.71 43.2537C223.699 43.3711 223.683 43.4724 223.662 43.5577C223.641 43.6324 223.609 43.6911 223.566 43.7337C223.534 43.7764 223.486 43.7977 223.422 43.7977ZM216.75 43.7977C216.686 43.7977 216.638 43.7764 216.606 43.7337C216.563 43.6911 216.531 43.6324 216.51 43.5577C216.478 43.4724 216.457 43.3711 216.446 43.2537C216.435 43.1364 216.43 43.0084 216.43 42.8697C216.43 42.6777 216.441 42.5177 216.462 42.3897C216.483 42.2511 216.521 42.1444 216.574 42.0697C216.617 41.9844 216.675 41.9417 216.75 41.9417V43.7977ZM216.75 43.7977V41.9417H220.542L219.294 42.9817V35.7657H221.422V43.7977H216.75ZM217.886 34.2937V32.4697H219.95V34.2937H217.886ZM220.798 34.2937V32.4697H222.862V34.2937H220.798ZM232.83 43.7977C232.393 43.7977 231.955 43.7177 231.518 43.5577C231.091 43.3871 230.697 43.1364 230.334 42.8057L231.646 41.4457C231.859 41.6164 232.057 41.7444 232.238 41.8297C232.43 41.9044 232.627 41.9417 232.83 41.9417H235.822L234.718 42.9497V39.3977C234.718 39.2271 234.697 38.9711 234.654 38.6297C234.622 38.2777 234.569 37.8831 234.494 37.4457C234.43 36.9977 234.35 36.5444 234.254 36.0857L236.366 35.7657C236.441 36.1497 236.51 36.5817 236.574 37.0617C236.649 37.5311 236.713 37.9791 236.766 38.4057C236.819 38.8217 236.846 39.1524 236.846 39.3977V43.7977H232.83ZM223.422 43.7977V41.9417H225.758L225.278 42.4377V37.3977H227.422V43.7977H223.422ZM227.422 43.7977V41.9417H228.718C229.059 41.9417 229.321 41.8937 229.502 41.7977C229.683 41.6911 229.806 41.4831 229.87 41.1737C229.945 40.8537 229.982 40.3791 229.982 39.7497V36.5977H232.126V39.7497C232.126 40.6991 232.003 41.4724 231.758 42.0697C231.523 42.6671 231.155 43.1044 230.654 43.3817C230.153 43.6591 229.507 43.7977 228.718 43.7977H227.422ZM223.422 43.7977C223.358 43.7977 223.31 43.7764 223.278 43.7337C223.235 43.6911 223.203 43.6324 223.182 43.5577C223.15 43.4724 223.129 43.3711 223.118 43.2537C223.107 43.1364 223.102 43.0084 223.102 42.8697C223.102 42.6777 223.113 42.5177 223.134 42.3897C223.155 42.2511 223.193 42.1444 223.246 42.0697C223.289 41.9844 223.347 41.9417 223.422 41.9417V43.7977ZM238.609 43.7977V41.9417H246.737L245.713 42.9977V32.4857H247.857V43.7977H238.609ZM240.833 41.9417V34.7257H242.961V41.9417H240.833ZM250.471 43.7977V32.4857H252.599V43.7977H250.471ZM257.951 47.7657C257.556 47.7657 257.14 47.7337 256.703 47.6697C256.276 47.6164 255.818 47.5417 255.327 47.4457L255.647 45.7337C256.18 45.7977 256.634 45.8457 257.007 45.8777C257.38 45.9097 257.695 45.9257 257.951 45.9257C258.719 45.9257 259.274 45.7871 259.615 45.5097C259.956 45.2324 260.127 44.8164 260.127 44.2617V37.2377L260.655 37.6217H258.655C258.218 37.6217 257.866 37.6751 257.599 37.7817C257.332 37.8777 257.135 38.0857 257.007 38.4057C256.89 38.7151 256.831 39.1897 256.831 39.8297C256.831 40.4377 256.884 40.8964 256.991 41.2057C257.108 41.5044 257.3 41.7017 257.567 41.7977C257.834 41.8937 258.196 41.9417 258.655 41.9417H260.127V43.7977H258.655C257.748 43.7977 257.002 43.6537 256.415 43.3657C255.828 43.0777 255.391 42.6404 255.103 42.0537C254.826 41.4671 254.687 40.7257 254.687 39.8297C254.687 38.9337 254.826 38.1871 255.103 37.5897C255.391 36.9817 255.828 36.5284 256.415 36.2297C257.002 35.9204 257.748 35.7657 258.655 35.7657H262.271V44.2617C262.271 44.9871 262.09 45.6111 261.727 46.1337C261.375 46.6671 260.874 47.0724 260.223 47.3497C259.583 47.6271 258.826 47.7657 257.951 47.7657ZM279.291 43.7977V41.9417H280.971V43.7977H279.291ZM272.763 43.7977C271.622 43.7977 270.657 43.6484 269.867 43.3497C269.089 43.0511 268.497 42.6084 268.091 42.0217C267.697 41.4351 267.499 40.7044 267.499 39.8297C267.499 39.5737 267.515 39.3071 267.547 39.0297C267.579 38.7417 267.617 38.4697 267.659 38.2137C267.713 37.9471 267.761 37.7124 267.803 37.5097C267.846 37.3071 267.878 37.1577 267.899 37.0617L269.979 37.4617C269.947 37.6324 269.905 37.8511 269.851 38.1177C269.798 38.3844 269.75 38.6671 269.707 38.9657C269.665 39.2537 269.643 39.5311 269.643 39.7977C269.643 40.2137 269.707 40.5604 269.835 40.8377C269.974 41.1151 270.177 41.3391 270.443 41.5097C270.71 41.6697 271.046 41.7817 271.451 41.8457C271.857 41.9097 272.331 41.9417 272.875 41.9417H278.395L277.147 42.9817V32.4857H279.291V43.7977H272.763ZM280.971 43.7977V41.9417C281.035 41.9417 281.083 41.9631 281.115 42.0057C281.158 42.0484 281.19 42.1124 281.211 42.1977C281.243 42.2831 281.265 42.3844 281.275 42.5017C281.286 42.6084 281.291 42.7311 281.291 42.8697C281.291 43.0084 281.286 43.1364 281.275 43.2537C281.265 43.3711 281.243 43.4724 281.211 43.5577C281.19 43.6324 281.158 43.6911 281.115 43.7337C281.083 43.7764 281.035 43.7977 280.971 43.7977ZM272.427 37.7657C272.225 37.5204 272.07 37.2857 271.963 37.0617C271.857 36.8377 271.803 36.5977 271.803 36.3417C271.803 35.9791 271.899 35.6537 272.091 35.3657C272.283 35.0671 272.534 34.8377 272.843 34.6777C273.153 34.5071 273.494 34.4217 273.867 34.4217C274.07 34.4217 274.278 34.4484 274.491 34.5017C274.705 34.5551 274.886 34.6351 275.035 34.7417L274.491 35.7177C274.395 35.6644 274.299 35.6324 274.203 35.6217C274.118 35.6004 274.027 35.5897 273.931 35.5897C273.675 35.5897 273.478 35.6591 273.339 35.7977C273.201 35.9257 273.131 36.1017 273.131 36.3257C273.131 36.4537 273.158 36.5764 273.211 36.6937C273.265 36.8111 273.345 36.9391 273.451 37.0777L272.427 37.7657ZM271.451 37.8937V36.7257H275.323V37.8937H271.451ZM280.969 43.7977V41.9417H283.897L282.649 42.9817V35.7657H284.793V43.7977H280.969ZM280.969 43.7977C280.905 43.7977 280.857 43.7764 280.825 43.7337C280.782 43.6911 280.75 43.6324 280.729 43.5577C280.697 43.4724 280.675 43.3711 280.665 43.2537C280.654 43.1364 280.649 43.0084 280.649 42.8697C280.649 42.6777 280.659 42.5177 280.681 42.3897C280.702 42.2511 280.739 42.1444 280.793 42.0697C280.835 41.9844 280.894 41.9417 280.969 41.9417V43.7977ZM282.649 47.2057V45.3817H284.793V47.2057H282.649ZM289.521 43.7977V41.9417H291.345V43.7977H289.521ZM287.393 43.7977V32.4857H289.521V43.7977H287.393ZM291.345 43.7977V41.9417C291.409 41.9417 291.457 41.9631 291.489 42.0057C291.532 42.0484 291.564 42.1124 291.585 42.1977C291.617 42.2831 291.638 42.3844 291.649 42.5017C291.66 42.6084 291.665 42.7311 291.665 42.8697C291.665 43.0084 291.66 43.1364 291.649 43.2537C291.638 43.3711 291.617 43.4724 291.585 43.5577C291.564 43.6324 291.532 43.6911 291.489 43.7337C291.457 43.7764 291.409 43.7977 291.345 43.7977ZM304.768 43.7977V41.9417H306.464V43.7977H304.768ZM291.344 43.7977C291.28 43.7977 291.232 43.7764 291.2 43.7337C291.157 43.6911 291.125 43.6324 291.104 43.5577C291.072 43.4724 291.05 43.3711 291.04 43.2537C291.029 43.1364 291.024 43.0084 291.024 42.8697C291.024 42.6777 291.034 42.5177 291.056 42.3897C291.077 42.2511 291.114 42.1444 291.168 42.0697C291.21 41.9844 291.269 41.9417 291.344 41.9417V43.7977ZM300.752 43.7977C300.314 43.7977 299.877 43.7177 299.44 43.5577C299.013 43.3871 298.618 43.1364 298.256 42.8057L299.568 41.4457C299.781 41.6164 299.978 41.7444 300.16 41.8297C300.352 41.9044 300.549 41.9417 300.752 41.9417H303.744L302.64 42.9497V39.3977C302.64 39.2271 302.618 38.9711 302.576 38.6297C302.544 38.2777 302.49 37.8831 302.416 37.4457C302.352 36.9977 302.272 36.5444 302.176 36.0857L304.288 35.7657C304.362 36.1497 304.432 36.5817 304.496 37.0617C304.57 37.5311 304.634 37.9791 304.688 38.4057C304.741 38.8217 304.768 39.1524 304.768 39.3977V43.7977H300.752ZM291.344 43.7977V41.9417H293.68L293.2 42.4377V37.3977H295.344V43.7977H291.344ZM295.344 43.7977V41.9417H296.64C296.981 41.9417 297.242 41.8937 297.424 41.7977C297.605 41.6911 297.728 41.4831 297.792 41.1737C297.866 40.8537 297.904 40.3791 297.904 39.7497V36.5977H300.048V39.7497C300.048 40.6991 299.925 41.4724 299.68 42.0697C299.445 42.6671 299.077 43.1044 298.576 43.3817C298.074 43.6591 297.429 43.7977 296.64 43.7977H295.344ZM306.464 43.7977V41.9417C306.517 41.9417 306.565 41.9631 306.608 42.0057C306.65 42.0484 306.682 42.1124 306.704 42.1977C306.725 42.2831 306.741 42.3844 306.752 42.5017C306.773 42.6084 306.784 42.7311 306.784 42.8697C306.784 43.0084 306.773 43.1364 306.752 43.2537C306.741 43.3711 306.725 43.4724 306.704 43.5577C306.682 43.6324 306.65 43.6911 306.608 43.7337C306.565 43.7764 306.517 43.7977 306.464 43.7977ZM306.469 43.7977V41.9417H313.349L312.629 42.5337V39.5737C312.629 38.9337 312.426 38.4484 312.021 38.1177C311.626 37.7871 310.997 37.6217 310.133 37.6217C309.887 37.6217 309.551 37.6431 309.125 37.6857C308.698 37.7177 308.234 37.7711 307.733 37.8457L307.525 36.1497C307.983 36.0431 308.447 35.9524 308.917 35.8777C309.397 35.8031 309.866 35.7657 310.325 35.7657C311.199 35.7657 311.967 35.9204 312.629 36.2297C313.29 36.5284 313.807 36.9604 314.181 37.5257C314.565 38.0911 314.757 38.7737 314.757 39.5737V43.7977H306.469ZM306.469 43.7977C306.405 43.7977 306.357 43.7764 306.325 43.7337C306.282 43.6911 306.25 43.6324 306.229 43.5577C306.197 43.4724 306.175 43.3711 306.165 43.2537C306.154 43.1364 306.149 43.0084 306.149 42.8697C306.149 42.6777 306.159 42.5177 306.181 42.3897C306.202 42.2511 306.239 42.1444 306.293 42.0697C306.335 41.9844 306.394 41.9417 306.469 41.9417V43.7977ZM323.811 43.7977C322.904 43.7977 322.158 43.6537 321.571 43.3657C320.984 43.0777 320.547 42.6404 320.259 42.0537C319.982 41.4671 319.843 40.7257 319.843 39.8297C319.843 38.9337 319.982 38.1871 320.259 37.5897C320.547 36.9817 320.984 36.5284 321.571 36.2297C322.158 35.9204 322.904 35.7657 323.811 35.7657H327.427V42.7897H325.283V37.1577L325.811 37.6217H323.811C323.374 37.6217 323.022 37.6751 322.755 37.7817C322.488 37.8777 322.291 38.0857 322.163 38.4057C322.046 38.7151 321.987 39.1897 321.987 39.8297C321.987 40.4377 322.04 40.8964 322.147 41.2057C322.264 41.5044 322.456 41.7017 322.723 41.7977C322.99 41.8937 323.352 41.9417 323.811 41.9417H329.107V43.7977H323.811ZM329.107 43.7977V41.9417C329.171 41.9417 329.219 41.9631 329.251 42.0057C329.294 42.0484 329.326 42.1124 329.347 42.1977C329.379 42.2831 329.4 42.3844 329.411 42.5017C329.422 42.6084 329.427 42.7311 329.427 42.8697C329.427 43.0084 329.422 43.1364 329.411 43.2537C329.4 43.3711 329.379 43.4724 329.347 43.5577C329.326 43.6324 329.294 43.6911 329.251 43.7337C329.219 43.7764 329.171 43.7977 329.107 43.7977ZM321.427 34.2937V32.4697H323.491V34.2937H321.427ZM324.339 34.2937V32.4697H326.403V34.2937H324.339ZM329.109 43.7977V41.9417H332.901L331.653 42.9817V35.7657H333.781V43.7977H329.109ZM329.109 43.7977C329.045 43.7977 328.997 43.7764 328.965 43.7337C328.923 43.6911 328.891 43.6324 328.869 43.5577C328.837 43.4724 328.816 43.3711 328.805 43.2537C328.795 43.1364 328.789 43.0084 328.789 42.8697C328.789 42.6777 328.8 42.5177 328.821 42.3897C328.843 42.2511 328.88 42.1444 328.933 42.0697C328.976 41.9844 329.035 41.9417 329.109 41.9417V43.7977ZM329.685 47.2057V45.3817H331.749V47.2057H329.685ZM332.597 47.2057V45.3817H334.661V47.2057H332.597ZM338.521 43.7977V41.9417H340.345V43.7977H338.521ZM336.393 43.7977V32.4857H338.521V43.7977H336.393ZM340.345 43.7977V41.9417C340.409 41.9417 340.457 41.9631 340.489 42.0057C340.532 42.0484 340.564 42.1124 340.585 42.1977C340.617 42.2831 340.638 42.3844 340.649 42.5017C340.66 42.6084 340.665 42.7311 340.665 42.8697C340.665 43.0084 340.66 43.1364 340.649 43.2537C340.638 43.3711 340.617 43.4724 340.585 43.5577C340.564 43.6324 340.532 43.6911 340.489 43.7337C340.457 43.7764 340.409 43.7977 340.345 43.7977ZM349.8 43.7977V41.9417H351.496V43.7977H349.8ZM340.344 43.7977C340.28 43.7977 340.232 43.7764 340.2 43.7337C340.157 43.6911 340.125 43.6324 340.104 43.5577C340.072 43.4724 340.05 43.3711 340.04 43.2537C340.029 43.1364 340.024 43.0084 340.024 42.8697C340.024 42.6777 340.034 42.5177 340.056 42.3897C340.077 42.2511 340.114 42.1444 340.168 42.0697C340.21 41.9844 340.269 41.9417 340.344 41.9417V43.7977ZM340.344 43.7977V41.9417H348.648L347.672 42.7737V39.8297C347.672 39.2537 347.608 38.8057 347.48 38.4857C347.352 38.1551 347.128 37.9257 346.808 37.7977C346.498 37.6591 346.066 37.5897 345.512 37.5897C345.074 37.5897 344.642 37.6217 344.216 37.6857C343.8 37.7391 343.474 37.8137 343.24 37.9097L344.568 36.6617C344.504 36.9071 344.44 37.2164 344.376 37.5897C344.322 37.9631 344.274 38.3631 344.232 38.7897C344.189 39.2057 344.168 39.6164 344.168 40.0217C344.168 40.3951 344.184 40.7844 344.216 41.1897C344.258 41.5951 344.301 41.9524 344.344 42.2617C344.397 42.5711 344.44 42.7844 344.472 42.9017L342.44 43.4617C342.397 43.3124 342.344 43.0671 342.28 42.7257C342.216 42.3844 342.157 41.9791 342.104 41.5097C342.061 41.0404 342.04 40.5444 342.04 40.0217C342.04 39.4884 342.066 38.9764 342.12 38.4857C342.173 37.9844 342.232 37.5364 342.296 37.1417C342.37 36.7364 342.44 36.4111 342.504 36.1657C342.76 36.0697 343.16 35.9737 343.704 35.8777C344.248 35.7817 344.85 35.7337 345.512 35.7337C346.472 35.7337 347.266 35.8671 347.896 36.1337C348.536 36.4004 349.01 36.8324 349.32 37.4297C349.64 38.0271 349.8 38.8324 349.8 39.8457V43.7977H340.344ZM351.496 43.7977V41.9417C351.549 41.9417 351.597 41.9631 351.64 42.0057C351.682 42.0484 351.714 42.1124 351.736 42.1977C351.757 42.2831 351.773 42.3844 351.784 42.5017C351.805 42.6084 351.816 42.7311 351.816 42.8697C351.816 43.0084 351.805 43.1364 351.784 43.2537C351.773 43.3711 351.757 43.4724 351.736 43.5577C351.714 43.6324 351.682 43.6911 351.64 43.7337C351.597 43.7764 351.549 43.7977 351.496 43.7977ZM351.5 43.7977V41.9417H358.38L357.66 42.5337V39.5737C357.66 38.9337 357.457 38.4484 357.052 38.1177C356.657 37.7871 356.028 37.6217 355.164 37.6217C354.919 37.6217 354.583 37.6431 354.156 37.6857C353.729 37.7177 353.265 37.7711 352.764 37.8457L352.556 36.1497C353.015 36.0431 353.479 35.9524 353.948 35.8777C354.428 35.8031 354.897 35.7657 355.356 35.7657C356.231 35.7657 356.999 35.9204 357.66 36.2297C358.321 36.5284 358.839 36.9604 359.212 37.5257C359.596 38.0911 359.788 38.7737 359.788 39.5737V43.7977H351.5ZM351.5 43.7977C351.436 43.7977 351.388 43.7764 351.356 43.7337C351.313 43.6911 351.281 43.6324 351.26 43.5577C351.228 43.4724 351.207 43.3711 351.196 43.2537C351.185 43.1364 351.18 43.0084 351.18 42.8697C351.18 42.6777 351.191 42.5177 351.212 42.3897C351.233 42.2511 351.271 42.1444 351.324 42.0697C351.367 41.9844 351.425 41.9417 351.5 41.9417V43.7977Z" fill="#245957"/>
</svg>
