<svg width="220" height="147" viewBox="0 0 220 147" fill="none" xmlns="http://www.w3.org/2000/svg">
<path d="M135 82.0477V68.254C137.183 67.6331 139.267 66.8144 141.25 65.7977V82.0477C141.25 85.3629 139.933 88.5424 137.589 90.8866C135.245 93.2308 132.065 94.5477 128.75 94.5477H78.75C75.4348 94.5477 72.2554 93.2308 69.9112 90.8866C67.567 88.5424 66.25 85.3629 66.25 82.0477V44.5477C66.25 41.2325 67.567 38.0531 69.9112 35.7089C72.2554 33.3647 75.4348 32.0477 78.75 32.0477H91.3875C91.2011 34.1269 91.2011 36.2186 91.3875 38.2977H78.75C77.0924 38.2977 75.5027 38.9562 74.3306 40.1283C73.1585 41.3004 72.5 42.8901 72.5 44.5477V49.1727L103.75 65.9977L107.15 64.1665C109.304 65.5456 111.604 66.6748 114.05 67.554L105.238 72.304C104.781 72.5501 104.271 72.679 103.753 72.679C103.235 72.679 102.725 72.5501 102.269 72.304L72.5 56.2665V82.0477C72.5 83.7053 73.1585 85.295 74.3306 86.4671C75.5027 87.6392 77.0924 88.2977 78.75 88.2977H128.75C130.408 88.2977 131.997 87.6392 133.169 86.4671C134.342 85.295 135 83.7053 135 82.0477ZM125.625 63.2977C133.084 63.2977 140.238 60.3346 145.512 55.0601C150.787 49.7856 153.75 42.6319 153.75 35.1727C153.75 27.7135 150.787 20.5598 145.512 15.2854C140.238 10.0109 133.084 7.04773 125.625 7.04773C118.166 7.04773 111.012 10.0109 105.738 15.2854C100.463 20.5598 97.5 27.7135 97.5 35.1727C97.5 42.6319 100.463 49.7856 105.738 55.0601C111.012 60.3346 118.166 63.2977 125.625 63.2977Z" fill="#53B175"/>
<path d="M120.894 53.0682L120.897 53.0682C121.555 53.0701 122.205 52.9202 122.796 52.6302C123.387 52.3402 123.904 51.9179 124.305 51.3961L143.694 26.1102L120.894 53.0682ZM120.894 53.0682C119.972 53.07 119.074 52.7716 118.335 52.2183L118.288 52.1829L118.285 52.1801L107.519 43.9376C107.519 43.9376 107.519 43.9375 107.519 43.9375C107.072 43.5953 106.698 43.1685 106.416 42.6815C106.134 42.1944 105.951 41.6566 105.877 41.0988C105.804 40.541 105.84 39.9741 105.986 39.4305C106.131 38.887 106.382 38.3773 106.724 37.9307C107.066 37.484 107.493 37.1092 107.98 36.8275C108.467 36.5458 109.005 36.3628 109.563 36.289C110.12 36.2152 110.687 36.2519 111.231 36.3972C111.775 36.5424 112.284 36.7933 112.731 37.1355L119.706 42.4842L120.103 42.7884L120.407 42.3917L136.892 20.8935L136.892 20.8935C137.234 20.447 137.661 20.0723 138.148 19.7908C138.635 19.5093 139.173 19.3265 139.731 19.2528C140.289 19.1792 140.856 19.2162 141.399 19.3616C141.943 19.5071 142.452 19.7581 142.899 20.1005L143.095 19.8447M120.894 53.0682L143.095 19.8447M143.095 19.8447L143.098 19.8466L142.901 20.1022C143.802 20.7945 144.391 21.8159 144.54 22.9422C144.689 24.0684 144.385 25.2075 143.695 26.1098L143.095 19.8447Z" fill="#F0F0F0" stroke="#53B175"/>
<path d="M5.52 141.766C4.82667 141.766 4.18133 141.664 3.584 141.462C2.99733 141.27 2.48533 140.998 2.048 140.646C1.61067 140.304 1.264 139.894 1.008 139.414C0.762667 138.944 0.64 138.432 0.64 137.878C0.64 137.675 0.656 137.414 0.688 137.094C0.72 136.774 0.762667 136.406 0.816 135.99C0.88 135.574 0.949333 135.131 1.024 134.662L3.136 134.95C3.02933 135.622 2.944 136.219 2.88 136.742C2.816 137.264 2.784 137.632 2.784 137.846C2.784 138.251 2.896 138.608 3.12 138.918C3.344 139.227 3.65867 139.467 4.064 139.638C4.48 139.819 4.96533 139.91 5.52 139.91H10.048C10.7413 139.91 11.2587 139.734 11.6 139.382C11.9413 139.03 12.112 138.518 12.112 137.846V137.238H14.24V137.846C14.24 138.614 14.0693 139.291 13.728 139.878C13.3867 140.464 12.9013 140.923 12.272 141.254C11.6533 141.595 10.912 141.766 10.048 141.766H5.52ZM11.408 137.798C10.9173 137.798 10.4427 137.744 9.984 137.638C9.536 137.531 9.10933 137.339 8.704 137.062L9.92 135.526C10.0907 135.643 10.24 135.734 10.368 135.798C10.5067 135.851 10.656 135.888 10.816 135.91C10.9867 135.931 11.184 135.942 11.408 135.942H14.944V137.798H11.408ZM14.944 137.798V135.942C14.9973 135.942 15.0453 135.963 15.088 136.006C15.1307 136.048 15.1627 136.112 15.184 136.198C15.2053 136.283 15.2213 136.384 15.232 136.502C15.2533 136.608 15.264 136.731 15.264 136.87C15.264 137.008 15.2533 137.136 15.232 137.254C15.2213 137.371 15.2053 137.472 15.184 137.558C15.1627 137.632 15.1307 137.691 15.088 137.734C15.0453 137.776 14.9973 137.798 14.944 137.798ZM4.976 145.062V143.238H7.04V145.062H4.976ZM7.888 145.062V143.238H9.952V145.062H7.888ZM14.9375 137.798V135.942H17.8655L16.6175 136.982V129.766H18.7615V137.798H14.9375ZM14.9375 137.798C14.8735 137.798 14.8255 137.776 14.7935 137.734C14.7508 137.691 14.7188 137.632 14.6975 137.558C14.6655 137.472 14.6442 137.371 14.6335 137.254C14.6228 137.136 14.6175 137.008 14.6175 136.87C14.6175 136.678 14.6282 136.518 14.6495 136.39C14.6708 136.251 14.7082 136.144 14.7615 136.07C14.8042 135.984 14.8628 135.942 14.9375 135.942V137.798ZM16.6175 128.294V126.47H18.7615V128.294H16.6175ZM23.8259 141.766C23.4312 141.766 23.0152 141.734 22.5779 141.67C22.1512 141.616 21.6925 141.542 21.2019 141.446L21.5219 139.734C22.0552 139.798 22.5085 139.846 22.8819 139.878C23.2552 139.91 23.5699 139.926 23.8259 139.926C24.5939 139.926 25.1485 139.787 25.4899 139.51C25.8312 139.232 26.0019 138.816 26.0019 138.262V131.238L26.5299 131.622H24.5299C24.0925 131.622 23.7405 131.675 23.4739 131.782C23.2072 131.878 23.0099 132.086 22.8819 132.406C22.7645 132.715 22.7059 133.19 22.7059 133.83C22.7059 134.438 22.7592 134.896 22.8659 135.206C22.9832 135.504 23.1752 135.702 23.4419 135.798C23.7085 135.894 24.0712 135.942 24.5299 135.942H26.0019V137.798H24.5299C23.6232 137.798 22.8765 137.654 22.2899 137.366C21.7032 137.078 21.2659 136.64 20.9779 136.054C20.7005 135.467 20.5619 134.726 20.5619 133.83C20.5619 132.934 20.7005 132.187 20.9779 131.59C21.2659 130.982 21.7032 130.528 22.2899 130.23C22.8765 129.92 23.6232 129.766 24.5299 129.766H28.1459V138.262C28.1459 138.987 27.9645 139.611 27.6019 140.134C27.2499 140.667 26.7485 141.072 26.0979 141.35C25.4579 141.627 24.7005 141.766 23.8259 141.766ZM36.706 137.798V129.766H38.85V136.982L37.602 135.942H40.85V137.798H36.706ZM33.346 133.222V131.35H36.706V133.222H33.346ZM29.858 141.766C29.7193 141.766 29.57 141.76 29.41 141.75C29.25 141.739 29.0847 141.723 28.914 141.702L28.994 139.878C29.1647 139.888 29.3247 139.899 29.474 139.91C29.634 139.92 29.7513 139.926 29.826 139.926C30.242 139.926 30.5727 139.76 30.818 139.43C31.074 139.099 31.202 138.635 31.202 138.038V129.766H33.346V138.038C33.346 138.763 33.1967 139.408 32.898 139.974C32.61 140.539 32.2047 140.976 31.682 141.286C31.1593 141.606 30.5513 141.766 29.858 141.766ZM40.85 137.798V135.942C40.9033 135.942 40.9513 135.963 40.994 136.006C41.0367 136.048 41.0687 136.112 41.09 136.198C41.1113 136.283 41.1273 136.384 41.138 136.502C41.1593 136.608 41.17 136.731 41.17 136.87C41.17 137.008 41.1593 137.136 41.138 137.254C41.1273 137.371 41.1113 137.472 41.09 137.558C41.0687 137.632 41.0367 137.691 40.994 137.734C40.9513 137.776 40.9033 137.798 40.85 137.798ZM35.298 128.294V126.47H37.362V128.294H35.298ZM38.21 128.294V126.47H40.274V128.294H38.21ZM50.3158 137.798V135.942H51.9958V137.798H50.3158ZM40.8438 137.798C40.7797 137.798 40.7317 137.776 40.6997 137.734C40.6571 137.691 40.6251 137.632 40.6037 137.558C40.5717 137.472 40.5504 137.371 40.5397 137.254C40.5291 137.136 40.5237 137.008 40.5237 136.87C40.5237 136.678 40.5344 136.518 40.5557 136.39C40.5771 136.251 40.6144 136.144 40.6677 136.07C40.7104 135.984 40.7691 135.942 40.8438 135.942V137.798ZM40.8438 137.798V135.942H48.8758L48.1718 136.518V134.342C48.1718 133.787 48.1131 133.344 47.9958 133.014C47.8784 132.683 47.6971 132.443 47.4518 132.294C47.2171 132.144 46.9184 132.07 46.5558 132.07H43.0518L41.7238 130.15L42.5398 128.614C42.6358 128.432 42.7424 128.235 42.8598 128.022C42.9771 127.808 43.1318 127.552 43.3238 127.254C43.5158 126.955 43.7611 126.582 44.0598 126.134L45.8518 127.142C45.5744 127.558 45.3504 127.904 45.1798 128.182C45.0091 128.448 44.8651 128.683 44.7478 128.886C44.6304 129.088 44.5238 129.291 44.4278 129.494L43.7878 130.694L43.4678 130.214H46.5558C47.2384 130.214 47.8198 130.326 48.2998 130.55C48.7798 130.774 49.1638 131.083 49.4518 131.478C49.7504 131.872 49.9691 132.315 50.1078 132.806C50.2464 133.296 50.3158 133.808 50.3158 134.342V137.798H40.8438ZM51.9958 137.798V135.942C52.0598 135.942 52.1131 135.963 52.1558 136.006C52.1984 136.048 52.2304 136.112 52.2518 136.198C52.2731 136.283 52.2891 136.384 52.2998 136.502C52.3104 136.608 52.3158 136.731 52.3158 136.87C52.3158 137.008 52.3104 137.136 52.2998 137.254C52.2891 137.371 52.2731 137.472 52.2518 137.558C52.2304 137.632 52.1984 137.691 52.1558 137.734C52.1131 137.776 52.0598 137.798 51.9958 137.798ZM53.808 137.798V126.486H55.952V137.798H53.808ZM52 137.798V135.942H53.808V137.798H52ZM52 137.798C51.936 137.798 51.888 137.776 51.856 137.734C51.8133 137.691 51.7813 137.632 51.76 137.558C51.728 137.472 51.7067 137.371 51.696 137.254C51.6853 137.136 51.68 137.008 51.68 136.87C51.68 136.678 51.6907 136.518 51.712 136.39C51.7333 136.251 51.7707 136.144 51.824 136.07C51.8667 135.984 51.9253 135.942 52 135.942V137.798ZM57.7181 137.798V135.942H65.8461L64.8221 136.998V126.486H66.9661V137.798H57.7181ZM59.9421 135.942V128.726H62.0701V135.942H59.9421ZM60.0541 127.398C59.8515 127.152 59.6968 126.918 59.5901 126.694C59.4835 126.47 59.4301 126.23 59.4301 125.974C59.4301 125.611 59.5261 125.286 59.7181 124.998C59.9101 124.699 60.1608 124.47 60.4701 124.31C60.7795 124.139 61.1208 124.054 61.4941 124.054C61.6968 124.054 61.9048 124.08 62.1181 124.134C62.3315 124.187 62.5128 124.267 62.6621 124.374L62.1181 125.35C62.0221 125.296 61.9261 125.264 61.8301 125.254C61.7448 125.232 61.6541 125.222 61.5581 125.222C61.3021 125.222 61.1048 125.291 60.9661 125.43C60.8275 125.558 60.7581 125.734 60.7581 125.958C60.7581 126.086 60.7848 126.208 60.8381 126.326C60.8915 126.443 60.9715 126.571 61.0781 126.71L60.0541 127.398ZM59.0781 127.526V126.358H62.9501V127.526H59.0781ZM69.5806 137.798V126.486H71.7086V137.798H69.5806ZM82.5446 137.798C81.4033 137.798 80.438 137.648 79.6486 137.35C78.87 137.051 78.278 136.608 77.8726 136.022C77.478 135.435 77.2806 134.704 77.2806 133.83C77.2806 133.574 77.2966 133.307 77.3286 133.03C77.3606 132.742 77.398 132.47 77.4406 132.214C77.494 131.947 77.542 131.712 77.5846 131.51C77.6273 131.307 77.6593 131.158 77.6806 131.062L79.7606 131.462C79.7286 131.632 79.686 131.851 79.6326 132.118C79.5793 132.384 79.5313 132.667 79.4886 132.966C79.446 133.254 79.4246 133.531 79.4246 133.798C79.4246 134.214 79.4886 134.56 79.6166 134.838C79.7553 135.115 79.958 135.339 80.2246 135.51C80.4913 135.67 80.8273 135.782 81.2326 135.846C81.638 135.91 82.1126 135.942 82.6566 135.942H88.1766L86.9286 136.982V126.486H89.0726V137.798H82.5446ZM82.2086 131.766C82.006 131.52 81.8513 131.286 81.7446 131.062C81.638 130.838 81.5846 130.598 81.5846 130.342C81.5846 129.979 81.6806 129.654 81.8726 129.366C82.0646 129.067 82.3153 128.838 82.6246 128.678C82.934 128.507 83.2753 128.422 83.6486 128.422C83.8513 128.422 84.0593 128.448 84.2726 128.502C84.486 128.555 84.6673 128.635 84.8166 128.742L84.2726 129.718C84.1766 129.664 84.0806 129.632 83.9846 129.622C83.8993 129.6 83.8086 129.59 83.7126 129.59C83.4566 129.59 83.2593 129.659 83.1206 129.798C82.982 129.926 82.9126 130.102 82.9126 130.326C82.9126 130.454 82.9393 130.576 82.9926 130.694C83.046 130.811 83.126 130.939 83.2326 131.078L82.2086 131.766ZM81.2326 131.894V130.726H85.1046V131.894H81.2326ZM97.3079 137.798V135.942H98.9879V137.798H97.3079ZM90.8119 137.798V135.942H96.6199L95.1639 137.206V134.518C95.1639 133.76 95.0839 133.174 94.9239 132.758C94.7745 132.342 94.5185 132.048 94.1559 131.878C93.8039 131.707 93.3185 131.622 92.6999 131.622H91.4039V129.766H92.6999C93.6812 129.766 94.5132 129.926 95.1959 130.246C95.8892 130.566 96.4119 131.078 96.7639 131.782C97.1265 132.475 97.3079 133.387 97.3079 134.518V137.798H90.8119ZM98.9879 137.798V135.942C99.0519 135.942 99.1052 135.963 99.1479 136.006C99.1905 136.048 99.2225 136.112 99.2439 136.198C99.2652 136.283 99.2812 136.384 99.2919 136.502C99.3025 136.608 99.3079 136.731 99.3079 136.87C99.3079 137.008 99.3025 137.136 99.2919 137.254C99.2812 137.371 99.2652 137.472 99.2439 137.558C99.2225 137.632 99.1905 137.691 99.1479 137.734C99.1052 137.776 99.0519 137.798 98.9879 137.798ZM98.9844 137.798V135.942H102.776L101.528 136.982V129.766H103.656V137.798H98.9844ZM98.9844 137.798C98.9204 137.798 98.8724 137.776 98.8404 137.734C98.7977 137.691 98.7657 137.632 98.7444 137.558C98.7124 137.472 98.691 137.371 98.6804 137.254C98.6697 137.136 98.6644 137.008 98.6644 136.87C98.6644 136.678 98.675 136.518 98.6964 136.39C98.7177 136.251 98.755 136.144 98.8084 136.07C98.851 135.984 98.9097 135.942 98.9844 135.942V137.798ZM99.5604 141.206V139.382H101.624V141.206H99.5604ZM102.472 141.206V139.382H104.536V141.206H102.472ZM109.571 137.798V135.942H111.635V137.798H109.571ZM106.467 141.766C106.329 141.766 106.179 141.76 106.019 141.75C105.859 141.739 105.694 141.723 105.523 141.702L105.603 139.878C105.774 139.888 105.934 139.899 106.083 139.91C106.243 139.92 106.361 139.926 106.435 139.926C106.851 139.926 107.182 139.76 107.427 139.43C107.683 139.099 107.811 138.635 107.811 138.038V129.766H109.955V138.038C109.955 138.763 109.806 139.408 109.507 139.974C109.219 140.539 108.814 140.976 108.291 141.286C107.769 141.606 107.161 141.766 106.467 141.766ZM111.635 137.798V135.942C111.699 135.942 111.747 135.963 111.779 136.006C111.822 136.048 111.854 136.112 111.875 136.198C111.907 136.283 111.929 136.384 111.939 136.502C111.95 136.608 111.955 136.731 111.955 136.87C111.955 137.008 111.95 137.136 111.939 137.254C111.929 137.371 111.907 137.472 111.875 137.558C111.854 137.632 111.822 137.691 111.779 137.734C111.747 137.776 111.699 137.798 111.635 137.798ZM111.641 137.798V135.942H114.569L113.321 136.982V129.766H115.465V137.798H111.641ZM111.641 137.798C111.577 137.798 111.529 137.776 111.497 137.734C111.454 137.691 111.422 137.632 111.401 137.558C111.369 137.472 111.347 137.371 111.337 137.254C111.326 137.136 111.321 137.008 111.321 136.87C111.321 136.678 111.331 136.518 111.353 136.39C111.374 136.251 111.411 136.144 111.465 136.07C111.507 135.984 111.566 135.942 111.641 135.942V137.798ZM113.321 141.206V139.382H115.465V141.206H113.321ZM130.189 137.798V135.942H131.869V137.798H130.189ZM125.581 141.766C124.653 141.766 123.821 141.595 123.085 141.254C122.36 140.923 121.789 140.459 121.373 139.862C120.957 139.264 120.749 138.587 120.749 137.83C120.749 137.616 120.765 137.334 120.797 136.982C120.829 136.63 120.872 136.235 120.925 135.798C120.989 135.36 121.053 134.918 121.117 134.47C121.192 134.011 121.261 133.568 121.325 133.142L123.437 133.43C123.32 134.144 123.219 134.8 123.133 135.398C123.059 135.984 123 136.486 122.957 136.902C122.915 137.318 122.893 137.622 122.893 137.814C122.893 138.24 123 138.608 123.213 138.918C123.427 139.227 123.731 139.467 124.125 139.638C124.531 139.819 125.016 139.91 125.581 139.91C126.168 139.91 126.643 139.824 127.005 139.654C127.368 139.483 127.629 139.248 127.789 138.95C127.96 138.651 128.045 138.315 128.045 137.942V129.766H130.189V137.942C130.189 138.71 129.987 139.382 129.581 139.958C129.187 140.534 128.643 140.976 127.949 141.286C127.256 141.606 126.467 141.766 125.581 141.766ZM131.869 137.798V135.942C131.933 135.942 131.981 135.963 132.013 136.006C132.056 136.048 132.088 136.112 132.109 136.198C132.141 136.283 132.163 136.384 132.173 136.502C132.184 136.608 132.189 136.731 132.189 136.87C132.189 137.008 132.184 137.136 132.173 137.254C132.163 137.371 132.141 137.472 132.109 137.558C132.088 137.632 132.056 137.691 132.013 137.734C131.981 137.776 131.933 137.798 131.869 137.798ZM124.413 129.19V127.366H126.557V129.19H124.413ZM131.875 137.798V135.942H140.179L139.203 136.774V133.83C139.203 133.254 139.139 132.806 139.011 132.486C138.883 132.155 138.659 131.926 138.339 131.798C138.03 131.659 137.598 131.59 137.043 131.59C136.606 131.59 136.174 131.622 135.747 131.686C135.331 131.739 135.006 131.814 134.771 131.91L136.099 130.662C136.035 130.907 135.971 131.216 135.907 131.59C135.854 131.963 135.806 132.363 135.763 132.79C135.72 133.206 135.699 133.616 135.699 134.022C135.699 134.395 135.715 134.784 135.747 135.19C135.79 135.595 135.832 135.952 135.875 136.262C135.928 136.571 135.971 136.784 136.003 136.902L133.971 137.462C133.928 137.312 133.875 137.067 133.811 136.726C133.747 136.384 133.688 135.979 133.635 135.51C133.592 135.04 133.571 134.544 133.571 134.022C133.571 133.488 133.598 132.976 133.651 132.486C133.704 131.984 133.763 131.536 133.827 131.142C133.902 130.736 133.971 130.411 134.035 130.166C134.291 130.07 134.691 129.974 135.235 129.878C135.779 129.782 136.382 129.734 137.043 129.734C138.003 129.734 138.798 129.867 139.427 130.134C140.067 130.4 140.542 130.832 140.851 131.43C141.171 132.027 141.331 132.832 141.331 133.846V137.798H131.875ZM131.875 137.798C131.811 137.798 131.763 137.776 131.731 137.734C131.688 137.691 131.656 137.632 131.635 137.558C131.603 137.472 131.582 137.371 131.571 137.254C131.56 137.136 131.555 137.008 131.555 136.87C131.555 136.678 131.566 136.518 131.587 136.39C131.608 136.251 131.646 136.144 131.699 136.07C131.742 135.984 131.8 135.942 131.875 135.942V137.798ZM159.41 137.798V135.942H161.106V137.798H159.41ZM151.218 142.054C150.343 142.054 149.554 141.888 148.85 141.558C148.146 141.238 147.591 140.79 147.186 140.214C146.78 139.648 146.578 139.003 146.578 138.278C146.578 138.054 146.594 137.76 146.626 137.398C146.668 137.035 146.716 136.635 146.77 136.198C146.834 135.76 146.898 135.307 146.962 134.838C147.036 134.368 147.106 133.926 147.17 133.51L149.282 133.814C149.175 134.518 149.079 135.163 148.994 135.75C148.908 136.336 148.839 136.838 148.786 137.254C148.743 137.67 148.722 137.99 148.722 138.214C148.722 138.64 148.818 138.998 149.01 139.286C149.212 139.584 149.5 139.808 149.874 139.958C150.247 140.118 150.695 140.198 151.218 140.198H154.962C155.484 140.198 155.916 140.128 156.258 139.99C156.599 139.851 156.855 139.643 157.026 139.366C157.196 139.099 157.282 138.768 157.282 138.374V131.158L157.81 131.622H155.794C155.324 131.622 154.956 131.68 154.69 131.798C154.423 131.915 154.236 132.134 154.13 132.454C154.023 132.763 153.97 133.206 153.97 133.782C153.97 134.411 154.023 134.88 154.13 135.19C154.236 135.488 154.423 135.691 154.69 135.798C154.956 135.894 155.324 135.942 155.794 135.942H157.282V137.798H155.794C154.887 137.798 154.14 137.659 153.554 137.382C152.967 137.094 152.53 136.651 152.242 136.054C151.964 135.456 151.826 134.699 151.826 133.782C151.826 132.907 151.964 132.171 152.242 131.574C152.53 130.976 152.967 130.528 153.554 130.23C154.14 129.92 154.887 129.766 155.794 129.766H159.41V138.374C159.41 139.131 159.212 139.782 158.818 140.326C158.434 140.88 157.906 141.307 157.234 141.606C156.572 141.904 155.815 142.054 154.962 142.054H151.218ZM161.106 137.798V135.942C161.159 135.942 161.207 135.963 161.25 136.006C161.292 136.048 161.324 136.112 161.346 136.198C161.367 136.283 161.383 136.384 161.394 136.502C161.415 136.608 161.426 136.731 161.426 136.87C161.426 137.008 161.415 137.136 161.394 137.254C161.383 137.371 161.367 137.472 161.346 137.558C161.324 137.632 161.292 137.691 161.25 137.734C161.207 137.776 161.159 137.798 161.106 137.798ZM153.554 128.294V126.47H155.618V128.294H153.554ZM156.466 128.294V126.47H158.53V128.294H156.466ZM170.069 137.798V135.942H171.749V137.798H170.069ZM161.109 137.798C161.045 137.798 160.997 137.776 160.965 137.734C160.923 137.691 160.891 137.632 160.869 137.558C160.837 137.472 160.816 137.371 160.805 137.254C160.795 137.136 160.789 137.008 160.789 136.87C160.789 136.678 160.8 136.518 160.821 136.39C160.843 136.251 160.88 136.144 160.933 136.07C160.976 135.984 161.035 135.942 161.109 135.942V137.798ZM161.109 137.798V135.942H168.581L167.925 136.502V131.158L168.469 131.622H166.453C165.984 131.622 165.616 131.68 165.349 131.798C165.083 131.915 164.896 132.134 164.789 132.454C164.683 132.763 164.629 133.206 164.629 133.782C164.629 134.411 164.683 134.88 164.789 135.19C164.896 135.488 165.083 135.691 165.349 135.798C165.616 135.894 165.984 135.942 166.453 135.942V137.606C165.547 137.606 164.8 137.478 164.213 137.222C163.627 136.966 163.189 136.56 162.901 136.006C162.624 135.44 162.485 134.699 162.485 133.782C162.485 132.907 162.624 132.171 162.901 131.574C163.189 130.976 163.627 130.528 164.213 130.23C164.8 129.92 165.547 129.766 166.453 129.766H170.069V137.798H161.109ZM171.749 137.798V135.942C171.813 135.942 171.867 135.963 171.909 136.006C171.952 136.048 171.984 136.112 172.005 136.198C172.027 136.283 172.043 136.384 172.053 136.502C172.064 136.608 172.069 136.731 172.069 136.87C172.069 137.008 172.064 137.136 172.053 137.254C172.043 137.371 172.027 137.472 172.005 137.558C171.984 137.632 171.952 137.691 171.909 137.734C171.867 137.776 171.813 137.798 171.749 137.798ZM164.197 128.294V126.47H166.261V128.294H164.197ZM167.109 128.294V126.47H169.173V128.294H167.109ZM180.038 137.798V135.942H181.734V137.798H180.038ZM171.75 137.798C171.686 137.798 171.638 137.776 171.606 137.734C171.563 137.691 171.531 137.632 171.51 137.558C171.478 137.472 171.457 137.371 171.446 137.254C171.435 137.136 171.43 137.008 171.43 136.87C171.43 136.678 171.441 136.518 171.462 136.39C171.483 136.251 171.521 136.144 171.574 136.07C171.617 135.984 171.675 135.942 171.75 135.942V137.798ZM171.75 137.798V135.942H178.63L177.91 136.534V133.574C177.91 132.934 177.707 132.448 177.302 132.118C176.907 131.787 176.278 131.622 175.414 131.622C175.169 131.622 174.833 131.643 174.406 131.686C173.979 131.718 173.515 131.771 173.014 131.846L172.806 130.15C173.265 130.043 173.729 129.952 174.198 129.878C174.678 129.803 175.147 129.766 175.606 129.766C176.481 129.766 177.249 129.92 177.91 130.23C178.571 130.528 179.089 130.96 179.462 131.526C179.846 132.091 180.038 132.774 180.038 133.574V137.798H171.75ZM181.734 137.798V135.942C181.787 135.942 181.835 135.963 181.878 136.006C181.921 136.048 181.953 136.112 181.974 136.198C181.995 136.283 182.011 136.384 182.022 136.502C182.043 136.608 182.054 136.731 182.054 136.87C182.054 137.008 182.043 137.136 182.022 137.254C182.011 137.371 181.995 137.472 181.974 137.558C181.953 137.632 181.921 137.691 181.878 137.734C181.835 137.776 181.787 137.798 181.734 137.798ZM186.406 137.798V135.942H188.406V137.798H186.406ZM188.406 137.798V135.942C188.46 135.942 188.508 135.963 188.55 136.006C188.593 136.048 188.625 136.112 188.646 136.198C188.668 136.283 188.684 136.384 188.694 136.502C188.716 136.608 188.726 136.731 188.726 136.87C188.726 137.008 188.716 137.136 188.694 137.254C188.684 137.371 188.668 137.472 188.646 137.558C188.625 137.632 188.593 137.691 188.55 137.734C188.518 137.776 188.47 137.798 188.406 137.798ZM181.734 137.798C181.67 137.798 181.622 137.776 181.59 137.734C181.548 137.691 181.516 137.632 181.494 137.558C181.462 137.472 181.441 137.371 181.43 137.254C181.42 137.136 181.414 137.008 181.414 136.87C181.414 136.678 181.425 136.518 181.446 136.39C181.468 136.251 181.505 136.144 181.558 136.07C181.601 135.984 181.66 135.942 181.734 135.942V137.798ZM181.734 137.798V135.942H185.526L184.278 136.982V129.766H186.406V137.798H181.734ZM182.87 128.294V126.47H184.934V128.294H182.87ZM185.782 128.294V126.47H187.846V128.294H185.782ZM190.214 137.798V126.486H192.358V137.798H190.214ZM188.406 137.798V135.942H190.214V137.798H188.406ZM188.406 137.798C188.342 137.798 188.294 137.776 188.262 137.734C188.22 137.691 188.188 137.632 188.166 137.558C188.134 137.472 188.113 137.371 188.102 137.254C188.092 137.136 188.086 137.008 188.086 136.87C188.086 136.678 188.097 136.518 188.118 136.39C188.14 136.251 188.177 136.144 188.23 136.07C188.273 135.984 188.332 135.942 188.406 135.942V137.798ZM194.924 137.798V126.486H197.052V137.798H194.924ZM211.504 137.798V135.942H213.2V137.798H211.504ZM203.008 143.11C202.912 142.534 202.822 141.974 202.736 141.43C202.662 140.886 202.624 140.406 202.624 139.99C202.624 139.158 202.784 138.438 203.104 137.83C203.424 137.232 203.878 136.768 204.464 136.438C205.051 136.107 205.744 135.942 206.544 135.942C206.704 135.942 206.902 135.942 207.136 135.942C207.382 135.942 207.664 135.942 207.984 135.942C208.304 135.942 208.662 135.942 209.056 135.942C209.451 135.942 209.883 135.942 210.352 135.942L209.376 136.87V133.846C209.376 133.291 209.312 132.854 209.184 132.534C209.067 132.203 208.848 131.968 208.528 131.83C208.219 131.691 207.766 131.622 207.168 131.622C206.763 131.622 206.347 131.654 205.92 131.718C205.504 131.771 205.174 131.846 204.928 131.942L206.272 130.694C206.198 130.95 206.128 131.27 206.064 131.654C206.011 132.038 205.968 132.438 205.936 132.854C205.904 133.259 205.888 133.643 205.888 134.006C205.888 134.4 205.904 134.8 205.936 135.206C205.968 135.6 206.006 135.952 206.048 136.262C206.102 136.571 206.144 136.784 206.176 136.902L204.144 137.462C204.091 137.312 204.032 137.067 203.968 136.726C203.915 136.384 203.862 135.984 203.808 135.526C203.766 135.056 203.744 134.56 203.744 134.038C203.744 133.515 203.766 133.008 203.808 132.518C203.862 132.016 203.926 131.568 204 131.174C204.075 130.768 204.144 130.443 204.208 130.198C204.486 130.091 204.896 129.995 205.44 129.91C205.984 129.814 206.571 129.766 207.2 129.766C207.894 129.766 208.486 129.835 208.976 129.974C209.478 130.102 209.888 130.288 210.208 130.534C210.539 130.779 210.8 131.072 210.992 131.414C211.184 131.744 211.318 132.118 211.392 132.534C211.467 132.95 211.504 133.392 211.504 133.862V137.798C211.035 137.798 210.544 137.798 210.032 137.798C209.531 137.798 209.04 137.798 208.56 137.798C208.091 137.798 207.675 137.798 207.312 137.798C206.96 137.798 206.704 137.798 206.544 137.798C206.374 137.798 206.187 137.819 205.984 137.862C205.782 137.915 205.584 138.011 205.392 138.15C205.211 138.299 205.062 138.518 204.944 138.806C204.827 139.104 204.768 139.499 204.768 139.99C204.768 140.374 204.8 140.822 204.864 141.334C204.939 141.846 205.024 142.438 205.12 143.11H203.008ZM213.2 137.798V135.942C213.254 135.942 213.302 135.963 213.344 136.006C213.387 136.048 213.419 136.112 213.44 136.198C213.462 136.283 213.478 136.384 213.488 136.502C213.51 136.608 213.52 136.731 213.52 136.87C213.52 137.008 213.51 137.136 213.488 137.254C213.478 137.371 213.462 137.472 213.44 137.558C213.419 137.632 213.387 137.691 213.344 137.734C213.302 137.776 213.254 137.798 213.2 137.798ZM213.203 137.798V135.942H216.995L215.747 136.982V129.766H217.875V137.798H213.203ZM213.203 137.798C213.139 137.798 213.091 137.776 213.059 137.734C213.016 137.691 212.984 137.632 212.963 137.558C212.931 137.472 212.91 137.371 212.899 137.254C212.888 137.136 212.883 137.008 212.883 136.87C212.883 136.678 212.894 136.518 212.915 136.39C212.936 136.251 212.974 136.144 213.027 136.07C213.07 135.984 213.128 135.942 213.203 135.942V137.798ZM214.339 128.294V126.47H216.403V128.294H214.339ZM217.251 128.294V126.47H219.315V128.294H217.251Z" fill="#53B175"/>
</svg>
