<svg width="34" height="42" viewBox="0 0 34 42" fill="none" xmlns="http://www.w3.org/2000/svg">
<path d="M6.59048 16.2615V11.9015C6.59048 9.14285 7.68635 6.49719 9.63701 4.54653C11.5877 2.59587 14.2333 1.5 16.992 1.5C19.7506 1.5 22.3963 2.59587 24.347 4.54653C26.2976 6.49719 27.3935 9.14285 27.3935 11.9015V16.2615M3.17048 16.2615H30.8305C31.3341 16.262 31.8168 16.4624 32.1727 16.8187C32.5286 17.175 32.7285 17.6579 32.7285 18.1615V38.6015C32.7285 39.1052 32.5284 39.5884 32.1723 39.9446C31.8162 40.3009 31.3332 40.5012 30.8295 40.5015H3.17148C2.66757 40.5015 2.1843 40.3013 1.82798 39.945C1.47166 39.5887 1.27148 39.1054 1.27148 38.6015V18.1615C1.27148 17.6576 1.47166 17.1743 1.82798 16.818C2.1843 16.4617 2.66657 16.2615 3.17048 16.2615Z" stroke="#53B175" stroke-width="2" stroke-linecap="round" stroke-linejoin="round"/>
<path d="M17.3055 32.4155C19.5334 32.4155 21.3395 30.6094 21.3395 28.3815C21.3395 26.1536 19.5334 24.3475 17.3055 24.3475C15.0776 24.3475 13.2715 26.1536 13.2715 28.3815C13.2715 30.6094 15.0776 32.4155 17.3055 32.4155Z" stroke="#53B175" stroke-width="2" stroke-linecap="round" stroke-linejoin="round"/>
</svg>
