<svg width="28" height="28" viewBox="0 0 28 28" fill="none" xmlns="http://www.w3.org/2000/svg">
<path d="M26.2498 22.9688H25.1561V9.625C25.1561 9.45095 25.0869 9.28403 24.9639 9.16096C24.8408 9.03789 24.6739 8.96875 24.4998 8.96875H17.4998C17.3258 8.96875 17.1589 9.03789 17.0358 9.16096C16.9127 9.28403 16.8436 9.45095 16.8436 9.625V14.2188H11.1561V4.375C11.1561 4.20095 11.0869 4.03403 10.9639 3.91096C10.8408 3.78789 10.6739 3.71875 10.4998 3.71875H3.49982C3.32578 3.71875 3.15886 3.78789 3.03579 3.91096C2.91271 4.03403 2.84357 4.20095 2.84357 4.375V22.9688H1.74982C1.57578 22.9688 1.40886 23.0379 1.28579 23.161C1.16271 23.284 1.09357 23.451 1.09357 23.625C1.09357 23.799 1.16271 23.966 1.28579 24.089C1.40886 24.2121 1.57578 24.2812 1.74982 24.2812H26.2498C26.4239 24.2812 26.5908 24.2121 26.7139 24.089C26.8369 23.966 26.9061 23.799 26.9061 23.625C26.9061 23.451 26.8369 23.284 26.7139 23.161C26.5908 23.0379 26.4239 22.9688 26.2498 22.9688ZM18.1561 10.2812H23.8436V22.9688H18.1561V10.2812ZM16.8436 15.5312V22.9688H11.1561V15.5312H16.8436ZM4.15607 5.03125H9.84357V22.9688H4.15607V5.03125ZM7.65607 7.875V9.625C7.65607 9.79905 7.58693 9.96597 7.46386 10.089C7.34079 10.2121 7.17387 10.2812 6.99982 10.2812C6.82578 10.2812 6.65886 10.2121 6.53579 10.089C6.41271 9.96597 6.34357 9.79905 6.34357 9.625V7.875C6.34357 7.70095 6.41271 7.53403 6.53579 7.41096C6.65886 7.28789 6.82578 7.21875 6.99982 7.21875C7.17387 7.21875 7.34079 7.28789 7.46386 7.41096C7.58693 7.53403 7.65607 7.70095 7.65607 7.875ZM7.65607 13.125V14.875C7.65607 15.049 7.58693 15.216 7.46386 15.339C7.34079 15.4621 7.17387 15.5312 6.99982 15.5312C6.82578 15.5312 6.65886 15.4621 6.53579 15.339C6.41271 15.216 6.34357 15.049 6.34357 14.875V13.125C6.34357 12.951 6.41271 12.784 6.53579 12.661C6.65886 12.5379 6.82578 12.4688 6.99982 12.4688C7.17387 12.4688 7.34079 12.5379 7.46386 12.661C7.58693 12.784 7.65607 12.951 7.65607 13.125ZM7.65607 18.375V20.125C7.65607 20.299 7.58693 20.466 7.46386 20.589C7.34079 20.7121 7.17387 20.7812 6.99982 20.7812C6.82578 20.7812 6.65886 20.7121 6.53579 20.589C6.41271 20.466 6.34357 20.299 6.34357 20.125V18.375C6.34357 18.201 6.41271 18.034 6.53579 17.911C6.65886 17.7879 6.82578 17.7188 6.99982 17.7188C7.17387 17.7188 7.34079 17.7879 7.46386 17.911C7.58693 18.034 7.65607 18.201 7.65607 18.375ZM13.3436 20.125V18.375C13.3436 18.201 13.4127 18.034 13.5358 17.911C13.6589 17.7879 13.8258 17.7188 13.9998 17.7188C14.1739 17.7188 14.3408 17.7879 14.4639 17.911C14.5869 18.034 14.6561 18.201 14.6561 18.375V20.125C14.6561 20.299 14.5869 20.466 14.4639 20.589C14.3408 20.7121 14.1739 20.7812 13.9998 20.7812C13.8258 20.7812 13.6589 20.7121 13.5358 20.589C13.4127 20.466 13.3436 20.299 13.3436 20.125ZM20.3436 20.125V18.375C20.3436 18.201 20.4127 18.034 20.5358 17.911C20.6589 17.7879 20.8258 17.7188 20.9998 17.7188C21.1739 17.7188 21.3408 17.7879 21.4639 17.911C21.5869 18.034 21.6561 18.201 21.6561 18.375V20.125C21.6561 20.299 21.5869 20.466 21.4639 20.589C21.3408 20.7121 21.1739 20.7812 20.9998 20.7812C20.8258 20.7812 20.6589 20.7121 20.5358 20.589C20.4127 20.466 20.3436 20.299 20.3436 20.125ZM20.3436 14.875V13.125C20.3436 12.951 20.4127 12.784 20.5358 12.661C20.6589 12.5379 20.8258 12.4688 20.9998 12.4688C21.1739 12.4688 21.3408 12.5379 21.4639 12.661C21.5869 12.784 21.6561 12.951 21.6561 13.125V14.875C21.6561 15.049 21.5869 15.216 21.4639 15.339C21.3408 15.4621 21.1739 15.5312 20.9998 15.5312C20.8258 15.5312 20.6589 15.4621 20.5358 15.339C20.4127 15.216 20.3436 15.049 20.3436 14.875Z" fill="#245957"/>
</svg>
