<svg width="15" height="24" viewBox="0 0 15 24" fill="none" xmlns="http://www.w3.org/2000/svg">
<path d="M6.75 24V21H3.75V19.5H6.75V14.9655C4.833 14.7505 3.2285 13.932 1.9365 12.51C0.645501 11.087 0 9.4115 0 7.4835C0 5.4005 0.729499 3.6325 2.1885 2.1795C3.6465 0.7265 5.417 0 7.5 0C9.583 0 11.3535 0.7265 12.8115 2.1795C14.2695 3.6325 14.999 5.4005 15 7.4835C15 9.4115 14.3545 11.0865 13.0635 12.5085C11.7715 13.9315 10.167 14.7505 8.25 14.9655V19.5H11.25V21H8.25V24H6.75ZM7.5045 13.5C9.1635 13.5 10.5775 12.914 11.7465 11.742C12.9155 10.569 13.5 9.1535 13.5 7.4955C13.5 5.8375 12.914 4.4235 11.742 3.2535C10.57 2.0835 9.1545 1.499 7.4955 1.5C5.8365 1.501 4.4225 2.087 3.2535 3.258C2.0845 4.431 1.5 5.8465 1.5 7.5045C1.5 9.1635 2.086 10.5775 3.258 11.7465C4.431 12.9155 5.8465 13.5 7.5045 13.5Z" fill="#245957"/>
</svg>
