<svg width="24" height="24" viewBox="0 0 24 24" fill="none" xmlns="http://www.w3.org/2000/svg">
<path d="M24 0V8H22.4V2.7728L14.1936 10.9072C14.7216 11.6752 15.1547 12.4859 15.4928 13.3392C15.8309 14.1925 16 15.0795 16 16C16 18.2304 15.2245 20.1216 13.6736 21.6736C12.1227 23.2256 10.2325 24.0011 8.0032 24C5.77387 23.9989 3.88267 23.2235 2.3296 21.6736C0.776533 20.1237 0 18.2336 0 16.0032C0 13.7728 0.776 11.8816 2.328 10.3296C3.88 8.7776 5.77067 8.00107 8 8C8.9216 8 9.80373 8.168 10.6464 8.504C11.4891 8.83893 12.2912 9.27307 13.0528 9.8064L21.2592 1.6H16V0H24ZM7.9952 9.6C6.22667 9.6 4.7184 10.2251 3.4704 11.4752C2.22347 12.7264 1.6 14.2363 1.6 16.0048C1.6 17.7744 2.22507 19.2827 3.4752 20.5296C4.7264 21.7765 6.23627 22.4 8.0048 22.4C9.7744 22.4 11.2827 21.7749 12.5296 20.5248C13.7765 19.2736 14.4 17.7637 14.4 15.9952C14.4 14.2267 13.7749 12.7184 12.5248 11.4704C11.2747 10.2224 9.7648 9.59893 7.9952 9.6Z" fill="#245957"/>
</svg>
