<svg width="411" height="60" viewBox="0 0 411 60" fill="none" xmlns="http://www.w3.org/2000/svg">
<path d="M29.3826 21V13H30.7426V20.312L30.0866 19.768H32.5186V21H29.3826ZM25.9266 15.816V14.568H29.3826V15.816H25.9266ZM21.5746 24.968C20.7213 24.968 19.948 24.808 19.2546 24.488C18.572 24.1787 18.028 23.7413 17.6226 23.176C17.228 22.6213 17.0306 21.9867 17.0306 21.272C17.0306 21.048 17.0466 20.7547 17.0786 20.392C17.1213 20.0187 17.1693 19.608 17.2226 19.16C17.2866 18.712 17.356 18.2587 17.4306 17.8C17.5053 17.3307 17.5746 16.888 17.6386 16.472L18.9826 16.68C18.8653 17.4053 18.764 18.0827 18.6786 18.712C18.5933 19.3307 18.524 19.8587 18.4706 20.296C18.428 20.7333 18.4066 21.0587 18.4066 21.272C18.4066 21.752 18.5346 22.1733 18.7906 22.536C19.0573 22.9093 19.4306 23.2027 19.9106 23.416C20.3906 23.6293 20.9453 23.736 21.5746 23.736C22.204 23.736 22.7426 23.6347 23.1906 23.432C23.6386 23.24 23.98 22.9627 24.2146 22.6C24.4493 22.248 24.5666 21.8373 24.5666 21.368V13H25.9266V21.368C25.9266 22.1147 25.7293 22.7547 25.3346 23.288C24.9506 23.832 24.428 24.248 23.7666 24.536C23.116 24.824 22.3853 24.968 21.5746 24.968ZM20.8226 12.92V11.416H22.1986V12.92H20.8226ZM32.5186 21V19.768C32.5826 19.768 32.6306 19.784 32.6626 19.816C32.7053 19.8373 32.7373 19.8747 32.7586 19.928C32.7906 19.9813 32.812 20.0453 32.8226 20.12C32.8333 20.1947 32.8386 20.28 32.8386 20.376C32.8386 20.472 32.8333 20.5627 32.8226 20.648C32.812 20.7227 32.7906 20.7867 32.7586 20.84C32.7373 20.8933 32.7053 20.936 32.6626 20.968C32.6306 20.9893 32.5826 21 32.5186 21ZM28.2466 23.96V22.472H29.6066V23.96H28.2466ZM30.5346 23.96V22.472H31.8946V23.96H30.5346ZM35.7316 21V19.768H37.4916V21H35.7316ZM37.4916 21V19.768C37.5556 19.768 37.609 19.784 37.6516 19.816C37.6943 19.8373 37.7263 19.8747 37.7476 19.928C37.769 19.9813 37.785 20.0453 37.7956 20.12C37.8063 20.1947 37.8116 20.28 37.8116 20.376C37.8116 20.472 37.8063 20.5627 37.7956 20.648C37.785 20.7227 37.769 20.7867 37.7476 20.84C37.7263 20.8933 37.6943 20.936 37.6516 20.968C37.609 20.9893 37.5556 21 37.4916 21ZM32.5156 21C32.4516 21 32.3983 20.9893 32.3556 20.968C32.313 20.936 32.281 20.8933 32.2596 20.84C32.2383 20.7867 32.2223 20.7227 32.2116 20.648C32.201 20.5627 32.1956 20.472 32.1956 20.376C32.1956 20.248 32.2063 20.1413 32.2276 20.056C32.2383 19.9707 32.2703 19.9013 32.3236 19.848C32.3663 19.7947 32.4303 19.768 32.5156 19.768V21ZM32.5156 21V19.768H35.0276L34.3556 20.312V13H35.7316V21H32.5156ZM33.1556 23.96V22.472H34.5156V23.96H33.1556ZM35.4436 23.96V22.472H36.8036V23.96H35.4436ZM37.4844 21V19.768H39.8044C40.4124 19.768 40.999 19.6667 41.5644 19.464C42.1297 19.2613 42.647 18.9893 43.1164 18.648C43.5964 18.3067 44.0124 17.9333 44.3644 17.528C44.7164 17.112 44.9884 16.6907 45.1804 16.264C45.3724 15.8267 45.4684 15.4213 45.4684 15.048V14.072L46.1884 15.176C45.5804 14.8667 44.9777 14.632 44.3804 14.472C43.7937 14.312 43.2177 14.232 42.6524 14.232C42.0977 14.232 41.5217 14.312 40.9244 14.472C40.327 14.632 39.7297 14.8667 39.1324 15.176L39.8524 14.072V15.048C39.8524 15.4213 39.9484 15.8267 40.1404 16.264C40.343 16.6907 40.615 17.112 40.9564 17.528C41.3084 17.9333 41.719 18.3067 42.1884 18.648C42.6577 18.9893 43.175 19.2613 43.7404 19.464C44.3057 19.6667 44.8977 19.768 45.5164 19.768H47.7244V21H45.5964C44.7644 21 43.9857 20.8667 43.2604 20.6C42.535 20.3333 41.879 19.9813 41.2924 19.544C40.7057 19.096 40.199 18.6107 39.7724 18.088C39.3564 17.5547 39.0364 17.0267 38.8124 16.504C38.5884 15.9707 38.4764 15.4853 38.4764 15.048V14.088C38.935 13.8427 39.4044 13.64 39.8844 13.48C40.3644 13.32 40.839 13.2027 41.3084 13.128C41.7777 13.0427 42.2257 13 42.6524 13C43.0897 13 43.543 13.0427 44.0124 13.128C44.4817 13.2027 44.951 13.32 45.4204 13.48C45.9004 13.64 46.3697 13.8427 46.8284 14.088V15.048C46.8284 15.4853 46.7164 15.9707 46.4924 16.504C46.2684 17.0267 45.943 17.5547 45.5164 18.088C45.1004 18.6107 44.599 19.096 44.0124 19.544C43.4257 19.9813 42.7697 20.3333 42.0444 20.6C41.319 20.8667 40.5404 21 39.7084 21H37.4844ZM37.4844 21C37.4204 21 37.367 20.9893 37.3244 20.968C37.2817 20.936 37.2497 20.8933 37.2284 20.84C37.207 20.7867 37.191 20.7227 37.1804 20.648C37.1697 20.5627 37.1644 20.472 37.1644 20.376C37.1644 20.248 37.175 20.1413 37.1964 20.056C37.207 19.9707 37.239 19.9013 37.2924 19.848C37.335 19.7947 37.399 19.768 37.4844 19.768V21ZM47.7244 21V19.768C47.7884 19.768 47.8417 19.784 47.8844 19.816C47.927 19.8373 47.959 19.8747 47.9804 19.928C48.0017 19.9813 48.0177 20.0453 48.0284 20.12C48.039 20.1947 48.0444 20.28 48.0444 20.376C48.0444 20.472 48.039 20.5627 48.0284 20.648C48.0177 20.7227 48.0017 20.7867 47.9804 20.84C47.959 20.8933 47.927 20.936 47.8844 20.968C47.8417 20.9893 47.7884 21 47.7244 21ZM47.7188 21V19.768H50.2308L49.5588 20.312V13H50.9348V21H47.7188ZM47.7188 21C47.6547 21 47.6014 20.9893 47.5587 20.968C47.5161 20.936 47.4841 20.8933 47.4627 20.84C47.4414 20.7867 47.4254 20.7227 47.4147 20.648C47.4041 20.5627 47.3987 20.472 47.3987 20.376C47.3987 20.248 47.4094 20.1413 47.4307 20.056C47.4414 19.9707 47.4734 19.9013 47.5267 19.848C47.5694 19.7947 47.6334 19.768 47.7188 19.768V21ZM48.4388 11.56V10.072H49.7988V11.56H48.4388ZM50.7268 11.56V10.072H52.0868V11.56H50.7268ZM58.6144 21V19.768H60.5504V21H58.6144ZM57.2544 21V9.544H58.6144V21H57.2544ZM60.5504 21V19.768C60.6144 19.768 60.6677 19.784 60.7104 19.816C60.753 19.8373 60.785 19.8747 60.8064 19.928C60.8277 19.9813 60.8437 20.0453 60.8544 20.12C60.865 20.1947 60.8704 20.28 60.8704 20.376C60.8704 20.472 60.865 20.5627 60.8544 20.648C60.8437 20.7227 60.8277 20.7867 60.8064 20.84C60.785 20.8933 60.753 20.936 60.7104 20.968C60.6677 20.9893 60.6144 21 60.5504 21ZM61.4606 11.664V11.056H64.6606V11.664H61.4606ZM61.4606 10.224V9.616H64.6606V10.224H61.4606ZM63.7629 21V19.768H65.5229V21H63.7629ZM65.5229 21V19.768C65.5869 19.768 65.6402 19.784 65.6829 19.816C65.7255 19.8373 65.7575 19.8747 65.7789 19.928C65.8002 19.9813 65.8162 20.0453 65.8269 20.12C65.8375 20.1947 65.8429 20.28 65.8429 20.376C65.8429 20.472 65.8375 20.5627 65.8269 20.648C65.8162 20.7227 65.8002 20.7867 65.7789 20.84C65.7575 20.8933 65.7255 20.936 65.6829 20.968C65.6402 20.9893 65.5869 21 65.5229 21ZM60.5469 21C60.4829 21 60.4295 20.9893 60.3869 20.968C60.3442 20.936 60.3122 20.8933 60.2909 20.84C60.2695 20.7867 60.2535 20.7227 60.2429 20.648C60.2322 20.5627 60.2269 20.472 60.2269 20.376C60.2269 20.248 60.2375 20.1413 60.2589 20.056C60.2695 19.9707 60.3015 19.9013 60.3549 19.848C60.3975 19.7947 60.4615 19.768 60.5469 19.768V21ZM60.5469 21V19.768H63.0589L62.3869 20.312V13H63.7629V21H60.5469ZM61.1869 23.96V22.472H62.5469V23.96H61.1869ZM63.4749 23.96V22.472H64.8349V23.96H63.4749ZM65.5156 21V19.768H67.8996L67.2436 20.312V13H68.6036V21H65.5156ZM65.5156 21C65.4516 21 65.3983 20.9893 65.3556 20.968C65.313 20.936 65.281 20.8933 65.2596 20.84C65.2383 20.7867 65.2223 20.7227 65.2116 20.648C65.201 20.5627 65.1956 20.472 65.1956 20.376C65.1956 20.248 65.2063 20.1413 65.2276 20.056C65.2383 19.9707 65.2703 19.9013 65.3236 19.848C65.3663 19.7947 65.4303 19.768 65.5156 19.768V21ZM67.1316 11.528C66.961 11.3147 66.8276 11.1067 66.7316 10.904C66.6356 10.6907 66.5876 10.472 66.5876 10.248C66.5876 9.928 66.6676 9.64533 66.8276 9.4C66.9876 9.144 67.201 8.94667 67.4676 8.808C67.7343 8.65867 68.0223 8.584 68.3316 8.584C68.5023 8.584 68.673 8.61067 68.8436 8.664C69.025 8.70667 69.1796 8.77067 69.3076 8.856L68.8756 9.624C68.7903 9.57067 68.705 9.53867 68.6196 9.528C68.545 9.50667 68.465 9.496 68.3796 9.496C68.1343 9.496 67.937 9.56533 67.7876 9.704C67.649 9.84267 67.5796 10.024 67.5796 10.248C67.5796 10.376 67.6063 10.504 67.6596 10.632C67.7236 10.76 67.8143 10.8987 67.9316 11.048L67.1316 11.528ZM66.2836 11.544V10.648H69.5316V11.544H66.2836ZM72.7706 21V19.768H74.7066V21H72.7706ZM71.4106 21V9.544H72.7706V21H71.4106ZM74.7066 21V19.768C74.7706 19.768 74.824 19.784 74.8666 19.816C74.9093 19.8373 74.9413 19.8747 74.9626 19.928C74.984 19.9813 75 20.0453 75.0106 20.12C75.0213 20.1947 75.0266 20.28 75.0266 20.376C75.0266 20.472 75.0213 20.5627 75.0106 20.648C75 20.7227 74.984 20.7867 74.9626 20.84C74.9413 20.8933 74.9093 20.936 74.8666 20.968C74.824 20.9893 74.7706 21 74.7066 21ZM83.2631 21V19.768H84.9911V21H83.2631ZM74.7031 21C74.6391 21 74.5858 20.9893 74.5431 20.968C74.5005 20.936 74.4685 20.8933 74.4471 20.84C74.4258 20.7867 74.4098 20.7227 74.3991 20.648C74.3885 20.5627 74.3831 20.472 74.3831 20.376C74.3831 20.248 74.3938 20.1413 74.4151 20.056C74.4258 19.9707 74.4578 19.9013 74.5111 19.848C74.5538 19.7947 74.6178 19.768 74.7031 19.768V21ZM74.7031 21V19.768H82.7031L81.8871 20.456V13.704L82.5271 14.232H79.9031C79.3058 14.232 78.8418 14.3067 78.5111 14.456C78.1911 14.5947 77.9671 14.8667 77.8391 15.272C77.7218 15.6667 77.6631 16.2427 77.6631 17C77.6631 17.768 77.7218 18.3493 77.8391 18.744C77.9671 19.1387 78.1911 19.4107 78.5111 19.56C78.8418 19.6987 79.3058 19.768 79.9031 19.768V20.696C78.9858 20.696 78.2605 20.5787 77.7271 20.344C77.2045 20.1093 76.8311 19.7253 76.6071 19.192C76.3938 18.648 76.2871 17.9173 76.2871 17C76.2871 16.0827 76.3938 15.3307 76.6071 14.744C76.8311 14.1467 77.2045 13.7093 77.7271 13.432C78.2605 13.144 78.9858 13 79.9031 13H83.2631V21H74.7031ZM84.9911 21V19.768C85.0551 19.768 85.1085 19.784 85.1511 19.816C85.1938 19.8373 85.2258 19.8747 85.2471 19.928C85.2685 19.9813 85.2845 20.0453 85.2951 20.12C85.3058 20.1947 85.3111 20.28 85.3111 20.376C85.3111 20.472 85.3058 20.5627 85.2951 20.648C85.2845 20.7227 85.2685 20.7867 85.2471 20.84C85.2258 20.8933 85.1938 20.936 85.1511 20.968C85.1085 20.9893 85.0551 21 84.9911 21ZM78.3351 11.56V10.072H79.6951V11.56H78.3351ZM80.6231 11.56V10.072H81.9831V11.56H80.6231ZM88.2804 21V19.768H89.9924V21H88.2804ZM84.9844 21C84.9204 21 84.867 20.9893 84.8244 20.968C84.7817 20.936 84.7497 20.8933 84.7284 20.84C84.707 20.7867 84.691 20.7227 84.6804 20.648C84.6697 20.5627 84.6644 20.472 84.6644 20.376C84.6644 20.248 84.675 20.1413 84.6964 20.056C84.707 19.9707 84.739 19.9013 84.7924 19.848C84.835 19.7947 84.899 19.768 84.9844 19.768V21ZM86.9044 21V9.544H88.2804V21H86.9044ZM84.9844 21V19.768H86.9044V21H84.9844ZM89.9924 21V19.768C90.0564 19.768 90.1097 19.784 90.1524 19.816C90.195 19.8373 90.227 19.8747 90.2484 19.928C90.2697 19.9813 90.2857 20.0453 90.2964 20.12C90.307 20.1947 90.3124 20.28 90.3124 20.376C90.3124 20.472 90.307 20.5627 90.2964 20.648C90.2857 20.7227 90.2697 20.7867 90.2484 20.84C90.227 20.8933 90.195 20.936 90.1524 20.968C90.1097 20.9893 90.0564 21 89.9924 21ZM90 21V19.768H92.512L91.84 20.312V13H93.216V21H90ZM90 21C89.936 21 89.8827 20.9893 89.84 20.968C89.7973 20.936 89.7653 20.8933 89.744 20.84C89.7227 20.7867 89.7067 20.7227 89.696 20.648C89.6853 20.5627 89.68 20.472 89.68 20.376C89.68 20.248 89.6907 20.1413 89.712 20.056C89.7227 19.9707 89.7547 19.9013 89.808 19.848C89.8507 19.7947 89.9147 19.768 90 19.768V21ZM90.72 11.56V10.072H92.08V11.56H90.72ZM93.008 11.56V10.072H94.368V11.56H93.008ZM106.928 21V19.768H108.656V21H106.928ZM99.0556 26.312C98.949 25.704 98.853 25.128 98.7676 24.584C98.693 24.04 98.6556 23.576 98.6556 23.192C98.6556 22.4773 98.7783 21.864 99.0236 21.352C99.2796 20.84 99.6423 20.4507 100.112 20.184C100.592 19.9067 101.157 19.768 101.808 19.768C101.978 19.768 102.234 19.768 102.576 19.768C102.917 19.768 103.306 19.768 103.744 19.768C104.181 19.768 104.634 19.768 105.104 19.768C105.584 19.768 106.048 19.768 106.496 19.768L105.552 20.6V17.08C105.552 16.3547 105.472 15.7893 105.312 15.384C105.152 14.968 104.869 14.6747 104.464 14.504C104.069 14.3227 103.53 14.232 102.848 14.232C102.4 14.232 101.957 14.264 101.52 14.328C101.082 14.392 100.741 14.4773 100.496 14.584L101.328 13.752C101.264 14.008 101.2 14.328 101.136 14.712C101.072 15.096 101.018 15.512 100.976 15.96C100.944 16.3973 100.928 16.8347 100.928 17.272C100.928 17.72 100.944 18.1627 100.976 18.6C101.018 19.0373 101.066 19.416 101.12 19.736C101.173 20.0453 101.216 20.264 101.248 20.392L99.9356 20.76C99.893 20.6213 99.8396 20.3813 99.7756 20.04C99.7223 19.6987 99.669 19.288 99.6156 18.808C99.573 18.328 99.5516 17.8213 99.5516 17.288C99.5516 16.7653 99.573 16.2587 99.6156 15.768C99.669 15.2667 99.7276 14.8133 99.7916 14.408C99.8663 14.0027 99.9356 13.6773 99.9996 13.432C100.245 13.336 100.624 13.24 101.136 13.144C101.658 13.048 102.229 13 102.848 13C103.402 13 103.898 13.048 104.336 13.144C104.784 13.24 105.168 13.3947 105.488 13.608C105.818 13.8107 106.09 14.072 106.304 14.392C106.517 14.7013 106.672 15.08 106.768 15.528C106.874 15.976 106.928 16.4933 106.928 17.08V21C106.48 21 105.994 21 105.472 21C104.96 21 104.458 21 103.968 21C103.477 21 103.034 21 102.64 21C102.256 21 101.978 21 101.808 21C101.637 21 101.45 21.0213 101.248 21.064C101.045 21.1173 100.848 21.2133 100.656 21.352C100.474 21.5013 100.325 21.72 100.208 22.008C100.09 22.3067 100.032 22.7013 100.032 23.192C100.032 23.5973 100.069 24.056 100.144 24.568C100.218 25.0907 100.304 25.672 100.4 26.312H99.0556ZM108.656 21V19.768C108.72 19.768 108.773 19.784 108.816 19.816C108.858 19.8373 108.89 19.8747 108.912 19.928C108.933 19.9813 108.949 20.0453 108.96 20.12C108.97 20.1947 108.976 20.28 108.976 20.376C108.976 20.472 108.97 20.5627 108.96 20.648C108.949 20.7227 108.933 20.7867 108.912 20.84C108.89 20.8933 108.858 20.936 108.816 20.968C108.773 20.9893 108.72 21 108.656 21ZM111.872 21V19.768H113.632V21H111.872ZM113.632 21V19.768C113.696 19.768 113.75 19.784 113.792 19.816C113.835 19.8373 113.867 19.8747 113.888 19.928C113.91 19.9813 113.926 20.0453 113.936 20.12C113.947 20.1947 113.952 20.28 113.952 20.376C113.952 20.472 113.947 20.5627 113.936 20.648C113.926 20.7227 113.91 20.7867 113.888 20.84C113.867 20.8933 113.835 20.936 113.792 20.968C113.75 20.9893 113.696 21 113.632 21ZM108.656 21C108.592 21 108.539 20.9893 108.496 20.968C108.454 20.936 108.422 20.8933 108.4 20.84C108.379 20.7867 108.363 20.7227 108.352 20.648C108.342 20.5627 108.336 20.472 108.336 20.376C108.336 20.248 108.347 20.1413 108.368 20.056C108.379 19.9707 108.411 19.9013 108.464 19.848C108.507 19.7947 108.571 19.768 108.656 19.768V21ZM108.656 21V19.768H111.168L110.496 20.312V13H111.872V21H108.656ZM109.376 11.56V10.072H110.736V11.56H109.376ZM111.664 11.56V10.072H113.024V11.56H111.664ZM116.841 21V19.768H118.601V21H116.841ZM118.601 21V19.768C118.665 19.768 118.718 19.784 118.761 19.816C118.804 19.8373 118.836 19.8747 118.857 19.928C118.878 19.9813 118.894 20.0453 118.905 20.12C118.916 20.1947 118.921 20.28 118.921 20.376C118.921 20.472 118.916 20.5627 118.905 20.648C118.894 20.7227 118.878 20.7867 118.857 20.84C118.836 20.8933 118.804 20.936 118.761 20.968C118.718 20.9893 118.665 21 118.601 21ZM113.625 21C113.561 21 113.508 20.9893 113.465 20.968C113.422 20.936 113.39 20.8933 113.369 20.84C113.348 20.7867 113.332 20.7227 113.321 20.648C113.31 20.5627 113.305 20.472 113.305 20.376C113.305 20.248 113.316 20.1413 113.337 20.056C113.348 19.9707 113.38 19.9013 113.433 19.848C113.476 19.7947 113.54 19.768 113.625 19.768V21ZM113.625 21V19.768H116.137L115.465 20.312V13H116.841V21H113.625ZM114.265 23.96V22.472H115.625V23.96H114.265ZM116.553 23.96V22.472H117.913V23.96H116.553ZM127.154 21C126.78 21 126.412 20.9307 126.05 20.792C125.687 20.6427 125.346 20.4187 125.026 20.12L125.906 19.192C126.151 19.3947 126.37 19.544 126.562 19.64C126.754 19.7253 126.951 19.768 127.154 19.768H130.018L129.442 20.344V16.552C129.442 16.3707 129.42 16.104 129.378 15.752C129.346 15.4 129.292 15.0053 129.218 14.568C129.154 14.12 129.074 13.672 128.978 13.224L130.322 13C130.396 13.3733 130.471 13.7893 130.546 14.248C130.62 14.7067 130.684 15.144 130.738 15.56C130.791 15.976 130.818 16.3067 130.818 16.552V21H127.154ZM118.594 21V19.768H120.93L120.594 20.104V14.6H121.938V21H118.594ZM121.938 21V19.768H123.682C124.044 19.768 124.316 19.7147 124.498 19.608C124.69 19.5013 124.823 19.288 124.898 18.968C124.972 18.648 125.01 18.1787 125.01 17.56V13.8H126.37V17.56C126.37 18.4027 126.279 19.08 126.098 19.592C125.916 20.0933 125.628 20.456 125.234 20.68C124.839 20.8933 124.322 21 123.682 21H121.938ZM118.594 21C118.53 21 118.476 20.9893 118.434 20.968C118.391 20.936 118.359 20.8933 118.338 20.84C118.316 20.7867 118.3 20.7227 118.29 20.648C118.279 20.5627 118.274 20.472 118.274 20.376C118.274 20.248 118.284 20.1413 118.306 20.056C118.316 19.9707 118.348 19.9013 118.402 19.848C118.444 19.7947 118.508 19.768 118.594 19.768V21ZM135.76 24.6C135.376 24.6 134.971 24.568 134.544 24.504C134.128 24.4507 133.669 24.3707 133.168 24.264L133.376 23.16C133.941 23.2347 134.411 23.288 134.784 23.32C135.168 23.352 135.493 23.368 135.76 23.368C136.624 23.368 137.253 23.2027 137.648 22.872C138.043 22.5413 138.24 22.0613 138.24 21.432V13.816L138.864 14.232H136.256C135.669 14.232 135.211 14.3067 134.88 14.456C134.56 14.5947 134.336 14.8613 134.208 15.256C134.08 15.6507 134.016 16.232 134.016 17C134.016 17.768 134.075 18.3493 134.192 18.744C134.32 19.1387 134.549 19.4107 134.88 19.56C135.211 19.6987 135.669 19.768 136.256 19.768H138.24V21H136.256C135.339 21 134.613 20.8613 134.08 20.584C133.557 20.296 133.184 19.8587 132.96 19.272C132.747 18.6747 132.64 17.9173 132.64 17C132.64 16.0933 132.747 15.3413 132.96 14.744C133.184 14.1467 133.557 13.7093 134.08 13.432C134.613 13.144 135.339 13 136.256 13H139.616V21.416C139.616 22.088 139.461 22.664 139.152 23.144C138.843 23.624 138.4 23.9867 137.824 24.232C137.248 24.4773 136.56 24.6 135.76 24.6ZM147.289 17.24L146.585 21H145.065L146.169 17.24H147.289ZM155.694 21C154.776 21 154.051 20.8613 153.518 20.584C152.995 20.296 152.622 19.8587 152.398 19.272C152.184 18.6747 152.078 17.9173 152.078 17C152.078 16.0933 152.184 15.3413 152.398 14.744C152.622 14.1467 152.995 13.7093 153.518 13.432C154.051 13.144 154.776 13 155.694 13H159.054V20.312H157.678V13.704L158.302 14.232H155.694C155.107 14.232 154.648 14.3067 154.318 14.456C153.998 14.5947 153.774 14.8613 153.646 15.256C153.518 15.6507 153.454 16.232 153.454 17C153.454 17.768 153.512 18.3493 153.63 18.744C153.758 19.1387 153.987 19.4107 154.318 19.56C154.648 19.6987 155.107 19.768 155.694 19.768H160.782V21H155.694ZM160.782 21V19.768C160.846 19.768 160.899 19.784 160.942 19.816C160.984 19.8373 161.016 19.8747 161.038 19.928C161.059 19.9813 161.075 20.0453 161.086 20.12C161.096 20.1947 161.102 20.28 161.102 20.376C161.102 20.472 161.096 20.5627 161.086 20.648C161.075 20.7227 161.059 20.7867 161.038 20.84C161.016 20.8933 160.984 20.936 160.942 20.968C160.899 20.9893 160.846 21 160.782 21ZM154.046 11.56V10.072H155.406V11.56H154.046ZM156.334 11.56V10.072H157.694V11.56H156.334ZM163.997 21V19.768H165.757V21H163.997ZM165.757 21V19.768C165.821 19.768 165.875 19.784 165.917 19.816C165.96 19.8373 165.992 19.8747 166.013 19.928C166.035 19.9813 166.051 20.0453 166.061 20.12C166.072 20.1947 166.077 20.28 166.077 20.376C166.077 20.472 166.072 20.5627 166.061 20.648C166.051 20.7227 166.035 20.7867 166.013 20.84C165.992 20.8933 165.96 20.936 165.917 20.968C165.875 20.9893 165.821 21 165.757 21ZM160.781 21C160.717 21 160.664 20.9893 160.621 20.968C160.579 20.936 160.547 20.8933 160.525 20.84C160.504 20.7867 160.488 20.7227 160.477 20.648C160.467 20.5627 160.461 20.472 160.461 20.376C160.461 20.248 160.472 20.1413 160.493 20.056C160.504 19.9707 160.536 19.9013 160.589 19.848C160.632 19.7947 160.696 19.768 160.781 19.768V21ZM160.781 21V19.768H163.293L162.621 20.312V13H163.997V21H160.781ZM161.421 23.96V22.472H162.781V23.96H161.421ZM163.709 23.96V22.472H165.069V23.96H163.709ZM177.734 21V19.768H179.462V21H177.734ZM165.75 21C165.686 21 165.633 20.9893 165.59 20.968C165.547 20.936 165.515 20.8933 165.494 20.84C165.473 20.7867 165.457 20.7227 165.446 20.648C165.435 20.5627 165.43 20.472 165.43 20.376C165.43 20.248 165.441 20.1413 165.462 20.056C165.473 19.9707 165.505 19.9013 165.558 19.848C165.601 19.7947 165.665 19.768 165.75 19.768V21ZM165.75 21V19.768H177.606L176.374 20.872V17.176C176.374 16.5147 176.278 15.9707 176.086 15.544C175.905 15.1067 175.633 14.7813 175.27 14.568C174.918 14.344 174.475 14.232 173.942 14.232C173.473 14.232 173.035 14.312 172.63 14.472C172.235 14.632 171.862 14.84 171.51 15.096C171.169 15.352 170.849 15.6347 170.55 15.944C170.262 16.2427 169.995 16.5467 169.75 16.856C169.505 17.1653 169.286 17.448 169.094 17.704L168.678 16.504C168.966 16.152 169.249 15.8053 169.526 15.464C169.814 15.1227 170.107 14.8027 170.406 14.504C170.705 14.2053 171.03 13.944 171.382 13.72C171.734 13.496 172.123 13.32 172.55 13.192C172.977 13.064 173.457 13 173.99 13C174.737 13 175.35 13.128 175.83 13.384C176.321 13.6293 176.705 13.9653 176.982 14.392C177.259 14.808 177.451 15.2613 177.558 15.752C177.675 16.232 177.734 16.7067 177.734 17.176V21H165.75ZM167.99 19.768V13H169.366V19.768H167.99ZM179.462 21V19.768C179.526 19.768 179.579 19.784 179.622 19.816C179.665 19.8373 179.697 19.8747 179.718 19.928C179.739 19.9813 179.755 20.0453 179.766 20.12C179.777 20.1947 179.782 20.28 179.782 20.376C179.782 20.472 179.777 20.5627 179.766 20.648C179.755 20.7227 179.739 20.7867 179.718 20.84C179.697 20.8933 179.665 20.936 179.622 20.968C179.579 20.9893 179.526 21 179.462 21ZM187.437 21V19.768H189.165V21H187.437ZM179.469 21C179.405 21 179.351 20.9893 179.309 20.968C179.266 20.936 179.234 20.8933 179.213 20.84C179.191 20.7867 179.175 20.7227 179.165 20.648C179.154 20.5627 179.149 20.472 179.149 20.376C179.149 20.248 179.159 20.1413 179.181 20.056C179.191 19.9707 179.223 19.9013 179.277 19.848C179.319 19.7947 179.383 19.768 179.469 19.768V21ZM179.469 21V19.768H186.493L186.077 20.136V16.312C186.077 15.6187 185.858 15.1013 185.421 14.76C184.994 14.4187 184.343 14.248 183.469 14.248C183.191 14.248 182.797 14.2747 182.285 14.328C181.783 14.3707 181.25 14.4293 180.685 14.504L180.525 13.4C180.962 13.2933 181.437 13.2027 181.949 13.128C182.471 13.0427 182.978 13 183.469 13C184.279 13 184.983 13.128 185.581 13.384C186.178 13.64 186.637 14.0133 186.957 14.504C187.277 14.9947 187.437 15.5973 187.437 16.312V21H179.469ZM189.165 21V19.768C189.229 19.768 189.282 19.784 189.325 19.816C189.367 19.8373 189.399 19.8747 189.421 19.928C189.442 19.9813 189.458 20.0453 189.469 20.12C189.479 20.1947 189.485 20.28 189.485 20.376C189.485 20.472 189.479 20.5627 189.469 20.648C189.458 20.7227 189.442 20.7867 189.421 20.84C189.399 20.8933 189.367 20.936 189.325 20.968C189.282 20.9893 189.229 21 189.165 21ZM182.781 11.88V10.392H184.157V11.88H182.781ZM197.732 21C197.359 21 196.991 20.9307 196.628 20.792C196.265 20.6427 195.924 20.4187 195.604 20.12L196.484 19.192C196.729 19.3947 196.948 19.544 197.14 19.64C197.332 19.7253 197.529 19.768 197.732 19.768H200.596L200.02 20.344V16.552C200.02 16.3707 199.999 16.104 199.956 15.752C199.924 15.4 199.871 15.0053 199.796 14.568C199.732 14.12 199.652 13.672 199.556 13.224L200.9 13C200.975 13.3733 201.049 13.7893 201.124 14.248C201.199 14.7067 201.263 15.144 201.316 15.56C201.369 15.976 201.396 16.3067 201.396 16.552V21H197.732ZM189.172 21V19.768H191.508L191.172 20.104V14.6H192.516V21H189.172ZM192.516 21V19.768H194.26C194.623 19.768 194.895 19.7147 195.076 19.608C195.268 19.5013 195.401 19.288 195.476 18.968C195.551 18.648 195.588 18.1787 195.588 17.56V13.8H196.948V17.56C196.948 18.4027 196.857 19.08 196.676 19.592C196.495 20.0933 196.207 20.456 195.812 20.68C195.417 20.8933 194.9 21 194.26 21H192.516ZM189.172 21C189.108 21 189.055 20.9893 189.012 20.968C188.969 20.936 188.937 20.8933 188.916 20.84C188.895 20.7867 188.879 20.7227 188.868 20.648C188.857 20.5627 188.852 20.472 188.852 20.376C188.852 20.248 188.863 20.1413 188.884 20.056C188.895 19.9707 188.927 19.9013 188.98 19.848C189.023 19.7947 189.087 19.768 189.172 19.768V21ZM195.636 9.4V8.008H196.884V9.4H195.636ZM194.436 11.56V10.072H195.796V11.56H194.436ZM196.724 11.56V10.072H198.084V11.56H196.724ZM206.734 21V17.192C206.734 16.1573 206.883 15.336 207.182 14.728C207.491 14.1093 207.95 13.6667 208.558 13.4C209.166 13.1333 209.918 13 210.814 13C211.72 13 212.472 13.1333 213.07 13.4C213.678 13.6667 214.131 14.1093 214.43 14.728C214.739 15.336 214.894 16.1573 214.894 17.192V21H206.734ZM208.11 20.36L207.406 19.768H214.222L213.534 20.36V17.192C213.534 16.4453 213.448 15.8533 213.278 15.416C213.118 14.9787 212.84 14.6747 212.446 14.504C212.051 14.3227 211.507 14.232 210.814 14.232C210.12 14.232 209.576 14.3227 209.182 14.504C208.787 14.6747 208.51 14.9787 208.35 15.416C208.19 15.8533 208.11 16.4453 208.11 17.192V20.36ZM209.006 11.56V10.072H210.366V11.56H209.006ZM211.294 11.56V10.072H212.654V11.56H211.294ZM215.739 24.6C215.601 24.6 215.457 24.5893 215.307 24.568C215.147 24.5573 214.993 24.5467 214.843 24.536L214.971 23.304C215.121 23.3147 215.265 23.3253 215.403 23.336C215.531 23.3573 215.643 23.368 215.739 23.368C216.23 23.368 216.625 23.1813 216.923 22.808C217.222 22.4347 217.371 21.9173 217.371 21.256V13H218.747V21.256C218.747 21.9173 218.619 22.4987 218.363 23C218.107 23.512 217.75 23.9067 217.291 24.184C216.843 24.4613 216.326 24.6 215.739 24.6ZM227.491 21V19.768H229.219V21H227.491ZM223.635 24.6C223.251 24.6 222.846 24.568 222.419 24.504C222.003 24.4507 221.544 24.3707 221.043 24.264L221.251 23.16C221.816 23.2347 222.286 23.288 222.659 23.32C223.043 23.352 223.368 23.368 223.635 23.368C224.499 23.368 225.128 23.2027 225.523 22.872C225.918 22.5413 226.115 22.0613 226.115 21.432V13.816L226.739 14.232H224.131C223.544 14.232 223.086 14.3067 222.755 14.456C222.435 14.5947 222.211 14.8613 222.083 15.256C221.955 15.6507 221.891 16.232 221.891 17C221.891 17.768 221.95 18.3493 222.067 18.744C222.195 19.1387 222.424 19.4107 222.755 19.56C223.086 19.6987 223.544 19.768 224.131 19.768H226.115V21H224.131C223.214 21 222.488 20.8613 221.955 20.584C221.432 20.296 221.059 19.8587 220.835 19.272C220.622 18.6747 220.515 17.9173 220.515 17C220.515 16.0933 220.622 15.3413 220.835 14.744C221.059 14.1467 221.432 13.7093 221.955 13.432C222.488 13.144 223.214 13 224.131 13H227.491V21.416C227.491 22.088 227.336 22.664 227.027 23.144C226.718 23.624 226.275 23.9867 225.699 24.232C225.123 24.4773 224.435 24.6 223.635 24.6ZM229.219 21V19.768C229.283 19.768 229.336 19.784 229.379 19.816C229.422 19.8373 229.454 19.8747 229.475 19.928C229.496 19.9813 229.512 20.0453 229.523 20.12C229.534 20.1947 229.539 20.28 229.539 20.376C229.539 20.472 229.534 20.5627 229.523 20.648C229.512 20.7227 229.496 20.7867 229.475 20.84C229.454 20.8933 229.422 20.936 229.379 20.968C229.336 20.9893 229.283 21 229.219 21ZM229.219 21V19.768H241.075L239.843 20.872V17.176C239.843 16.5147 239.747 15.9707 239.555 15.544C239.373 15.1067 239.101 14.7813 238.739 14.568C238.387 14.344 237.944 14.232 237.411 14.232C236.941 14.232 236.504 14.312 236.099 14.472C235.704 14.632 235.331 14.84 234.979 15.096C234.637 15.352 234.317 15.6347 234.019 15.944C233.731 16.2427 233.464 16.5467 233.219 16.856C232.973 17.1653 232.755 17.448 232.563 17.704L232.147 16.504C232.435 16.152 232.717 15.8053 232.995 15.464C233.283 15.1227 233.576 14.8027 233.875 14.504C234.173 14.2053 234.499 13.944 234.851 13.72C235.203 13.496 235.592 13.32 236.019 13.192C236.445 13.064 236.925 13 237.459 13C238.205 13 238.819 13.128 239.299 13.384C239.789 13.6293 240.173 13.9653 240.451 14.392C240.728 14.808 240.92 15.2613 241.027 15.752C241.144 16.232 241.203 16.7067 241.203 17.176V21H229.219ZM231.459 19.768V13H232.835V19.768H231.459ZM229.219 21C229.155 21 229.101 20.9893 229.059 20.968C229.016 20.936 228.984 20.8933 228.963 20.84C228.941 20.7867 228.925 20.7227 228.915 20.648C228.904 20.5627 228.899 20.472 228.899 20.376C228.899 20.248 228.909 20.1413 228.931 20.056C228.941 19.9707 228.973 19.9013 229.027 19.848C229.069 19.7947 229.133 19.768 229.219 19.768V21ZM250.178 21C249.261 21 248.535 20.8613 248.002 20.584C247.479 20.296 247.106 19.8587 246.882 19.272C246.669 18.6747 246.562 17.9173 246.562 17C246.562 16.0933 246.669 15.3413 246.882 14.744C247.106 14.1467 247.479 13.7093 248.002 13.432C248.535 13.144 249.261 13 250.178 13H253.538V20.312H252.162V13.704L252.786 14.232H250.178C249.591 14.232 249.133 14.3067 248.802 14.456C248.482 14.5947 248.258 14.8613 248.13 15.256C248.002 15.6507 247.938 16.232 247.938 17C247.938 17.768 247.997 18.3493 248.114 18.744C248.242 19.1387 248.471 19.4107 248.802 19.56C249.133 19.6987 249.591 19.768 250.178 19.768H255.266V21H250.178ZM255.266 21V19.768C255.33 19.768 255.383 19.784 255.426 19.816C255.469 19.8373 255.501 19.8747 255.522 19.928C255.543 19.9813 255.559 20.0453 255.57 20.12C255.581 20.1947 255.586 20.28 255.586 20.376C255.586 20.472 255.581 20.5627 255.57 20.648C255.559 20.7227 255.543 20.7867 255.522 20.84C255.501 20.8933 255.469 20.936 255.426 20.968C255.383 20.9893 255.33 21 255.266 21ZM248.53 11.56V10.072H249.89V11.56H248.53ZM250.818 11.56V10.072H252.178V11.56H250.818ZM255.266 21V19.768H263.266L262.45 20.456V13.704L263.09 14.232H260.466C259.868 14.232 259.404 14.3067 259.074 14.456C258.754 14.5947 258.53 14.8667 258.402 15.272C258.284 15.6667 258.226 16.2427 258.226 17C258.226 17.768 258.284 18.3493 258.402 18.744C258.53 19.1387 258.754 19.4107 259.074 19.56C259.404 19.6987 259.868 19.768 260.466 19.768V20.696C259.548 20.696 258.823 20.5787 258.29 20.344C257.767 20.1093 257.394 19.7253 257.17 19.192C256.956 18.648 256.85 17.9173 256.85 17C256.85 16.0827 256.956 15.3307 257.17 14.744C257.394 14.1467 257.767 13.7093 258.29 13.432C258.823 13.144 259.548 13 260.466 13H263.826V21H255.266ZM255.266 21C255.202 21 255.148 20.9893 255.106 20.968C255.063 20.936 255.031 20.8933 255.01 20.84C254.988 20.7867 254.972 20.7227 254.962 20.648C254.951 20.5627 254.946 20.472 254.946 20.376C254.946 20.248 254.956 20.1413 254.978 20.056C254.988 19.9707 255.02 19.9013 255.074 19.848C255.116 19.7947 255.18 19.768 255.266 19.768V21ZM260.018 11.56V10.072H261.394V11.56H260.018ZM267.911 21V19.768H269.847V21H267.911ZM266.551 21V9.544H267.911V21H266.551ZM269.847 21V19.768C269.911 19.768 269.965 19.784 270.007 19.816C270.05 19.8373 270.082 19.8747 270.103 19.928C270.125 19.9813 270.141 20.0453 270.151 20.12C270.162 20.1947 270.167 20.28 270.167 20.376C270.167 20.472 270.162 20.5627 270.151 20.648C270.141 20.7227 270.125 20.7867 270.103 20.84C270.082 20.8933 270.05 20.936 270.007 20.968C269.965 20.9893 269.911 21 269.847 21ZM269.844 21V19.768H281.7L280.468 20.872V17.176C280.468 16.5147 280.372 15.9707 280.18 15.544C279.998 15.1067 279.726 14.7813 279.364 14.568C279.012 14.344 278.569 14.232 278.036 14.232C277.566 14.232 277.129 14.312 276.724 14.472C276.329 14.632 275.956 14.84 275.604 15.096C275.262 15.352 274.942 15.6347 274.644 15.944C274.356 16.2427 274.089 16.5467 273.844 16.856C273.598 17.1653 273.38 17.448 273.188 17.704L272.772 16.504C273.06 16.152 273.342 15.8053 273.62 15.464C273.908 15.1227 274.201 14.8027 274.5 14.504C274.798 14.2053 275.124 13.944 275.476 13.72C275.828 13.496 276.217 13.32 276.644 13.192C277.07 13.064 277.55 13 278.084 13C278.83 13 279.444 13.128 279.924 13.384C280.414 13.6293 280.798 13.9653 281.076 14.392C281.353 14.808 281.545 15.2613 281.652 15.752C281.769 16.232 281.828 16.7067 281.828 17.176V21H269.844ZM272.084 19.768V13H273.46V19.768H272.084ZM269.844 21C269.78 21 269.726 20.9893 269.684 20.968C269.641 20.936 269.609 20.8933 269.588 20.84C269.566 20.7867 269.55 20.7227 269.54 20.648C269.529 20.5627 269.524 20.472 269.524 20.376C269.524 20.248 269.534 20.1413 269.556 20.056C269.566 19.9707 269.598 19.9013 269.652 19.848C269.694 19.7947 269.758 19.768 269.844 19.768V21ZM276.436 11.576V10.088H277.812V11.576H276.436ZM284.551 21V9.544H285.911V21H284.551ZM284.455 25.368C284.285 25.1547 284.151 24.9413 284.055 24.728C283.959 24.5253 283.911 24.312 283.911 24.088C283.911 23.768 283.991 23.48 284.151 23.224C284.311 22.9787 284.525 22.7813 284.791 22.632C285.058 22.4933 285.346 22.424 285.655 22.424C285.826 22.424 285.997 22.4453 286.167 22.488C286.349 22.5413 286.503 22.6107 286.631 22.696L286.199 23.464C286.114 23.4107 286.029 23.3733 285.943 23.352C285.869 23.3413 285.789 23.336 285.703 23.336C285.458 23.336 285.261 23.4053 285.111 23.544C284.973 23.6827 284.903 23.864 284.903 24.088C284.903 24.216 284.93 24.344 284.983 24.472C285.047 24.6 285.138 24.7387 285.255 24.888L284.455 25.368ZM283.607 25.384V24.488H286.855V25.384H283.607ZM296.057 24.968C295.428 24.968 294.841 24.8773 294.297 24.696C293.764 24.5147 293.294 24.264 292.889 23.944C292.484 23.6347 292.164 23.256 291.929 22.808C291.705 22.3707 291.593 21.8853 291.593 21.352C291.593 21.1387 291.609 20.8613 291.641 20.52C291.684 20.168 291.732 19.7733 291.785 19.336C291.849 18.8987 291.918 18.4507 291.993 17.992L293.337 18.184C293.23 18.888 293.14 19.528 293.065 20.104C293.001 20.68 292.969 21.0907 292.969 21.336C292.969 21.8053 293.097 22.2213 293.353 22.584C293.62 22.9467 293.982 23.2293 294.441 23.432C294.91 23.6347 295.449 23.736 296.057 23.736H300.585C301.385 23.736 301.988 23.5173 302.393 23.08C302.809 22.6427 303.017 22.008 303.017 21.176V20.632H304.361V21.192C304.361 21.928 304.212 22.5787 303.913 23.144C303.625 23.72 303.198 24.168 302.633 24.488C302.078 24.808 301.396 24.968 300.585 24.968H296.057ZM302.105 21C301.732 21 301.353 20.9627 300.969 20.888C300.596 20.8027 300.222 20.6427 299.849 20.408L300.633 19.384C300.782 19.48 300.926 19.56 301.065 19.624C301.204 19.6773 301.353 19.7147 301.513 19.736C301.684 19.7573 301.881 19.768 302.105 19.768H305.209V21H302.105ZM305.209 21V19.768C305.273 19.768 305.326 19.784 305.369 19.816C305.412 19.8373 305.444 19.8747 305.465 19.928C305.486 19.9813 305.502 20.0453 305.513 20.12C305.524 20.1947 305.529 20.28 305.529 20.376C305.529 20.472 305.524 20.5627 305.513 20.648C305.502 20.7227 305.486 20.7867 305.465 20.84C305.444 20.8933 305.412 20.936 305.369 20.968C305.326 20.9893 305.273 21 305.209 21ZM296.169 27.928V26.44H297.529V27.928H296.169ZM298.457 27.928V26.44H299.817V27.928H298.457ZM315.587 21V19.768H317.299V21H315.587ZM305.203 21V19.768H315.891L314.643 20.872V17.176C314.643 16.5147 314.552 15.9707 314.371 15.544C314.19 15.1067 313.918 14.7813 313.555 14.568C313.203 14.344 312.755 14.232 312.211 14.232C311.742 14.232 311.304 14.312 310.899 14.472C310.504 14.632 310.136 14.84 309.795 15.096C309.454 15.352 309.134 15.6347 308.835 15.944C308.547 16.2427 308.28 16.5467 308.035 16.856C307.79 17.1653 307.566 17.448 307.363 17.704L306.947 16.504C307.288 16.0667 307.63 15.64 307.971 15.224C308.323 14.808 308.702 14.4347 309.107 14.104C309.512 13.7733 309.971 13.5067 310.483 13.304C310.995 13.1013 311.582 13 312.243 13C313 13 313.619 13.128 314.099 13.384C314.59 13.6293 314.974 13.9653 315.251 14.392C315.528 14.808 315.72 15.2613 315.827 15.752C315.944 16.232 316.003 16.7067 316.003 17.176V21H305.203ZM306.259 19.768V9.544H307.635V19.768H306.259ZM305.203 21C305.139 21 305.086 20.9893 305.043 20.968C305 20.936 304.968 20.8933 304.947 20.84C304.926 20.7867 304.91 20.7227 304.899 20.648C304.888 20.5627 304.883 20.472 304.883 20.376C304.883 20.248 304.894 20.1413 304.915 20.056C304.926 19.9707 304.958 19.9013 305.011 19.848C305.054 19.7947 305.118 19.768 305.203 19.768V21ZM317.299 21V19.768C317.363 19.768 317.416 19.784 317.459 19.816C317.502 19.8373 317.534 19.8747 317.555 19.928C317.576 19.9813 317.592 20.0453 317.603 20.12C317.614 20.1947 317.619 20.28 317.619 20.376C317.619 20.472 317.614 20.5627 317.603 20.648C317.592 20.7227 317.576 20.7867 317.555 20.84C317.534 20.8933 317.502 20.936 317.459 20.968C317.416 20.9893 317.363 21 317.299 21ZM325.265 21V19.768H326.993V21H325.265ZM317.297 21C317.233 21 317.18 20.9893 317.137 20.968C317.094 20.936 317.062 20.8933 317.041 20.84C317.02 20.7867 317.004 20.7227 316.993 20.648C316.982 20.5627 316.977 20.472 316.977 20.376C316.977 20.248 316.988 20.1413 317.009 20.056C317.02 19.9707 317.052 19.9013 317.105 19.848C317.148 19.7947 317.212 19.768 317.297 19.768V21ZM317.297 21V19.768H324.321L323.905 20.136V16.312C323.905 15.6187 323.686 15.1013 323.249 14.76C322.822 14.4187 322.172 14.248 321.297 14.248C321.02 14.248 320.625 14.2747 320.113 14.328C319.612 14.3707 319.078 14.4293 318.513 14.504L318.353 13.4C318.79 13.2933 319.265 13.2027 319.777 13.128C320.3 13.0427 320.806 13 321.297 13C322.108 13 322.812 13.128 323.409 13.384C324.006 13.64 324.465 14.0133 324.785 14.504C325.105 14.9947 325.265 15.5973 325.265 16.312V21H317.297ZM326.993 21V19.768C327.057 19.768 327.11 19.784 327.153 19.816C327.196 19.8373 327.228 19.8747 327.249 19.928C327.27 19.9813 327.286 20.0453 327.297 20.12C327.308 20.1947 327.313 20.28 327.313 20.376C327.313 20.472 327.308 20.5627 327.297 20.648C327.286 20.7227 327.27 20.7867 327.249 20.84C327.228 20.8933 327.196 20.936 327.153 20.968C327.11 20.9893 327.057 21 326.993 21ZM320.609 11.88V10.392H321.985V11.88H320.609ZM327 21V19.768H329.512L328.84 20.312V13H330.216V21H327ZM327 21C326.936 21 326.883 20.9893 326.84 20.968C326.797 20.936 326.765 20.8933 326.744 20.84C326.723 20.7867 326.707 20.7227 326.696 20.648C326.685 20.5627 326.68 20.472 326.68 20.376C326.68 20.248 326.691 20.1413 326.712 20.056C326.723 19.9707 326.755 19.9013 326.808 19.848C326.851 19.7947 326.915 19.768 327 19.768V21ZM327.72 11.56V10.072H329.08V11.56H327.72ZM330.008 11.56V10.072H331.368V11.56H330.008ZM346.504 21V19.768H348.232V21H346.504ZM340.472 21C339.405 21 338.514 20.8773 337.8 20.632C337.085 20.376 336.546 19.992 336.184 19.48C335.832 18.9573 335.656 18.3013 335.656 17.512C335.656 17.256 335.672 16.984 335.704 16.696C335.746 16.3973 335.794 16.1093 335.848 15.832C335.901 15.544 335.949 15.2987 335.992 15.096C336.034 14.8827 336.061 14.7387 336.072 14.664L337.4 14.92C337.368 15.08 337.32 15.3093 337.256 15.608C337.202 15.9067 337.149 16.2213 337.096 16.552C337.053 16.8827 337.032 17.2027 337.032 17.512C337.032 17.9067 337.09 18.248 337.208 18.536C337.336 18.824 337.533 19.0587 337.8 19.24C338.077 19.4213 338.434 19.5547 338.872 19.64C339.32 19.7253 339.858 19.768 340.488 19.768H345.8L345.144 20.312V9.544H346.504V21H340.472ZM348.232 21V19.768C348.296 19.768 348.349 19.784 348.392 19.816C348.434 19.8373 348.466 19.8747 348.488 19.928C348.509 19.9813 348.525 20.0453 348.536 20.12C348.546 20.1947 348.552 20.28 348.552 20.376C348.552 20.472 348.546 20.5627 348.536 20.648C348.525 20.7227 348.509 20.7867 348.488 20.84C348.466 20.8933 348.434 20.936 348.392 20.968C348.349 20.9893 348.296 21 348.232 21ZM340.312 15.4C340.141 15.1867 340.008 14.9787 339.912 14.776C339.816 14.5627 339.768 14.344 339.768 14.12C339.768 13.8 339.848 13.5173 340.008 13.272C340.168 13.016 340.381 12.8187 340.648 12.68C340.914 12.5307 341.202 12.456 341.512 12.456C341.682 12.456 341.853 12.4827 342.024 12.536C342.205 12.5787 342.36 12.6427 342.488 12.728L342.056 13.496C341.97 13.4427 341.885 13.4107 341.8 13.4C341.725 13.3787 341.645 13.368 341.56 13.368C341.314 13.368 341.117 13.4373 340.968 13.576C340.829 13.7147 340.76 13.896 340.76 14.12C340.76 14.248 340.786 14.376 340.84 14.504C340.904 14.632 340.994 14.7707 341.112 14.92L340.312 15.4ZM339.464 15.416V14.52H342.712V15.416H339.464ZM351.322 21V19.768H353.05V21H351.322ZM348.234 21C348.17 21 348.117 20.9893 348.074 20.968C348.032 20.936 348 20.8933 347.978 20.84C347.957 20.7867 347.941 20.7227 347.93 20.648C347.92 20.5627 347.914 20.472 347.914 20.376C347.914 20.248 347.925 20.1413 347.946 20.056C347.957 19.9707 347.989 19.9013 348.042 19.848C348.085 19.7947 348.149 19.768 348.234 19.768V21ZM348.234 21V19.768H350.618L349.962 20.312V13H351.322V21H348.234ZM353.05 21V19.768C353.114 19.768 353.168 19.784 353.21 19.816C353.253 19.8373 353.285 19.8747 353.306 19.928C353.328 19.9813 353.344 20.0453 353.354 20.12C353.365 20.1947 353.37 20.28 353.37 20.376C353.37 20.472 353.365 20.5627 353.354 20.648C353.344 20.7227 353.328 20.7867 353.306 20.84C353.285 20.8933 353.253 20.936 353.21 20.968C353.168 20.9893 353.114 21 353.05 21ZM349.962 11.56V10.072H351.338V11.56H349.962ZM361.943 21V19.768H363.655V21H361.943ZM353.047 21C352.983 21 352.93 20.9893 352.887 20.968C352.844 20.936 352.812 20.8933 352.791 20.84C352.77 20.7867 352.754 20.7227 352.743 20.648C352.732 20.5627 352.727 20.472 352.727 20.376C352.727 20.248 352.738 20.1413 352.759 20.056C352.77 19.9707 352.802 19.9013 352.855 19.848C352.898 19.7947 352.962 19.768 353.047 19.768V21ZM353.047 21V19.768H361.047L360.567 20.184V17.432C360.567 16.856 360.492 16.3867 360.343 16.024C360.194 15.6507 359.97 15.3733 359.671 15.192C359.383 15.0107 359.015 14.92 358.567 14.92H355.079L354.103 13.464L354.807 12.104C354.935 11.88 355.063 11.6507 355.191 11.416C355.33 11.1707 355.5 10.888 355.703 10.568C355.906 10.248 356.162 9.85867 356.471 9.4L357.607 10.088C357.308 10.5467 357.063 10.9307 356.871 11.24C356.679 11.5387 356.519 11.8 356.391 12.024C356.263 12.2373 356.14 12.456 356.023 12.68L355.239 14.168L354.919 13.672H358.567C359.239 13.672 359.794 13.7893 360.231 14.024C360.668 14.248 361.01 14.552 361.255 14.936C361.511 15.3093 361.687 15.7147 361.783 16.152C361.89 16.5893 361.943 17.016 361.943 17.432V21H353.047ZM363.655 21V19.768C363.719 19.768 363.772 19.784 363.815 19.816C363.858 19.8373 363.89 19.8747 363.911 19.928C363.932 19.9813 363.948 20.0453 363.959 20.12C363.97 20.1947 363.975 20.28 363.975 20.376C363.975 20.472 363.97 20.5627 363.959 20.648C363.948 20.7227 363.932 20.7867 363.911 20.84C363.89 20.8933 363.858 20.936 363.815 20.968C363.772 20.9893 363.719 21 363.655 21ZM372.776 21V19.768H374.504V21H372.776ZM363.656 21C363.592 21 363.539 20.9893 363.496 20.968C363.454 20.936 363.422 20.8933 363.4 20.84C363.379 20.7867 363.363 20.7227 363.352 20.648C363.342 20.5627 363.336 20.472 363.336 20.376C363.336 20.248 363.347 20.1413 363.368 20.056C363.379 19.9707 363.411 19.9013 363.464 19.848C363.507 19.7947 363.571 19.768 363.656 19.768V21ZM363.656 21V19.768H372.344L371.416 20.44V17.08C371.416 16.3547 371.331 15.784 371.16 15.368C371 14.952 370.718 14.6587 370.312 14.488C369.918 14.3173 369.379 14.232 368.696 14.232C368.248 14.232 367.806 14.264 367.368 14.328C366.931 14.3813 366.59 14.4613 366.344 14.568L367.176 13.736C367.112 13.992 367.048 14.3173 366.984 14.712C366.92 15.096 366.867 15.512 366.824 15.96C366.782 16.3973 366.76 16.8347 366.76 17.272C366.76 17.72 366.782 18.1627 366.824 18.6C366.867 19.0373 366.915 19.416 366.968 19.736C367.022 20.0453 367.064 20.264 367.096 20.392L365.8 20.76C365.758 20.6213 365.704 20.3813 365.64 20.04C365.576 19.6987 365.518 19.288 365.464 18.808C365.422 18.328 365.4 17.816 365.4 17.272C365.4 16.7493 365.427 16.2427 365.48 15.752C365.534 15.2507 365.592 14.7973 365.656 14.392C365.731 13.9867 365.8 13.6613 365.864 13.416C366.099 13.32 366.472 13.224 366.984 13.128C367.507 13.032 368.078 12.984 368.696 12.984C369.603 12.984 370.36 13.1173 370.968 13.384C371.576 13.6507 372.03 14.0827 372.328 14.68C372.627 15.2773 372.776 16.0773 372.776 17.08V21H363.656ZM374.504 21V19.768C374.568 19.768 374.622 19.784 374.664 19.816C374.707 19.8373 374.739 19.8747 374.76 19.928C374.782 19.9813 374.798 20.0453 374.808 20.12C374.819 20.1947 374.824 20.28 374.824 20.376C374.824 20.472 374.819 20.5627 374.808 20.648C374.798 20.7227 374.782 20.7867 374.76 20.84C374.739 20.8933 374.707 20.936 374.664 20.968C374.622 20.9893 374.568 21 374.504 21ZM374.5 21V19.768H377.012L376.34 20.312V13H377.716V21H374.5ZM374.5 21C374.436 21 374.383 20.9893 374.34 20.968C374.297 20.936 374.265 20.8933 374.244 20.84C374.223 20.7867 374.207 20.7227 374.196 20.648C374.185 20.5627 374.18 20.472 374.18 20.376C374.18 20.248 374.191 20.1413 374.212 20.056C374.223 19.9707 374.255 19.9013 374.308 19.848C374.351 19.7947 374.415 19.768 374.5 19.768V21ZM375.14 23.96V22.472H376.5V23.96H375.14ZM377.428 23.96V22.472H378.788V23.96H377.428ZM237.524 51V49.064H238.996V51H237.524ZM246.411 51V49.768H248.347V51H246.411ZM245.051 51V39.544H246.411V51H245.051ZM248.347 51V49.768C248.411 49.768 248.465 49.784 248.507 49.816C248.55 49.8373 248.582 49.8747 248.603 49.928C248.625 49.9813 248.641 50.0453 248.651 50.12C248.662 50.1947 248.667 50.28 248.667 50.376C248.667 50.472 248.662 50.5627 248.651 50.648C248.641 50.7227 248.625 50.7867 248.603 50.84C248.582 50.8933 248.55 50.936 248.507 50.968C248.465 50.9893 248.411 51 248.347 51ZM248.344 51V49.768H257.112L255.88 50.904V47.08C255.88 46.3653 255.794 45.8053 255.624 45.4C255.464 44.984 255.186 44.6853 254.792 44.504C254.408 44.3227 253.88 44.232 253.208 44.232C252.728 44.232 252.269 44.264 251.832 44.328C251.405 44.392 251.064 44.4773 250.808 44.584L251.64 43.752C251.576 43.9973 251.512 44.3173 251.448 44.712C251.394 45.096 251.346 45.512 251.304 45.96C251.261 46.408 251.24 46.8507 251.24 47.288C251.24 47.736 251.261 48.1787 251.304 48.616C251.346 49.0427 251.394 49.416 251.448 49.736C251.501 50.0453 251.538 50.264 251.56 50.392L250.264 50.76C250.221 50.6213 250.168 50.3813 250.104 50.04C250.04 49.688 249.981 49.2773 249.928 48.808C249.885 48.328 249.864 47.8213 249.864 47.288C249.864 46.7653 249.885 46.2533 249.928 45.752C249.981 45.2507 250.045 44.8027 250.12 44.408C250.194 44.0027 250.258 43.6773 250.312 43.432C250.546 43.336 250.92 43.24 251.432 43.144C251.954 43.048 252.536 43 253.176 43C254.082 43 254.834 43.1333 255.432 43.4C256.04 43.6667 256.493 44.0987 256.792 44.696C257.09 45.2827 257.24 46.0773 257.24 47.08V51H248.344ZM253.16 54.984C252.53 54.984 251.954 54.952 251.432 54.888C250.92 54.8347 250.546 54.776 250.312 54.712C250.258 54.552 250.194 54.3387 250.12 54.072C250.045 53.816 249.981 53.5227 249.928 53.192C249.885 52.872 249.864 52.536 249.864 52.184C249.864 51.8427 249.885 51.5173 249.928 51.208C249.981 50.8987 250.04 50.632 250.104 50.408C250.168 50.184 250.221 50.0293 250.264 49.944L251.512 50.44C251.48 50.5253 251.442 50.6693 251.4 50.872C251.357 51.0747 251.32 51.2987 251.288 51.544C251.256 51.7893 251.24 52.0133 251.24 52.216C251.24 52.4293 251.256 52.664 251.288 52.92C251.32 53.176 251.362 53.4213 251.416 53.656C251.48 53.8907 251.544 54.0987 251.608 54.28L250.696 53.512C250.941 53.5867 251.298 53.6453 251.768 53.688C252.237 53.7307 252.717 53.752 253.208 53.752C253.922 53.752 254.472 53.704 254.856 53.608C255.24 53.5227 255.506 53.3733 255.656 53.16C255.805 52.9467 255.88 52.664 255.88 52.312V49.768H257.24V52.328C257.24 52.9787 257.09 53.5013 256.792 53.896C256.493 54.2907 256.04 54.568 255.432 54.728C254.834 54.8987 254.077 54.984 253.16 54.984ZM257.24 51V49.768H258.968V51H257.24ZM258.968 51V49.768C259.032 49.768 259.085 49.784 259.128 49.816C259.17 49.8373 259.202 49.8747 259.224 49.928C259.245 49.9813 259.261 50.0453 259.272 50.12C259.282 50.1947 259.288 50.28 259.288 50.376C259.288 50.472 259.282 50.5627 259.272 50.648C259.261 50.7227 259.245 50.7867 259.224 50.84C259.202 50.8933 259.17 50.936 259.128 50.968C259.085 50.9893 259.032 51 258.968 51ZM248.344 51C248.28 51 248.226 50.9893 248.184 50.968C248.141 50.936 248.109 50.8933 248.088 50.84C248.066 50.7867 248.05 50.7227 248.04 50.648C248.029 50.5627 248.024 50.472 248.024 50.376C248.024 50.248 248.034 50.1413 248.056 50.056C248.066 49.9707 248.098 49.9013 248.152 49.848C248.194 49.7947 248.258 49.768 248.344 49.768V51ZM262.057 51V49.768H263.785V51H262.057ZM258.969 51C258.905 51 258.851 50.9893 258.809 50.968C258.766 50.936 258.734 50.8933 258.713 50.84C258.691 50.7867 258.675 50.7227 258.665 50.648C258.654 50.5627 258.649 50.472 258.649 50.376C258.649 50.248 258.659 50.1413 258.681 50.056C258.691 49.9707 258.723 49.9013 258.777 49.848C258.819 49.7947 258.883 49.768 258.969 49.768V51ZM258.969 51V49.768H261.353L260.697 50.312V43H262.057V51H258.969ZM263.785 51V49.768C263.849 49.768 263.902 49.784 263.945 49.816C263.987 49.8373 264.019 49.8747 264.041 49.928C264.062 49.9813 264.078 50.0453 264.089 50.12C264.099 50.1947 264.105 50.28 264.105 50.376C264.105 50.472 264.099 50.5627 264.089 50.648C264.078 50.7227 264.062 50.7867 264.041 50.84C264.019 50.8933 263.987 50.936 263.945 50.968C263.902 50.9893 263.849 51 263.785 51ZM260.697 41.56V40.072H262.073V41.56H260.697ZM263.781 51V49.768H272.469L271.541 50.44V47.08C271.541 46.3547 271.456 45.784 271.285 45.368C271.125 44.952 270.843 44.6587 270.437 44.488C270.043 44.3173 269.504 44.232 268.821 44.232C268.373 44.232 267.931 44.264 267.493 44.328C267.056 44.3813 266.715 44.4613 266.469 44.568L267.301 43.736C267.237 43.992 267.173 44.3173 267.109 44.712C267.045 45.096 266.992 45.512 266.949 45.96C266.907 46.3973 266.885 46.8347 266.885 47.272C266.885 47.72 266.907 48.1627 266.949 48.6C266.992 49.0373 267.04 49.416 267.093 49.736C267.147 50.0453 267.189 50.264 267.221 50.392L265.925 50.76C265.883 50.6213 265.829 50.3813 265.765 50.04C265.701 49.6987 265.643 49.288 265.589 48.808C265.547 48.328 265.525 47.816 265.525 47.272C265.525 46.7493 265.552 46.2427 265.605 45.752C265.659 45.2507 265.717 44.7973 265.781 44.392C265.856 43.9867 265.925 43.6613 265.989 43.416C266.224 43.32 266.597 43.224 267.109 43.128C267.632 43.032 268.203 42.984 268.821 42.984C269.728 42.984 270.485 43.1173 271.093 43.384C271.701 43.6507 272.155 44.0827 272.453 44.68C272.752 45.2773 272.901 46.0773 272.901 47.08V51H263.781ZM263.781 51C263.717 51 263.664 50.9893 263.621 50.968C263.579 50.936 263.547 50.8933 263.525 50.84C263.504 50.7867 263.488 50.7227 263.477 50.648C263.467 50.5627 263.461 50.472 263.461 50.376C263.461 50.248 263.472 50.1413 263.493 50.056C263.504 49.9707 263.536 49.9013 263.589 49.848C263.632 49.7947 263.696 49.768 263.781 49.768V51ZM279.836 40.664V40.056H283.036V40.664H279.836ZM279.836 39.224V38.616H283.036V39.224H279.836ZM278.249 51V49.768H286.121L285.369 50.536V39.544H286.745V51H278.249ZM280.761 49.768V41.816H282.121V49.768H280.761ZM294.896 51V49.768H296.608V51H294.896ZM288.656 51V49.768H294.608L293.52 50.728V47.352C293.52 46.5627 293.429 45.944 293.248 45.496C293.077 45.0373 292.789 44.712 292.384 44.52C291.978 44.328 291.434 44.232 290.752 44.232H289.456V43H290.752C291.626 43 292.373 43.1387 292.992 43.416C293.61 43.6827 294.08 44.136 294.4 44.776C294.73 45.4053 294.896 46.264 294.896 47.352V51H288.656ZM296.608 51V49.768C296.672 49.768 296.725 49.784 296.768 49.816C296.81 49.8373 296.842 49.8747 296.864 49.928C296.885 49.9813 296.901 50.0453 296.912 50.12C296.922 50.1947 296.928 50.28 296.928 50.376C296.928 50.472 296.922 50.5627 296.912 50.648C296.901 50.7227 296.885 50.7867 296.864 50.84C296.842 50.8933 296.81 50.936 296.768 50.968C296.725 50.9893 296.672 51 296.608 51ZM296.609 51V49.768H298.993L298.337 50.312V43H299.697V51H296.609ZM296.609 51C296.545 51 296.492 50.9893 296.449 50.968C296.407 50.936 296.375 50.8933 296.353 50.84C296.332 50.7867 296.316 50.7227 296.305 50.648C296.295 50.5627 296.289 50.472 296.289 50.376C296.289 50.248 296.3 50.1413 296.321 50.056C296.332 49.9707 296.364 49.9013 296.417 49.848C296.46 49.7947 296.524 49.768 296.609 49.768V51ZM298.337 53.96V52.472H299.713V53.96H298.337ZM308.756 51C307.839 51 307.113 50.8613 306.58 50.584C306.057 50.296 305.684 49.8587 305.46 49.272C305.247 48.6747 305.14 47.9173 305.14 47C305.14 46.0933 305.247 45.3413 305.46 44.744C305.684 44.1467 306.057 43.7093 306.58 43.432C307.113 43.144 307.839 43 308.756 43H312.116V50.312H310.74V43.704L311.364 44.232H308.756C308.169 44.232 307.711 44.3067 307.38 44.456C307.06 44.5947 306.836 44.8613 306.708 45.256C306.58 45.6507 306.516 46.232 306.516 47C306.516 47.768 306.575 48.3493 306.692 48.744C306.82 49.1387 307.049 49.4107 307.38 49.56C307.711 49.6987 308.169 49.768 308.756 49.768H313.844V51H308.756ZM313.844 51V49.768C313.908 49.768 313.961 49.784 314.004 49.816C314.047 49.8373 314.079 49.8747 314.1 49.928C314.121 49.9813 314.137 50.0453 314.148 50.12C314.159 50.1947 314.164 50.28 314.164 50.376C314.164 50.472 314.159 50.5627 314.148 50.648C314.137 50.7227 314.121 50.7867 314.1 50.84C314.079 50.8933 314.047 50.936 314.004 50.968C313.961 50.9893 313.908 51 313.844 51ZM307.108 41.56V40.072H308.468V41.56H307.108ZM309.396 41.56V40.072H310.756V41.56H309.396ZM313.844 51V49.768H316.356L315.684 50.312V43H317.06V51H313.844ZM313.844 51C313.78 51 313.726 50.9893 313.684 50.968C313.641 50.936 313.609 50.8933 313.588 50.84C313.566 50.7867 313.55 50.7227 313.54 50.648C313.529 50.5627 313.524 50.472 313.524 50.376C313.524 50.248 313.534 50.1413 313.556 50.056C313.566 49.9707 313.598 49.9013 313.652 49.848C313.694 49.7947 313.758 49.768 313.844 49.768V51ZM314.484 53.96V52.472H315.844V53.96H314.484ZM316.772 53.96V52.472H318.132V53.96H316.772ZM322.474 51V49.768H324.522V51H322.474ZM319.802 54.6C319.663 54.6 319.519 54.5893 319.37 54.568C319.21 54.5573 319.055 54.5467 318.906 54.536L319.034 53.304C319.183 53.3147 319.327 53.3253 319.466 53.336C319.594 53.3573 319.706 53.368 319.802 53.368C320.292 53.368 320.687 53.1813 320.986 52.808C321.284 52.4347 321.434 51.9173 321.434 51.256V43H322.81V51.256C322.81 51.9173 322.682 52.4987 322.426 53C322.17 53.512 321.812 53.9067 321.354 54.184C320.906 54.4613 320.388 54.6 319.802 54.6ZM324.522 51V49.768C324.586 49.768 324.639 49.784 324.682 49.816C324.724 49.8373 324.756 49.8747 324.778 49.928C324.799 49.9813 324.815 50.0453 324.826 50.12C324.836 50.1947 324.842 50.28 324.842 50.376C324.842 50.472 324.836 50.5627 324.826 50.648C324.815 50.7227 324.799 50.7867 324.778 50.84C324.756 50.8933 324.724 50.936 324.682 50.968C324.639 50.9893 324.586 51 324.522 51ZM321.434 41.56V40.072H322.81V41.56H321.434ZM324.516 51V49.768H333.204L332.276 50.44V47.08C332.276 46.3547 332.19 45.784 332.02 45.368C331.86 44.952 331.577 44.6587 331.172 44.488C330.777 44.3173 330.238 44.232 329.556 44.232C329.108 44.232 328.665 44.264 328.228 44.328C327.79 44.3813 327.449 44.4613 327.204 44.568L328.036 43.736C327.972 43.992 327.908 44.3173 327.844 44.712C327.78 45.096 327.726 45.512 327.684 45.96C327.641 46.3973 327.62 46.8347 327.62 47.272C327.62 47.72 327.641 48.1627 327.684 48.6C327.726 49.0373 327.774 49.416 327.828 49.736C327.881 50.0453 327.924 50.264 327.956 50.392L326.66 50.76C326.617 50.6213 326.564 50.3813 326.5 50.04C326.436 49.6987 326.377 49.288 326.324 48.808C326.281 48.328 326.26 47.816 326.26 47.272C326.26 46.7493 326.286 46.2427 326.34 45.752C326.393 45.2507 326.452 44.7973 326.516 44.392C326.59 43.9867 326.66 43.6613 326.724 43.416C326.958 43.32 327.332 43.224 327.844 43.128C328.366 43.032 328.937 42.984 329.556 42.984C330.462 42.984 331.22 43.1173 331.828 43.384C332.436 43.6507 332.889 44.0827 333.188 44.68C333.486 45.2773 333.636 46.0773 333.636 47.08V51H324.516ZM324.516 51C324.452 51 324.398 50.9893 324.356 50.968C324.313 50.936 324.281 50.8933 324.26 50.84C324.238 50.7867 324.222 50.7227 324.212 50.648C324.201 50.5627 324.196 50.472 324.196 50.376C324.196 50.248 324.206 50.1413 324.228 50.056C324.238 49.9707 324.27 49.9013 324.324 49.848C324.366 49.7947 324.43 49.768 324.516 49.768V51ZM335.036 54.6C334.897 54.6 334.753 54.5893 334.604 54.568C334.444 54.5573 334.289 54.5467 334.14 54.536L334.268 53.304C334.417 53.3147 334.561 53.3253 334.7 53.336C334.828 53.3573 334.94 53.368 335.036 53.368C335.527 53.368 335.921 53.1813 336.22 52.808C336.519 52.4347 336.668 51.9173 336.668 51.256V43H338.044V51.256C338.044 51.9173 337.916 52.4987 337.66 53C337.404 53.512 337.047 53.9067 336.588 54.184C336.14 54.4613 335.623 54.6 335.036 54.6ZM343.328 51V47.192C343.328 46.1573 343.477 45.336 343.776 44.728C344.085 44.1093 344.544 43.6667 345.152 43.4C345.76 43.1333 346.512 43 347.408 43C348.314 43 349.066 43.1333 349.664 43.4C350.272 43.6667 350.725 44.1093 351.024 44.728C351.333 45.336 351.488 46.1573 351.488 47.192V51H343.328ZM344.704 50.36L344 49.768H350.816L350.128 50.36V47.192C350.128 46.4453 350.042 45.8533 349.872 45.416C349.712 44.9787 349.434 44.6747 349.04 44.504C348.645 44.3227 348.101 44.232 347.408 44.232C346.714 44.232 346.17 44.3227 345.776 44.504C345.381 44.6747 345.104 44.9787 344.944 45.416C344.784 45.8533 344.704 46.4453 344.704 47.192V50.36ZM345.6 41.56V40.072H346.96V41.56H345.6ZM347.888 41.56V40.072H349.248V41.56H347.888ZM352.333 54.6C352.194 54.6 352.05 54.5893 351.901 54.568C351.741 54.5573 351.586 54.5467 351.437 54.536L351.565 53.304C351.714 53.3147 351.858 53.3253 351.997 53.336C352.125 53.3573 352.237 53.368 352.333 53.368C352.824 53.368 353.218 53.1813 353.517 52.808C353.816 52.4347 353.965 51.9173 353.965 51.256V43H355.341V51.256C355.341 51.9173 355.213 52.4987 354.957 53C354.701 53.512 354.344 53.9067 353.885 54.184C353.437 54.4613 352.92 54.6 352.333 54.6ZM364.085 51V49.768H365.813V51H364.085ZM360.229 54.6C359.845 54.6 359.439 54.568 359.013 54.504C358.597 54.4507 358.138 54.3707 357.637 54.264L357.845 53.16C358.41 53.2347 358.879 53.288 359.253 53.32C359.637 53.352 359.962 53.368 360.229 53.368C361.093 53.368 361.722 53.2027 362.117 52.872C362.511 52.5413 362.709 52.0613 362.709 51.432V43.816L363.333 44.232H360.725C360.138 44.232 359.679 44.3067 359.349 44.456C359.029 44.5947 358.805 44.8613 358.677 45.256C358.549 45.6507 358.485 46.232 358.485 47C358.485 47.768 358.543 48.3493 358.661 48.744C358.789 49.1387 359.018 49.4107 359.349 49.56C359.679 49.6987 360.138 49.768 360.725 49.768H362.709V51H360.725C359.807 51 359.082 50.8613 358.549 50.584C358.026 50.296 357.653 49.8587 357.429 49.272C357.215 48.6747 357.109 47.9173 357.109 47C357.109 46.0933 357.215 45.3413 357.429 44.744C357.653 44.1467 358.026 43.7093 358.549 43.432C359.082 43.144 359.807 43 360.725 43H364.085V51.416C364.085 52.088 363.93 52.664 363.621 53.144C363.311 53.624 362.869 53.9867 362.293 54.232C361.717 54.4773 361.029 54.6 360.229 54.6ZM365.813 51V49.768C365.877 49.768 365.93 49.784 365.973 49.816C366.015 49.8373 366.047 49.8747 366.069 49.928C366.09 49.9813 366.106 50.0453 366.117 50.12C366.127 50.1947 366.133 50.28 366.133 50.376C366.133 50.472 366.127 50.5627 366.117 50.648C366.106 50.7227 366.09 50.7867 366.069 50.84C366.047 50.8933 366.015 50.936 365.973 50.968C365.93 50.9893 365.877 51 365.813 51ZM365.812 51V49.768H377.669L376.437 50.872V47.176C376.437 46.5147 376.341 45.9707 376.149 45.544C375.967 45.1067 375.695 44.7813 375.333 44.568C374.981 44.344 374.538 44.232 374.005 44.232C373.535 44.232 373.098 44.312 372.693 44.472C372.298 44.632 371.925 44.84 371.573 45.096C371.231 45.352 370.911 45.6347 370.613 45.944C370.325 46.2427 370.058 46.5467 369.812 46.856C369.567 47.1653 369.349 47.448 369.157 47.704L368.741 46.504C369.029 46.152 369.311 45.8053 369.589 45.464C369.877 45.1227 370.17 44.8027 370.469 44.504C370.767 44.2053 371.093 43.944 371.445 43.72C371.797 43.496 372.186 43.32 372.613 43.192C373.039 43.064 373.519 43 374.053 43C374.799 43 375.413 43.128 375.893 43.384C376.383 43.6293 376.767 43.9653 377.045 44.392C377.322 44.808 377.514 45.2613 377.621 45.752C377.738 46.232 377.797 46.7067 377.797 47.176V51H365.812ZM368.053 49.768V43H369.429V49.768H368.053ZM365.812 51C365.748 51 365.695 50.9893 365.652 50.968C365.61 50.936 365.578 50.8933 365.556 50.84C365.535 50.7867 365.519 50.7227 365.508 50.648C365.498 50.5627 365.492 50.472 365.492 50.376C365.492 50.248 365.503 50.1413 365.524 50.056C365.535 49.9707 365.567 49.9013 365.62 49.848C365.663 49.7947 365.727 49.768 365.812 49.768V51Z" fill="#245957"/>
<path d="M399 26.5C403.694 26.5 407.5 22.6944 407.5 18C407.5 13.3056 403.694 9.5 399 9.5C394.306 9.5 390.5 13.3056 390.5 18C390.5 22.6944 394.306 26.5 399 26.5Z" stroke="#245957"/>
<path d="M399 13V20M399 23.5V22.5" stroke="#245957" stroke-linecap="round"/>
</svg>
