<svg width="380" height="289" viewBox="0 0 380 289" fill="none" xmlns="http://www.w3.org/2000/svg">
<ellipse cx="190.097" cy="240.045" rx="189.383" ry="48.0762" fill="#AEDABE" fill-opacity="0.2"/>
<path d="M162.258 53.0073C162.258 53.0073 173.783 57.4038 179.695 68.0253C185.607 78.6468 195.534 122.494 195.534 122.494C195.534 122.494 213.491 123.908 217.272 123.908C221.053 123.908 244.688 122.015 244.688 122.015L245.871 129.329C245.871 129.329 230.279 135.943 216.09 137.59C201.901 139.237 185.594 138.537 182.995 136.89C180.397 135.243 167.169 101.731 167.169 101.731C167.169 101.731 164.324 86.869 161.972 76.481C159.62 66.0929 157.359 56.6386 162.258 53.0073Z" fill="white" stroke="#245957" stroke-width="1.3" stroke-linecap="round" stroke-linejoin="round"/>
<path d="M176.98 73.9912L170.548 87.2713L176.551 82.1357" stroke="#245957" stroke-width="1.3" stroke-linecap="round" stroke-linejoin="round"/>
<path d="M244.663 122.041C244.663 122.041 221.028 123.934 217.247 123.934C213.466 123.934 195.509 122.52 195.509 122.52C195.509 122.52 193.3 112.781 190.311 101.368C183.517 103.875 176.931 106.91 170.613 110.446C174.732 120.497 181.203 135.788 182.931 136.89C185.53 138.537 201.85 139.237 216.025 137.59C230.201 135.943 245.806 129.329 245.806 129.329L244.663 122.041Z" fill="white" stroke="#245957" stroke-width="1.3" stroke-linecap="round" stroke-linejoin="round"/>
<path d="M255.331 130.535L249.185 130.302L231.67 135.969L229.305 120.874L242.779 121.574C245.759 119.899 248.835 118.401 251.991 117.087C253.888 116.62 262.165 117.333 262.165 117.333C262.165 117.333 262.633 118.267 261.45 118.98L260.255 119.745C260.255 119.745 267.349 122.093 268.532 123.039C269.714 123.986 268.051 126.113 268.051 126.113C267.867 126.689 267.56 127.219 267.152 127.667C266.744 128.115 266.244 128.469 265.686 128.707C264.054 129.489 262.293 129.968 260.489 130.12C260.489 130.12 256.981 130.535 255.331 130.535Z" fill="#245957" stroke="#245957" stroke-width="1.3" stroke-linecap="round" stroke-linejoin="round"/>
<path d="M144.275 216.713C144.275 216.713 150.018 216.13 152.578 213.562C155.137 210.994 149.615 206.857 146.653 209.217C143.69 211.578 142.897 211.591 144.275 216.713Z" fill="white" stroke="#245957" stroke-width="1.3" stroke-linecap="round" stroke-linejoin="round"/>
<path d="M140.13 50.0508C131.892 53.5403 124.435 58.6374 118.198 65.0428C107.127 76.0922 106.503 91.2788 104.165 105.48C101.826 119.681 103.775 151.039 104.36 161.246C104.944 171.452 113.845 183.928 130.255 199.906C146.666 215.884 181.605 239.941 193.066 239.941C204.526 239.941 209.788 227.192 208.281 216.065C204.604 188.999 166.806 151.376 164.636 146.85C162.466 142.324 163.649 135.399 163.843 134.219C164.038 133.039 171.159 99.903 172.939 90.6303C174.719 81.3576 169.379 57.1058 164.831 53.9414C160.283 50.777 151.201 47.6904 140.13 50.0508Z" fill="#53B175" stroke="#245957" stroke-width="1.3" stroke-linecap="round" stroke-linejoin="round"/>
<path d="M149.811 154.593C149.811 154.593 155.749 148.471 160.491 147.888" stroke="#245957" stroke-width="1.3" stroke-linecap="round" stroke-linejoin="round"/>
<path d="M104.165 136.436C104.165 136.436 120.368 147.096 157.724 139.198" stroke="#245957" stroke-width="1.3" stroke-linecap="round" stroke-linejoin="round"/>
<path d="M106.933 141.792C106.933 141.792 132.621 151.065 156.139 142.778" stroke="#245957" stroke-width="1.3" stroke-linecap="round" stroke-linejoin="round"/>
<path d="M140.716 96.2069C150.438 95.9846 160.001 93.699 168.769 89.502L168.184 92.6534" stroke="#245957" stroke-width="1.3" stroke-linecap="round" stroke-linejoin="round"/>
<path d="M154.656 199.413C154.656 199.413 176.303 220.358 181.644 222.601" stroke="#245957" stroke-width="1.3" stroke-linecap="round" stroke-linejoin="round"/>
<path d="M140.716 185.64C140.716 185.64 142.665 172.671 155.658 160.351" stroke="#245957" stroke-width="1.3" stroke-linecap="round" stroke-linejoin="round"/>
<path d="M154.657 199.413C154.657 199.413 145.47 208.491 144.262 216.713L126.292 197.986C125.128 197.163 123.861 196.496 122.524 196.002C121.731 196.002 118.366 203.498 116.391 206.468C114.416 209.438 112.246 206.663 112.493 201.734C112.74 196.806 118.717 187.78 119.704 183.435C120.692 179.091 124.044 175.939 127.007 176.73C129.969 177.521 154.657 199.413 154.657 199.413Z" fill="#245957" stroke="#245957" stroke-width="1.3" stroke-linecap="round" stroke-linejoin="round"/>
<path d="M107.725 122.637C113.066 122.443 125.305 119.278 130.646 110.965C135.986 102.652 135.986 82.5633 132.231 71.9029C129.45 64.0308 124.955 61.5278 122.798 60.7886C121.278 62.0855 119.744 63.4602 118.198 65.0035C107.128 76.0529 106.504 91.2395 104.165 105.44C103.375 111.177 103.002 116.963 103.048 122.754L107.725 122.637Z" fill="white" stroke="#245957" stroke-width="1.3" stroke-linecap="round" stroke-linejoin="round"/>
<path d="M140.131 50.0506C135.392 52.003 130.924 54.5573 126.839 57.6504C129.775 59.4382 132.236 61.9075 134.011 64.8481C137.364 70.7619 139.936 87.9197 139.936 87.9197C139.936 87.9197 141.314 87.9197 150.799 86.545C157.021 85.5484 163.119 83.892 168.99 81.6039C168.587 77.0777 164.247 55.9644 162.259 53.0724C162.045 52.7637 161.806 52.4731 161.544 52.2035C154.829 49.188 147.314 48.4325 140.131 50.0506Z" fill="white" stroke="#245957" stroke-width="1.3" stroke-linecap="round" stroke-linejoin="round"/>
<path d="M135.362 64.1475C135.362 64.1475 143.938 78.2835 151.24 76.9866C158.543 75.6897 158.53 66.7153 158.53 66.7153" stroke="#245957" stroke-width="1.3" stroke-linecap="round" stroke-linejoin="round"/>
<path d="M136.569 35.4474C136.569 35.4474 135.985 50.8284 136.569 55.9511C137.154 61.0738 144.677 72.1233 150.797 71.3452C156.917 70.567 156.735 54.5764 156.735 54.5764C156.735 54.5764 146.263 39.1954 143.287 36.42C140.312 33.6447 137.557 33.6836 136.569 35.4474Z" fill="white" stroke="#245957" stroke-width="1.3" stroke-linecap="round" stroke-linejoin="round"/>
<path d="M136.18 32.8539C136.18 32.8539 132.282 29.6895 130.255 32.4518C128.228 35.2142 131.633 42.1136 134.595 43.0992C137.558 44.0849 138.493 43.5013 138.493 43.5013C139.87 47.427 141.661 51.1961 143.834 54.7453C146.601 58.636 155.294 65.9893 161.219 63.8235C167.144 61.6577 169.924 48.2609 170.912 42.7232C171.392 40.4474 171.722 38.1426 171.899 35.8237C166.972 34.6272 161.943 33.8978 156.879 33.645C148.628 33.2429 136.18 32.8539 136.18 32.8539Z" fill="white" stroke="#245957" stroke-width="1.3" stroke-linecap="round" stroke-linejoin="round"/>
<path d="M140.533 34.4233C140.533 34.4233 141.716 40.5446 139.936 40.9077C138.156 41.2709 136.181 32.8281 136.181 32.8281L140.533 34.4233Z" fill="#245957" stroke="#245957" stroke-width="1.3" stroke-linecap="round" stroke-linejoin="round"/>
<path d="M164.441 40.3369C164.441 40.3369 165.429 49.4151 163.844 50.2062C162.259 50.9973 159.504 49.4151 159.504 49.4151" stroke="#245957" stroke-width="1.3" stroke-linecap="round" stroke-linejoin="round"/>
<path d="M133.466 30.26C133.466 30.26 143.419 40.4147 152.514 41.2836C161.609 42.1525 183.698 36.3165 184.998 33.9432C186.297 31.5699 173.524 25.7209 173.524 25.7209C173.524 25.7209 172.004 10.1583 170.055 6.26766C168.106 2.377 156.425 -1.07272 146.667 1.94902C136.909 4.97077 130.425 8.21298 130.646 13.621C130.867 19.029 133.466 30.26 133.466 30.26Z" fill="#245957" stroke="#245957" stroke-width="1.3" stroke-linecap="round" stroke-linejoin="round"/>
<path d="M140.274 31.064C149.37 31.8032 165.443 32.0367 173.512 25.7598" stroke="white" stroke-width="1.3" stroke-linecap="round" stroke-linejoin="round"/>
<path d="M107.919 90.8764C107.919 90.8764 111.284 107.645 113.649 116.723C116.014 125.802 116.417 129.342 118.392 130.133C120.367 130.924 184.203 120.86 184.203 120.86V113.961L135.985 109.227C135.985 109.227 131.567 77.6611 129.488 73.7186C128.895 72.5251 127.962 71.5329 126.806 70.8662C125.651 70.1995 124.324 69.8879 122.991 69.9706" fill="white"/>
<path d="M107.919 90.8764C107.919 90.8764 111.284 107.645 113.649 116.723C116.014 125.802 116.417 129.342 118.392 130.133C120.367 130.924 184.203 120.86 184.203 120.86V113.961L135.985 109.227C135.985 109.227 131.567 77.6611 129.488 73.7186C128.895 72.5251 127.962 71.5329 126.806 70.8662C125.651 70.1995 124.324 69.8879 122.991 69.9706" stroke="#245957" stroke-width="1.3" stroke-linecap="round" stroke-linejoin="round"/>
<path d="M134.453 96.0121C130.098 95.875 125.761 96.646 121.72 98.2762C117.68 99.9063 114.024 102.36 110.987 105.479C111.871 109.487 112.819 113.611 113.586 116.788C115.964 125.866 116.354 129.407 118.329 130.198C120.304 130.989 184.14 120.925 184.14 120.925V114.026L135.922 109.292C135.922 109.292 135.389 103.145 134.453 96.0121Z" fill="white" stroke="#245957" stroke-width="1.3" stroke-linecap="round" stroke-linejoin="round"/>
<path d="M135.985 109.228C135.985 109.228 126.695 108.436 121.952 112.768" stroke="#245957" stroke-width="1.3" stroke-linecap="round" stroke-linejoin="round"/>
<path d="M213.115 109.266C213.115 109.266 219.975 105.155 225.472 103.962L214.141 112.184L215.857 114.415L229.253 108.592C229.253 108.592 223.926 114.078 221.015 115.271C219.28 115.99 217.611 116.858 216.026 117.865L210.828 110.148L213.115 109.266Z" fill="white" stroke="#245957" stroke-width="1.3" stroke-linecap="round" stroke-linejoin="round"/>
<path d="M209.489 119.745C209.489 119.745 209.1 121.911 205.734 124.673C202.369 127.436 198.224 127.034 201.394 128.019C204.565 129.005 208.502 127.63 212.452 120.925C216.402 114.221 209.489 119.745 209.489 119.745Z" fill="white" stroke="#245957" stroke-width="1.3" stroke-linecap="round" stroke-linejoin="round"/>
<path d="M179.255 111.782L180.047 123.623L191.313 121.029C192.978 121.802 194.72 122.398 196.51 122.806C200.368 122.988 204.231 122.59 207.97 121.625C209.045 121.207 210.174 120.941 211.323 120.834C211.323 120.834 209.945 123.428 211.518 123.428C213.09 123.428 216.468 122.442 217.456 121.055C218.443 119.667 218.248 116.723 218.248 116.723C218.248 116.723 218.638 113.753 217.456 112.184C216.273 110.615 212.258 106.997 210.335 107.256C208.412 107.515 190.975 111.588 189.546 111.99C188.116 112.392 179.255 111.782 179.255 111.782Z" fill="#245957" stroke="#245957" stroke-width="1.3" stroke-linecap="round" stroke-linejoin="round"/>
<path d="M115.041 139.6C115.041 139.6 105.152 152.569 103.58 165.836C102.008 179.104 106.543 195.665 108.115 198.972C109.687 202.279 109.31 205.275 113.455 205.871C117.6 206.468 138.143 206.662 139.143 203.109C140.144 199.555 140.923 152.816 140.131 145.903C139.338 138.991 129.658 135.658 125.513 135.658C121.656 135.645 117.929 137.048 115.041 139.6Z" fill="#53B175" stroke="#245957" stroke-width="1.3" stroke-linecap="round" stroke-linejoin="round"/>
<path d="M107.127 200.346C118.233 201.642 129.483 200.908 140.325 198.181C140.325 198.181 139.468 249.304 140.065 250.484C140.663 251.664 150.538 264.101 154.098 267.253C157.658 270.404 158.243 271.403 156.073 273.737C153.903 276.072 150.538 278.86 140.065 274.528C129.593 270.197 126.435 262.104 123.46 258.162C120.484 254.219 121.095 253.22 121.095 247.307C121.095 241.393 107.127 200.346 107.127 200.346Z" fill="#245957" stroke="#245957" stroke-width="1.3" stroke-linecap="round" stroke-linejoin="round"/>
<path d="M116.677 200.554C113.93 195.702 111.957 190.451 110.83 184.992" stroke="#245957" stroke-width="1.3" stroke-linecap="round" stroke-linejoin="round"/>
<path d="M127.722 200.554C127.722 200.554 132.269 193.421 130.97 188.234" stroke="#245957" stroke-width="1.3" stroke-linecap="round" stroke-linejoin="round"/>
<path d="M17.3711 203.628L18.7484 229.177C18.8104 230.373 19.2208 231.526 19.9294 232.494C20.6379 233.461 21.6137 234.201 22.7374 234.623C31.4042 237.986 41.0189 237.986 49.6858 234.623C50.8026 234.206 51.774 233.474 52.4821 232.517C53.1902 231.559 53.6045 230.417 53.6748 229.228L55.2859 203.641L17.3711 203.628Z" fill="white" stroke="#245957" stroke-width="1.3" stroke-linecap="round" stroke-linejoin="round"/>
<path d="M15.5 194.887V203.965C15.5 205.573 24.7643 206.883 36.1856 206.883C47.6068 206.883 56.8711 205.586 56.8711 203.965V194.887H15.5Z" fill="white" stroke="#245957" stroke-width="1.3" stroke-linecap="round" stroke-linejoin="round"/>
<path d="M36.1856 197.805C47.6099 197.805 56.8711 196.498 56.8711 194.887C56.8711 193.275 47.6099 191.969 36.1856 191.969C24.7612 191.969 15.5 193.275 15.5 194.887C15.5 196.498 24.7612 197.805 36.1856 197.805Z" fill="white" stroke="#245957" stroke-width="1.3" stroke-linecap="round" stroke-linejoin="round"/>
<path d="M17.7744 196.261C21.2047 197.208 28.1692 197.857 36.1861 197.857C44.2031 197.857 51.1676 197.208 54.5978 196.261C51.1676 195.328 44.2031 194.679 36.1861 194.679C28.1692 194.679 21.2696 195.276 17.7744 196.261Z" fill="#245957" stroke="#245957" stroke-width="1.3" stroke-linecap="round" stroke-linejoin="round"/>
<path d="M32.2095 176.354C32.2095 176.354 30.6113 188.026 31.6768 195.678H43.072C45.2364 189.893 47.0118 183.971 48.3864 177.95L39.9016 180.064L32.2095 176.354Z" fill="white" stroke="#245957" stroke-width="1.3" stroke-linecap="round" stroke-linejoin="round"/>
<path d="M40.8501 174.954H40.5902C40.2513 174.909 39.9246 174.798 39.6288 174.627C39.3329 174.456 39.0738 174.228 38.8662 173.957C38.6586 173.686 38.5066 173.377 38.4189 173.047C38.3313 172.717 38.3097 172.374 38.3553 172.036L41.2659 150.689C41.3111 150.348 41.4231 150.02 41.5954 149.722C41.7678 149.425 41.9972 149.164 42.2705 148.955C42.5438 148.746 42.8556 148.593 43.1882 148.505C43.5208 148.416 43.8676 148.394 44.2089 148.439C44.5501 148.484 44.8792 148.596 45.1771 148.768C45.4751 148.94 45.7362 149.169 45.9456 149.441C46.1549 149.714 46.3084 150.025 46.3972 150.357C46.486 150.689 46.5085 151.036 46.4632 151.376L43.5657 172.736C43.4725 173.377 43.1421 173.961 42.6395 174.371C42.1369 174.782 41.4985 174.989 40.8501 174.954Z" fill="#245957" stroke="#245957" stroke-width="1.3" stroke-linecap="round" stroke-linejoin="round"/>
<path d="M39.0569 187.092H38.927C38.5884 187.044 38.2826 186.865 38.0758 186.593C37.8691 186.321 37.7781 185.978 37.8226 185.64L39.6546 172.191C39.7011 171.847 39.8827 171.536 40.1592 171.325C40.4358 171.115 40.7848 171.023 41.1294 171.069C41.474 171.116 41.786 171.297 41.9968 171.573C42.2076 171.849 42.2998 172.197 42.2533 172.541L40.4213 185.99C40.3731 186.311 40.2063 186.602 39.9538 186.806C39.7012 187.01 39.3813 187.112 39.0569 187.092Z" fill="white" stroke="#245957" stroke-width="1.3" stroke-linecap="round" stroke-linejoin="round"/>
<path d="M263.545 205.249L264.935 230.798C264.994 231.995 265.403 233.15 266.112 234.118C266.821 235.086 267.799 235.825 268.924 236.245C277.591 239.607 287.206 239.607 295.873 236.245C296.988 235.827 297.957 235.094 298.663 234.136C299.369 233.179 299.781 232.037 299.849 230.85L301.473 205.262L263.545 205.249Z" fill="white" stroke="#245957" stroke-width="1.3" stroke-linecap="round" stroke-linejoin="round"/>
<path d="M261.648 196.508V205.586C261.648 207.194 270.913 208.504 282.334 208.504C293.755 208.504 303.02 207.207 303.02 205.586V196.508H261.648Z" fill="white" stroke="#245957" stroke-width="1.3" stroke-linecap="round" stroke-linejoin="round"/>
<path d="M282.372 199.426C293.796 199.426 303.058 198.119 303.058 196.508C303.058 194.896 293.796 193.59 282.372 193.59C270.948 193.59 261.687 194.896 261.687 196.508C261.687 198.119 270.948 199.426 282.372 199.426Z" fill="white" stroke="#245957" stroke-width="1.3" stroke-linecap="round" stroke-linejoin="round"/>
<path d="M263.96 197.831C267.39 198.777 274.355 199.426 282.372 199.426C290.389 199.426 297.353 198.777 300.783 197.831C297.353 196.897 290.389 196.249 282.372 196.249C274.355 196.249 267.39 196.897 263.96 197.831Z" fill="#245957" stroke="#245957" stroke-width="1.3" stroke-linecap="round" stroke-linejoin="round"/>
<path d="M283.386 197.96C283.386 197.96 282.412 151.921 280.463 146.409C278.514 140.897 266.82 134.413 266.82 137.979C266.922 140.277 267.843 142.462 269.418 144.14C269.418 144.14 250.578 141.546 254.151 146.085C257.724 150.624 265.845 148.679 265.845 148.679C265.845 148.679 247.329 154.191 256.75 155.487C261.915 156.241 267.123 156.674 272.342 156.784C272.342 156.784 266.495 161.972 271.367 161.972C274.025 162.041 276.672 161.601 279.163 160.675L281.437 197.96H283.386Z" fill="#53B175"/>
<path d="M284.283 197.961L280.463 146.41C280.463 146.41 293.456 132.468 294.431 136.034C295.405 139.601 289.233 143.492 291.832 143.492C294.431 143.492 309.048 135.386 310.997 141.222C312.946 147.058 290.533 148.679 294.106 150.624C297.679 152.57 307.099 152.245 299.953 154.515C292.807 156.785 281.762 158.73 285.335 160.351C288.909 161.972 287.284 162.945 285.985 164.566L285.335 197.961H284.283Z" fill="#53B175"/>
<path d="M278.189 198.284C278.189 198.284 274.291 191.476 274.291 188.234C274.291 184.991 275.266 180.452 273.317 175.913C271.368 171.374 265.845 176.237 264.546 177.21C263.247 178.183 259.349 170.726 256.425 172.347C253.502 173.968 258.699 176.886 257.725 178.183C256.75 179.48 241.808 175.265 241.808 179.804C241.808 184.343 256.425 180.452 257.725 182.073C259.024 183.695 248.954 185.964 254.151 187.585C259.349 189.206 262.597 184.019 262.922 185.964C263.247 187.909 255.126 190.179 261.298 191.8C267.47 193.421 269.744 191.476 271.693 192.448C273.642 193.421 276.565 198.284 276.565 198.284H278.189Z" fill="#53B175"/>
<path d="M286.635 198.284C286.635 198.284 290.533 191.476 290.533 188.234C290.533 184.991 289.558 180.452 291.507 175.913C293.456 171.374 298.979 176.237 300.278 177.21C301.577 178.183 305.475 170.726 308.399 172.347C311.322 173.968 306.125 176.886 307.099 178.183C308.074 179.48 323.016 175.265 323.016 179.804C323.016 184.343 308.399 180.452 307.099 182.073C305.8 183.695 315.87 185.964 310.673 187.585C305.475 189.206 302.227 184.019 301.902 185.964C301.577 187.909 309.698 190.179 303.526 191.8C297.354 193.421 295.081 191.476 293.131 192.448C291.182 193.421 288.259 198.284 288.259 198.284H286.635Z" fill="#53B175"/>
<path d="M281.437 197.96C281.437 197.96 279.488 168.781 278.838 167.484C278.189 166.187 273.966 167.808 268.769 170.077C263.571 172.347 265.52 171.374 262.597 170.402C259.673 169.429 255.775 170.726 250.578 171.699C245.38 172.671 246.68 166.187 252.202 164.241C255.439 163.081 258.835 162.425 262.272 162.296C262.272 162.296 255.775 159.378 261.622 158.405C267.469 157.433 274.291 161.972 277.539 163.917C278.428 164.371 279.208 165.011 279.825 165.795C280.442 166.579 280.881 167.487 281.112 168.456L283.386 197.96H281.437Z" fill="#53B175"/>
<path d="M284.283 197.96C284.283 197.96 286.232 168.781 286.882 167.484C287.531 166.187 291.754 167.808 296.952 170.077C302.149 172.347 300.2 171.374 303.123 170.402C306.047 169.429 309.945 170.726 315.142 171.699C320.34 172.671 319.04 166.187 313.518 164.241C310.281 163.081 306.885 162.425 303.448 162.296C303.448 162.296 309.945 159.378 304.098 158.405C298.251 157.433 291.429 161.972 288.181 163.917C287.292 164.371 286.512 165.011 285.895 165.795C285.278 166.579 284.839 167.487 284.608 168.456L282.334 197.96H284.283Z" fill="#53B175"/>
<path d="M316.987 205.249L318.378 230.798C318.44 231.994 318.85 233.147 319.559 234.115C320.267 235.082 321.243 235.822 322.367 236.245C331.033 239.607 340.648 239.607 349.315 236.245C350.432 235.827 351.403 235.095 352.111 234.138C352.819 233.18 353.234 232.038 353.304 230.85L354.915 205.262L316.987 205.249Z" fill="white" stroke="#245957" stroke-width="1.3" stroke-linecap="round" stroke-linejoin="round"/>
<path d="M315.129 196.508V205.586C315.129 207.194 324.393 208.504 335.814 208.504C347.236 208.504 356.5 207.207 356.5 205.586V196.508H315.129Z" fill="white" stroke="#245957" stroke-width="1.3" stroke-linecap="round" stroke-linejoin="round"/>
<path d="M335.814 199.426C347.239 199.426 356.5 198.119 356.5 196.508C356.5 194.896 347.239 193.59 335.814 193.59C324.39 193.59 315.129 194.896 315.129 196.508C315.129 198.119 324.39 199.426 335.814 199.426Z" fill="white" stroke="#245957" stroke-width="1.3" stroke-linecap="round" stroke-linejoin="round"/>
<path d="M317.416 197.831C320.833 198.777 327.811 199.426 335.815 199.426C343.819 199.426 350.809 198.777 354.226 197.831C350.809 196.897 343.832 196.249 335.815 196.249C327.798 196.249 320.833 196.897 317.416 197.831Z" fill="#245957" stroke="#245957" stroke-width="1.3" stroke-linecap="round" stroke-linejoin="round"/>
<path d="M325.459 176.225C328.8 183.269 331.522 190.589 333.593 198.103C333.593 198.103 332.813 171.997 330.929 162.309" stroke="#245957" stroke-width="0.65" stroke-linecap="round" stroke-linejoin="round"/>
<path d="M343.609 169.027C343.609 169.027 336.723 183.876 335.476 197.947" stroke="#245957" stroke-width="0.65" stroke-linecap="round" stroke-linejoin="round"/>
<path d="M345.338 181.374C345.338 181.374 338.452 192.164 337.659 198.103" stroke="#245957" stroke-width="0.65" stroke-linecap="round" stroke-linejoin="round"/>
<path d="M332.345 187.002C333.438 190.397 334.119 193.911 334.372 197.468" stroke="#245957" stroke-width="0.65" stroke-linecap="round" stroke-linejoin="round"/>
<path d="M331.396 159.819C331.396 159.819 328.537 156.59 326.419 157.64C324.301 158.691 323.95 160.455 327.121 161.155C330.291 161.855 323.106 161.453 324.522 164.968C325.938 168.482 329.382 162.374 330.785 164.501C332.188 166.628 332.084 168.508 334.072 167.626C337.672 166.057 333.488 163.567 334.54 162.154C335.593 160.74 337.711 161.868 337.711 159.754C337.711 157.64 334.93 155.941 331.396 159.819Z" fill="#53B175"/>
<path d="M344.714 167.004C344.714 167.004 341.843 163.774 339.725 164.825C337.607 165.875 337.256 167.639 340.427 168.352C343.597 169.066 336.412 168.638 337.828 172.152C339.244 175.667 342.687 169.559 344.091 171.685C345.494 173.812 345.39 175.706 347.378 174.811C350.99 173.255 346.793 170.752 347.859 169.351C348.924 167.95 351.016 169.053 351.016 166.939C351.016 164.825 348.236 163.126 344.714 167.004Z" fill="#53B175"/>
<path d="M332.813 185.29C332.813 185.29 329.941 182.061 327.823 183.111C325.705 184.162 325.368 185.925 328.538 186.626C331.708 187.326 324.51 186.924 325.939 190.438C327.369 193.953 330.786 187.845 332.202 189.972C333.618 192.098 333.436 193.979 335.489 193.097C339.089 191.528 334.892 189.038 335.957 187.624C337.023 186.211 339.115 187.339 339.115 185.225C339.115 183.111 336.334 181.412 332.813 185.29Z" fill="#53B175"/>
<path d="M325.926 174.033C325.926 174.033 323.055 170.804 320.937 171.867C318.819 172.931 318.468 174.681 321.638 175.382C324.809 176.082 317.624 175.667 319.04 179.195C320.456 182.722 323.886 176.601 325.303 178.715C326.719 180.829 326.537 182.735 328.59 181.84C332.189 180.284 327.992 177.781 329.058 176.38C330.123 174.98 332.215 176.082 332.215 173.968C332.215 171.854 329.448 170.168 325.926 174.033Z" fill="#53B175"/>
<path d="M346.274 179.817C346.274 179.817 343.402 176.588 341.297 177.638C339.192 178.689 338.828 180.453 341.999 181.166C345.169 181.879 337.971 181.451 339.4 184.966C340.829 188.48 344.247 182.372 345.663 184.499C347.079 186.626 346.962 188.519 348.95 187.624C352.55 186.068 348.366 183.565 349.418 182.165C350.471 180.764 352.576 181.866 352.576 179.752C352.576 177.638 349.795 175.939 346.274 179.817Z" fill="#53B175"/>
<path d="M201.474 243.987C201.474 243.987 194.315 221.81 216.286 179.039C238.258 136.267 217.391 67.1953 217.391 67.1953" stroke="#53B175" stroke-width="3.9" stroke-linecap="round" stroke-linejoin="round"/>
<path d="M187.727 242.651C187.727 242.651 180.035 226.207 188.819 202.072C197.602 177.937 195.315 164.254 195.315 164.254" stroke="#53B175" stroke-width="3.9" stroke-linecap="round" stroke-linejoin="round"/>
<path d="M221.161 168.106C221.161 168.106 238.26 147.24 244.861 122.015C246.381 116.192 247.551 111.069 248.46 106.621" stroke="#53B175" stroke-width="3.9" stroke-linecap="round" stroke-linejoin="round"/>
<path d="M208.271 244.389C208.271 244.389 218.483 224.002 220.692 194.394C221.965 176.302 220.106 158.126 215.196 140.664" stroke="#53B175" stroke-width="3.9" stroke-linecap="round" stroke-linejoin="round"/>
<path d="M209.531 178.961C209.44 179.61 208.543 180.089 208.374 180.712C208.205 181.334 208.738 182.216 208.491 182.813C208.244 183.409 207.257 183.656 206.932 184.214C206.607 184.771 206.932 185.757 206.49 186.276C206.049 186.794 205.074 186.768 204.606 187.222C204.139 187.676 204.177 188.701 203.658 189.103C203.138 189.505 202.163 189.207 201.605 189.531C201.046 189.855 200.799 190.828 200.188 191.1C199.578 191.372 198.72 190.815 198.097 190.983C197.473 191.152 196.979 192.047 196.329 192.138C195.68 192.228 195.03 191.476 194.328 191.476C193.627 191.476 192.964 192.215 192.314 192.138C191.665 192.06 191.184 191.152 190.56 190.983C189.937 190.815 189.053 191.346 188.455 191.1C187.858 190.854 187.611 189.868 187.052 189.544C186.493 189.22 185.506 189.544 184.986 189.103C184.466 188.662 184.492 187.689 184.038 187.222C183.583 186.755 182.556 186.794 182.154 186.276C181.751 185.757 182.05 184.784 181.725 184.227C181.4 183.669 180.425 183.422 180.153 182.813C179.88 182.203 180.438 181.347 180.27 180.725C180.101 180.102 179.204 179.61 179.113 178.961C179.022 178.313 179.776 177.664 179.776 176.964C179.776 176.264 179.035 175.602 179.113 174.967C179.191 174.331 180.101 173.825 180.27 173.203C180.438 172.58 179.906 171.699 180.153 171.102C180.399 170.505 181.452 170.259 181.725 169.701C181.998 169.144 181.725 168.158 182.154 167.639C182.582 167.121 183.57 167.147 184.038 166.693C184.505 166.239 184.466 165.214 184.986 164.812C185.506 164.41 186.48 164.708 187.052 164.384C187.624 164.06 187.845 163.087 188.455 162.815C189.066 162.543 189.924 163.1 190.56 162.932C191.197 162.763 191.665 161.868 192.314 161.777C192.964 161.687 193.614 162.439 194.328 162.439C195.043 162.439 195.628 161.7 196.329 161.777C197.031 161.855 197.46 162.763 198.084 162.932C198.707 163.1 199.591 162.568 200.188 162.815C200.786 163.061 201.033 164.112 201.592 164.384C202.151 164.657 203.138 164.384 203.658 164.812C204.177 165.24 204.152 166.226 204.606 166.693C205.061 167.16 206.088 167.121 206.49 167.639C206.893 168.158 206.594 169.131 206.919 169.701C207.244 170.272 208.218 170.492 208.491 171.102C208.764 171.712 208.205 172.567 208.374 173.203C208.543 173.838 209.44 174.305 209.531 174.954C209.622 175.602 208.868 176.251 208.868 176.964C208.868 177.677 209.674 178.313 209.531 178.961ZM230.32 135.71C230.32 134.88 231.243 133.998 231.139 133.194C231.035 132.39 229.84 131.755 229.697 130.976C229.554 130.198 230.151 129.083 229.84 128.383C229.528 127.682 228.267 127.319 227.865 126.606C227.462 125.893 227.865 124.674 227.306 124.012C226.747 123.351 225.526 123.39 224.941 122.806C224.356 122.222 224.395 120.951 223.746 120.446C223.096 119.94 221.862 120.316 221.147 119.901C220.432 119.486 220.133 118.241 219.38 117.93C218.626 117.618 217.522 118.28 216.781 118.072C216.041 117.865 215.378 116.775 214.546 116.62C213.715 116.464 212.857 117.45 212.026 117.45C211.194 117.45 210.31 116.516 209.505 116.62C208.699 116.724 208.063 117.917 207.283 118.072C206.503 118.228 205.386 117.618 204.684 117.93C203.983 118.241 203.619 119.486 202.904 119.901C202.19 120.316 200.968 119.901 200.305 120.446C199.643 120.99 199.695 122.235 199.11 122.806C198.525 123.377 197.252 123.364 196.745 124.012C196.238 124.661 196.602 125.893 196.2 126.606C195.797 127.319 194.536 127.604 194.225 128.37C193.913 129.135 194.575 130.211 194.354 130.963C194.134 131.716 193.055 132.364 192.912 133.181C192.769 133.998 193.744 134.867 193.744 135.697C193.744 136.527 192.808 137.422 192.912 138.226C193.016 139.03 194.212 139.653 194.367 140.444C194.523 141.235 193.9 142.337 194.225 143.037C194.549 143.738 195.784 144.101 196.2 144.801C196.615 145.501 196.2 146.747 196.745 147.395C197.291 148.043 198.538 148.017 199.11 148.588C199.682 149.159 199.656 150.456 200.318 150.961C200.981 151.467 202.202 151.091 202.917 151.506C203.632 151.921 203.931 153.166 204.697 153.477C205.464 153.789 206.542 153.127 207.296 153.335C208.05 153.542 208.699 154.632 209.518 154.774C210.336 154.917 211.207 153.957 212.039 153.957C212.87 153.957 213.754 154.878 214.559 154.774C215.365 154.67 216.002 153.542 216.794 153.335C217.587 153.127 218.691 153.789 219.393 153.477C220.094 153.166 220.458 151.908 221.16 151.506C221.862 151.104 223.109 151.506 223.759 150.948C224.408 150.391 224.382 149.172 224.954 148.588C225.526 148.004 226.825 148.043 227.319 147.395C227.813 146.747 227.462 145.514 227.878 144.801C228.293 144.088 229.541 143.79 229.853 143.037C230.164 142.285 229.489 141.183 229.71 140.444C229.931 139.704 231.009 139.043 231.152 138.226C231.295 137.409 230.268 136.605 230.268 135.71H230.32ZM232.49 209.23C232.49 208.4 233.413 207.519 233.309 206.714C233.205 205.91 232.074 205.275 231.866 204.484C231.659 203.693 232.321 202.603 232.009 201.89C231.698 201.177 230.437 200.84 230.034 200.126C229.632 199.413 230.034 198.181 229.476 197.533C228.917 196.884 227.696 196.923 227.111 196.339C226.526 195.756 226.565 194.472 225.916 193.979C225.266 193.486 224.031 193.836 223.317 193.421C222.602 193.006 222.303 191.774 221.55 191.45C220.796 191.126 219.692 191.813 218.951 191.593C218.21 191.372 217.548 190.296 216.716 190.153C215.885 190.011 215.027 190.983 214.195 190.983C213.364 190.983 212.48 190.05 211.675 190.153C210.869 190.257 210.232 191.385 209.453 191.593C208.673 191.8 207.556 191.139 206.854 191.45C206.152 191.761 205.789 193.019 205.074 193.421C204.359 193.823 203.138 193.421 202.475 193.979C201.813 194.537 201.852 195.756 201.267 196.339C200.682 196.923 199.409 196.884 198.902 197.533C198.395 198.181 198.759 199.413 198.356 200.126C197.954 200.84 196.693 201.138 196.381 201.903C196.07 202.668 196.732 203.745 196.524 204.497C196.316 205.249 195.225 205.884 195.069 206.714C194.913 207.545 195.901 208.4 195.901 209.23C195.901 210.06 194.965 210.942 195.069 211.746C195.173 212.55 196.303 213.186 196.524 213.977C196.745 214.768 196.07 215.858 196.381 216.571C196.693 217.284 197.941 217.621 198.356 218.335C198.772 219.048 198.356 220.28 198.902 220.928C199.448 221.577 200.695 221.538 201.267 222.122C201.839 222.705 201.826 223.989 202.475 224.482C203.125 224.975 204.359 224.624 205.074 225.04C205.789 225.455 206.075 226.687 206.841 227.011C207.608 227.335 208.686 226.648 209.44 226.868C210.193 227.089 210.843 228.165 211.662 228.308C212.48 228.45 213.351 227.478 214.182 227.478C215.014 227.478 215.911 228.411 216.716 228.308C217.522 228.204 218.145 227.011 218.938 226.868C219.731 226.725 220.835 227.322 221.537 227.011C222.238 226.7 222.602 225.442 223.304 225.04C224.005 224.637 225.253 225.04 225.903 224.482C226.552 223.924 226.526 222.705 227.098 222.122C227.67 221.538 228.969 221.577 229.476 220.928C229.982 220.28 229.606 219.048 230.021 218.335C230.437 217.621 231.685 217.323 231.996 216.558C232.308 215.793 231.646 214.716 231.854 213.964C232.061 213.212 233.153 212.576 233.296 211.746C233.439 210.916 232.49 210.112 232.49 209.23ZM194.588 219.683C194.588 219.126 195.537 218.529 195.459 217.997C195.381 217.466 194.315 217.116 194.16 216.597C194.004 216.078 194.783 215.235 194.575 214.729C194.367 214.223 193.276 214.185 192.977 213.718C192.678 213.251 193.211 212.239 192.886 211.811C192.561 211.383 191.457 211.63 191.067 211.241C190.677 210.852 190.924 209.762 190.495 209.438C190.067 209.114 189.066 209.62 188.598 209.347C188.131 209.075 188.079 207.959 187.572 207.752C187.065 207.544 186.273 208.297 185.714 208.154C185.155 208.011 184.856 206.948 184.311 206.857C183.765 206.766 183.167 207.739 182.621 207.739C182.076 207.739 181.465 206.792 180.932 206.857C180.399 206.922 180.049 208.011 179.529 208.154C179.009 208.297 178.165 207.544 177.671 207.752C177.177 207.959 177.112 209.049 176.644 209.347C176.177 209.645 175.176 209.114 174.747 209.438C174.319 209.762 174.552 210.865 174.176 211.254C173.799 211.643 172.681 211.396 172.357 211.824C172.032 212.252 172.538 213.251 172.266 213.718C171.993 214.185 170.875 214.236 170.667 214.742C170.46 215.248 171.213 216.039 171.083 216.597C170.953 217.154 169.862 217.453 169.784 217.997C169.706 218.542 170.654 219.126 170.654 219.683C170.654 220.241 169.706 220.838 169.784 221.369C169.862 221.901 170.927 222.251 171.083 222.77C171.239 223.289 170.46 224.067 170.667 224.624C170.875 225.182 171.967 225.182 172.279 225.649C172.59 226.116 172.032 227.115 172.357 227.542C172.681 227.97 173.786 227.737 174.176 228.113C174.565 228.489 174.319 229.592 174.747 229.929C175.176 230.266 176.177 229.734 176.644 230.007C177.112 230.279 177.164 231.407 177.671 231.615C178.178 231.822 178.97 231.057 179.529 231.2C180.088 231.342 180.387 232.419 180.932 232.497C181.478 232.574 182.076 231.615 182.621 231.615C183.167 231.615 183.778 232.561 184.311 232.497C184.843 232.432 185.194 231.355 185.714 231.2C186.234 231.044 187.078 231.822 187.572 231.615C188.066 231.407 188.131 230.318 188.598 230.007C189.066 229.695 190.067 230.253 190.495 229.929C190.924 229.605 190.69 228.489 191.067 228.113C191.444 227.737 192.561 227.97 192.886 227.542C193.211 227.115 192.704 226.116 192.977 225.649C193.25 225.182 194.367 225.13 194.575 224.624C194.783 224.119 194.03 223.328 194.173 222.77C194.315 222.212 195.381 221.914 195.472 221.369C195.563 220.825 194.588 220.28 194.588 219.735V219.683ZM234.66 69.2446C234.66 68.4146 235.596 67.5327 235.492 66.7286C235.388 65.9246 234.257 65.2891 234.049 64.498C233.842 63.7069 234.504 62.6175 234.192 61.9042C233.88 61.1909 232.62 60.8408 232.217 60.1275C231.815 59.4142 232.217 58.1822 231.659 57.5337C231.1 56.8853 229.879 56.9242 229.294 56.3406C228.709 55.757 228.748 54.4731 228.098 53.9802C227.449 53.4874 226.214 53.8376 225.5 53.4226C224.785 53.0076 224.486 51.7755 223.72 51.4513C222.953 51.1271 221.875 51.8144 221.121 51.594C220.367 51.3735 219.731 50.2971 218.899 50.1544C218.067 50.0118 217.21 50.9844 216.378 50.9844C215.547 50.9844 214.663 50.0507 213.858 50.1544C213.052 50.2582 212.415 51.4513 211.623 51.594C210.83 51.7366 209.739 51.1401 209.024 51.4513C208.309 51.7626 207.972 53.0205 207.257 53.4226C206.542 53.8246 205.308 53.4226 204.658 53.9802C204.009 54.5379 204.048 55.757 203.463 56.3406C202.878 56.9242 201.592 56.8853 201.098 57.5337C200.604 58.1822 200.955 59.4142 200.539 60.1275C200.124 60.8408 198.889 61.139 198.564 61.9042C198.239 62.6694 198.928 63.7458 198.707 64.498C198.486 65.2502 197.408 65.8857 197.265 66.7157C197.122 67.5457 198.097 68.4016 198.097 69.2316C198.097 70.0616 197.161 70.9435 197.265 71.7476C197.369 72.5516 198.499 73.1871 198.707 73.9782C198.915 74.7693 198.252 75.8587 198.564 76.572C198.876 77.2853 200.137 77.6225 200.539 78.3358C200.942 79.0491 200.539 80.2811 201.098 80.9295C201.657 81.578 202.878 81.5391 203.463 82.1227C204.048 82.7063 204.009 83.9902 204.658 84.483C205.308 84.9758 206.542 84.6256 207.257 85.0406C207.972 85.4557 208.27 86.6877 209.037 87.0119C209.804 87.3362 210.882 86.6488 211.636 86.8693C212.389 87.0897 213.026 88.1662 213.858 88.3088C214.689 88.4515 215.547 87.4788 216.378 87.4788C217.21 87.4788 218.093 88.4126 218.899 88.3088C219.705 88.2051 220.341 87.0768 221.134 86.8693C221.927 86.6618 223.018 87.3232 223.733 87.0119C224.447 86.7007 224.785 85.4427 225.5 85.0406C226.214 84.6386 227.449 85.0407 228.098 84.483C228.748 83.9253 228.709 82.7063 229.294 82.1227C229.879 81.5391 231.165 81.578 231.659 80.9295C232.152 80.2811 231.802 79.0491 232.217 78.3358C232.633 77.6225 233.868 77.3242 234.192 76.559C234.517 75.7939 233.829 74.7175 234.049 73.9653C234.27 73.2131 235.349 72.5776 235.492 71.7476C235.635 70.9176 234.66 70.0876 234.66 69.2576V69.2446ZM268.235 102.743C268.235 101.913 269.158 101.031 269.054 100.227C268.95 99.4231 267.819 98.7876 267.611 98.0095C267.404 97.2314 268.066 96.1161 267.754 95.4157C267.443 94.7154 266.182 94.3523 265.779 93.639C265.377 92.9257 265.779 91.7066 265.221 91.0452C264.662 90.3838 263.441 90.4227 262.856 89.8391C262.271 89.2555 262.31 87.9846 261.66 87.4788C261.011 86.973 259.776 87.3491 259.062 86.9341C258.347 86.5191 258.048 85.2741 257.295 84.9628C256.541 84.6516 255.437 85.313 254.696 85.1055C253.955 84.898 253.293 83.8086 252.474 83.653C251.656 83.4974 250.772 84.483 249.94 84.483C249.109 84.483 248.225 83.5493 247.42 83.653C246.614 83.7568 245.977 84.9499 245.198 85.1055C244.418 85.2611 243.301 84.6516 242.599 84.9628C241.897 85.2741 241.534 86.5191 240.819 86.9341C240.104 87.3491 238.883 86.9341 238.22 87.4788C237.558 88.0235 237.597 89.2685 237.012 89.8391C236.427 90.4098 235.154 90.3968 234.647 91.0452C234.14 91.6937 234.504 92.9257 234.101 93.639C233.699 94.3523 232.438 94.6376 232.126 95.4028C231.815 96.168 232.477 97.2444 232.269 97.9966C232.061 98.7488 230.97 99.3972 230.814 100.214C230.658 101.031 231.646 101.9 231.646 102.73C231.646 103.56 230.71 104.455 230.814 105.324C230.918 106.193 232.048 106.751 232.269 107.542C232.49 108.333 231.815 109.435 232.126 110.135C232.438 110.836 233.686 111.199 234.101 111.899C234.517 112.6 234.101 113.845 234.647 114.493C235.193 115.141 236.44 115.115 237.012 115.686C237.584 116.257 237.571 117.554 238.22 118.059C238.87 118.565 240.104 118.189 240.819 118.604C241.534 119.019 241.819 120.264 242.586 120.575C243.353 120.887 244.431 120.225 245.185 120.433C245.938 120.64 246.588 121.73 247.407 121.872C248.225 122.015 249.096 121.055 249.927 121.055C250.759 121.055 251.656 121.976 252.461 121.872C253.267 121.768 253.89 120.64 254.683 120.433C255.476 120.225 256.58 120.887 257.282 120.575C257.983 120.264 258.347 119.006 259.049 118.604C259.75 118.202 260.998 118.604 261.647 118.046C262.297 117.489 262.271 116.27 262.843 115.686C263.415 115.102 264.714 115.141 265.221 114.493C265.727 113.845 265.351 112.612 265.766 111.899C266.182 111.186 267.43 110.888 267.741 110.135C268.053 109.383 267.391 108.281 267.598 107.542C267.806 106.802 268.898 106.141 269.041 105.324C269.184 104.507 268.235 103.599 268.235 102.756V102.743Z" fill="#53B175"/>
<path opacity="0.53" d="M209.531 178.961C209.44 179.61 208.543 180.089 208.374 180.712C208.205 181.334 208.738 182.216 208.491 182.813C208.244 183.409 207.257 183.656 206.932 184.214C206.607 184.771 206.932 185.757 206.49 186.276C206.049 186.794 205.074 186.768 204.606 187.222C204.139 187.676 204.177 188.701 203.658 189.103C203.138 189.505 202.163 189.207 201.605 189.531C201.046 189.855 200.799 190.828 200.188 191.1C199.578 191.372 198.72 190.815 198.097 190.983C197.473 191.152 196.979 192.047 196.329 192.138C195.68 192.228 195.03 191.476 194.328 191.476C193.627 191.476 192.964 192.215 192.314 192.138C191.665 192.06 191.184 191.152 190.56 190.983C189.937 190.815 189.053 191.346 188.455 191.1C187.858 190.854 187.611 189.868 187.052 189.544C186.493 189.22 185.506 189.544 184.986 189.103C184.466 188.662 184.492 187.689 184.038 187.222C183.583 186.755 182.556 186.794 182.154 186.276C181.751 185.757 182.05 184.784 181.725 184.227C181.4 183.669 180.425 183.422 180.153 182.813C179.88 182.203 180.438 181.347 180.27 180.725C180.101 180.102 179.204 179.61 179.113 178.961C179.022 178.313 179.776 177.664 179.776 176.964C179.776 176.264 179.035 175.602 179.113 174.967C179.191 174.331 180.101 173.825 180.27 173.203C180.438 172.58 179.906 171.699 180.153 171.102C180.399 170.505 181.452 170.259 181.725 169.701C181.998 169.144 181.725 168.158 182.154 167.639C182.582 167.121 183.57 167.147 184.038 166.693C184.505 166.239 184.466 165.214 184.986 164.812C185.506 164.41 186.48 164.708 187.052 164.384C187.624 164.06 187.845 163.087 188.455 162.815C189.066 162.543 189.924 163.1 190.56 162.932C191.197 162.763 191.665 161.868 192.314 161.777C192.964 161.687 193.614 162.439 194.328 162.439C195.043 162.439 195.628 161.7 196.329 161.777C197.031 161.855 197.46 162.763 198.084 162.932C198.707 163.1 199.591 162.568 200.188 162.815C200.786 163.061 201.033 164.112 201.592 164.384C202.151 164.657 203.138 164.384 203.658 164.812C204.177 165.24 204.152 166.226 204.606 166.693C205.061 167.16 206.088 167.121 206.49 167.639C206.893 168.158 206.594 169.131 206.919 169.701C207.244 170.272 208.218 170.492 208.491 171.102C208.764 171.712 208.205 172.567 208.374 173.203C208.543 173.838 209.44 174.305 209.531 174.954C209.622 175.602 208.868 176.251 208.868 176.964C208.868 177.677 209.674 178.313 209.531 178.961ZM230.32 135.71C230.32 134.88 231.243 133.998 231.139 133.194C231.035 132.39 229.84 131.755 229.697 130.976C229.554 130.198 230.151 129.083 229.84 128.383C229.528 127.682 228.267 127.319 227.865 126.606C227.462 125.893 227.865 124.674 227.306 124.012C226.747 123.351 225.526 123.39 224.941 122.806C224.356 122.222 224.395 120.951 223.746 120.446C223.096 119.94 221.862 120.316 221.147 119.901C220.432 119.486 220.133 118.241 219.38 117.93C218.626 117.618 217.522 118.28 216.781 118.072C216.041 117.865 215.378 116.775 214.546 116.62C213.715 116.464 212.857 117.45 212.026 117.45C211.194 117.45 210.31 116.516 209.505 116.62C208.699 116.724 208.063 117.917 207.283 118.072C206.503 118.228 205.386 117.618 204.684 117.93C203.983 118.241 203.619 119.486 202.904 119.901C202.19 120.316 200.968 119.901 200.305 120.446C199.643 120.99 199.695 122.235 199.11 122.806C198.525 123.377 197.252 123.364 196.745 124.012C196.238 124.661 196.602 125.893 196.2 126.606C195.797 127.319 194.536 127.604 194.225 128.37C193.913 129.135 194.575 130.211 194.354 130.963C194.134 131.716 193.055 132.364 192.912 133.181C192.769 133.998 193.744 134.867 193.744 135.697C193.744 136.527 192.808 137.422 192.912 138.226C193.016 139.03 194.212 139.653 194.367 140.444C194.523 141.235 193.9 142.337 194.225 143.037C194.549 143.738 195.784 144.101 196.2 144.801C196.615 145.501 196.2 146.747 196.745 147.395C197.291 148.043 198.538 148.017 199.11 148.588C199.682 149.159 199.656 150.456 200.318 150.961C200.981 151.467 202.202 151.091 202.917 151.506C203.632 151.921 203.931 153.166 204.697 153.477C205.464 153.789 206.542 153.127 207.296 153.335C208.05 153.542 208.699 154.632 209.518 154.774C210.336 154.917 211.207 153.957 212.039 153.957C212.87 153.957 213.754 154.878 214.559 154.774C215.365 154.67 216.002 153.542 216.794 153.335C217.587 153.127 218.691 153.789 219.393 153.477C220.094 153.166 220.458 151.908 221.16 151.506C221.862 151.104 223.109 151.506 223.759 150.948C224.408 150.391 224.382 149.172 224.954 148.588C225.526 148.004 226.825 148.043 227.319 147.395C227.813 146.747 227.462 145.514 227.878 144.801C228.293 144.088 229.541 143.79 229.853 143.037C230.164 142.285 229.489 141.183 229.71 140.444C229.931 139.704 231.009 139.043 231.152 138.226C231.295 137.409 230.268 136.605 230.268 135.71H230.32ZM232.49 209.23C232.49 208.4 233.413 207.519 233.309 206.714C233.205 205.91 232.074 205.275 231.866 204.484C231.659 203.693 232.321 202.603 232.009 201.89C231.698 201.177 230.437 200.84 230.034 200.126C229.632 199.413 230.034 198.181 229.476 197.533C228.917 196.884 227.696 196.923 227.111 196.339C226.526 195.756 226.565 194.472 225.916 193.979C225.266 193.486 224.031 193.836 223.317 193.421C222.602 193.006 222.303 191.774 221.55 191.45C220.796 191.126 219.692 191.813 218.951 191.593C218.21 191.372 217.548 190.296 216.716 190.153C215.885 190.011 215.027 190.983 214.195 190.983C213.364 190.983 212.48 190.05 211.675 190.153C210.869 190.257 210.232 191.385 209.453 191.593C208.673 191.8 207.556 191.139 206.854 191.45C206.152 191.761 205.789 193.019 205.074 193.421C204.359 193.823 203.138 193.421 202.475 193.979C201.813 194.537 201.852 195.756 201.267 196.339C200.682 196.923 199.409 196.884 198.902 197.533C198.395 198.181 198.759 199.413 198.356 200.126C197.954 200.84 196.693 201.138 196.381 201.903C196.07 202.668 196.732 203.745 196.524 204.497C196.316 205.249 195.225 205.884 195.069 206.714C194.913 207.545 195.901 208.4 195.901 209.23C195.901 210.06 194.965 210.942 195.069 211.746C195.173 212.55 196.303 213.186 196.524 213.977C196.745 214.768 196.07 215.858 196.381 216.571C196.693 217.284 197.941 217.621 198.356 218.335C198.772 219.048 198.356 220.28 198.902 220.928C199.448 221.577 200.695 221.538 201.267 222.122C201.839 222.705 201.826 223.989 202.475 224.482C203.125 224.975 204.359 224.624 205.074 225.04C205.789 225.455 206.075 226.687 206.841 227.011C207.608 227.335 208.686 226.648 209.44 226.868C210.193 227.089 210.843 228.165 211.662 228.308C212.48 228.45 213.351 227.478 214.182 227.478C215.014 227.478 215.911 228.411 216.716 228.308C217.522 228.204 218.145 227.011 218.938 226.868C219.731 226.725 220.835 227.322 221.537 227.011C222.238 226.7 222.602 225.442 223.304 225.04C224.005 224.637 225.253 225.04 225.903 224.482C226.552 223.924 226.526 222.705 227.098 222.122C227.67 221.538 228.969 221.577 229.476 220.928C229.982 220.28 229.606 219.048 230.021 218.335C230.437 217.621 231.685 217.323 231.996 216.558C232.308 215.793 231.646 214.716 231.854 213.964C232.061 213.212 233.153 212.576 233.296 211.746C233.439 210.916 232.49 210.112 232.49 209.23ZM194.588 219.683C194.588 219.126 195.537 218.529 195.459 217.997C195.381 217.466 194.315 217.116 194.16 216.597C194.004 216.078 194.783 215.235 194.575 214.729C194.367 214.223 193.276 214.185 192.977 213.718C192.678 213.251 193.211 212.239 192.886 211.811C192.561 211.383 191.457 211.63 191.067 211.241C190.677 210.852 190.924 209.762 190.495 209.438C190.067 209.114 189.066 209.62 188.598 209.347C188.131 209.075 188.079 207.959 187.572 207.752C187.065 207.544 186.273 208.297 185.714 208.154C185.155 208.011 184.856 206.948 184.311 206.857C183.765 206.766 183.167 207.739 182.621 207.739C182.076 207.739 181.465 206.792 180.932 206.857C180.399 206.922 180.049 208.011 179.529 208.154C179.009 208.297 178.165 207.544 177.671 207.752C177.177 207.959 177.112 209.049 176.644 209.347C176.177 209.645 175.176 209.114 174.747 209.438C174.319 209.762 174.552 210.865 174.176 211.254C173.799 211.643 172.681 211.396 172.357 211.824C172.032 212.252 172.538 213.251 172.266 213.718C171.993 214.185 170.875 214.236 170.667 214.742C170.46 215.248 171.213 216.039 171.083 216.597C170.953 217.154 169.862 217.453 169.784 217.997C169.706 218.542 170.654 219.126 170.654 219.683C170.654 220.241 169.706 220.838 169.784 221.369C169.862 221.901 170.927 222.251 171.083 222.77C171.239 223.289 170.46 224.067 170.667 224.624C170.875 225.182 171.967 225.182 172.279 225.649C172.59 226.116 172.032 227.115 172.357 227.542C172.681 227.97 173.786 227.737 174.176 228.113C174.565 228.489 174.319 229.592 174.747 229.929C175.176 230.266 176.177 229.734 176.644 230.007C177.112 230.279 177.164 231.407 177.671 231.615C178.178 231.822 178.97 231.057 179.529 231.2C180.088 231.342 180.387 232.419 180.932 232.497C181.478 232.574 182.076 231.615 182.621 231.615C183.167 231.615 183.778 232.561 184.311 232.497C184.843 232.432 185.194 231.355 185.714 231.2C186.234 231.044 187.078 231.822 187.572 231.615C188.066 231.407 188.131 230.318 188.598 230.007C189.066 229.695 190.067 230.253 190.495 229.929C190.924 229.605 190.69 228.489 191.067 228.113C191.444 227.737 192.561 227.97 192.886 227.542C193.211 227.115 192.704 226.116 192.977 225.649C193.25 225.182 194.367 225.13 194.575 224.624C194.783 224.119 194.03 223.328 194.173 222.77C194.315 222.212 195.381 221.914 195.472 221.369C195.563 220.825 194.588 220.28 194.588 219.735V219.683ZM234.66 69.2446C234.66 68.4146 235.596 67.5327 235.492 66.7286C235.388 65.9246 234.257 65.2891 234.049 64.498C233.842 63.7069 234.504 62.6175 234.192 61.9042C233.88 61.1909 232.62 60.8408 232.217 60.1275C231.815 59.4142 232.217 58.1822 231.659 57.5337C231.1 56.8853 229.879 56.9242 229.294 56.3406C228.709 55.757 228.748 54.4731 228.098 53.9802C227.449 53.4874 226.214 53.8376 225.5 53.4226C224.785 53.0076 224.486 51.7755 223.72 51.4513C222.953 51.1271 221.875 51.8144 221.121 51.594C220.367 51.3735 219.731 50.2971 218.899 50.1544C218.067 50.0118 217.21 50.9844 216.378 50.9844C215.547 50.9844 214.663 50.0507 213.858 50.1544C213.052 50.2582 212.415 51.4513 211.623 51.594C210.83 51.7366 209.739 51.1401 209.024 51.4513C208.309 51.7626 207.972 53.0205 207.257 53.4226C206.542 53.8246 205.308 53.4226 204.658 53.9802C204.009 54.5379 204.048 55.757 203.463 56.3406C202.878 56.9242 201.592 56.8853 201.098 57.5337C200.604 58.1822 200.955 59.4142 200.539 60.1275C200.124 60.8408 198.889 61.139 198.564 61.9042C198.239 62.6694 198.928 63.7458 198.707 64.498C198.486 65.2502 197.408 65.8857 197.265 66.7157C197.122 67.5457 198.097 68.4016 198.097 69.2316C198.097 70.0616 197.161 70.9435 197.265 71.7476C197.369 72.5516 198.499 73.1871 198.707 73.9782C198.915 74.7693 198.252 75.8587 198.564 76.572C198.876 77.2853 200.137 77.6225 200.539 78.3358C200.942 79.0491 200.539 80.2811 201.098 80.9295C201.657 81.578 202.878 81.5391 203.463 82.1227C204.048 82.7063 204.009 83.9902 204.658 84.483C205.308 84.9758 206.542 84.6256 207.257 85.0406C207.972 85.4557 208.27 86.6877 209.037 87.0119C209.804 87.3362 210.882 86.6488 211.636 86.8693C212.389 87.0897 213.026 88.1662 213.858 88.3088C214.689 88.4515 215.547 87.4788 216.378 87.4788C217.21 87.4788 218.093 88.4126 218.899 88.3088C219.705 88.2051 220.341 87.0768 221.134 86.8693C221.927 86.6618 223.018 87.3232 223.733 87.0119C224.447 86.7007 224.785 85.4427 225.5 85.0406C226.214 84.6386 227.449 85.0407 228.098 84.483C228.748 83.9253 228.709 82.7063 229.294 82.1227C229.879 81.5391 231.165 81.578 231.659 80.9295C232.152 80.2811 231.802 79.0491 232.217 78.3358C232.633 77.6225 233.868 77.3242 234.192 76.559C234.517 75.7939 233.829 74.7175 234.049 73.9653C234.27 73.2131 235.349 72.5776 235.492 71.7476C235.635 70.9176 234.66 70.0876 234.66 69.2576V69.2446ZM268.235 102.743C268.235 101.913 269.158 101.031 269.054 100.227C268.95 99.4231 267.819 98.7876 267.611 98.0095C267.404 97.2314 268.066 96.1161 267.754 95.4157C267.443 94.7154 266.182 94.3523 265.779 93.639C265.377 92.9257 265.779 91.7066 265.221 91.0452C264.662 90.3838 263.441 90.4227 262.856 89.8391C262.271 89.2555 262.31 87.9846 261.66 87.4788C261.011 86.973 259.776 87.3491 259.062 86.9341C258.347 86.5191 258.048 85.2741 257.295 84.9628C256.541 84.6516 255.437 85.313 254.696 85.1055C253.955 84.898 253.293 83.8086 252.474 83.653C251.656 83.4974 250.772 84.483 249.94 84.483C249.109 84.483 248.225 83.5493 247.42 83.653C246.614 83.7568 245.977 84.9499 245.198 85.1055C244.418 85.2611 243.301 84.6516 242.599 84.9628C241.897 85.2741 241.534 86.5191 240.819 86.9341C240.104 87.3491 238.883 86.9341 238.22 87.4788C237.558 88.0235 237.597 89.2685 237.012 89.8391C236.427 90.4098 235.154 90.3968 234.647 91.0452C234.14 91.6937 234.504 92.9257 234.101 93.639C233.699 94.3523 232.438 94.6376 232.126 95.4028C231.815 96.168 232.477 97.2444 232.269 97.9966C232.061 98.7488 230.97 99.3972 230.814 100.214C230.658 101.031 231.646 101.9 231.646 102.73C231.646 103.56 230.71 104.455 230.814 105.324C230.918 106.193 232.048 106.751 232.269 107.542C232.49 108.333 231.815 109.435 232.126 110.135C232.438 110.836 233.686 111.199 234.101 111.899C234.517 112.6 234.101 113.845 234.647 114.493C235.193 115.141 236.44 115.115 237.012 115.686C237.584 116.257 237.571 117.554 238.22 118.059C238.87 118.565 240.104 118.189 240.819 118.604C241.534 119.019 241.819 120.264 242.586 120.575C243.353 120.887 244.431 120.225 245.185 120.433C245.938 120.64 246.588 121.73 247.407 121.872C248.225 122.015 249.096 121.055 249.927 121.055C250.759 121.055 251.656 121.976 252.461 121.872C253.267 121.768 253.89 120.64 254.683 120.433C255.476 120.225 256.58 120.887 257.282 120.575C257.983 120.264 258.347 119.006 259.049 118.604C259.75 118.202 260.998 118.604 261.647 118.046C262.297 117.489 262.271 116.27 262.843 115.686C263.415 115.102 264.714 115.141 265.221 114.493C265.727 113.845 265.351 112.612 265.766 111.899C266.182 111.186 267.43 110.888 267.741 110.135C268.053 109.383 267.391 108.281 267.598 107.542C267.806 106.802 268.898 106.141 269.041 105.324C269.184 104.507 268.235 103.599 268.235 102.756V102.743Z" fill="white"/>
<path d="M176.269 247.177L178.088 246.879L181.076 246.386L179.075 241.198L182.272 243.585V239.201L187.066 240.796L190.678 235.998L192.277 239.201L195.07 232.808L196.668 239.201L201.073 235.609V241.99L207.076 238.799L207.466 241.99L211.468 236.4L212.676 241.588L216.275 237.995L215.873 242.392L221.876 239.603L219.069 244.389L224.266 243.987L221.876 247.579H234.271L225.865 248.785L241.067 251.172L185.871 252.365L193.472 248.785L167.069 249.174L176.269 247.177Z" fill="#245957"/>
<path opacity="0.7" d="M176.269 247.177L178.088 246.879L181.076 246.386L179.075 241.198L182.272 243.585V239.201L187.066 240.796L190.678 235.998L192.277 239.201L195.07 232.808L196.668 239.201L201.073 235.609V241.99L207.076 238.799L207.466 241.99L211.468 236.4L212.676 241.588L216.275 237.995L215.873 242.392L221.876 239.603L219.069 244.389L224.266 243.987L221.876 247.579H234.271L225.865 248.785L241.067 251.172L185.871 252.365L193.472 248.785L167.069 249.174L176.269 247.177Z" fill="white"/>
</svg>
