<svg width="200" height="200" viewBox="0 0 200 200" fill="none" xmlns="http://www.w3.org/2000/svg">
<circle cx="100" cy="100" r="97.5" fill="white" stroke="#245957" stroke-width="5"/>
<path d="M122.917 64.5833H123.75C131.213 64.5833 134.946 64.5833 137.267 66.9C139.584 69.2208 139.584 72.9542 139.584 80.4167V81.25M122.917 135.417H123.75C131.213 135.417 134.946 135.417 137.267 133.1C139.584 130.779 139.584 127.046 139.584 119.583V118.75M77.0837 64.5833H76.2503C68.7878 64.5833 65.0545 64.5833 62.7378 66.9C60.417 69.225 60.417 72.9583 60.417 80.4167V81.25M77.0837 135.417H76.2503C68.7878 135.417 65.0545 135.417 62.7378 133.1C60.417 130.779 60.417 127.042 60.417 119.583V118.75M80.0628 115.771C82.0337 112.925 84.8962 110.521 88.4045 108.833C92.0287 107.118 95.9907 106.235 100 106.25C104.088 106.25 108.088 107.15 111.596 108.833C115.104 110.521 117.971 112.925 119.938 115.771" stroke="#245957" stroke-width="3" stroke-linecap="round"/>
<path d="M100.001 97.9167C105.754 97.9167 110.417 93.253 110.417 87.5C110.417 81.747 105.754 77.0833 100.001 77.0833C94.2477 77.0833 89.584 81.747 89.584 87.5C89.584 93.253 94.2477 97.9167 100.001 97.9167Z" stroke="#245957" stroke-width="3" stroke-linecap="round"/>
</svg>
